<svg width="201" height="178" viewBox="0 0 201 178" fill="none" xmlns="http://www.w3.org/2000/svg">
<path d="M100.105 178C149.258 178 189.105 138.153 189.105 89C189.105 39.8467 149.258 0 100.105 0C50.9516 0 11.105 39.8467 11.105 89C11.105 138.153 50.9516 178 100.105 178Z" fill="#E2CCFD"/>
<g style="mix-blend-mode:multiply">
<path d="M140.83 49.7293L134.089 52.7722L119.897 45.6929C119.897 45.6929 89.6726 58.0828 73.6445 66.27C56.0098 75.2771 21.5251 94.7647 21.5251 94.7647L17.2386 117.17L3.54248 124.404V125.25L63.7129 155.281L65.7488 154.262L82.8061 157.327L130.846 135.033C135.658 132.802 140.396 130.419 145.061 127.883L182.599 106.615L181.033 104.27L183.384 96.844L194.356 89.2069V88.3612L140.83 49.7293Z" fill="#B3B3B3"/>
</g>
<path d="M181.163 72.3447L142.969 91.3968L119.897 79.8895L21.5251 125.39L82.7913 153.416L130.831 131.125C135.644 128.892 140.382 126.509 145.046 123.976L181.163 104.348L192.06 80.713V79.8709L181.163 72.3447Z" fill="#F3C456"/>
<path d="M71.1089 140.816L82.7913 153.416L58.2012 143.685L71.1089 140.816Z" fill="#DEA24E"/>
<path d="M82.7913 153.416L85.8452 131.414L71.1089 140.816L82.7913 153.416Z" fill="#EDB654"/>
<path d="M181.163 104.348L177.324 85.9348L192.064 80.7314L181.163 104.348Z" fill="#EDB654"/>
<path d="M131.89 50.7004L192.064 80.7315L201 76.6988V75.8531L140.83 46.6641L131.89 49.8585V50.7004Z" fill="#BF8B43"/>
<path d="M131.89 49.8585L192.064 79.8896L201 75.8532L140.83 45.8221L131.89 49.8585Z" fill="#FFE092"/>
<path d="M71.1089 139.97V140.816L85.8452 131.414L177.324 85.9349L192.064 80.7315V79.8895L181.163 72.3448L88.8842 105.711L71.1089 139.97Z" fill="#BF8B43"/>
<path d="M0 116.258L60.1704 146.289L71.1088 140.816V139.97L10.9384 110.785L0 115.412V116.258Z" fill="#BF8B43"/>
<path d="M0 115.412L60.1704 145.447L71.1088 139.97L10.9384 109.939L0 115.412Z" fill="#FFE092"/>
<path d="M21.5251 90.8465L82.7913 121.409L113.026 104.219C124.482 97.7072 136.28 91.8158 148.37 86.57L181.163 72.3374L119.897 41.7856C119.897 41.7856 89.6726 54.1718 73.6445 62.359C56.0098 71.3661 21.5251 90.8465 21.5251 90.8465Z" fill="#FFCF5A"/>
<path d="M10.9385 109.939L21.5252 90.8539L82.7914 121.417L71.1089 139.97L10.9385 109.939Z" fill="#F3B63D"/>
<path d="M44.7234 133.862L49.8687 130.723C50.6656 130.234 51.3203 129.545 51.7676 128.725L61.118 111.446C61.3539 111.012 61.7015 110.649 62.1249 110.393L69.8354 105.711L75.8321 108.458L67.8847 113.503C67.498 113.747 67.1786 114.083 66.9555 114.481L57.2683 131.631C56.8534 132.365 56.2698 132.99 55.5655 133.456L50.609 136.709L44.7234 133.862Z" fill="#5B3D8B"/>
<path d="M103.117 92.5304L66.219 74.0399C65.3232 73.5931 65.3232 72.8691 66.219 72.4223L117.672 46.7527C118.185 46.5316 118.738 46.4175 119.297 46.4175C119.856 46.4175 120.409 46.5316 120.922 46.7527L157.82 65.2396C158.716 65.6865 158.716 66.4138 157.82 66.8607L106.367 92.5304C105.854 92.7516 105.301 92.8657 104.742 92.8657C104.183 92.8657 103.63 92.7516 103.117 92.5304Z" fill="#4C1183"/>
<path d="M155.259 66.8607L106.367 91.2341C105.854 91.4552 105.301 91.5693 104.742 91.5693C104.183 91.5693 103.63 91.4552 103.117 91.2341L68.7842 74.0251C67.8884 73.5783 67.8884 72.8543 68.7842 72.4075L117.676 48.034C118.188 47.8114 118.741 47.6967 119.301 47.6967C119.86 47.6967 120.413 47.8114 120.926 48.034L155.259 65.2396C156.158 65.6864 156.158 66.4138 155.259 66.8607Z" fill="white"/>
<path d="M116.236 52.9568L74.196 73.9291L73.0374 73.3493L115.077 52.3807L116.236 52.9568Z" fill="#2C323D"/>
<path d="M118.975 54.3232L76.9352 75.2954L75.7766 74.7156L117.816 53.7471L118.975 54.3232Z" fill="#2C323D"/>
<path d="M121.714 55.6933L79.6745 76.6619L78.5159 76.0821L120.556 55.1135L121.714 55.6933Z" fill="#2C323D"/>
<path d="M124.453 57.0561L82.4137 78.0283L81.2551 77.4485L123.295 56.48L124.453 57.0561Z" fill="#2C323D"/>
<path d="M127.193 58.4261L85.153 79.3947L83.9944 78.8149L126.034 57.8463L127.193 58.4261Z" fill="#2C323D"/>
<path d="M144.794 61.9529L118.294 75.1737L117.135 74.5939L143.635 61.3768L144.794 61.9529Z" fill="#2C323D"/>
<path d="M147.533 63.323L121.037 76.54L119.878 75.9602L146.375 62.7432L147.533 63.323Z" fill="#2C323D"/>
<path d="M150.272 64.6894L123.776 77.9065L122.617 77.3267L149.114 64.1096L150.272 64.6894Z" fill="#2C323D"/>
<path d="M136.909 58.4261L89.0396 82.3047L89.6614 82.6149L137.531 58.7364L136.909 58.4261Z" fill="#9B88B8"/>
<path d="M41.255 83.7007L40.3518 83.5346C40.2075 83.5051 40.0668 83.5751 40.1186 83.649L40.4407 84.107L39.5375 83.9407C39.3931 83.9112 39.2524 83.9814 39.3043 84.0552L39.6263 84.5132L38.7231 84.347C38.575 84.3174 38.4381 84.3876 38.4862 84.4615L38.8119 84.9195L37.9087 84.7532C37.7607 84.7274 37.62 84.7939 37.6718 84.8677L37.9939 85.3256L37.0907 85.1595C36.9463 85.1336 36.8056 85.2001 36.8575 85.274L37.1795 85.7318L36.2763 85.5658C36.1319 85.5399 35.9913 85.6062 36.0431 85.6801L36.3651 86.1381L35.4619 85.9718C35.3176 85.946 35.1769 86.0125 35.2287 86.0863L35.5508 86.5444L34.6476 86.3781C34.5032 86.3522 34.3625 86.4187 34.4144 86.4926L34.7364 86.9506L33.8332 86.7844C33.6889 86.7585 33.5482 86.825 33.6 86.8989L33.9221 87.3567L33.0188 87.1906C32.8745 87.1648 32.7338 87.235 32.7856 87.3051L33.1077 87.763L32.2045 87.5969C32.0601 87.571 31.9194 87.641 31.9713 87.7112L32.2933 88.1692L31.3901 88.003C31.2457 87.9771 31.1051 88.0473 31.1532 88.1175L31.4789 88.5755L30.5757 88.4092C30.4277 88.3834 30.2907 88.4536 30.3389 88.5237L30.6646 88.9817L29.7614 88.8155C29.6133 88.7896 29.4727 88.8598 29.5245 88.93L29.8465 89.3878L28.9433 89.2217C28.799 89.1959 28.6583 89.2661 28.7101 89.3362L29.0322 89.7941L28.1289 89.628C27.9846 89.6021 27.8439 89.6723 27.8957 89.7461L28.2178 90.2039L50.6572 101.394L51.5604 101.56C51.7048 101.589 51.8455 101.519 51.7936 101.445L51.4716 100.987L52.3748 101.154C52.5192 101.18 52.6598 101.113 52.608 101.039L52.286 100.581L53.1892 100.747C53.3335 100.773 53.4742 100.707 53.4224 100.633L53.1003 100.175L54.0035 100.341C54.1479 100.367 54.2886 100.301 54.2368 100.227L53.9147 99.7688L54.8179 99.9349C54.9623 99.9607 55.1029 99.8942 55.0511 99.8204L54.7291 99.3626L55.6323 99.5286C55.7766 99.5545 55.9173 99.4882 55.8655 99.4143L55.5434 98.9563L56.4466 99.1226C56.5947 99.1484 56.7317 99.0819 56.6835 99.008L56.3578 98.55L57.261 98.7163C57.4091 98.7421 57.5497 98.6756 57.4979 98.6018L57.1759 98.1438L58.0791 98.31C58.2234 98.3359 58.3641 98.2657 58.3123 98.1955L57.9902 97.7377L58.8934 97.9038C59.0378 97.9296 59.1785 97.8594 59.1266 97.7893L58.8046 97.3314L59.7078 97.4975C59.8522 97.5234 59.9928 97.4534 59.941 97.3832L59.619 96.9252L60.5222 97.0914C60.6665 97.1173 60.8072 97.0471 60.7554 96.9769L60.4333 96.5189L61.3365 96.6852C61.4809 96.711 61.6216 96.6408 61.5697 96.5707L61.2477 96.1127L62.1509 96.2789C62.2953 96.3048 62.4359 96.2347 62.3841 96.1608L62.062 95.7066L62.9652 95.8727C63.1096 95.8985 63.2503 95.8284 63.1985 95.7545L62.8764 95.2965L63.7796 95.4664C63.924 95.4922 64.0646 95.4221 64.0165 95.3483L63.6908 94.8904L41.255 83.7007Z" fill="white"/>
<path d="M45.6748 92.3903C43.0837 93.6754 43.0837 95.7619 45.6748 97.047C48.266 98.3322 52.434 98.3322 55.0104 97.047C57.5867 95.7619 57.6015 93.6754 55.0104 92.3903C52.4192 91.1051 48.2512 91.1051 45.6748 92.3903ZM54.5588 96.8218C52.2267 97.9814 48.4511 97.9814 46.119 96.8218C43.787 95.6622 43.787 93.7713 46.119 92.6117C48.4511 91.4521 52.2267 91.4484 54.5588 92.6117C56.8908 93.775 56.8908 95.6473 54.5625 96.8254L54.5588 96.8218Z" fill="#9B88B8"/>
<path d="M45.8193 95.411L45.3232 95.1635L51.2311 92.2166L51.7271 92.464L45.8193 95.411Z" fill="#9B88B8"/>
<path d="M47.0998 96.0499L46.6038 95.8024L52.5116 92.8555L53.0076 93.1029L47.0998 96.0499Z" fill="#9B88B8"/>
<path d="M48.3808 96.6887L47.8848 96.4376L53.7926 93.4943L54.2886 93.7417L48.3808 96.6887Z" fill="#9B88B8"/>
<path d="M49.6613 97.3276L49.1653 97.0802L55.0731 94.1332L55.5691 94.3806L49.6613 97.3276Z" fill="#9B88B8"/>
<path d="M35.5656 89.0406L35.0659 88.7932L42.0546 85.307L42.5507 85.5544L35.5656 89.0406Z" fill="#9B88B8"/>
<path d="M36.8464 89.6795L36.3467 89.4321L43.3317 85.9459L43.8314 86.1933L36.8464 89.6795Z" fill="#9B88B8"/>
<path d="M38.1272 90.3184L37.6274 90.071L44.6125 86.5848L45.1122 86.8323L38.1272 90.3184Z" fill="#9B88B8"/>
<path d="M39.4042 90.9573L38.9082 90.7099L45.8932 87.2238L46.393 87.4712L39.4042 90.9573Z" fill="#9B88B8"/>
</svg>
