<svg width="179" height="74" viewBox="0 0 179 74" fill="none" xmlns="http://www.w3.org/2000/svg">
<path d="M5.11645e-07 19.02C2.29071e-07 8.51553 8.52564 -2.29343e-07 19.0426 -5.12253e-07L159.957 -4.30292e-06C170.474 -4.58583e-06 179 8.51551 179 19.0199L179 54.98C179 65.4845 170.474 74 159.957 74L19.0426 74C8.52564 74 1.76156e-06 65.4845 1.47899e-06 54.9801L5.11645e-07 19.02Z" fill="#E2CCFD"/>
<path d="M13.7318 21.763C13.3834 22.1191 13.1818 22.6734 13.1818 23.3913V48.9986C13.1818 49.7165 13.3834 50.2709 13.7318 50.6269L13.8178 50.7051L28.5149 36.3614V36.0227L13.8178 21.6791L13.7318 21.763Z" fill="url(#paint0_linear_131_1811)"/>
<path d="M33.4085 41.145L28.5149 36.3614V36.0227L33.4145 31.2391L33.5242 31.3013L39.3265 34.5246C40.9825 35.4394 40.9825 36.9447 39.3265 37.8652L33.5242 41.0828L33.4085 41.145Z" fill="url(#paint1_linear_131_1811)"/>
<path d="M33.5242 41.0829L28.515 36.1922L13.7318 50.627C14.2818 51.1915 15.1787 51.2595 16.1986 50.6951L33.5242 41.0829Z" fill="url(#paint2_linear_131_1811)"/>
<path d="M33.5242 31.3012L16.1986 21.689C15.1787 21.1303 14.2818 21.1984 13.7318 21.7628L28.515 36.1919L33.5242 31.3012Z" fill="url(#paint3_linear_131_1811)"/>
<path d="M57.1221 24.4185C57.1221 25.4655 56.801 26.3041 56.1685 26.9295C55.4412 27.6709 54.494 28.044 53.3333 28.044C52.2239 28.044 51.2767 27.6647 50.4997 26.917C49.721 26.1583 49.3325 25.2273 49.3325 24.1128C49.3325 22.9984 49.721 22.0673 50.4997 21.3149C51.2767 20.561 52.2239 20.1816 53.3333 20.1816C53.8855 20.1816 54.4121 20.2929 54.9146 20.4998C55.4155 20.7083 55.8233 20.9904 56.1187 21.3384L55.4476 21.9999C54.9323 21.4058 54.2307 21.1127 53.3333 21.1127C52.5241 21.1127 51.8226 21.3886 51.2269 21.945C50.6377 22.503 50.3423 23.2256 50.3423 24.1128C50.3423 25 50.6377 25.7289 51.2269 26.2869C51.8226 26.837 52.5241 27.1192 53.3333 27.1192C54.1922 27.1192 54.9146 26.837 55.4845 26.2806C55.8602 25.9122 56.0737 25.4044 56.1299 24.7555H53.3333V23.8495H57.0643C57.1092 24.0454 57.1221 24.2351 57.1221 24.4185Z" fill="#4C248E"/>
<path d="M63.0414 21.2772H59.5367V23.6598H62.6962V24.5657H59.5367V26.9483H63.0414V27.8715H58.5446V20.354H63.0414V21.2772Z" fill="#4C248E"/>
<path d="M67.2187 27.8715H66.2266V21.2772H64.0769V20.354H69.37V21.2772H67.2187V27.8715Z" fill="#4C248E"/>
<path d="M73.2006 27.8715V20.354H74.1911V27.8715H73.2006Z" fill="#4C248E"/>
<path d="M78.582 27.8715H77.5979V21.2772H75.4402V20.354H80.7397V21.2772H78.582V27.8715Z" fill="#4C248E"/>
<path d="M90.7608 26.9044C90.0014 27.6647 89.0606 28.044 87.9384 28.044C86.8098 28.044 85.869 27.6647 85.1097 26.9044C84.3519 26.1458 83.9746 25.2147 83.9746 24.1128C83.9746 23.0109 84.3519 22.0798 85.1097 21.3212C85.869 20.561 86.8098 20.1816 87.9384 20.1816C89.0542 20.1816 89.995 20.561 90.7544 21.3274C91.5186 22.0924 91.8958 23.0172 91.8958 24.1128C91.8958 25.2147 91.5186 26.1458 90.7608 26.9044ZM85.8433 26.2743C86.4149 26.837 87.11 27.1192 87.9384 27.1192C88.7604 27.1192 89.462 26.837 90.0271 26.2743C90.597 25.7116 90.886 24.989 90.886 24.1128C90.886 23.2366 90.597 22.514 90.0271 21.9513C89.462 21.3886 88.7604 21.1064 87.9384 21.1064C87.11 21.1064 86.4149 21.3886 85.8433 21.9513C85.2734 22.514 84.9844 23.2366 84.9844 24.1128C84.9844 24.989 85.2734 25.7116 85.8433 26.2743Z" fill="#4C248E"/>
<path d="M93.2877 27.8715V20.354H94.4918L98.2357 26.2006H98.279L98.2357 24.7554V20.354H99.2262V27.8715H98.1923L94.2718 21.7365H94.2285L94.2718 23.188V27.8715H93.2877Z" fill="#4C248E"/>
<path d="M83.8355 38.8029C80.8158 38.8029 78.3489 41.007 78.3489 44.0479C78.3489 47.0642 80.8158 49.2914 83.8355 49.2914C86.8617 49.2914 89.3286 47.0642 89.3286 44.0479C89.3286 41.007 86.8617 38.8029 83.8355 38.8029ZM83.8355 47.2261C82.1786 47.2261 80.7531 45.9144 80.7531 44.0479C80.7531 42.1568 82.1786 40.8683 83.8355 40.8683C85.4924 40.8683 86.9244 42.1568 86.9244 44.0479C86.9244 45.9144 85.4924 47.2261 83.8355 47.2261ZM71.8642 38.8029C68.838 38.8029 66.3776 41.007 66.3776 44.0479C66.3776 47.0642 68.838 49.2914 71.8642 49.2914C74.8888 49.2914 77.3509 47.0642 77.3509 44.0479C77.3509 41.007 74.8888 38.8029 71.8642 38.8029ZM71.8642 47.2261C70.2057 47.2261 68.7754 45.9144 68.7754 44.0479C68.7754 42.1568 70.2057 40.8683 71.8642 40.8683C73.5211 40.8683 74.9466 42.1568 74.9466 44.0479C74.9466 45.9144 73.5211 47.2261 71.8642 47.2261ZM57.6189 40.4105V42.6392H63.1682C63.0059 43.8846 62.572 44.8001 61.9066 45.4382C61.0966 46.2088 59.8351 47.0642 57.6189 47.0642C54.2038 47.0642 51.5296 44.4209 51.5296 41.1457C51.5296 37.8705 54.2038 35.2272 57.6189 35.2272C59.4654 35.2272 60.809 35.9192 61.8006 36.8162L63.4382 35.2457C62.0513 33.9756 60.2063 33 57.6189 33C52.9358 33 49 36.6544 49 41.1457C49 45.637 52.9358 49.2914 57.6189 49.2914C60.1501 49.2914 62.0513 48.4961 63.5459 47.0041C65.0774 45.5353 65.5547 43.4699 65.5547 41.8023C65.5547 41.2844 65.5097 40.8081 65.4294 40.4105H57.6189ZM115.87 42.1383C115.418 40.9654 114.025 38.8029 111.187 38.8029C108.374 38.8029 106.033 40.9284 106.033 44.0479C106.033 46.9856 108.35 49.2914 111.457 49.2914C113.969 49.2914 115.418 47.8225 116.014 46.9671L114.15 45.7757C113.528 46.6481 112.681 47.2261 111.457 47.2261C110.24 47.2261 109.368 46.6912 108.808 45.637L116.122 42.7348L115.87 42.1383ZM108.413 43.8846C108.35 41.8624 110.051 40.8266 111.269 40.8266C112.223 40.8266 113.033 41.2844 113.303 41.9395L108.413 43.8846ZM102.468 48.9723H104.872V33.5595H102.468V48.9723ZM98.5308 39.9712H98.4505C97.9105 39.3578 96.8804 38.8029 95.5754 38.8029C92.8369 38.8029 90.333 41.1087 90.333 44.0649C90.333 47.0041 92.8369 49.2914 95.5754 49.2914C96.8804 49.2914 97.9105 48.7319 98.4505 48.1H98.5308V48.8521C98.5308 50.8573 97.4139 51.9347 95.6123 51.9347C94.1435 51.9347 93.2322 50.9174 92.8562 50.062L90.7653 50.8989C91.368 52.2892 92.9638 54 95.6123 54C98.4312 54 100.81 52.4094 100.81 48.5392V39.122H98.5308V39.9712ZM95.7811 47.2261C94.1242 47.2261 92.7372 45.8959 92.7372 44.0649C92.7372 42.2169 94.1242 40.8683 95.7811 40.8683C97.4139 40.8683 98.7012 42.2169 98.7012 44.0649C98.7012 45.8959 97.4139 47.2261 95.7811 47.2261ZM127.126 33.5595H121.376V48.9723H123.774V43.1324H127.126C129.789 43.1324 132.4 41.2844 132.4 38.3452C132.4 35.4075 129.783 33.5595 127.126 33.5595ZM127.189 40.9885H123.774V35.7034H127.189C128.979 35.7034 130.001 37.1291 130.001 38.3452C130.001 39.5381 128.979 40.9885 127.189 40.9885ZM142.011 38.7737C140.279 38.7737 138.477 39.5073 137.736 41.1334L139.864 41.9888C140.322 41.1334 141.164 40.8559 142.054 40.8559C143.298 40.8559 144.56 41.5726 144.579 42.838V42.9999C144.145 42.7594 143.216 42.4034 142.074 42.4034C139.782 42.4034 137.447 43.6133 137.447 45.8713C137.447 47.9366 139.324 49.2667 141.434 49.2667C143.048 49.2667 143.938 48.5685 144.497 47.7563H144.579V48.9477H146.895V43.0353C146.895 40.3026 144.767 38.7737 142.011 38.7737ZM141.722 47.2199C140.937 47.2199 139.845 46.8469 139.845 45.9144C139.845 44.7215 141.207 44.2637 142.387 44.2637C143.443 44.2637 143.938 44.4872 144.579 44.7816C144.391 46.2088 143.11 47.2199 141.722 47.2199ZM155.332 39.1112L152.576 45.7927H152.494L149.645 39.1112H147.059L151.34 48.4483L148.897 53.644H151.403L158 39.1112H155.332ZM133.718 48.9723H136.123V33.5595H133.718V48.9723Z" fill="#4C248E"/>
<defs>
<linearGradient id="paint0_linear_131_1811" x1="27.21" y1="49.2653" x2="7.78301" y2="29.3675" gradientUnits="userSpaceOnUse">
<stop stop-color="#00A0FF"/>
<stop offset="0.0066" stop-color="#00A1FF"/>
<stop offset="0.2601" stop-color="#00BEFF"/>
<stop offset="0.5122" stop-color="#00D2FF"/>
<stop offset="0.7604" stop-color="#00DFFF"/>
<stop offset="1" stop-color="#00E3FF"/>
</linearGradient>
<linearGradient id="paint1_linear_131_1811" x1="41.4828" y1="36.1904" x2="12.786" y2="36.1904" gradientUnits="userSpaceOnUse">
<stop stop-color="#FFE000"/>
<stop offset="0.4087" stop-color="#FFBD00"/>
<stop offset="0.7754" stop-color="#FFA500"/>
<stop offset="1" stop-color="#FF9C00"/>
</linearGradient>
<linearGradient id="paint2_linear_131_1811" x1="30.8003" y1="33.5335" x2="4.45573" y2="6.55053" gradientUnits="userSpaceOnUse">
<stop stop-color="#FF3A44"/>
<stop offset="1" stop-color="#C31162"/>
</linearGradient>
<linearGradient id="paint3_linear_131_1811" x1="10.0106" y1="59.1462" x2="21.7746" y2="47.0972" gradientUnits="userSpaceOnUse">
<stop stop-color="#32A071"/>
<stop offset="0.0685" stop-color="#2DA771"/>
<stop offset="0.4762" stop-color="#15CF74"/>
<stop offset="0.8009" stop-color="#06E775"/>
<stop offset="1" stop-color="#00F076"/>
</linearGradient>
</defs>
</svg>
