<svg width="28" height="28" viewBox="0 0 28 28" fill="none" xmlns="http://www.w3.org/2000/svg">
<path fill-rule="evenodd" clip-rule="evenodd" d="M14 0C6.26803 0 0 6.26803 0 14C0 21.732 6.26803 28 14 28C21.732 28 28 21.732 28 14C28 6.26803 21.732 0 14 0ZM10.9219 6.57842C11.7184 6.5422 11.9729 6.53333 14.0007 6.53333H13.9984C16.0268 6.53333 16.2804 6.5422 17.0768 6.57842C17.8718 6.61482 18.4146 6.74071 18.8907 6.92533C19.3822 7.11591 19.7975 7.371 20.2128 7.78633C20.6282 8.20137 20.8833 8.61793 21.0747 9.10904C21.2582 9.58382 21.3842 10.1264 21.4216 10.9213C21.4573 11.7178 21.4667 11.9722 21.4667 14.0001C21.4667 16.0279 21.4573 16.2818 21.4216 17.0782C21.3842 17.8728 21.2582 18.4155 21.0747 18.8905C20.8833 19.3814 20.6282 19.798 20.2128 20.213C19.798 20.6284 19.3821 20.8841 18.8911 21.0748C18.416 21.2595 17.8728 21.3853 17.078 21.4217C16.2815 21.458 16.0278 21.4668 13.9998 21.4668C11.9721 21.4668 11.7178 21.458 10.9213 21.4217C10.1265 21.3853 9.58382 21.2595 9.10875 21.0748C8.61793 20.8841 8.20138 20.6284 7.78651 20.213C7.37129 19.798 7.1162 19.3814 6.92533 18.8903C6.74082 18.4155 6.615 17.873 6.57842 17.0781C6.54237 16.2816 6.53333 16.0279 6.53333 14.0001C6.53333 11.9722 6.54267 11.7176 6.57831 10.9211C6.61407 10.1266 6.74007 9.58382 6.92516 9.10887C7.11649 8.61793 7.37164 8.20137 7.78697 7.78633C8.20202 7.37117 8.61858 7.11602 9.10968 6.92533C9.58446 6.74071 10.127 6.61482 10.9219 6.57842Z" fill="#5A3D8A"/>
<path fill-rule="evenodd" clip-rule="evenodd" d="M13.3309 7.87931C13.4609 7.87913 13.6009 7.87919 13.7518 7.87925L14.0008 7.87931C15.9944 7.87931 16.2307 7.88648 17.0179 7.92224C17.7459 7.95555 18.141 8.07717 18.4042 8.17937C18.7527 8.31471 19.0011 8.47652 19.2623 8.73786C19.5236 8.99919 19.6854 9.2481 19.8211 9.59652C19.9233 9.85943 20.0451 10.2545 20.0782 10.9825C20.114 11.7697 20.1217 12.0061 20.1217 13.9988C20.1217 15.9915 20.114 16.2279 20.0782 17.0151C20.0449 17.7431 19.9233 18.1382 19.8211 18.4011C19.6857 18.7495 19.5236 18.9976 19.2623 19.2588C19.001 19.5201 18.7528 19.682 18.4042 19.8173C18.1414 19.92 17.7459 20.0413 17.0179 20.0745C16.2308 20.1103 15.9944 20.1181 14.0008 20.1181C12.007 20.1181 11.7707 20.1103 10.9835 20.0745C10.2555 20.0409 9.86043 19.9193 9.59706 19.8171C9.24863 19.6818 8.99972 19.52 8.73839 19.2586C8.47706 18.9973 8.3153 18.749 8.17961 18.4004C8.07741 18.1376 7.95561 17.7424 7.92248 17.0144C7.88672 16.2273 7.87955 15.9908 7.87955 13.9969C7.87955 12.003 7.88672 11.7678 7.92248 10.9807C7.95579 10.2527 8.07741 9.85757 8.17961 9.59437C8.31495 9.24588 8.47706 8.99703 8.73839 8.7357C8.99972 8.47437 9.24863 8.31255 9.59706 8.17692C9.86026 8.07426 10.2555 7.95292 10.9835 7.91944C11.6723 7.88835 11.9393 7.87902 13.3309 7.87744V7.87931ZM17.9864 9.11912C17.4918 9.11912 17.0904 9.51999 17.0904 10.0148C17.0904 10.5095 17.4918 10.9108 17.9864 10.9108C18.4811 10.9108 18.8824 10.5095 18.8824 10.0148C18.8824 9.52017 18.4811 9.11883 17.9864 9.11883V9.11912ZM10.1663 14.0005C10.1663 11.883 11.883 10.1661 14.0006 10.166C16.1182 10.166 17.8346 11.8829 17.8346 14.0005C17.8346 16.1181 16.1183 17.8342 14.0008 17.8342C11.8831 17.8342 10.1663 16.1181 10.1663 14.0005Z" fill="#5A3D8A"/>
<path d="M14.0007 11.5112C15.3752 11.5112 16.4896 12.6255 16.4896 14.0001C16.4896 15.3746 15.3752 16.489 14.0007 16.489C12.6261 16.489 11.5118 15.3746 11.5118 14.0001C11.5118 12.6255 12.6261 11.5112 14.0007 11.5112Z" fill="#5A3D8A"/>
</svg>
