<svg width="199" height="176" viewBox="0 0 199 176" fill="none" xmlns="http://www.w3.org/2000/svg">
<path d="M98.7042 175.746C147.17 175.746 186.459 136.404 186.459 87.873C186.459 39.3421 147.17 0 98.7042 0C50.2385 0 10.9492 39.3421 10.9492 87.873C10.9492 136.404 50.2385 175.746 98.7042 175.746Z" fill="#E2CCFD"/>
<g style="mix-blend-mode:multiply">
<path d="M195.511 79.1221L1.7944 83.8622L1.08765 86.2358L76.1246 134.139L194.673 81.2077L195.511 79.1221Z" fill="#B3B3B3"/>
</g>
<path d="M122.672 18.3694L0 60.5521L76.7214 107.19L198.163 56.5376L122.672 18.3694Z" fill="#F9F9F9"/>
<path d="M76.7214 107.19L76.8569 131.952L195.405 79.02L198.163 56.5377L76.7214 107.19Z" fill="#D9D9D9"/>
<path d="M76.7214 107.19L0 60.5521L1.81999 84.0481L76.8569 131.952L76.7214 107.19Z" fill="#4C1183"/>
<path d="M76.7214 107.19L77.0583 106.983L77.2268 131.671L76.8569 131.952L76.7214 107.19Z" fill="#EAEAEA"/>
<path d="M76.7214 107.19L76.3809 106.983L76.498 131.722L76.8569 131.952L76.7214 107.19Z" fill="#C5C5C5"/>
<path d="M76.7214 107.19L76.3809 106.983L197.789 56.257L198.163 56.5377L76.7214 107.19Z" fill="white"/>
<path d="M81.2585 69.2191C82.8478 68.6175 84.4371 68.0269 86.0191 67.4216C88.4323 66.4955 90.8162 65.5621 93.2184 64.625C94.2291 65.1391 95.1776 65.6605 96.192 66.1236C102.692 69.1134 110.62 70.5646 117.669 68.7524C123.118 67.3414 126.528 61.4418 120.599 57.6425C119.285 56.6038 117.885 55.678 116.413 54.8751C107.905 50.0475 99.3876 45.2394 90.8602 40.4507L90.2486 40.1045C94.3207 38.6873 98.3916 37.2628 102.461 35.8311L103.102 36.1957C111.905 41.0572 120.707 45.9261 129.508 50.8023C134.635 53.9672 140.802 57.6352 141.908 64.1036C142.614 68.4425 139.143 71.0313 136.217 73.3467C127.915 78.2873 118.658 78.9436 109.225 78.4513C101.187 77.7378 93.3549 75.5276 86.1363 71.9356C85.0157 71.374 83.9391 70.7834 82.8405 70.2036L81.2585 69.2191Z" fill="#5B3D8B"/>
<path d="M54.1345 52.4831C55.7604 51.9362 57.3753 51.3892 58.9683 50.8569C61.4145 50.0219 63.8204 49.1906 66.2629 48.3519C70.5522 50.9188 74.8343 53.4942 79.109 56.0782C75.1468 57.5609 71.1821 59.0402 67.215 60.5157C62.8622 57.8297 58.502 55.1521 54.1345 52.4831Z" fill="#5B3D8B"/>
<g style="mix-blend-mode:multiply">
<path d="M75.1431 157.934C75.2273 157.489 75.2273 157.031 75.1431 156.585C74.798 154.432 73.682 152.477 72.0011 151.08C71.337 150.464 70.4901 150.08 69.5879 149.986C69.1703 149.959 68.7541 150.055 68.3917 150.263C68.0293 150.472 67.737 150.782 67.5519 151.156C67.4047 151.354 67.3026 151.581 67.2526 151.822C67.2026 152.064 67.206 152.313 67.2626 152.553C66.8698 152.812 66.4909 153.092 66.1274 153.391L64.571 154.631L56.4305 161.121C55.7333 161.602 55.1445 162.223 54.7021 162.944C54.3139 163.695 54.2956 164.705 54.8925 165.303C55.127 165.512 55.4064 165.664 55.7092 165.748C56.0121 165.832 56.3302 165.846 56.6393 165.788C57.2559 165.665 57.85 165.449 58.4007 165.147L58.8364 164.939L62.2786 163.269L65.7429 161.592L69.1851 159.925L69.3938 159.827L70.9172 159.097L71.5177 158.817C71.7337 159.061 72.0092 159.246 72.3177 159.353C72.6263 159.46 72.9574 159.487 73.2791 159.429C73.2791 159.458 74.0994 161.019 74.3558 160.968C74.6121 160.917 75.6594 160.505 75.7693 160.297C75.7693 160.297 76.1355 159.845 76.1574 159.608C76.1794 159.371 75.3445 158.146 75.1431 157.934Z" fill="#B3B3B3"/>
</g>
<path d="M67.856 153.719C68.7898 154.85 69.4306 156.924 68.9546 157.792L68.7459 157.891L65.3036 159.561L61.8394 161.238L58.3972 162.904L57.9614 163.116C57.4113 163.418 56.817 163.634 56.2 163.754C55.891 163.811 55.5729 163.798 55.27 163.714C54.9672 163.63 54.6878 163.477 54.4533 163.269C53.8564 162.671 53.8747 161.661 54.2629 160.913C54.7047 160.192 55.2935 159.571 55.9913 159.09L64.1318 152.6C65.0985 151.827 66.9185 152.589 67.856 153.719Z" fill="#C6D3E5"/>
<path d="M74.1765 156.009C74.5719 156.56 75.3996 158.091 75.3153 158.259C75.2055 158.47 74.1618 158.879 73.9018 158.93C73.6418 158.981 72.8435 157.42 72.8252 157.391C72.9014 157.384 72.9772 157.373 73.0523 157.358C73.2646 157.314 73.3891 156.994 73.5576 156.84L73.7553 156.786C74.0849 156.695 73.9897 156.301 74.1765 156.009Z" fill="#CAD2DB"/>
<path d="M74.6855 155.885L74.6415 156.046C74.5916 156.205 74.5215 156.357 74.4328 156.498C74.3591 156.39 74.2744 156.29 74.1801 156.199C74.3492 155.49 74.3366 154.75 74.1435 154.048C73.8916 153.009 73.4336 152.03 72.7966 151.17C72.1596 150.31 71.3563 149.585 70.4339 149.038C69.7015 148.604 68.8227 148.287 67.9878 148.476C67.619 148.569 67.298 148.796 67.0869 149.111C67.2721 148.737 67.5643 148.426 67.9267 148.218C68.2891 148.01 68.7054 147.913 69.123 147.94C70.025 148.035 70.8718 148.419 71.5362 149.034C73.2171 150.43 74.3332 152.384 74.6781 154.536C74.7643 154.982 74.7668 155.439 74.6855 155.885Z" fill="#E9E9E9"/>
<path d="M67.0869 149.129C67.2981 148.814 67.619 148.588 67.9878 148.494C68.8227 148.305 69.6942 148.622 70.434 149.056C71.3563 149.603 72.1596 150.328 72.7966 151.188C73.4337 152.048 73.8916 153.027 74.1435 154.066C74.3366 154.768 74.3492 155.508 74.1801 156.217C74.0977 156.568 73.9037 156.882 73.6272 157.114C73.4594 157.246 73.2623 157.336 73.0522 157.377C72.9772 157.391 72.9014 157.402 72.8252 157.409C72.5035 157.467 72.1724 157.44 71.8638 157.333C71.5553 157.226 71.2797 157.041 71.0638 156.797C71.43 156.625 71.7962 156.454 72.1624 156.257C72.3309 156.135 72.4667 155.973 72.5579 155.787C72.6909 155.558 72.7931 155.313 72.8618 155.057C73.0055 154.556 73.0331 154.029 72.9424 153.515C72.7587 152.586 72.2996 151.732 71.6241 151.065C70.9619 150.315 70.0313 149.853 69.0314 149.778C68.2326 149.8 67.4591 150.062 66.8123 150.529C66.7531 150.29 66.7471 150.041 66.7945 149.799C66.8419 149.557 66.9417 149.328 67.0869 149.129Z" fill="#CAD2DB"/>
<path d="M72.9349 153.504C73.0256 154.018 72.9981 154.545 72.8543 155.047C72.7856 155.302 72.6834 155.547 72.5504 155.776C72.4592 155.962 72.3234 156.124 72.1549 156.246C71.7887 156.443 71.4225 156.611 71.0563 156.786L70.4558 157.067L68.9324 157.796C69.4268 156.928 68.7859 154.853 67.8338 153.723C66.8817 152.593 65.0764 151.831 64.0913 152.6L65.6476 151.36C66.0138 151.072 66.38 150.777 66.7828 150.522C67.4296 150.054 68.2032 149.792 69.002 149.77C70.0019 149.846 70.9325 150.308 71.5946 151.058C72.2775 151.721 72.7445 152.573 72.9349 153.504Z" fill="#E9E9E9"/>
<path d="M75.7033 157.573C75.7033 157.81 75.3371 158.244 75.3151 158.259C75.3994 158.091 74.5827 156.753 74.2166 156.202C74.3081 156.064 74.612 156.203 74.6596 156.046L74.7036 155.885C74.8867 156.097 75.7106 157.329 75.7033 157.573Z" fill="#E9E9E9"/>
<g style="mix-blend-mode:multiply">
<path d="M169.109 146.726C169.109 146.726 163.89 136.094 161.712 133.964C156.189 134.796 139.268 137.975 123.81 140.892C132.676 136.192 141.534 131.357 150.176 126.606C150.176 126.606 142.234 117.804 139.557 116.364C129.457 120.948 78.5598 146.722 78.5598 146.722C81.2477 151.047 85.4809 155.626 88.535 158.547C91.5524 157.159 94.604 155.715 97.6898 154.215C98.7884 156.596 100.004 158.82 101.041 160.589C122.712 157.227 146.573 151.907 169.109 146.726Z" fill="#B3B3B3"/>
</g>
<path d="M162.005 132.947C151.019 134.599 94.991 145.494 94.991 145.494C96.3862 150.387 99.1949 155.947 101.326 159.586C123.012 156.199 146.87 150.879 169.405 145.698C169.398 145.698 164.183 135.066 162.005 132.947Z" fill="#F9F9F9"/>
<path d="M105.186 155.021C106.735 155.185 108.295 154.89 109.825 154.598L124.561 151.772L157.061 145.541C158.485 145.271 159.939 144.983 161.173 144.228C162.407 143.474 163.37 142.139 163.297 140.703C163.191 139.011 161.627 137.694 159.972 137.301C158.317 136.907 156.588 137.224 154.915 137.541L151.568 138.19L148.224 138.825L144.881 139.463L141.538 140.101L138.194 140.735L134.851 141.373L131.508 142.008L128.164 142.646L124.821 143.284L121.478 143.918L118.134 144.557L114.795 145.191L111.451 145.829L108.108 146.467L104.765 147.102C103.92 147.221 103.093 147.44 102.3 147.754C101.743 147.985 101.277 148.389 100.971 148.907C100.669 149.522 100.542 150.208 100.605 150.89C100.619 151.812 100.966 152.699 101.582 153.388C102.208 154.041 102.996 154.518 103.867 154.77C104.297 154.898 104.739 154.983 105.186 155.021Z" fill="#C6D3E5"/>
<path d="M151.857 142.201C135.906 145.023 121.463 147.24 105.49 150.113C105.442 150.125 105.397 150.146 105.357 150.175C105.318 150.204 105.285 150.241 105.26 150.283C105.235 150.325 105.219 150.372 105.212 150.42C105.206 150.469 105.209 150.518 105.222 150.565C105.251 150.642 105.305 150.707 105.376 150.749C105.446 150.791 105.529 150.809 105.611 150.799L151.879 142.93" fill="#276DA5"/>
<path d="M151.85 142.201L153.092 142.106L152.487 142.784L151.868 142.934" fill="#276DA5"/>
<path d="M151.85 142.201C152.813 141.953 154.161 141.304 155.322 140.874C155.816 140.668 156.334 140.524 156.863 140.444C157.399 140.369 157.943 140.488 158.398 140.779C158.621 140.928 158.796 141.139 158.899 141.386C159.003 141.633 159.031 141.905 158.98 142.168C158.916 142.379 158.806 142.573 158.656 142.736C158.506 142.898 158.321 143.024 158.116 143.105C157.704 143.265 157.268 143.352 156.827 143.361C155.168 143.47 153.934 143.123 151.872 142.934C152.205 142.879 152.447 142.27 151.85 142.201Z" fill="#FFFFF0"/>
<path d="M139.85 115.362C129.746 119.945 78.8491 145.72 78.8491 145.72C81.5407 150.044 85.7739 154.624 88.8243 157.544C108.723 148.367 130.215 136.732 150.469 125.607C150.469 125.607 142.519 116.805 139.85 115.362Z" fill="#F9F9F9"/>
<path d="M91.2741 152.1C92.8121 151.831 94.2293 151.123 95.6208 150.423L109.013 143.685L138.564 128.82C139.857 128.171 141.179 127.496 142.157 126.435C143.135 125.374 143.713 123.821 143.23 122.461C142.659 120.864 140.795 120.029 139.095 120.098C137.396 120.167 135.8 120.951 134.298 121.713L131.259 123.237L128.219 124.761L125.176 126.286L122.137 127.81L119.098 129.337L116.058 130.861L113.019 132.386L109.979 133.91L106.94 135.434L103.897 136.958L100.857 138.486L97.818 140.01L94.7786 141.534L91.7392 143.058L88.6998 144.582C87.918 144.927 87.1804 145.364 86.5026 145.884C86.0331 146.255 85.6956 146.766 85.5395 147.342C85.4221 148.017 85.493 148.711 85.7446 149.348C86.0096 150.232 86.5872 150.991 87.3705 151.484C88.1486 151.938 89.0323 152.18 89.9338 152.188C90.3824 152.202 90.8312 152.173 91.2741 152.1Z" fill="#C6D3E5"/>
<path d="M132.628 127.033C118.065 134.096 104.768 140.177 90.2157 147.295C90.1727 147.319 90.135 147.351 90.1048 147.389C90.0746 147.428 90.0525 147.472 90.0399 147.52C90.0273 147.567 90.0243 147.616 90.0312 147.665C90.0381 147.713 90.0548 147.76 90.0802 147.802C90.1292 147.869 90.1998 147.918 90.2804 147.94C90.361 147.961 90.4467 147.955 90.5233 147.922L132.852 127.729" fill="#276DA5"/>
<path d="M132.621 127.033L133.789 126.603L133.397 127.419L132.841 127.729" fill="#276DA5"/>
<path d="M132.621 127.033C133.478 126.53 134.595 125.538 135.595 124.809C136.013 124.474 136.472 124.194 136.96 123.974C137.455 123.756 138.011 123.722 138.528 123.879C138.788 123.959 139.018 124.114 139.188 124.326C139.358 124.537 139.461 124.794 139.484 125.064C139.48 125.284 139.427 125.5 139.328 125.696C139.229 125.892 139.087 126.064 138.912 126.198C138.561 126.465 138.164 126.668 137.74 126.796C136.173 127.354 134.895 127.357 132.859 127.737C133.148 127.587 133.214 126.934 132.621 127.033Z" fill="#FFFFF0"/>
</svg>
