<svg width="178" height="192" viewBox="0 0 178 192" fill="none" xmlns="http://www.w3.org/2000/svg">
<g clip-path="url(#clip0_68_591)">
<path d="M89 185.93C138.153 185.93 178 146.068 178 96.8957C178 47.7234 138.153 7.86145 89 7.86145C39.8467 7.86145 0 47.7234 0 96.8957C0 146.068 39.8467 185.93 89 185.93Z" fill="#E2CCFD"/>
<path d="M119.969 81.6086C119.969 81.6086 109.488 102.585 98.8417 117.074C94.6059 122.838 90.3479 127.57 86.7067 129.547C83.143 131.479 80.1295 134.479 77.6331 137.804C71.1741 146.415 68.1902 157.195 68.1902 157.195L40.9658 115.992C40.9658 115.992 41.8964 75.7235 45.1647 68.9775C49.9286 59.1579 52.2293 39.3229 54.061 35.3588C55.42 32.4292 59.2976 17.2933 59.6669 16.1813C59.8294 15.7047 61.1182 14.9696 62.7948 14.9696C64.1391 14.9696 66.4213 16.27 66.9974 18.941C69.9111 32.444 66.4065 41.351 66.4435 41.75C67.4738 52.1275 64.3828 59.8302 66.5506 61.8695C66.6318 61.9471 66.7795 61.9102 66.99 61.7735C70.7457 59.3648 94.0408 25.3913 96.9029 24.6561C99.9385 23.8877 119.969 81.6086 119.969 81.6086Z" fill="#EFA26F"/>
<path d="M76.3813 149.031C76.3813 149.031 76.012 167.34 74.9521 192H6.27808C21.9768 158.514 35.6222 130.33 35.6222 130.33C35.6222 130.33 74.7231 131.523 76.3813 149.031Z" fill="#F99746"/>
<path d="M143.774 10.6213L135.343 22.9827L127.071 35.1187C126.874 35.3836 126.612 35.5926 126.31 35.7254C126.009 35.8582 125.678 35.9101 125.35 35.876C123.363 35.6876 120.918 32.8245 118.994 31.2396L118.798 31.0771C117.586 30.0672 116.823 28.6186 116.674 27.0476C116.525 25.4765 117.003 23.9104 118.004 22.6908L130.653 7.39977L134.401 2.86316C135.411 1.65029 136.859 0.886312 138.43 0.738179C140 0.590047 141.566 1.06975 142.784 2.07252L142.98 2.23144C144.193 3.24147 144.957 4.69066 145.106 6.26259C145.255 7.83453 144.776 9.40149 143.774 10.6213Z" fill="#FFB27D"/>
<path d="M135.343 22.9827L127.071 35.1187C126.874 35.3836 126.612 35.5926 126.311 35.7254C126.009 35.8582 125.678 35.9101 125.35 35.876L130.653 7.39978C130.664 7.55864 131.565 20.3375 135.343 22.9827Z" fill="#EFA26F"/>
<path d="M98.8418 117.064C94.606 122.827 90.348 127.559 86.7068 129.536C83.1431 131.468 80.1297 134.468 77.6332 137.793C74.7638 136.455 71.4955 134.885 68.2974 133.33C64.4051 131.438 64.2537 125.908 68.0685 123.857L68.1793 123.798C71.7504 121.752 75.4138 114.529 75.4138 114.529L98.8418 117.064Z" fill="#D38254"/>
<path d="M59.4787 16.813L57.2629 25.7202C57.2629 25.7202 59.1907 26.5108 60.4278 25.8976C61.6649 25.2843 62.6879 17.2933 59.4787 16.813Z" fill="#FFC197"/>
<path d="M122.916 0H75.4803C70.7954 0 66.9976 3.79929 66.9976 8.48596V112.789C66.9976 117.476 70.7954 121.275 75.4803 121.275H122.916C127.601 121.275 131.399 117.476 131.399 112.789V8.48596C131.399 3.79929 127.601 0 122.916 0Z" fill="#2B478B"/>
<path d="M128.208 9.28775V111.175C128.208 112.833 127.552 114.425 126.384 115.601C125.215 116.778 123.629 117.444 121.971 117.455H76.4441C74.7868 117.443 73.2013 116.777 72.0335 115.6C70.8658 114.424 70.2104 112.833 70.2104 111.175V9.28775C70.2104 7.62973 70.8658 6.03881 72.0335 4.86226C73.2013 3.68572 74.7868 3.01903 76.4441 3.00732H121.971C123.629 3.01806 125.215 3.68436 126.384 4.861C127.552 6.03765 128.208 7.62909 128.208 9.28775Z" fill="#C0D8FB"/>
<path d="M121.971 3.00732L76.9907 117.459H76.4441C74.7868 117.447 73.2013 116.78 72.0335 115.604C70.8658 114.427 70.2104 112.836 70.2104 111.178V9.28775C70.2104 7.62973 70.8658 6.03881 72.0335 4.86226C73.2013 3.68572 74.7868 3.01903 76.4441 3.00732H121.971Z" fill="#CBE1FD"/>
<path d="M108.717 0.709351H89.6795C88.1233 0.709351 86.8618 1.97137 86.8618 3.52815V3.97517C86.8618 5.53195 88.1233 6.79397 89.6795 6.79397H108.717C110.273 6.79397 111.534 5.53195 111.534 3.97517V3.52815C111.534 1.97137 110.273 0.709351 108.717 0.709351Z" fill="#2B478B"/>
<path d="M139.593 57.3108L138.338 57.7874L129.881 61.0015C129.686 61.0778 129.486 61.1419 129.283 61.1936C127.91 61.5459 126.456 61.3811 125.197 60.7306C123.938 60.08 122.962 58.9891 122.454 57.6654L122.333 57.3404C121.794 55.9134 121.841 54.331 122.463 52.9385C123.086 51.546 124.234 50.4564 125.656 49.9072L133.541 46.9112L134.113 46.6933L135.369 46.2167C136.795 45.6776 138.376 45.7245 139.767 46.3474C141.159 46.9704 142.247 48.1187 142.795 49.5416L142.921 49.8667C143.464 51.2954 143.419 52.8812 142.795 54.2766C142.171 55.6721 141.02 56.7632 139.593 57.3108Z" fill="#FFB27D"/>
<path d="M132.71 57.5064C131.299 58.0384 128.744 58.9842 127.377 59.1837C127.008 59.2428 126.269 59.0322 125.616 58.3045C125.13 57.7463 124.767 57.0917 124.552 56.3835C124.413 55.9872 124.316 55.5773 124.264 55.1606C124.21 54.6758 124.225 54.1858 124.308 53.7051C124.353 53.4806 124.45 53.2697 124.59 53.0889C124.73 52.9081 124.911 52.7623 125.117 52.6631C126.769 51.8524 128.484 51.1791 130.247 50.6498C131.432 50.321 132.632 50.8455 133.009 51.8873L133.186 52.3713L134.095 54.8576C134.475 55.8883 133.862 57.0705 132.71 57.5064Z" fill="#FFD3B6"/>
<path d="M132.71 57.5065C131.299 58.0385 128.744 58.9842 127.377 59.1837C127.008 59.2428 126.269 59.0323 125.616 58.3045C125.545 58.1383 125.479 57.9647 125.416 57.7763C125.279 57.3783 125.182 56.9672 125.128 56.5497C125.076 56.0646 125.092 55.5747 125.176 55.0941C125.221 54.8707 125.317 54.6607 125.457 54.4806C125.597 54.3005 125.776 54.1552 125.981 54.056C127.631 53.2443 129.345 52.5721 131.107 52.0463C131.456 51.9425 131.823 51.9181 132.182 51.975C132.541 52.0319 132.883 52.1687 133.182 52.3751L134.091 54.8614C134.475 55.8885 133.862 57.0705 132.71 57.5065Z" fill="#FFC197"/>
<path d="M127.038 51.1323L120.554 52.8891C118.574 53.4255 117.404 55.4655 117.94 57.4458L118.139 58.18C118.675 60.1603 120.714 61.3308 122.694 60.7945L129.178 59.0377C131.158 58.5014 132.328 56.4613 131.792 54.481L131.593 53.7468C131.057 51.7665 129.017 50.596 127.038 51.1323Z" fill="#FFB27D"/>
<path d="M132.207 68.8814C131.007 69.2028 128.843 69.7644 127.709 69.8272C127.296 69.8494 126.469 69.5022 125.929 68.416C125.855 68.122 125.812 67.8211 125.8 67.5182C125.794 67.1437 125.842 66.7703 125.944 66.4099C126.001 66.2377 126.098 66.0813 126.226 65.953C126.354 65.8247 126.511 65.7281 126.683 65.671C128.102 65.1532 129.559 64.7468 131.04 64.4556C131.409 64.3752 131.792 64.4022 132.146 64.5331C132.499 64.6641 132.808 64.8935 133.035 65.1944L133.537 66.9605C133.781 67.7547 133.193 68.6228 132.207 68.8814Z" fill="#FFC197"/>
<path d="M28.938 144.228C28.938 144.228 42.3545 157.088 51.4022 162.05L58.2526 157.192V164.362C58.2526 164.362 71.7208 166.745 75.9787 164.362V144.808L38.1445 125.834L28.938 144.228Z" fill="#ED7D2B"/>
<path d="M40.9697 114.529C40.9697 114.529 32.4464 127.286 23.9822 140.922C23.9822 140.922 41.8339 153.205 51.5094 156.807L64.2021 142.263L62.3925 159.77C62.3925 159.77 73.6265 163.867 78.8372 162.796C78.8372 162.796 78.5085 146.91 78.5122 136.511C78.5048 136.511 47.6392 127.851 40.9697 114.529Z" fill="#F3F8FF"/>
<path d="M43.0636 146.896C43.068 146.478 43.196 146.071 43.4316 145.726C43.6672 145.381 43.9997 145.113 44.3871 144.957C44.7745 144.801 45.1995 144.764 45.6083 144.849C46.017 144.935 46.3913 145.14 46.6838 145.438C46.9762 145.736 47.1737 146.114 47.2514 146.525C47.329 146.935 47.2832 147.36 47.1199 147.744C46.9566 148.129 46.683 148.456 46.3337 148.685C45.9844 148.914 45.5751 149.034 45.1575 149.031C44.5969 149.025 44.0615 148.797 43.669 148.396C43.2764 147.996 43.0586 147.456 43.0636 146.896Z" fill="#F99746"/>
<path d="M139.372 44.8127L139.228 44.8606L130.682 47.0663C126.923 48.0305 123.038 45.9985 122.045 42.5443L121.535 40.7858C120.582 37.4609 122.643 34.003 126.125 32.8799L128.947 32.141L134.671 30.6633C138.43 29.6954 142.319 31.731 143.309 35.1815L143.818 36.9511C144.764 40.2243 142.777 43.6378 139.372 44.8127Z" fill="#FFB27D"/>
<path d="M135.454 42.426L131.299 44.2954H131.273C131.108 44.3391 130.94 44.3735 130.771 44.3988L130.56 44.4247H130.476C130.367 44.4197 130.262 44.3882 130.169 44.3333C130.076 44.2783 129.998 44.2015 129.941 44.1094C129.884 44.0173 129.851 43.9129 129.843 43.8049C129.836 43.697 129.855 43.5888 129.899 43.49C130.309 42.6079 130.393 41.6092 130.136 40.6712L130.036 40.3018L129.715 39.1233C129.469 38.2188 128.943 37.4156 128.212 36.8291C128.128 36.7594 128.04 36.694 127.95 36.6332C127.765 36.5045 127.621 36.3264 127.533 36.1191C127.445 35.9118 127.418 35.6839 127.454 35.4617C127.491 35.2396 127.589 35.0323 127.738 34.8638C127.887 34.6952 128.081 34.5721 128.297 34.5089H128.323L132.88 33.8182C134.006 33.5116 135.095 34.3797 135.398 35.5065L135.768 36.8513L136.543 39.7144C136.846 40.8412 136.58 42.1194 135.454 42.426Z" fill="#FFD3B6"/>
<path d="M135.454 42.4262L131.299 44.2955H131.273L130.476 44.4285C130.368 44.4234 130.263 44.3921 130.169 44.3372C130.076 44.2823 129.998 44.2054 129.941 44.1133C129.884 44.0213 129.851 43.9166 129.844 43.8087C129.836 43.7007 129.856 43.5927 129.9 43.4939C130.309 42.6118 130.393 41.6131 130.136 40.6751L130.036 40.3057L129.715 39.127C129.469 38.2226 128.943 37.4194 128.212 36.8328C128.367 36.6044 128.599 36.4393 128.866 36.3674H128.891L133.449 35.6766C134.398 35.4179 135.295 35.9942 135.768 36.855L136.543 39.7182C136.846 40.8413 136.58 42.1195 135.454 42.4262Z" fill="#FFC197"/>
<path d="M66.9975 89.2892C66.9975 89.2892 65.151 73.0044 63.4116 69.831C61.6723 66.6575 60.2357 60.2958 62.8835 55.5707C65.5314 50.8456 66.4435 41.7538 66.4435 41.7538C67.4739 52.1313 64.3829 59.834 66.5506 61.8733C66.6319 61.9509 66.7796 61.9138 66.9901 61.7771L66.9975 89.2892Z" fill="#D38254"/>
</g>
<defs>
<clipPath id="clip0_68_591">
<rect width="178" height="192" fill="white"/>
</clipPath>
</defs>
</svg>
