<svg width="488" height="720" viewBox="0 0 488 720" fill="none" xmlns="http://www.w3.org/2000/svg">
<g clip-path="url(#clip0_60_3013)">
<path d="M201.684 44.6308C139.055 126.734 258.68 291.223 315.852 401.631C373.025 512.039 281.283 587.546 436.697 610.575C592.111 633.605 835.989 469.643 850.433 282.478C864.21 103.8 348.855 -148.3 201.684 44.6308Z" fill="#BBE9F3"/>
</g>
<g clip-path="url(#clip1_60_3013)">
<path d="M269.503 479.641C295.055 485.11 322.87 480.834 341.943 475.684C349.579 473.616 368.251 430.848 369.157 413.469C369.454 407.762 337.987 400.033 331.775 404.25C327.53 407.125 322.068 448.1 318.202 449.264C311.092 451.398 291.834 456.378 271.885 464.93C258.452 470.696 255.966 476.751 269.503 479.641Z" fill="#FFC5C1"/>
<path d="M329.742 407.807C332.347 394.823 334.811 378.512 344.785 367.38C345.86 366.113 347.332 365.246 348.963 364.92C353.349 359.858 357.06 360.399 357.06 360.399C362.589 356.931 366.307 358.005 366.307 358.005C366.307 358.005 371.502 352.114 375.606 354.671C380.2 357.516 371.984 365.239 370.062 372.242C365.669 388.287 363.279 414.692 362.47 419.45L329.742 407.807Z" fill="#FFC5C1"/>
<path d="M353.639 385.804C355.027 381.113 356.266 376.459 358.285 371.975C360.511 367.054 363.48 362.689 366.359 358.176C366.366 358.16 366.371 358.143 366.371 358.125C366.372 358.107 366.369 358.09 366.363 358.073C366.357 358.056 366.347 358.041 366.335 358.028C366.323 358.016 366.308 358.005 366.292 357.998C366.27 357.987 366.246 357.981 366.222 357.981C366.197 357.981 366.173 357.987 366.151 357.998C359.606 365.342 354.893 376.021 353.424 385.722C353.386 385.982 353.572 386.078 353.639 385.804Z" fill="#2F351A"/>
<path d="M343.553 384.596C345.156 380.097 348.006 372.22 357.201 360.51C357.206 360.506 357.21 360.501 357.212 360.495C357.215 360.49 357.216 360.483 357.216 360.477C357.216 360.471 357.215 360.464 357.212 360.459C357.21 360.453 357.206 360.448 357.201 360.444C357.193 360.436 357.182 360.432 357.171 360.432C357.16 360.432 357.15 360.436 357.142 360.444C350.395 367.03 345.618 375.362 343.345 384.507C343.264 384.781 343.449 384.863 343.553 384.596Z" fill="#2F351A"/>
<path d="M338.151 383.796C341.164 376.259 344.028 371.886 348.986 364.957C348.986 364.912 348.986 364.853 348.919 364.898C342.455 372.183 340.934 375.555 337.876 383.729C337.765 384.01 338.032 384.092 338.151 383.796Z" fill="#2F351A"/>
<path d="M365.98 391.911C366.233 394.23 367.465 394.134 369.639 390.591C371.814 387.049 377.513 371.323 382.857 373.739C388.2 376.155 378.908 397.736 375.769 403.909C372.655 410.094 368.087 415.434 362.455 419.472C363.212 414.81 364.622 401.026 365.98 391.911Z" fill="#FFC5C1"/>
<path d="M300.146 454.6C302.595 454.177 305.014 453.621 307.418 453.036C309.823 452.45 312.22 451.791 314.602 451.087C315.797 450.701 316.947 450.346 318.179 449.879C318.552 449.729 318.87 449.471 319.092 449.138C319.286 448.863 319.457 448.573 319.604 448.271C319.891 447.703 320.139 447.116 320.346 446.514C321.194 444.161 321.854 441.745 322.321 439.289C321.385 441.593 320.525 443.913 319.523 446.144C319.263 446.7 318.988 447.24 318.714 447.759C318.582 448.017 318.43 448.265 318.261 448.5C318.046 448.745 318.075 448.767 317.756 448.878C316.688 449.279 315.448 449.619 314.283 449.983C311.923 450.724 309.548 451.405 307.203 452.206C304.858 453.006 302.468 453.703 300.146 454.6Z" fill="#2F351A"/>
<path d="M300.272 452.161L308.725 486.341C308.725 486.341 280.16 486.244 265.503 480.471C250.845 474.698 255.602 468.673 266.163 463.952C276.724 459.231 300.272 452.161 300.272 452.161Z" fill="#355F81"/>
<path d="M300.272 452.154C300.297 452.238 300.33 452.32 300.368 452.398L300.272 452.154Z" fill="#6C72FC"/>
<path d="M304.094 484.643C303.497 484.646 302.908 484.78 302.369 485.037C301.83 485.293 301.355 485.665 300.977 486.126H301.763C302.402 485.55 303.233 485.233 304.094 485.236C304.558 485.236 305.017 485.327 305.445 485.505C305.873 485.684 306.261 485.945 306.587 486.274H307.389C307.006 485.763 306.508 485.35 305.936 485.066C305.364 484.783 304.733 484.638 304.094 484.643Z" fill="#6C72FC"/>
<path d="M266.883 465.545C266.07 465.543 265.274 465.78 264.596 466.229C263.919 466.678 263.389 467.317 263.076 468.066C262.762 468.815 262.677 469.641 262.833 470.438C262.989 471.235 263.378 471.967 263.951 472.544C264.523 473.12 265.255 473.514 266.052 473.675C266.849 473.836 267.676 473.758 268.428 473.45C269.18 473.142 269.824 472.618 270.279 471.944C270.733 471.271 270.977 470.478 270.98 469.666C270.983 469.127 270.879 468.592 270.674 468.093C270.47 467.593 270.169 467.139 269.788 466.756C269.408 466.373 268.955 466.069 268.456 465.862C267.958 465.654 267.423 465.546 266.883 465.545ZM266.883 473.134C266.192 473.133 265.516 472.927 264.942 472.542C264.368 472.157 263.921 471.611 263.658 470.973C263.395 470.334 263.327 469.632 263.464 468.955C263.6 468.279 263.934 467.657 264.424 467.17C264.914 466.683 265.538 466.352 266.216 466.219C266.894 466.086 267.597 466.156 268.235 466.422C268.873 466.687 269.418 467.136 269.801 467.711C270.184 468.285 270.387 468.961 270.386 469.651C270.378 470.575 270.006 471.459 269.35 472.111C268.695 472.763 267.808 473.13 266.883 473.134Z" fill="#6C72FC"/>
<path d="M291.685 465.545C290.872 465.543 290.076 465.78 289.399 466.229C288.721 466.678 288.192 467.317 287.878 468.066C287.564 468.815 287.479 469.641 287.635 470.438C287.791 471.235 288.18 471.967 288.753 472.544C289.326 473.12 290.057 473.514 290.854 473.675C291.651 473.836 292.478 473.758 293.23 473.45C293.983 473.142 294.627 472.618 295.081 471.944C295.535 471.271 295.779 470.478 295.782 469.666C295.785 469.127 295.681 468.592 295.477 468.093C295.272 467.593 294.971 467.139 294.59 466.756C294.21 466.373 293.757 466.069 293.259 465.862C292.76 465.654 292.226 465.546 291.685 465.545ZM291.685 473.134C290.994 473.133 290.319 472.927 289.745 472.542C289.171 472.157 288.724 471.611 288.461 470.973C288.197 470.334 288.13 469.632 288.266 468.955C288.402 468.279 288.736 467.657 289.226 467.17C289.716 466.683 290.34 466.352 291.018 466.219C291.696 466.086 292.399 466.156 293.037 466.422C293.675 466.687 294.22 467.136 294.603 467.711C294.986 468.285 295.19 468.961 295.188 469.651C295.184 470.576 294.813 471.462 294.157 472.115C293.5 472.768 292.612 473.134 291.685 473.134Z" fill="#6C72FC"/>
<path d="M295.195 456.178C295.136 455.956 295.27 455.845 295.337 456.06C298.669 467.094 301.734 479.997 302.313 484.784C302.313 484.858 302.216 484.866 302.194 484.784C300.465 480.256 295.856 458.631 295.195 456.178Z" fill="#153043"/>
<path d="M265.495 480.471C280.167 486.244 308.717 486.348 308.717 486.348L304.183 468.036L256.953 474.891C258.096 476.743 260.805 478.618 265.495 480.471Z" fill="#153043"/>
<path d="M246.215 765.043C250.296 766.37 369.884 765.288 374.285 762.435C375.977 761.375 367.153 648.166 367.153 648.166L291.062 648.662L298.988 724.417C298.988 724.417 254.608 744.73 250.096 748.376C245.584 752.022 242.17 763.724 246.215 765.043Z" fill="#FF9581"/>
<path d="M293.051 706.23H376.912C376.912 706.23 361.134 527.975 361.787 524.566C362.626 520.186 367.576 500.399 374.166 474.542C376.229 466.45 378.456 457.771 380.771 448.775C387.027 424.452 393.914 397.861 399.918 374.732C408.928 340.071 415.963 313.147 415.963 313.147H344.882C344.882 313.147 336.599 339.389 326.165 373.48C309.155 428.906 286.438 505.194 284.19 523.744C280.561 553.647 293.051 706.23 293.051 706.23Z" fill="#FD8496"/>
<path d="M398.167 374.095C398.844 370.187 398.781 366.188 397.981 362.304C397.047 358.597 395.68 355.013 393.907 351.625C390.345 344.303 386.59 336.958 388.245 328.547C389.38 322.878 392.304 317.801 395.71 313.117H395.05C394.382 314.029 393.751 314.941 393.135 315.867C388.779 322.596 385.944 330.318 387.755 338.366C389.565 346.415 394.716 353.04 396.898 360.888C398.701 367.38 397.751 373.887 395.963 380.231C392.389 380.527 388.883 381.379 385.573 382.758C380.198 384.945 375.192 387.945 370.73 391.651C361.196 399.377 354.393 409.952 351.321 421.824C348.249 433.695 349.069 446.237 353.661 457.608C356.057 463.514 359.354 469.014 363.435 473.912C366.337 477.47 369.32 481.02 371.443 485.029C371.517 484.695 371.613 484.362 371.702 484.028C368.734 478.655 364.37 474.268 360.845 469.281C353.614 458.91 349.966 446.469 350.455 433.842C350.93 421.94 355.182 410.497 362.596 401.167C369.728 392.148 379.97 384.507 391.295 381.809C392.732 381.454 394.197 381.224 395.673 381.12C395.094 383.114 394.419 385.1 393.751 387.049C390.961 395.134 388.052 403.153 388.014 411.816C388.001 414.022 388.169 416.226 388.519 418.405C388.69 417.715 388.875 417.041 389.039 416.359C388.502 410.454 389.071 404.5 390.716 398.803C392.371 392.829 394.775 387.049 396.512 381.083C397.068 381.053 397.625 381.053 398.182 381.083C398.256 380.779 398.33 380.483 398.404 380.209H396.749C397.336 378.199 397.81 376.158 398.167 374.095Z" fill="#EEEEC6"/>
<path d="M361.928 652.531C361.224 648.417 359.212 644.639 356.192 641.755C352.798 638.752 348.518 636.931 343.998 636.568C339.654 636.185 335.276 636.551 331.056 637.65C331.278 625.562 325.118 614.327 322.395 602.707C320.773 595.735 320.054 588.585 320.257 581.43C320.443 575.02 321.467 568.602 320.903 562.162C320.421 556.774 318.632 551.505 314.78 547.585C311.484 544.339 307.329 542.099 302.802 541.13C296.271 539.67 289.433 540.574 283.507 543.679V544.672C287.889 542.286 292.844 541.15 297.83 541.389C302.552 541.561 307.134 543.033 311.07 545.643C315.322 548.604 318.284 553.072 319.352 558.138C320.71 564.066 320.042 570.203 319.612 576.176C319.089 582.627 319.251 589.116 320.094 595.533C321.097 601.917 322.699 608.192 324.881 614.275C326.989 620.338 329.245 626.437 329.965 632.855C330.15 634.52 330.232 636.196 330.209 637.872C325.662 639.126 321.272 640.894 317.126 643.141C309.055 647.47 301.899 653.316 296.049 660.357C294.861 661.765 293.756 663.247 292.672 664.729C291.745 664.67 290.795 664.596 289.86 664.47L289.919 665.307C290.661 665.396 291.403 665.455 292.145 665.507C291.477 666.478 290.824 667.442 290.193 668.427C290.193 668.872 290.245 669.339 290.283 669.783C290.936 668.746 291.606 667.723 292.294 666.715C292.553 666.33 292.85 665.974 293.132 665.567C298.162 665.757 303.19 665.147 308.027 663.758C313.615 662.158 319.263 659.616 323.612 655.71C327.823 651.817 330.421 646.489 330.892 640.777C330.981 640.036 331.041 639.295 331.056 638.554C332.347 638.242 333.646 637.961 334.952 637.739C343.998 636.256 354.396 638.035 359.16 646.758C363.331 654.435 361.862 664.277 358.544 671.955C354.596 681.144 347.783 688.748 343.011 697.471C341.529 700.273 340.287 703.196 339.301 706.208H339.894C343.338 695.907 350.566 687.636 355.999 678.41C360.533 670.658 363.606 661.565 361.928 652.531ZM327.367 649.648C324.465 654.999 319.204 658.459 313.756 660.838C307.431 663.618 300.567 664.959 293.659 664.766C302.565 652.642 315.486 642.578 330.18 638.746C330.078 642.546 329.116 646.272 327.367 649.648Z" fill="#EEEEC6"/>
<path d="M329.044 462.87C329.697 473.075 329.096 484.962 321.504 492.736C318.389 496.028 314.292 498.225 309.823 498.998C307.57 499.318 305.275 499.152 303.091 498.513C300.908 497.874 298.886 496.776 297.162 495.293C295.234 493.703 293.491 491.9 291.967 489.92C292.027 489.642 292.101 489.367 292.19 489.097C295.262 492.966 299.025 496.797 304.02 497.991C313.667 500.281 322.618 492.447 325.861 483.91C329.861 473.423 328.169 461.544 326.959 450.701C325.653 438.985 324.517 427.379 326.788 415.722C328.822 405.347 332.414 394.667 329.156 384.144C328.337 381.374 326.983 378.791 325.17 376.54C325.245 376.281 325.341 375.999 325.415 375.74C328.822 379.645 330.685 384.981 331.189 390.28C332.302 402.034 327.145 413.358 326.402 425C325.616 437.688 328.258 450.242 329.044 462.87Z" fill="#EEEEC6"/>
<path d="M296.761 691.92C309.563 691.653 305.89 691.549 318.692 691.423C324.963 691.364 366.136 691.008 371.992 691.979C372.021 691.986 372.047 692.003 372.065 692.026C372.084 692.05 372.094 692.079 372.094 692.109C372.094 692.139 372.084 692.168 372.065 692.191C372.047 692.215 372.021 692.232 371.992 692.239C366.136 693.202 324.963 692.846 318.692 692.787C305.89 692.661 309.563 692.557 296.761 692.29C296.712 692.29 296.665 692.271 296.63 692.236C296.595 692.201 296.576 692.154 296.576 692.105C296.576 692.056 296.595 692.009 296.63 691.974C296.665 691.939 296.712 691.92 296.761 691.92Z" fill="#B96271"/>
<path d="M345.987 512.583C348.733 500.481 352.845 488.623 356.414 476.743C363.687 452.604 371 428.478 378.352 404.368C382.018 392.313 385.704 380.261 389.41 368.21C391.28 362.133 393.162 356.056 395.057 349.979C396.928 344.051 399.05 338.122 400.735 332.149C401.418 329.711 401.796 331.052 400.913 334.15C399.147 340.39 397.403 346.645 395.577 352.87C391.97 365.221 388.336 377.551 384.675 389.858C377.412 414.388 370.082 438.896 362.685 463.382C358.995 475.669 355.284 487.951 351.553 500.229C349.689 506.062 348.177 512.001 347.026 518.015C346.038 524.321 345.789 530.72 346.284 537.083C347.086 549.889 348.577 562.681 349.757 575.464L353.32 613.875C355.68 639.361 356.949 647.565 359.257 673.059C359.554 676.29 359.836 679.521 360.081 682.752C360.162 683.834 358.529 683.753 358.411 682.715C355.65 657.518 354.633 649.507 352.266 624.273C349.906 599.16 347.551 574.044 345.201 548.926C344.607 542.619 343.932 536.327 343.932 529.969C343.962 524.115 344.651 518.283 345.987 512.583Z" fill="#B96271"/>
<path d="M352.949 313.117C357.877 351.224 367.279 422.673 374.137 474.513C390.167 411.705 415.934 313.117 415.934 313.117H352.949Z" fill="#B96271"/>
<path d="M329.267 766.437C333.349 767.763 452.929 766.681 457.337 763.828C459.03 762.776 455.452 649.559 455.452 649.559L379.361 650.055L382.033 725.81C382.033 725.81 337.661 746.123 333.148 749.777C328.636 753.431 325.185 765.125 329.267 766.437Z" fill="#FF9581"/>
<path d="M347.175 313.117C347.175 313.117 348.815 347.067 356.6 373.954C357.223 376.177 357.899 378.363 358.626 380.461C358.626 380.461 366.73 383.425 379.109 390.969C379.109 390.969 379.925 418.286 380.742 448.775C381.654 482.865 376.37 520.809 376.17 528.865C375.428 559.005 379.139 705.897 379.139 705.897L463 706.23C463 706.23 448.655 539.996 448.766 528.953C448.922 511.212 442.666 387.738 443.727 384.974C457.211 349.735 439.378 313.147 439.378 313.147L347.175 313.117Z" fill="#FD8496"/>
<path d="M444.276 412.639C441.678 415.41 439.329 418.403 437.255 421.584C433.107 427.942 430.161 435.998 423.103 439.793C421.05 440.858 418.814 441.527 416.513 441.764C416.216 439.422 415.956 437.073 415.822 434.731C415.429 427.179 416.305 419.798 417.054 412.305C417.708 405.636 417.871 398.825 415.34 392.54C413.27 387.353 409.492 382.906 404.074 381.12C401.732 380.357 399.269 380.03 396.809 380.157C397.373 378.162 397.826 376.139 398.167 374.095C398.844 370.187 398.781 366.188 397.982 362.304C397.047 358.597 395.68 355.013 393.907 351.625C390.345 344.303 386.59 336.958 388.245 328.547C389.38 322.878 392.304 317.801 395.711 313.117H395.05C394.382 314.029 393.751 314.941 393.135 315.867C388.779 322.596 385.944 330.318 387.755 338.366C389.566 346.415 394.716 353.04 396.898 360.888C398.701 367.38 397.751 373.887 395.963 380.231C392.389 380.527 388.883 381.379 385.573 382.758C381.824 384.27 378.257 386.196 374.938 388.501L375.68 388.931C380.418 385.609 385.725 383.183 391.339 381.772C392.776 381.417 394.241 381.187 395.718 381.083C395.139 383.077 394.464 385.063 393.796 387.012C391.005 395.097 388.096 403.116 388.059 411.779C388.022 419.427 389.996 427.253 394.805 433.315C396.921 435.943 399.544 438.119 402.518 439.714C405.492 441.309 408.757 442.291 412.119 442.601C413.354 442.698 414.595 442.698 415.83 442.601C415.845 442.85 415.877 443.098 415.926 443.342C416.933 450.185 418.692 456.895 421.173 463.352C423.652 469.77 426.65 475.995 428.676 482.561C430.65 488.994 431.585 495.901 429.515 502.422C427.786 507.906 424.045 512.553 419.533 516.051C414.974 519.544 409.745 522.067 404.171 523.462C398.494 524.944 392.237 525.3 386.612 523.351C382.796 522.01 379.516 519.472 377.261 516.118C377.244 516.547 377.202 516.975 377.135 517.4C377.506 517.882 377.877 518.348 378.308 518.815C386.523 527.886 400.727 526.345 410.962 521.935C421.463 517.4 430.457 508.64 431.422 496.738C431.964 489.89 429.938 483.124 427.511 476.803C424.943 470.066 421.819 463.559 419.711 456.66C418.325 452.052 417.298 447.345 416.639 442.579C418.449 442.394 420.224 441.949 421.908 441.26C425.155 439.835 427.97 437.584 430.072 434.731C432.491 431.626 434.302 428.113 436.276 424.726C438.447 420.988 440.985 417.476 443.853 414.24C444.001 414.069 444.15 413.899 444.313 413.736C444.298 413.387 444.298 413.009 444.276 412.639ZM403.362 439.229C396.609 435.813 392.193 429.469 390.197 422.273C388.074 414.573 388.675 406.391 390.775 398.751C392.43 392.778 394.835 386.997 396.571 381.031C401.225 380.824 405.863 381.898 409.47 385.159C413.796 389.08 415.934 394.993 416.513 400.663C417.255 408.074 415.771 415.396 415.192 422.718C414.719 429.098 414.9 435.51 415.733 441.853C411.448 442.113 407.172 441.206 403.362 439.229Z" fill="#EEEEC6"/>
<path d="M459.082 660.764C451.282 666.641 442.012 670.495 431.986 669.969C430.088 669.872 428.204 669.592 426.361 669.131C427.634 668.474 428.861 667.731 430.034 666.908C436.773 662.15 441.723 654.769 442.324 646.439C443.066 635.982 437.612 626.429 433.493 617.262C431.518 612.811 429.888 608.215 428.617 603.515C428.335 602.529 428.075 601.544 427.8 600.55C428.987 597.306 429.627 593.888 429.693 590.435C429.997 578.332 424.335 564.852 430.48 553.432C433.493 547.799 438.895 543.501 444.484 540.581C446.016 539.78 447.603 539.089 449.233 538.514V537.943C444.751 539.483 440.581 541.812 436.921 544.82C431.875 548.97 428.283 554.343 427.274 560.872C426.309 567.209 427.407 573.641 428.172 579.948C428.936 586.255 429.455 592.91 427.429 599.12C426.628 596.2 425.812 593.266 424.787 590.42C421.863 582.349 416.965 574.946 408.542 571.937C404.375 570.513 399.924 570.121 395.572 570.793C391.22 571.466 387.096 573.183 383.554 575.798C380.785 577.905 378.413 580.487 376.549 583.424V584.647C377.468 583.135 378.516 581.704 379.68 580.37C382.599 577.049 386.294 574.5 390.437 572.948C394.58 571.397 399.043 570.891 403.429 571.477C407.759 572.04 411.834 573.842 415.162 576.665C418.374 579.533 420.908 583.076 422.583 587.04C424.388 591.367 425.852 595.827 426.962 600.38C425.084 605.456 421.901 609.955 418.635 614.253C411.956 622.991 404.223 632.084 404.727 643.764C405.21 655.125 412.587 665.559 423.407 669.279C423.645 669.354 423.875 669.405 424.097 669.48C419.873 671.376 415.261 672.252 410.635 672.036C401.937 671.555 393.759 667.367 387.629 661.305C383.196 656.863 379.822 651.48 377.758 645.557V647.543C379.261 651.439 381.359 655.079 383.977 658.334C389.417 665.063 397.017 670.25 405.544 672.073C412.134 673.453 418.996 672.636 425.077 669.746C436.884 673.074 449.567 669.005 459.141 661.846C459.139 661.485 459.119 661.124 459.082 660.764ZM415.088 663.447C410.947 659.758 407.987 654.933 406.575 649.574C405.135 644.232 405.411 638.573 407.362 633.396C409.299 628.208 412.557 623.613 415.949 619.226C419.207 614.965 422.628 610.778 425.292 606.094C426.087 604.693 426.783 603.24 427.377 601.744C428.29 605.093 429.203 608.413 430.398 611.689C433.767 620.842 439.304 629.283 441.122 638.954C442.057 643.419 441.819 648.051 440.432 652.397C439.031 656.423 436.705 660.065 433.641 663.032C431.227 665.417 428.443 667.397 425.396 668.894C421.595 667.872 418.072 666.01 415.088 663.447Z" fill="#EEEEC6"/>
<path d="M382.003 690.979C394.812 690.764 391.131 690.645 403.941 690.578C410.204 690.578 451.386 690.356 457.241 691.32C457.367 691.32 457.367 691.557 457.241 691.579C451.386 692.52 410.204 691.987 403.941 691.898C391.131 691.72 394.812 691.631 382.011 691.312C381.988 691.303 381.968 691.289 381.951 691.271C381.934 691.253 381.921 691.232 381.913 691.209C381.904 691.186 381.901 691.162 381.902 691.137C381.904 691.113 381.91 691.089 381.922 691.068C381.938 691.03 381.967 690.998 382.003 690.979Z" fill="#B96271"/>
<path d="M355.145 378.437C363.487 381.75 371.472 386.271 379.109 390.969C379.164 391.008 379.203 391.066 379.219 391.131C379.235 391.197 379.227 391.266 379.196 391.326C379.166 391.386 379.115 391.433 379.052 391.459C378.99 391.484 378.921 391.487 378.857 391.466C370.767 387.538 362.53 383.766 354.648 379.401C354.585 379.368 354.528 379.323 354.482 379.269C354.436 379.215 354.402 379.152 354.38 379.084C354.358 379.016 354.35 378.945 354.356 378.874C354.362 378.803 354.382 378.734 354.414 378.671C354.447 378.608 354.492 378.551 354.546 378.505C354.601 378.459 354.664 378.425 354.731 378.403C354.799 378.381 354.871 378.373 354.942 378.379C355.013 378.385 355.082 378.405 355.145 378.437Z" fill="#B96271"/>
<path d="M367.762 367.054C367.502 363.223 367.213 359.399 366.871 355.575C366.129 346.852 365.194 338.1 363.665 329.481C363.546 328.806 362.596 329.058 362.648 329.703C363.242 336.477 364.014 343.243 364.652 350.016C365.29 356.79 366.136 363.519 366.218 370.256C366.255 372.294 366.114 375.74 363.621 376.296C360.266 377.037 358.678 372.649 357.876 370.248C355.952 364.228 354.545 358.054 353.668 351.795C352.563 344.688 351.976 337.485 351.294 330.303C351.294 330.051 350.841 330.088 350.841 330.348C350.789 344.555 350.997 359.406 356.311 372.82C357.349 375.429 359.16 378.082 362.196 378.437H362.344C362.315 378.518 362.3 378.603 362.3 378.689C362.359 379.09 362.47 379.475 362.537 379.875C362.604 380.275 362.656 380.542 362.737 380.868C362.878 381.557 362.982 382.254 363.153 382.943C363.188 383.062 363.264 383.165 363.367 383.233C363.471 383.302 363.595 383.332 363.719 383.318C363.842 383.303 363.956 383.246 364.042 383.156C364.127 383.066 364.177 382.948 364.185 382.825C364.272 382.794 364.347 382.737 364.401 382.661C364.454 382.585 364.482 382.495 364.481 382.402C364.422 381.019 364.11 379.657 363.561 378.386C364.382 378.216 365.148 377.844 365.79 377.305C366.431 376.765 366.928 376.075 367.235 375.295C368.333 372.738 367.94 369.774 367.762 367.054Z" fill="#B96271"/>
<path d="M435.185 384.944C435.882 379.067 437.478 373.242 438.851 367.484C441.946 354.485 439.86 336.795 436.513 324.093C436.432 323.76 436.981 323.634 437.085 323.967C440.424 334.787 442.858 350.424 441.537 361.763C440.921 367.158 436.565 383.573 436.706 389.443C436.973 400.996 436.053 499.547 436.832 539.781C437.344 566.179 442.821 654.717 443.66 681.115C443.66 681.359 443.259 681.344 443.244 681.115C440.179 634.055 436.194 585.973 435.556 539.862C434.962 495.056 434.435 391.347 435.185 384.944Z" fill="#B96271"/>
<path d="M393.811 326.983C394.182 331.03 394.33 335.091 394.931 339.122C395.458 342.695 396.623 346.244 399.466 348.935C402.161 351.417 405.391 353.25 408.906 354.293C413.514 355.671 427.519 355.701 432.291 355.034C433.493 354.863 433.374 355.775 431.111 356.279C428.58 356.835 418.257 357.405 415.652 357.405C413.129 357.512 410.602 357.335 408.119 356.879C403.926 355.945 400.067 354.211 397.18 351.187C394.293 348.164 393.002 344.147 392.683 340.19C392.413 335.782 392.582 331.358 393.187 326.983C393.203 326.912 393.242 326.849 393.299 326.803C393.356 326.758 393.426 326.733 393.499 326.733C393.572 326.733 393.642 326.758 393.699 326.803C393.756 326.849 393.795 326.912 393.811 326.983Z" fill="#B96271"/>
<path d="M357.372 145.964C374.871 155.087 375.027 174.251 383.421 182.73C388.549 187.917 402.174 191.489 406.204 197.9C412.824 208.431 404.06 214.782 407.689 220.503C412.817 228.603 424.476 225.187 429.953 239.119C435.43 253.052 423.095 272.053 386.352 284.926C349.609 297.799 325.69 288.81 321.504 276.885C317.319 264.961 328.926 257.995 327.649 248.657C326.84 242.728 318.157 240.416 315.27 229.767C312.383 219.117 322.061 213.188 321.452 203.717C320.844 194.246 310.855 173.192 321.66 158.763C332.466 144.334 348.741 141.443 357.372 145.964Z" fill="#071843"/>
<path d="M355.754 146.661C360.508 148.61 364.721 151.676 368.036 155.598C371.494 159.759 374.455 164.308 376.86 169.153C378.345 171.976 379.755 174.904 381.84 177.305C383.69 179.368 385.894 181.085 388.348 182.374C393.284 185.116 398.798 186.82 403.421 190.081C407.8 193.201 411.718 197.826 411.585 203.488C411.511 206.57 410.101 209.379 409.574 212.381C409.039 215.204 409.329 218.509 412.03 220.132C414.338 221.518 417.27 221.726 419.756 222.726C422.206 223.706 424.482 225.075 426.494 226.78C428.524 228.46 430.179 230.544 431.355 232.9C432.531 235.256 433.201 237.831 433.322 240.461C433.819 252.681 424.357 261.893 415.169 268.437C413.885 269.348 412.594 270.245 411.303 271.142C411.102 271.283 410.843 271.009 411.043 270.853C420.186 263.938 430.776 255.853 432.053 243.566C432.368 240.875 432.058 238.147 431.145 235.596C430.232 233.044 428.742 230.738 426.791 228.855C424.85 226.985 422.587 225.479 420.112 224.409C417.707 223.371 415.125 222.993 412.691 222.037C411.502 221.623 410.446 220.9 409.631 219.942C408.816 218.985 408.271 217.828 408.052 216.59C407.54 213.811 408.327 211.099 409.121 208.438C409.96 205.637 410.605 202.865 409.7 199.99C408.757 197.327 407.111 194.969 404.935 193.164C400.72 189.407 395.339 187.554 390.337 185.123C385.335 182.692 381.001 179.528 378.226 174.57C376.816 172.065 375.695 169.419 374.389 166.863C373.194 164.483 371.866 162.172 370.411 159.941C367.524 155.494 363.917 151.448 359.398 148.661C358.224 147.929 356.981 147.313 355.687 146.824C355.531 146.838 355.613 146.609 355.754 146.661Z" fill="#071843"/>
<path d="M317.727 268.281C317.725 266.18 318.181 264.104 319.063 262.197C319.99 260.24 321.252 258.492 322.35 256.602C323.449 254.712 324.317 252.896 324.25 250.806C324.176 248.287 322.632 246.212 321.022 244.403C319.253 242.596 317.616 240.664 316.124 238.623C314.048 235.473 312.74 231.883 312.303 228.138C311.866 224.393 312.313 220.598 313.608 217.057C314.402 214.656 315.389 212.321 316.205 209.928C317.117 207.318 317.676 204.599 317.868 201.842C318.254 195.78 317.229 189.711 317.289 183.641C317.376 177.408 318.1 171.2 319.448 165.114C319.448 164.966 319.708 165.04 319.679 165.188C318.508 170.667 317.911 176.253 317.897 181.855C317.897 187.176 318.64 192.416 318.892 197.714C319.076 200.307 319.004 202.911 318.677 205.489C318.286 207.89 317.68 210.251 316.866 212.544C315.278 217.279 313.593 221.985 314.031 227.069C314.447 232.069 316.442 236.808 319.73 240.602C322.58 243.885 326.313 247.368 325.601 252.155C324.992 256.202 321.964 259.247 320.324 262.864C319.476 264.844 319.056 266.98 319.092 269.133C319.128 271.287 319.619 273.408 320.532 275.359C324.985 285.43 336.8 288.217 346.826 286.475C346.887 286.47 346.948 286.487 346.998 286.524C347.047 286.561 347.081 286.614 347.094 286.674C347.107 286.734 347.097 286.797 347.067 286.85C347.037 286.904 346.988 286.944 346.93 286.964C338.291 288.847 328.05 287.238 322.142 280.117C319.339 276.803 317.778 272.619 317.727 268.281Z" fill="#071843"/>
<path d="M340.481 229.137C328.963 249.517 314.625 280.369 305.912 289.758C294.995 301.519 267.647 339.152 264.285 345.911C260.219 354.063 305.845 371.012 307.767 365.061C309.111 360.881 325.341 335.684 339.612 305.884C346.967 290.544 353.713 255.586 356.733 235.481C359.754 215.375 346.292 218.843 340.481 229.137Z" fill="#FF9581"/>
<path d="M273.139 332.319C255.447 354.33 254.274 376.533 254.645 381.231C254.859 384.523 255.611 387.757 256.872 390.806C257.562 398.002 261.028 400.537 261.028 400.537C261.028 400.537 259.373 409.089 264.382 410.949C270 413.046 271.225 400.626 276.086 394.2C287.218 379.49 307.166 361.681 310.803 357.761L273.139 332.319Z" fill="#FF9581"/>
<path d="M276.917 370.604C273.726 374.999 270.475 379.238 267.9 384.04C265.072 389.309 263.232 394.86 261.221 400.455C261.212 400.473 261.2 400.489 261.185 400.502C261.17 400.514 261.153 400.524 261.134 400.53C261.116 400.537 261.096 400.539 261.076 400.538C261.057 400.536 261.038 400.531 261.02 400.522C260.994 400.51 260.972 400.49 260.957 400.465C260.942 400.439 260.936 400.41 260.939 400.381C263.285 389.126 268.676 378.727 276.523 370.315C276.731 370.122 277.05 370.389 276.917 370.604Z" fill="#2F351A"/>
<path d="M268.998 362.608C266.134 367.054 261.146 374.902 257.057 390.866C257.057 390.917 256.953 390.91 256.961 390.866C258.099 380.475 262.11 370.606 268.546 362.363C268.746 362.067 269.191 362.311 268.998 362.608Z" fill="#2F351A"/>
<path d="M290.639 377.333C292.865 375.992 293.607 377.14 291.96 381.439C290.312 385.737 280.316 401.404 286.082 404.413C291.849 407.422 305.682 385.144 307.819 377.785C309.957 370.426 310.788 357.776 310.788 357.776C307.255 361.578 297.726 369.967 290.639 377.333Z" fill="#FF9581"/>
<path d="M350.685 286.231L314.899 268.896C314.899 268.896 329 242.514 340.288 228.322C351.576 214.13 362.166 214.396 359.108 240.705C357.38 256.06 354.566 271.273 350.685 286.231Z" fill="#6C72FC"/>
<path d="M320.176 262.642C325.123 264.865 330.024 267.209 334.877 269.675C337.26 270.897 339.664 272.076 342.032 273.343C344.399 274.61 346.818 276.115 349.268 277.419C349.438 277.508 349.319 277.782 349.141 277.701C346.737 276.53 344.258 275.522 341.839 274.366C339.419 273.21 336.911 271.883 334.454 270.66C329.601 268.19 324.809 265.601 320.079 262.894C319.946 262.79 320.027 262.575 320.176 262.642Z" fill="#B3B29D"/>
<path d="M359.138 240.705C357.396 256.058 354.572 271.268 350.685 286.223L322.246 272.446L353.416 218.962C358.166 219.147 360.912 225.676 359.138 240.705Z" fill="#6C72FC"/>
<path d="M343.16 295.087L344.881 313.117L440.061 314.237C440.061 314.237 410.538 230.93 375.346 217.109C357.743 210.18 349.037 216.005 344.644 228.922C343.538 232.19 328.183 265.028 331.805 279.501C335.033 292.219 343.16 295.087 343.16 295.087Z" fill="#6C72FC"/>
<path d="M355.717 287.972C360.259 287.859 364.803 288.107 369.305 288.713C371.532 289.047 373.758 289.454 375.985 289.988C377.09 290.233 378.211 290.44 379.302 290.64C380.457 290.886 381.64 290.979 382.82 290.914C382.843 290.914 382.866 290.924 382.883 290.94C382.899 290.957 382.909 290.98 382.909 291.003C382.909 291.027 382.899 291.049 382.883 291.066C382.866 291.083 382.843 291.092 382.82 291.092C381.728 291.281 380.624 291.392 379.517 291.426C378.436 291.42 377.357 291.336 376.289 291.174C374.018 290.855 371.754 290.433 369.483 290.092C364.897 289.403 360.318 288.721 355.702 288.387C355.472 288.358 355.472 287.972 355.717 287.972Z" fill="#B3B29D"/>
<path d="M345.149 293.597C348.785 292.731 352.47 292.085 356.184 291.663C358.047 291.463 359.895 291.381 361.78 291.344H364.459C365.35 291.344 366.433 291.515 367.428 291.515C367.441 291.511 367.455 291.51 367.469 291.512C367.482 291.515 367.495 291.52 367.506 291.529C367.517 291.537 367.526 291.548 367.533 291.56C367.539 291.572 367.542 291.586 367.542 291.6C367.542 291.614 367.539 291.627 367.533 291.64C367.526 291.652 367.517 291.663 367.506 291.671C367.495 291.679 367.482 291.685 367.469 291.687C367.455 291.69 367.441 291.689 367.428 291.685C366.507 291.685 365.58 291.915 364.66 292.004L361.877 292.263C360.021 292.441 358.166 292.641 356.31 292.797C352.6 293.115 348.889 293.471 345.178 293.931C344.985 293.953 344.963 293.642 345.149 293.597Z" fill="#B3B29D"/>
<path d="M367.227 221.459C367.227 223.393 361.29 237.378 352.837 238.986C350.069 239.505 346.566 224.564 346.566 224.564L346.054 223.527L338.907 208.912L354.285 192.949L356.511 190.778C356.511 190.778 358.203 194.906 360.222 200.071C360.318 200.308 360.415 200.545 360.511 200.812C360.608 201.079 360.756 201.368 360.86 201.642C361.179 202.383 361.498 203.199 361.802 203.984C362.032 204.584 362.263 205.162 362.485 205.8C362.708 206.437 362.938 207.06 363.175 207.69C365.461 213.981 367.213 220.644 367.227 221.459Z" fill="#FF9581"/>
<path d="M360.288 200.064C359.763 204.77 358.219 209.306 355.764 213.357C353.308 217.409 350 220.879 346.069 223.527L338.922 208.912L354.299 192.949L356.526 190.778C356.526 190.778 358.232 194.876 360.288 200.064Z" fill="#1D1A33"/>
<path d="M311.189 193.016C318.439 220.629 335.82 219.406 341.779 217.843C347.19 216.42 365.431 210.884 361.075 182.67C356.719 154.457 341.572 149.099 329.03 151.7C316.487 154.301 303.923 165.403 311.189 193.016Z" fill="#FF9581"/>
<path d="M316.049 188.777C316.627 188.451 317.187 188.095 317.727 187.71C318.365 187.295 318.922 187.028 319.211 186.294C319.275 186.077 319.266 185.845 319.185 185.634C319.105 185.423 318.958 185.243 318.766 185.123C318.35 184.945 317.894 184.882 317.445 184.939C316.996 184.997 316.571 185.173 316.213 185.449C315.398 185.896 314.781 186.631 314.484 187.51C314.443 187.647 314.429 187.792 314.445 187.935C314.46 188.077 314.503 188.216 314.572 188.342C314.641 188.468 314.734 188.579 314.846 188.669C314.959 188.759 315.088 188.826 315.226 188.866C315.362 188.906 315.505 188.919 315.646 188.904C315.788 188.888 315.925 188.845 316.049 188.777Z" fill="#071843"/>
<path d="M334.031 183.76C333.382 183.898 332.726 184 332.065 184.063C331.386 184.269 330.657 184.243 329.994 183.989C329.8 183.872 329.651 183.692 329.572 183.48C329.492 183.267 329.487 183.034 329.556 182.818C329.753 182.411 330.054 182.063 330.43 181.811C330.806 181.558 331.242 181.41 331.694 181.381C332.599 181.185 333.545 181.33 334.351 181.788C334.529 181.903 334.67 182.067 334.757 182.261C334.843 182.454 334.871 182.669 334.837 182.878C334.803 183.088 334.709 183.282 334.566 183.439C334.423 183.595 334.237 183.707 334.031 183.76Z" fill="#071843"/>
<path d="M331.664 190.244C331.664 190.17 331.842 190.281 331.864 190.355C332.458 192.23 333.445 194.276 335.338 194.298C335.347 194.295 335.356 194.294 335.366 194.295C335.375 194.296 335.384 194.299 335.392 194.305C335.4 194.31 335.406 194.318 335.411 194.326C335.415 194.335 335.418 194.344 335.418 194.354C335.418 194.363 335.415 194.373 335.411 194.381C335.406 194.39 335.4 194.397 335.392 194.402C335.384 194.408 335.375 194.411 335.366 194.412C335.356 194.414 335.347 194.412 335.338 194.409C333.215 194.876 331.924 192.112 331.664 190.244Z" fill="#071843"/>
<path d="M332.644 187.732C335.545 186.465 337.839 192.356 335.182 193.527C332.525 194.698 330.209 188.799 332.644 187.732Z" fill="#071843"/>
<path d="M333.92 187.591C334.566 187.717 335.308 188.11 335.954 187.925C336.599 187.739 336.993 186.88 337.23 186.109C337.23 186.027 337.327 186.057 337.356 186.109C337.824 187.235 337.846 188.562 336.703 189.207C335.56 189.851 334.477 189.11 333.735 188.088C333.601 187.917 333.66 187.539 333.92 187.591Z" fill="#071843"/>
<path d="M321.579 193.89C321.534 193.824 321.475 194.031 321.504 194.105C322.299 195.899 322.9 198.092 321.504 199.36C321.46 199.36 321.504 199.486 321.564 199.449C323.471 198.359 322.64 195.462 321.579 193.89Z" fill="#071843"/>
<path d="M319.211 192.653C316.191 193.609 318.328 199.567 321.126 198.678C323.924 197.789 321.734 191.845 319.211 192.653Z" fill="#071843"/>
<path d="M318.105 193.483C317.749 193.972 317.489 194.706 316.94 194.965C316.391 195.224 315.589 194.765 314.951 194.298C314.884 194.254 314.855 194.298 314.877 194.394C315.255 195.543 316.057 196.618 317.237 196.425C318.417 196.232 318.721 195.024 318.551 193.794C318.528 193.549 318.246 193.29 318.105 193.483Z" fill="#071843"/>
<path d="M339.256 204.036C339.071 204.666 338.974 205.444 338.38 205.844C337.734 206.186 337.024 206.391 336.295 206.445C336.279 206.451 336.266 206.463 336.258 206.477C336.25 206.492 336.247 206.509 336.25 206.526C336.254 206.537 336.259 206.546 336.267 206.554C336.275 206.562 336.284 206.567 336.295 206.57C336.727 206.773 337.206 206.854 337.681 206.804C338.156 206.755 338.608 206.576 338.989 206.289C339.287 206.002 339.493 205.634 339.583 205.231C339.673 204.828 339.642 204.407 339.494 204.021C339.481 204 339.463 203.983 339.441 203.971C339.419 203.96 339.395 203.954 339.37 203.956C339.346 203.957 339.322 203.966 339.302 203.98C339.282 203.994 339.266 204.013 339.256 204.036Z" fill="#071843"/>
<path d="M327.827 201.353C327.827 201.353 328.755 204.177 329.356 205.422C330.665 205.135 331.872 204.502 332.851 203.59C333.83 202.677 334.546 201.518 334.922 200.234C334.967 200.079 334.729 200.019 334.655 200.153C333.591 202.013 331.953 203.482 329.987 204.34C329.727 204.036 328.569 199.456 328.362 199.538C327.432 200.091 326.583 200.769 325.838 201.553C323.746 195.728 322.603 189.614 320.436 183.849C320.43 183.825 320.42 183.802 320.406 183.782C320.392 183.762 320.374 183.745 320.354 183.732C320.333 183.719 320.31 183.71 320.286 183.706C320.262 183.702 320.237 183.702 320.213 183.708C320.189 183.712 320.167 183.721 320.147 183.735C320.127 183.748 320.11 183.765 320.097 183.785C320.083 183.805 320.074 183.828 320.07 183.851C320.066 183.875 320.067 183.899 320.072 183.923C320.814 190.415 323.041 197.173 325.074 203.243C325.289 203.991 327.434 201.805 327.827 201.353Z" fill="#071843"/>
<path d="M331.004 204.466C332.116 204.993 333.345 205.228 334.573 205.148C335.242 205.081 335.873 204.806 336.377 204.362C337.468 203.391 336.911 202.213 336.176 201.338C335.778 200.878 335.327 200.465 334.833 200.108C334.054 201.931 332.712 203.457 331.004 204.466Z" fill="#071843"/>
<path d="M334.573 205.148C335.242 205.081 335.873 204.806 336.377 204.362C337.468 203.391 336.911 202.213 336.176 201.338C334.892 202.168 334.017 203.769 334.573 205.148Z" fill="#FF98BB"/>
<path d="M361.298 183.76C356.511 186.554 350.27 175.526 350.27 175.526C350.27 175.526 327.145 181.025 317.868 164.269C317.868 164.269 318.944 177.023 309.808 186.887C309.808 186.887 302.387 167.344 316.027 157.11C316.027 157.11 332.028 142.169 349.082 152.663C366.136 163.157 364.511 181.855 361.298 183.76Z" fill="#071843"/>
<path d="M317.207 163.009C318.109 165.824 319.601 168.413 321.586 170.605C323.553 172.86 325.969 174.68 328.681 175.949C329.352 176.272 330.044 176.552 330.751 176.786L331.805 177.171C332.161 177.275 332.547 177.357 332.889 177.438C333.631 177.594 334.373 177.786 335.071 177.912C335.809 178.018 336.552 178.085 337.297 178.113C337.668 178.113 338.039 178.187 338.403 178.194L339.516 178.157L341.742 178.075C343.227 177.89 344.644 177.623 346.069 177.334C344.585 177.334 343.16 177.46 341.713 177.431L339.56 177.32L338.484 177.268C338.128 177.231 337.742 177.157 337.423 177.105C336.681 176.979 336.02 176.867 335.315 176.771C334.618 176.631 333.929 176.45 333.252 176.23L332.228 175.956L331.226 175.608C330.557 175.376 329.903 175.104 329.267 174.792C326.688 173.572 324.338 171.917 322.321 169.901C320.274 167.878 318.55 165.553 317.207 163.009Z" fill="#071843"/>
<path d="M357.201 185.983C357.201 185.983 360.081 175.496 364.623 176.23C369.164 176.964 369.075 190.696 365.239 193.957C364.781 194.398 364.242 194.745 363.651 194.977C363.059 195.21 362.428 195.324 361.793 195.313C361.157 195.302 360.53 195.166 359.947 194.913C359.365 194.66 358.837 194.295 358.396 193.839L358.262 193.69L357.201 185.983Z" fill="#FF9581"/>
<path d="M364.541 180.128C364.558 180.124 364.575 180.126 364.591 180.134C364.606 180.142 364.617 180.156 364.623 180.173C364.628 180.183 364.63 180.195 364.63 180.206C364.63 180.218 364.628 180.229 364.623 180.239C361.943 182.626 361.327 186.124 361.246 189.548C361.765 188.065 362.812 186.969 364.764 187.524C364.867 187.524 364.83 187.71 364.764 187.725C364.15 187.745 363.558 187.955 363.069 188.325C362.58 188.695 362.218 189.208 362.032 189.792C361.73 190.774 361.533 191.785 361.446 192.808C361.402 193.142 360.845 193.172 360.83 192.808V192.727C359.279 188.762 360.392 182.063 364.541 180.128Z" fill="#071843"/>
<path d="M371.369 238.756C374.946 248.494 409.833 316.067 411.867 319.98C411.867 319.98 446.911 343.48 451.942 319.239C455.215 303.491 405.611 242.803 383.406 225.535C373.209 217.613 363.88 218.309 371.369 238.756Z" fill="#FF9581"/>
<path d="M422.361 263.242L386.886 281.11C386.886 281.11 374.426 253.897 369.973 236.377C365.52 218.858 372.162 210.558 391.25 228.966C402.419 239.642 412.815 251.096 422.361 263.242Z" fill="#6C72FC"/>
<path d="M385.076 273.143C389.85 270.554 394.689 268.084 399.592 265.732C402.011 264.576 404.408 263.383 406.85 262.271C409.292 261.159 411.971 260.152 414.487 259.003C414.665 258.921 414.813 259.181 414.635 259.27C412.245 260.47 409.937 261.834 407.555 263.042C405.173 264.25 402.583 265.45 400.097 266.644C395.184 269 390.216 271.223 385.195 273.313C385.046 273.432 384.927 273.217 385.076 273.143Z" fill="#B3B29D"/>
<path d="M388.319 280.376C387.814 280.569 387.295 280.761 386.835 280.969L387.042 281.043C386.234 278.56 385.284 276.137 384.378 273.691C383.473 271.246 382.426 268.867 381.41 266.473C380.393 264.079 379.317 261.708 378.166 259.366C377.016 257.024 375.888 254.682 374.604 252.392C375.346 254.897 376.267 257.343 377.194 259.803C378.122 262.264 379.102 264.657 380.111 267.059C381.12 269.46 382.189 271.831 383.287 274.195C384.386 276.559 385.514 278.901 386.775 281.199L386.857 281.354L386.99 281.273C387.406 280.969 387.859 280.672 388.319 280.376Z" fill="#B3B29D"/>
<path d="M373.647 257.024C374.938 259.363 376.77 261.36 378.99 262.849C377.706 260.505 375.872 258.507 373.647 257.024Z" fill="#B3B29D"/>
<path d="M420.141 264.198C420.683 263.716 421.307 263.331 421.848 262.857C420.156 260.982 418.59 258.958 416.987 257.002C415.384 255.045 413.551 252.889 411.792 250.858C408.319 246.834 404.653 242.995 401.113 239.001C399.124 236.777 397.091 234.554 395.035 232.39C394.939 232.279 395.117 232.116 395.228 232.212C397.375 234.11 399.471 236.056 401.514 238.052L401.128 237.444C400.49 236.437 399.814 235.429 399.124 234.48C399.08 234.421 399.169 234.361 399.221 234.413C400.063 235.322 400.809 236.316 401.447 237.378C401.714 237.822 401.952 238.282 402.189 238.741C403.673 240.224 405.158 241.748 406.642 243.314C410.264 247.207 413.744 251.224 417.084 255.364C419.06 257.694 420.904 260.134 422.605 262.671C422.658 262.747 422.679 262.841 422.664 262.932C422.649 263.024 422.598 263.106 422.524 263.16C422.501 263.177 422.476 263.19 422.45 263.197C421.707 263.509 420.965 264.013 420.223 264.354C420.127 264.413 420.067 264.265 420.141 264.198Z" fill="#B3B29D"/>
<path d="M426.962 382.543C419.258 398.566 408.742 414.692 392.4 423.533C390.605 424.565 388.513 424.961 386.463 424.659C379.205 428.758 375.094 426.564 375.094 426.564C367.168 428.313 363.272 425.497 363.272 425.497C363.272 425.497 354.7 430.21 350.989 425.497C346.811 420.235 359.665 414.647 364.845 407.259C376.719 390.325 388.868 362.941 391.807 357.724L426.962 382.543Z" fill="#FF9581"/>
<path d="M389.788 398.269C386.196 403.175 382.79 408.096 378.545 412.498C373.892 417.33 368.6 421.198 363.316 425.267C363.3 425.282 363.288 425.299 363.279 425.319C363.27 425.339 363.266 425.36 363.266 425.382C363.266 425.404 363.27 425.425 363.279 425.445C363.288 425.465 363.3 425.482 363.316 425.497C363.338 425.522 363.367 425.539 363.399 425.546C363.431 425.553 363.465 425.548 363.494 425.534C374.233 419.679 384.222 409.163 390.011 398.425C390.152 398.165 389.966 398.017 389.788 398.269Z" fill="#2F351A"/>
<path d="M401.061 403.938C397.299 408.526 390.634 416.537 374.998 426.401C374.946 426.401 374.998 426.527 375.042 426.497C386.048 421.45 394.471 413.995 401.284 404.116C401.492 403.812 401.314 403.635 401.061 403.938Z" fill="#2F351A"/>
<path d="M407.065 407.103C400.386 414.655 395.191 418.575 386.478 424.608C386.426 424.608 386.478 424.734 386.53 424.704C397.15 418.886 400.349 415.574 407.355 407.296C407.6 407.007 407.325 406.829 407.065 407.103Z" fill="#2F351A"/>
<path d="M377.87 385.967C378.545 383.151 377.068 382.78 373.031 385.967C368.994 389.154 355.717 405.258 350.522 400.159C345.327 395.06 364.34 372.642 371.472 367.825C378.604 363.008 391.837 357.731 391.837 357.731C388.979 362.845 383.295 375.881 377.87 385.967Z" fill="#FF9581"/>
<path d="M389.113 358.695C387.695 364.572 413.603 401.093 419.266 394.267C445.983 362.059 452.662 325.509 452.091 317.26C451.348 306.44 418.739 308.619 414.442 314.296C408.839 321.603 390.516 352.877 389.113 358.695Z" fill="#FF9581"/>
<path d="M278.275 442.957C278.393 449.738 278.534 456.556 278.379 463.344C278.275 467.495 277.911 471.571 277.421 475.647C275.861 477.057 274.14 478.278 272.293 479.285C272.427 478.248 272.553 477.218 272.679 476.202C273.28 471.326 273.421 466.472 273.57 461.566C273.57 461.55 273.567 461.535 273.561 461.52C273.555 461.506 273.546 461.493 273.535 461.482C273.524 461.471 273.511 461.462 273.496 461.456C273.482 461.45 273.466 461.447 273.451 461.447C273.435 461.447 273.42 461.45 273.405 461.456C273.391 461.462 273.378 461.471 273.367 461.482C273.356 461.493 273.347 461.506 273.341 461.52C273.335 461.535 273.332 461.55 273.332 461.566C273.028 466.598 272.352 471.66 271.625 476.654C271.462 477.736 271.269 478.826 271.069 479.908C269.325 480.782 267.519 481.525 265.666 482.131C265.874 480.938 266.052 479.745 266.237 478.581C266.668 475.824 267.046 473.068 267.343 470.289C267.914 464.833 268.182 459.351 268.145 453.866C268.145 453.636 267.833 453.681 267.818 453.866C267.506 459.503 267.012 465.133 266.334 470.755C266 473.409 265.636 476.062 265.206 478.7C264.998 479.967 264.746 481.227 264.464 482.502C261.067 483.503 257.591 484.212 254.074 484.621C244.033 485.881 233.635 483.643 224.158 480.301C215.833 477.461 208.319 472.653 202.258 466.287C205.29 462.426 207.752 458.151 209.568 453.592C209.578 453.562 209.577 453.53 209.564 453.501C209.552 453.472 209.529 453.449 209.501 453.436C209.476 453.428 209.449 453.427 209.423 453.435C209.398 453.443 209.376 453.459 209.36 453.481C207.727 456.302 205.996 459.041 204.165 461.699C203.297 462.952 202.369 464.152 201.441 465.353L201.174 465.049C200.595 464.389 199.987 463.678 199.393 462.922C201.187 460.409 202.833 457.794 204.321 455.089C206.54 451.308 208.423 447.341 209.946 443.231C210.05 442.957 209.716 442.772 209.575 443.031C207.482 446.737 205.501 450.546 203.356 454.244C201.872 456.852 200.18 459.357 198.606 461.922C196.922 459.557 195.638 456.815 196.157 453.718C196.595 451.161 198.102 449.012 199.371 446.877C200.805 444.475 202.115 442.002 203.297 439.466C205.753 434.279 215.319 392.955 229.62 395.26C229.694 395.134 253.703 378.778 266.156 390.532C285.919 409.171 285.347 458.135 284.279 463.567C283.513 467.555 281.635 471.247 278.861 474.216C279.262 470.763 279.418 467.28 279.492 463.893C279.648 456.86 279.143 449.901 278.601 442.92C278.599 442.899 278.593 442.878 278.583 442.859C278.573 442.841 278.559 442.824 278.543 442.811C278.526 442.798 278.507 442.788 278.486 442.783C278.466 442.777 278.444 442.776 278.423 442.779C278.402 442.781 278.381 442.787 278.362 442.797C278.343 442.807 278.326 442.821 278.312 442.837C278.298 442.854 278.288 442.873 278.281 442.893C278.275 442.914 278.273 442.936 278.275 442.957Z" fill="#071843"/>
<path d="M240.374 724.387H286.698C286.698 724.387 309.2 650.767 306.135 629.638C302.008 601.151 291.76 528.776 291.76 528.776H240.374C240.374 528.776 257.443 606.109 259.67 632.529C260.723 645.409 240.374 724.387 240.374 724.387Z" fill="#FFC5C1"/>
<path d="M316.814 766.074C314.305 766.874 242.904 765.933 240.211 764.176C239.179 763.517 237.984 750.903 237.984 738.327C237.984 731.924 247.884 694.076 247.884 694.076L294.186 694.573L283.113 741.121C283.113 741.121 311.708 753.601 314.461 755.839C317.215 758.077 319.352 765.273 316.814 766.074Z" fill="#FFC5C1"/>
<path d="M202.488 766.948C199.965 766.207 141.291 725.573 140.037 722.608C139.555 721.489 144.98 712.611 151.845 702.073C153.329 699.79 154.872 697.448 156.453 695.084C163.698 684.456 171.483 674.206 179.779 664.373L219.379 692.083L194.673 721.408L189.723 728.159C189.723 728.159 205.219 753.757 206.251 757.151C207.282 760.545 205.011 767.682 202.488 766.948Z" fill="#FFC5C1"/>
<path d="M140.03 722.616C141.291 725.58 199.957 766.222 202.481 766.948C205.004 767.674 207.29 760.53 206.265 757.158C205.62 755.016 199.282 744.145 194.636 736.341C200.18 745.908 204.707 756.01 189.367 744.33C176.617 734.644 156.179 714.531 148.646 707.023C143.384 715.287 139.629 721.675 140.03 722.616Z" fill="#660BA4"/>
<path d="M163.578 684.82L201.761 712.982C201.761 712.982 247.506 663.395 253.487 644.668C261.465 619.678 270.371 565.208 270.371 565.208L276.197 563.355C283.499 558.753 290.891 535.253 291.737 528.776H223.936C223.936 528.776 214.05 556.974 219.342 574.412C219.342 574.412 207.045 622.746 203.386 629.801C193.805 648.24 163.578 684.82 163.578 684.82Z" fill="#FFC5C1"/>
<path d="M217.538 540.27C217.598 540.344 297.778 540.27 298.372 539.788C298.661 539.573 289.912 481.042 280.694 465.345C278.342 461.344 265.213 454.889 256.167 461.899C237.071 476.692 217.242 539.862 217.538 540.27Z" fill="#355F81"/>
<path d="M254.482 484.643C253.672 484.643 252.88 484.883 252.206 485.333C251.532 485.782 251.007 486.421 250.697 487.169C250.387 487.916 250.306 488.739 250.464 489.532C250.622 490.326 251.012 491.055 251.585 491.627C252.158 492.199 252.888 492.589 253.683 492.747C254.477 492.904 255.301 492.823 256.05 492.514C256.798 492.204 257.438 491.68 257.888 491.007C258.338 490.334 258.578 489.543 258.578 488.734C258.578 487.649 258.147 486.609 257.379 485.842C256.61 485.074 255.568 484.643 254.482 484.643ZM254.482 492.225C253.789 492.225 253.112 492.02 252.536 491.635C251.96 491.251 251.511 490.705 251.246 490.066C250.98 489.426 250.911 488.723 251.046 488.044C251.181 487.366 251.515 486.743 252.005 486.253C252.495 485.764 253.119 485.431 253.798 485.296C254.478 485.161 255.182 485.23 255.822 485.495C256.462 485.76 257.009 486.208 257.394 486.784C257.779 487.359 257.985 488.035 257.985 488.727C257.985 489.656 257.616 490.547 256.96 491.206C256.303 491.864 255.412 492.236 254.482 492.24V492.225Z" fill="#6C72FC"/>
<path d="M279.277 484.643C278.467 484.643 277.675 484.883 277.001 485.333C276.327 485.782 275.802 486.421 275.492 487.169C275.182 487.916 275.101 488.739 275.259 489.532C275.417 490.326 275.807 491.055 276.38 491.627C276.953 492.199 277.683 492.589 278.478 492.747C279.272 492.904 280.096 492.823 280.844 492.514C281.593 492.204 282.233 491.68 282.683 491.007C283.133 490.334 283.373 489.543 283.373 488.734C283.373 487.649 282.942 486.609 282.174 485.842C281.405 485.074 280.363 484.643 279.277 484.643ZM279.277 492.225C278.584 492.225 277.907 492.02 277.331 491.635C276.755 491.251 276.306 490.705 276.041 490.066C275.775 489.426 275.706 488.723 275.841 488.044C275.976 487.366 276.31 486.743 276.8 486.253C277.29 485.764 277.914 485.431 278.593 485.296C279.273 485.161 279.977 485.23 280.617 485.495C281.257 485.76 281.804 486.208 282.189 486.784C282.574 487.359 282.78 488.035 282.78 488.727C282.778 489.655 282.409 490.546 281.752 491.203C281.096 491.861 280.207 492.234 279.277 492.24V492.225Z" fill="#6C72FC"/>
<path d="M266.883 465.545C266.07 465.543 265.274 465.78 264.596 466.229C263.919 466.678 263.389 467.317 263.076 468.066C262.762 468.815 262.677 469.641 262.833 470.438C262.989 471.235 263.378 471.967 263.951 472.544C264.523 473.12 265.255 473.514 266.052 473.675C266.849 473.836 267.676 473.758 268.428 473.45C269.18 473.142 269.824 472.618 270.279 471.944C270.733 471.271 270.977 470.478 270.98 469.666C270.983 469.127 270.879 468.592 270.674 468.093C270.47 467.593 270.169 467.139 269.788 466.756C269.408 466.373 268.955 466.069 268.456 465.862C267.958 465.654 267.423 465.546 266.883 465.545ZM266.883 473.134C266.192 473.133 265.516 472.927 264.942 472.542C264.368 472.157 263.921 471.611 263.658 470.973C263.395 470.334 263.327 469.632 263.464 468.955C263.6 468.279 263.934 467.657 264.424 467.17C264.914 466.683 265.538 466.352 266.216 466.219C266.894 466.086 267.597 466.156 268.235 466.422C268.873 466.687 269.418 467.136 269.801 467.711C270.184 468.285 270.387 468.961 270.386 469.651C270.378 470.575 270.006 471.459 269.35 472.111C268.695 472.763 267.808 473.13 266.883 473.134Z" fill="#6C72FC"/>
<path d="M229.68 522.58C228.867 522.577 228.071 522.815 227.393 523.264C226.715 523.712 226.186 524.352 225.872 525.101C225.558 525.85 225.474 526.675 225.63 527.472C225.785 528.269 226.174 529.002 226.747 529.578C227.32 530.155 228.051 530.548 228.848 530.709C229.645 530.871 230.472 530.792 231.225 530.484C231.977 530.176 232.621 529.652 233.075 528.979C233.529 528.305 233.773 527.513 233.776 526.7C233.779 526.161 233.676 525.626 233.471 525.127C233.267 524.628 232.965 524.174 232.585 523.791C232.204 523.408 231.752 523.104 231.253 522.896C230.755 522.688 230.22 522.581 229.68 522.58ZM229.68 530.169C228.988 530.169 228.313 529.964 227.738 529.581C227.163 529.197 226.715 528.652 226.45 528.014C226.186 527.376 226.117 526.674 226.251 525.997C226.386 525.32 226.719 524.698 227.208 524.21C227.697 523.722 228.32 523.39 228.998 523.255C229.676 523.12 230.379 523.189 231.017 523.453C231.656 523.718 232.202 524.165 232.586 524.739C232.97 525.313 233.175 525.988 233.175 526.678C233.171 527.603 232.802 528.488 232.147 529.142C231.492 529.796 230.606 530.165 229.68 530.169Z" fill="#6C72FC"/>
<path d="M254.482 522.58C253.669 522.577 252.873 522.815 252.195 523.264C251.518 523.712 250.988 524.352 250.674 525.101C250.36 525.85 250.276 526.675 250.432 527.472C250.588 528.269 250.977 529.002 251.549 529.578C252.122 530.155 252.854 530.548 253.65 530.709C254.447 530.871 255.274 530.792 256.027 530.484C256.779 530.176 257.423 529.652 257.877 528.979C258.332 528.305 258.576 527.513 258.579 526.7C258.581 526.161 258.478 525.626 258.273 525.127C258.069 524.628 257.768 524.174 257.387 523.791C257.006 523.408 256.554 523.104 256.055 522.896C255.557 522.688 255.022 522.581 254.482 522.58ZM254.482 530.169C253.791 530.167 253.115 529.961 252.541 529.576C251.967 529.192 251.52 528.646 251.257 528.007C250.994 527.369 250.926 526.667 251.063 525.99C251.199 525.313 251.533 524.692 252.023 524.205C252.513 523.718 253.136 523.387 253.815 523.253C254.493 523.12 255.196 523.191 255.834 523.456C256.472 523.722 257.017 524.17 257.4 524.745C257.783 525.32 257.986 525.995 257.985 526.686C257.981 527.611 257.61 528.497 256.954 529.15C256.297 529.802 255.408 530.169 254.482 530.169Z" fill="#6C72FC"/>
<path d="M279.277 522.58C278.463 522.577 277.668 522.815 276.99 523.264C276.312 523.712 275.783 524.352 275.469 525.101C275.155 525.85 275.071 526.675 275.227 527.472C275.382 528.269 275.771 529.002 276.344 529.578C276.917 530.155 277.648 530.548 278.445 530.709C279.242 530.871 280.069 530.792 280.821 530.484C281.574 530.176 282.218 529.652 282.672 528.979C283.126 528.305 283.37 527.513 283.373 526.7C283.376 526.161 283.272 525.626 283.068 525.127C282.863 524.628 282.562 524.174 282.182 523.791C281.801 523.408 281.349 523.104 280.85 522.896C280.352 522.688 279.817 522.581 279.277 522.58ZM279.277 530.169C278.585 530.167 277.91 529.961 277.336 529.576C276.762 529.192 276.315 528.646 276.052 528.007C275.789 527.369 275.721 526.667 275.857 525.99C275.994 525.313 276.328 524.692 276.818 524.205C277.308 523.718 277.931 523.387 278.609 523.253C279.288 523.12 279.99 523.191 280.629 523.456C281.267 523.722 281.812 524.17 282.195 524.745C282.577 525.32 282.781 525.995 282.779 526.686C282.772 527.61 282.4 528.493 281.744 529.145C281.088 529.797 280.202 530.165 279.277 530.169Z" fill="#6C72FC"/>
<path d="M242.081 503.482C241.271 503.482 240.478 503.722 239.805 504.171C239.131 504.621 238.606 505.26 238.296 506.007C237.986 506.755 237.905 507.577 238.063 508.371C238.221 509.165 238.611 509.893 239.184 510.466C239.757 511.038 240.487 511.427 241.282 511.585C242.076 511.743 242.9 511.662 243.648 511.352C244.397 511.043 245.037 510.518 245.487 509.846C245.937 509.173 246.177 508.382 246.177 507.573C246.177 506.488 245.746 505.447 244.977 504.68C244.209 503.913 243.167 503.482 242.081 503.482ZM242.081 511.071C241.388 511.072 240.71 510.869 240.133 510.485C239.557 510.102 239.106 509.557 238.84 508.918C238.573 508.28 238.503 507.577 238.636 506.898C238.77 506.219 239.102 505.595 239.591 505.105C240.08 504.614 240.703 504.28 241.383 504.144C242.062 504.007 242.766 504.075 243.407 504.338C244.048 504.602 244.596 505.049 244.982 505.623C245.368 506.198 245.575 506.874 245.576 507.565C245.576 508.493 245.208 509.382 244.553 510.039C243.898 510.696 243.009 511.067 242.081 511.071Z" fill="#6C72FC"/>
<path d="M266.883 503.482C266.073 503.482 265.281 503.722 264.607 504.171C263.933 504.621 263.408 505.26 263.098 506.007C262.788 506.755 262.707 507.577 262.865 508.371C263.023 509.165 263.413 509.893 263.986 510.466C264.559 511.038 265.289 511.427 266.084 511.585C266.878 511.743 267.702 511.662 268.451 511.352C269.199 511.043 269.839 510.518 270.289 509.846C270.739 509.173 270.98 508.382 270.98 507.573C270.98 506.488 270.548 505.447 269.78 504.68C269.011 503.913 267.969 503.482 266.883 503.482ZM266.883 511.071C266.19 511.071 265.513 510.866 264.937 510.481C264.361 510.097 263.912 509.551 263.647 508.911C263.382 508.272 263.312 507.569 263.447 506.89C263.583 506.212 263.916 505.589 264.406 505.099C264.896 504.61 265.52 504.277 266.2 504.142C266.879 504.007 267.583 504.076 268.223 504.341C268.864 504.606 269.411 505.054 269.796 505.63C270.18 506.205 270.386 506.881 270.386 507.573C270.382 508.499 270.012 509.387 269.356 510.042C268.699 510.697 267.811 511.067 266.883 511.071Z" fill="#6C72FC"/>
<path d="M293.511 510.582C292.967 510.932 292.332 511.114 291.685 511.108C290.756 511.108 289.865 510.739 289.208 510.083C288.551 509.427 288.182 508.538 288.182 507.61C288.182 506.682 288.551 505.793 289.208 505.137C289.865 504.481 290.756 504.112 291.685 504.112C291.875 504.113 292.064 504.133 292.249 504.171C292.19 503.962 292.145 503.749 292.116 503.534H291.685C291.149 503.488 290.609 503.548 290.097 503.711C289.584 503.874 289.108 504.135 288.697 504.481C288.285 504.828 287.946 505.251 287.699 505.728C287.451 506.205 287.3 506.726 287.255 507.262C287.209 507.797 287.269 508.336 287.432 508.848C287.595 509.36 287.857 509.835 288.203 510.246C288.55 510.657 288.974 510.995 289.452 511.242C289.93 511.49 290.452 511.64 290.988 511.686C291.22 511.708 291.453 511.708 291.685 511.686C292.371 511.687 293.045 511.514 293.644 511.182C293.616 510.979 293.571 510.778 293.511 510.582Z" fill="#6C72FC"/>
<path d="M298.372 539.788L318.358 616.921C318.358 616.921 296.257 628.934 270.557 631.461C244.856 633.989 202.421 616.217 202.421 616.217L217.538 540.27L298.372 539.788Z" fill="#355F81"/>
<path d="M229.68 560.517C228.87 560.517 228.078 560.757 227.404 561.206C226.73 561.656 226.205 562.294 225.895 563.042C225.585 563.789 225.504 564.612 225.662 565.406C225.82 566.199 226.21 566.928 226.783 567.5C227.356 568.072 228.086 568.462 228.881 568.62C229.675 568.778 230.499 568.696 231.248 568.387C231.996 568.077 232.636 567.553 233.086 566.88C233.536 566.207 233.776 565.417 233.776 564.607C233.776 563.522 233.345 562.482 232.577 561.715C231.808 560.948 230.766 560.517 229.68 560.517ZM229.68 568.105C228.987 568.107 228.309 567.903 227.732 567.52C227.156 567.137 226.706 566.591 226.439 565.953C226.173 565.314 226.102 564.611 226.235 563.932C226.369 563.253 226.701 562.629 227.19 562.139C227.679 561.649 228.303 561.315 228.982 561.178C229.661 561.042 230.365 561.11 231.006 561.373C231.647 561.636 232.195 562.083 232.581 562.658C232.967 563.232 233.174 563.908 233.175 564.6C233.175 565.527 232.808 566.416 232.152 567.073C231.497 567.73 230.608 568.101 229.68 568.105Z" fill="#6C72FC"/>
<path d="M254.482 560.517C253.672 560.517 252.88 560.757 252.206 561.206C251.532 561.656 251.007 562.294 250.697 563.042C250.387 563.789 250.306 564.612 250.464 565.406C250.622 566.199 251.012 566.928 251.585 567.5C252.158 568.072 252.888 568.462 253.683 568.62C254.477 568.778 255.301 568.696 256.05 568.387C256.798 568.077 257.438 567.553 257.888 566.88C258.338 566.207 258.578 565.417 258.578 564.607C258.578 563.522 258.147 562.482 257.379 561.715C256.61 560.948 255.568 560.517 254.482 560.517ZM254.482 568.105C253.789 568.105 253.112 567.9 252.536 567.516C251.96 567.131 251.511 566.585 251.246 565.946C250.98 565.307 250.911 564.604 251.046 563.925C251.181 563.246 251.515 562.623 252.005 562.134C252.495 561.645 253.119 561.312 253.798 561.177C254.478 561.042 255.182 561.111 255.822 561.376C256.462 561.641 257.009 562.089 257.394 562.664C257.779 563.239 257.985 563.916 257.985 564.607C257.981 565.534 257.611 566.421 256.954 567.077C256.298 567.732 255.41 568.101 254.482 568.105Z" fill="#6C72FC"/>
<path d="M279.277 560.517C278.467 560.517 277.675 560.757 277.001 561.206C276.327 561.656 275.802 562.294 275.492 563.042C275.182 563.789 275.101 564.612 275.259 565.406C275.417 566.199 275.807 566.928 276.38 567.5C276.953 568.072 277.683 568.462 278.478 568.62C279.272 568.778 280.096 568.696 280.844 568.387C281.593 568.077 282.233 567.553 282.683 566.88C283.133 566.207 283.373 565.417 283.373 564.607C283.373 563.522 282.942 562.482 282.174 561.715C281.405 560.948 280.363 560.517 279.277 560.517ZM279.277 568.105C278.584 568.105 277.907 567.9 277.331 567.516C276.755 567.131 276.306 566.585 276.041 565.946C275.775 565.307 275.706 564.604 275.841 563.925C275.976 563.246 276.31 562.623 276.8 562.134C277.29 561.645 277.914 561.312 278.593 561.177C279.273 561.042 279.977 561.111 280.617 561.376C281.257 561.641 281.804 562.089 282.189 562.664C282.574 563.239 282.78 563.916 282.78 564.607C282.776 565.534 282.405 566.421 281.749 567.077C281.093 567.732 280.205 568.101 279.277 568.105Z" fill="#6C72FC"/>
<path d="M305.615 567.727C305.158 567.97 304.649 568.1 304.131 568.105C303.226 568.097 302.36 567.739 301.714 567.106C301.069 566.473 300.694 565.615 300.669 564.711C300.644 563.808 300.971 562.931 301.58 562.263C302.19 561.596 303.035 561.19 303.938 561.132L303.775 560.531C302.692 560.63 301.693 561.153 300.997 561.987C300.652 562.4 300.393 562.877 300.233 563.39C300.073 563.903 300.015 564.443 300.064 564.978C300.113 565.513 300.266 566.034 300.517 566.51C300.767 566.986 301.108 567.408 301.522 567.752C302.357 568.447 303.434 568.782 304.517 568.683C304.97 568.641 305.414 568.526 305.83 568.343L305.615 567.727Z" fill="#6C72FC"/>
<path d="M217.308 541.419L217.182 542.034C217.211 542.026 217.242 542.026 217.271 542.034C218.2 542.034 219.091 542.402 219.748 543.058C220.405 543.714 220.774 544.604 220.774 545.532C220.774 546.459 220.405 547.349 219.748 548.005C219.091 548.661 218.2 549.03 217.271 549.03C216.783 549.033 216.301 548.924 215.861 548.711L215.728 549.326C216.219 549.52 216.743 549.621 217.271 549.623C218.294 549.54 219.249 549.077 219.946 548.326C220.644 547.574 221.034 546.588 221.038 545.564C221.043 544.539 220.662 543.55 219.972 542.792C219.281 542.034 218.33 541.562 217.308 541.471V541.419Z" fill="#6C72FC"/>
<path d="M242.081 541.419C241.271 541.419 240.478 541.659 239.805 542.108C239.131 542.558 238.606 543.196 238.296 543.944C237.986 544.691 237.905 545.514 238.063 546.308C238.221 547.101 238.611 547.83 239.184 548.402C239.757 548.974 240.487 549.364 241.282 549.522C242.076 549.68 242.9 549.599 243.648 549.289C244.397 548.979 245.037 548.455 245.487 547.782C245.937 547.11 246.177 546.319 246.177 545.509C246.177 544.425 245.746 543.384 244.977 542.617C244.209 541.85 243.167 541.419 242.081 541.419ZM242.081 549.007C241.388 549.009 240.71 548.805 240.133 548.422C239.557 548.039 239.106 547.494 238.84 546.855C238.573 546.216 238.503 545.513 238.636 544.834C238.77 544.156 239.102 543.532 239.591 543.041C240.08 542.551 240.703 542.217 241.383 542.08C242.062 541.944 242.766 542.012 243.407 542.275C244.048 542.538 244.596 542.986 244.982 543.56C245.368 544.134 245.575 544.81 245.576 545.502C245.576 546.429 245.208 547.319 244.553 547.976C243.898 548.633 243.009 549.004 242.081 549.007Z" fill="#6C72FC"/>
<path d="M266.883 541.419C266.073 541.419 265.281 541.659 264.607 542.108C263.933 542.558 263.408 543.196 263.098 543.944C262.788 544.691 262.707 545.514 262.865 546.308C263.023 547.101 263.413 547.83 263.986 548.402C264.559 548.974 265.289 549.364 266.084 549.522C266.878 549.68 267.702 549.599 268.451 549.289C269.199 548.979 269.839 548.455 270.289 547.782C270.739 547.11 270.98 546.319 270.98 545.509C270.98 544.425 270.548 543.384 269.78 542.617C269.011 541.85 267.969 541.419 266.883 541.419ZM266.883 549.007C266.19 549.007 265.513 548.802 264.937 548.418C264.361 548.034 263.912 547.487 263.647 546.848C263.382 546.209 263.312 545.506 263.447 544.827C263.583 544.149 263.916 543.525 264.406 543.036C264.896 542.547 265.52 542.214 266.2 542.079C266.879 541.944 267.583 542.013 268.223 542.278C268.864 542.543 269.411 542.991 269.796 543.566C270.18 544.141 270.386 544.818 270.386 545.509C270.382 546.436 270.012 547.323 269.356 547.979C268.699 548.634 267.811 549.004 266.883 549.007Z" fill="#6C72FC"/>
<path d="M291.685 541.419C290.875 541.419 290.083 541.659 289.409 542.108C288.736 542.558 288.211 543.196 287.9 543.944C287.59 544.691 287.509 545.514 287.667 546.308C287.825 547.101 288.216 547.83 288.788 548.402C289.361 548.974 290.091 549.364 290.886 549.522C291.681 549.68 292.504 549.599 293.253 549.289C294.001 548.979 294.641 548.455 295.091 547.782C295.542 547.11 295.782 546.319 295.782 545.509C295.782 544.425 295.35 543.384 294.582 542.617C293.814 541.85 292.772 541.419 291.685 541.419ZM291.685 549.007C290.992 549.007 290.315 548.802 289.739 548.418C289.163 548.034 288.714 547.487 288.449 546.848C288.184 546.209 288.114 545.506 288.25 544.827C288.385 544.149 288.718 543.525 289.208 543.036C289.698 542.547 290.322 542.214 291.002 542.079C291.681 541.944 292.386 542.013 293.026 542.278C293.666 542.543 294.213 542.991 294.598 543.566C294.983 544.141 295.188 544.818 295.188 545.509C295.184 546.436 294.814 547.323 294.158 547.979C293.502 548.634 292.613 549.004 291.685 549.007Z" fill="#6C72FC"/>
<path d="M205.917 598.601L205.805 599.194C206.544 599.39 207.198 599.825 207.662 600.431C208.127 601.037 208.377 601.781 208.373 602.544C208.373 603.472 208.004 604.361 207.347 605.017C206.69 605.673 205.799 606.042 204.87 606.042C204.727 606.057 204.583 606.057 204.44 606.042L204.328 606.635C204.499 606.635 204.685 606.635 204.87 606.635C205.957 606.635 206.999 606.204 207.767 605.437C208.535 604.67 208.967 603.629 208.967 602.544C208.969 601.642 208.67 600.765 208.118 600.051C207.566 599.337 206.791 598.827 205.917 598.601Z" fill="#6C72FC"/>
<path d="M229.68 598.453C228.87 598.453 228.078 598.693 227.404 599.143C226.73 599.592 226.205 600.231 225.895 600.979C225.585 601.726 225.504 602.549 225.662 603.342C225.82 604.136 226.21 604.865 226.783 605.437C227.356 606.009 228.086 606.398 228.881 606.556C229.675 606.714 230.499 606.633 231.248 606.324C231.996 606.014 232.636 605.49 233.086 604.817C233.536 604.144 233.776 603.353 233.776 602.544C233.776 601.459 233.345 600.419 232.577 599.651C231.808 598.884 230.766 598.453 229.68 598.453ZM229.68 606.042C228.987 606.043 228.309 605.84 227.732 605.457C227.156 605.073 226.706 604.528 226.439 603.89C226.173 603.251 226.102 602.548 226.235 601.869C226.369 601.19 226.701 600.566 227.19 600.076C227.679 599.586 228.303 599.251 228.982 599.115C229.661 598.978 230.365 599.046 231.006 599.309C231.647 599.573 232.195 600.02 232.581 600.595C232.967 601.169 233.174 601.845 233.175 602.537C233.175 603.464 232.808 604.353 232.152 605.01C231.497 605.667 230.608 606.038 229.68 606.042Z" fill="#6C72FC"/>
<path d="M254.482 598.453C253.672 598.453 252.88 598.693 252.206 599.143C251.532 599.592 251.007 600.231 250.697 600.979C250.387 601.726 250.306 602.549 250.464 603.342C250.622 604.136 251.012 604.865 251.585 605.437C252.158 606.009 252.888 606.398 253.683 606.556C254.477 606.714 255.301 606.633 256.05 606.324C256.798 606.014 257.438 605.49 257.888 604.817C258.338 604.144 258.578 603.353 258.578 602.544C258.578 601.459 258.147 600.419 257.379 599.651C256.61 598.884 255.568 598.453 254.482 598.453ZM254.482 606.042C253.789 606.042 253.112 605.837 252.536 605.452C251.96 605.068 251.511 604.522 251.246 603.883C250.98 603.243 250.911 602.54 251.046 601.862C251.181 601.183 251.515 600.56 252.005 600.071C252.495 599.581 253.119 599.248 253.798 599.113C254.478 598.978 255.182 599.048 255.822 599.312C256.462 599.577 257.009 600.025 257.394 600.601C257.779 601.176 257.985 601.852 257.985 602.544C257.981 603.471 257.611 604.358 256.954 605.013C256.298 605.668 255.41 606.038 254.482 606.042Z" fill="#6C72FC"/>
<path d="M279.277 598.453C278.467 598.453 277.675 598.693 277.001 599.143C276.327 599.592 275.802 600.231 275.492 600.979C275.182 601.726 275.101 602.549 275.259 603.342C275.417 604.136 275.807 604.865 276.38 605.437C276.953 606.009 277.683 606.398 278.478 606.556C279.272 606.714 280.096 606.633 280.844 606.324C281.593 606.014 282.233 605.49 282.683 604.817C283.133 604.144 283.373 603.353 283.373 602.544C283.373 601.459 282.942 600.419 282.174 599.651C281.405 598.884 280.363 598.453 279.277 598.453ZM279.277 606.042C278.584 606.042 277.907 605.837 277.331 605.452C276.755 605.068 276.306 604.522 276.041 603.883C275.775 603.243 275.706 602.54 275.841 601.862C275.976 601.183 276.31 600.56 276.8 600.071C277.29 599.581 277.914 599.248 278.593 599.113C279.273 598.978 279.977 599.048 280.617 599.312C281.257 599.577 281.804 600.025 282.189 600.601C282.574 601.176 282.78 601.852 282.78 602.544C282.776 603.471 282.405 604.358 281.749 605.013C281.093 605.668 280.205 606.038 279.277 606.042Z" fill="#6C72FC"/>
<path d="M304.094 598.453C303.283 598.453 302.491 598.693 301.818 599.143C301.144 599.592 300.619 600.231 300.309 600.979C299.999 601.726 299.918 602.549 300.076 603.342C300.234 604.136 300.624 604.865 301.197 605.437C301.77 606.009 302.5 606.398 303.294 606.556C304.089 606.714 304.913 606.633 305.661 606.324C306.41 606.014 307.05 605.49 307.5 604.817C307.95 604.144 308.19 603.353 308.19 602.544C308.19 601.459 307.759 600.419 306.99 599.651C306.222 598.884 305.18 598.453 304.094 598.453ZM304.094 606.042C303.401 606.043 302.723 605.84 302.146 605.457C301.569 605.073 301.119 604.528 300.853 603.89C300.586 603.251 300.516 602.548 300.649 601.869C300.783 601.19 301.115 600.566 301.604 600.076C302.093 599.586 302.716 599.251 303.396 599.115C304.075 598.978 304.779 599.046 305.42 599.309C306.061 599.573 306.609 600.02 306.995 600.595C307.381 601.169 307.588 601.845 307.589 602.537C307.589 603.464 307.221 604.353 306.566 605.01C305.911 605.667 305.022 606.038 304.094 606.042Z" fill="#6C72FC"/>
<path d="M217.271 579.355C216.461 579.355 215.669 579.595 214.995 580.045C214.322 580.494 213.796 581.133 213.486 581.881C213.176 582.628 213.095 583.451 213.253 584.244C213.411 585.038 213.802 585.767 214.374 586.339C214.947 586.911 215.677 587.3 216.472 587.458C217.267 587.616 218.09 587.535 218.839 587.225C219.587 586.916 220.227 586.392 220.677 585.719C221.127 585.046 221.368 584.255 221.368 583.446C221.368 582.361 220.936 581.321 220.168 580.553C219.4 579.786 218.358 579.355 217.271 579.355ZM217.271 586.944C216.578 586.944 215.901 586.739 215.325 586.354C214.749 585.97 214.3 585.424 214.035 584.785C213.77 584.146 213.7 583.442 213.836 582.764C213.971 582.085 214.304 581.462 214.794 580.973C215.284 580.483 215.908 580.15 216.588 580.015C217.267 579.88 217.972 579.95 218.612 580.214C219.252 580.479 219.799 580.927 220.184 581.503C220.569 582.078 220.774 582.754 220.774 583.446C220.759 584.366 220.384 585.244 219.729 585.892C219.075 586.54 218.193 586.907 217.271 586.914V586.944Z" fill="#6C72FC"/>
<path d="M242.081 579.355C241.271 579.355 240.478 579.595 239.805 580.045C239.131 580.494 238.606 581.133 238.296 581.881C237.986 582.628 237.905 583.451 238.063 584.244C238.221 585.038 238.611 585.767 239.184 586.339C239.757 586.911 240.487 587.3 241.282 587.458C242.076 587.616 242.9 587.535 243.648 587.225C244.397 586.916 245.037 586.392 245.487 585.719C245.937 585.046 246.177 584.255 246.177 583.446C246.177 582.361 245.746 581.321 244.977 580.553C244.209 579.786 243.167 579.355 242.081 579.355ZM242.081 586.944C241.388 586.945 240.71 586.742 240.133 586.359C239.557 585.975 239.106 585.43 238.84 584.792C238.573 584.153 238.503 583.45 238.636 582.771C238.77 582.092 239.102 581.468 239.591 580.978C240.08 580.488 240.703 580.153 241.383 580.017C242.062 579.88 242.766 579.948 243.407 580.212C244.048 580.475 244.596 580.922 244.982 581.497C245.368 582.071 245.575 582.747 245.576 583.439C245.563 584.358 245.189 585.236 244.536 585.884C243.883 586.532 243.002 586.899 242.081 586.907V586.944Z" fill="#6C72FC"/>
<path d="M266.883 579.355C266.073 579.355 265.281 579.595 264.607 580.045C263.933 580.494 263.408 581.133 263.098 581.881C262.788 582.628 262.707 583.451 262.865 584.244C263.023 585.038 263.413 585.767 263.986 586.339C264.559 586.911 265.289 587.3 266.084 587.458C266.878 587.616 267.702 587.535 268.451 587.225C269.199 586.916 269.839 586.392 270.289 585.719C270.739 585.046 270.98 584.255 270.98 583.446C270.98 582.361 270.548 581.321 269.78 580.553C269.011 579.786 267.969 579.355 266.883 579.355ZM266.883 586.944C266.19 586.944 265.513 586.739 264.937 586.354C264.361 585.97 263.912 585.424 263.647 584.785C263.382 584.146 263.312 583.442 263.447 582.764C263.583 582.085 263.916 581.462 264.406 580.973C264.896 580.483 265.52 580.15 266.2 580.015C266.879 579.88 267.583 579.95 268.223 580.214C268.864 580.479 269.411 580.927 269.796 581.503C270.18 582.078 270.386 582.754 270.386 583.446C270.37 584.366 269.995 585.244 269.341 585.892C268.687 586.54 267.805 586.907 266.883 586.914V586.944Z" fill="#6C72FC"/>
<path d="M291.685 579.355C290.875 579.355 290.083 579.595 289.409 580.045C288.736 580.494 288.211 581.133 287.9 581.881C287.59 582.628 287.509 583.451 287.667 584.244C287.825 585.038 288.216 585.767 288.788 586.339C289.361 586.911 290.091 587.3 290.886 587.458C291.681 587.616 292.504 587.535 293.253 587.225C294.001 586.916 294.641 586.392 295.091 585.719C295.542 585.046 295.782 584.255 295.782 583.446C295.782 582.361 295.35 581.321 294.582 580.553C293.814 579.786 292.772 579.355 291.685 579.355ZM291.685 586.944C290.992 586.944 290.315 586.739 289.739 586.354C289.163 585.97 288.714 585.424 288.449 584.785C288.184 584.146 288.114 583.442 288.25 582.764C288.385 582.085 288.718 581.462 289.208 580.973C289.698 580.483 290.322 580.15 291.002 580.015C291.681 579.88 292.386 579.95 293.026 580.214C293.666 580.479 294.213 580.927 294.598 581.503C294.983 582.078 295.188 582.754 295.188 583.446C295.173 584.366 294.798 585.244 294.143 585.892C293.489 586.54 292.607 586.907 291.685 586.914V586.944Z" fill="#6C72FC"/>
<path d="M217.271 617.299C216.361 617.303 215.478 617.608 214.76 618.167C214.043 618.727 213.532 619.508 213.308 620.39L213.887 620.59C214.08 619.754 214.574 619.019 215.276 618.525C215.977 618.031 216.837 617.813 217.689 617.912C218.542 618.011 219.328 618.42 219.897 619.062C220.466 619.704 220.779 620.533 220.774 621.39C220.781 621.885 220.671 622.375 220.455 622.82C220.663 622.88 220.848 622.931 221.056 623.006C221.263 622.492 221.369 621.944 221.368 621.39C221.368 620.305 220.936 619.265 220.168 618.497C219.4 617.73 218.358 617.299 217.271 617.299Z" fill="#6C72FC"/>
<path d="M242.081 617.299C241.271 617.299 240.478 617.539 239.805 617.989C239.131 618.438 238.606 619.077 238.296 619.825C237.986 620.572 237.905 621.395 238.063 622.188C238.221 622.982 238.611 623.711 239.184 624.283C239.757 624.855 240.487 625.244 241.282 625.402C242.076 625.56 242.9 625.479 243.648 625.169C244.397 624.86 245.037 624.335 245.487 623.663C245.937 622.99 246.177 622.199 246.177 621.39C246.177 620.305 245.746 619.265 244.977 618.497C244.209 617.73 243.167 617.299 242.081 617.299ZM242.081 624.888C241.388 624.889 240.71 624.686 240.133 624.303C239.557 623.919 239.106 623.374 238.84 622.735C238.573 622.097 238.503 621.394 238.636 620.715C238.77 620.036 239.102 619.412 239.591 618.922C240.08 618.432 240.703 618.097 241.383 617.961C242.062 617.824 242.766 617.892 243.407 618.155C244.048 618.419 244.596 618.866 244.982 619.441C245.368 620.015 245.575 620.691 245.576 621.383C245.566 622.303 245.194 623.183 244.54 623.832C243.886 624.481 243.003 624.847 242.081 624.851V624.888Z" fill="#6C72FC"/>
<path d="M266.883 617.299C266.073 617.299 265.281 617.539 264.607 617.989C263.933 618.438 263.408 619.077 263.098 619.825C262.788 620.572 262.707 621.395 262.865 622.188C263.023 622.982 263.413 623.711 263.986 624.283C264.559 624.855 265.289 625.244 266.084 625.402C266.878 625.56 267.702 625.479 268.451 625.169C269.199 624.86 269.839 624.335 270.289 623.663C270.739 622.99 270.98 622.199 270.98 621.39C270.98 620.305 270.548 619.265 269.78 618.497C269.011 617.73 267.969 617.299 266.883 617.299ZM266.883 624.888C266.19 624.888 265.513 624.683 264.937 624.298C264.361 623.914 263.912 623.368 263.647 622.729C263.382 622.089 263.312 621.386 263.447 620.708C263.583 620.029 263.916 619.406 264.406 618.917C264.896 618.427 265.52 618.094 266.2 617.959C266.879 617.824 267.583 617.894 268.223 618.158C268.864 618.423 269.411 618.871 269.796 619.447C270.18 620.022 270.386 620.698 270.386 621.39C270.376 622.312 270.003 623.193 269.347 623.842C268.692 624.491 267.806 624.856 266.883 624.858V624.888Z" fill="#6C72FC"/>
<path d="M291.685 617.299C290.875 617.299 290.083 617.539 289.409 617.989C288.736 618.438 288.211 619.077 287.9 619.825C287.59 620.572 287.509 621.395 287.667 622.188C287.825 622.982 288.216 623.711 288.788 624.283C289.361 624.855 290.091 625.244 290.886 625.402C291.681 625.56 292.504 625.479 293.253 625.169C294.001 624.86 294.641 624.335 295.091 623.663C295.542 622.99 295.782 622.199 295.782 621.39C295.782 620.305 295.35 619.265 294.582 618.497C293.814 617.73 292.772 617.299 291.685 617.299ZM291.685 624.888C290.992 624.888 290.315 624.683 289.739 624.298C289.163 623.914 288.714 623.368 288.449 622.729C288.184 622.089 288.114 621.386 288.25 620.708C288.385 620.029 288.718 619.406 289.208 618.917C289.698 618.427 290.322 618.094 291.002 617.959C291.681 617.824 292.386 617.894 293.026 618.158C293.666 618.423 294.213 618.871 294.598 619.447C294.983 620.022 295.188 620.698 295.188 621.39C295.178 622.312 294.805 623.193 294.15 623.842C293.494 624.491 292.608 624.856 291.685 624.858V624.888Z" fill="#6C72FC"/>
<path d="M316.495 617.299C315.718 617.3 314.957 617.52 314.3 617.934C313.644 618.349 313.118 618.94 312.784 619.641L313.786 619.182C314.108 618.779 314.517 618.454 314.982 618.231C315.447 618.008 315.957 617.892 316.473 617.892C316.821 617.729 317.14 617.559 317.4 617.433C317.107 617.344 316.802 617.299 316.495 617.299Z" fill="#6C72FC"/>
<path d="M220.351 537.602C229.482 542.118 239.287 545.121 249.383 546.495C259.458 547.832 269.68 547.582 279.677 545.754C285.259 544.695 290.745 543.181 296.079 541.226C296.096 541.219 296.114 541.215 296.132 541.216C296.151 541.216 296.169 541.22 296.185 541.228C296.202 541.236 296.217 541.247 296.229 541.26C296.242 541.274 296.251 541.29 296.257 541.307C296.267 541.341 296.264 541.377 296.249 541.408C296.234 541.44 296.207 541.465 296.175 541.478C287.047 545.924 276.776 548.244 266.579 548.822C256.19 549.429 245.778 548.112 235.869 544.939C230.375 543.218 225.091 540.892 220.114 538.002C220.073 537.966 220.046 537.916 220.037 537.862C220.029 537.807 220.04 537.752 220.068 537.705C220.096 537.658 220.139 537.622 220.191 537.603C220.243 537.584 220.299 537.584 220.351 537.602Z" fill="#153043"/>
<path d="M262.586 455.444C255.558 457.668 257.562 465.642 261.324 471.63C265.087 477.618 270.371 481.501 275.099 480.197C279.826 478.893 277.488 471.682 277.488 471.682C277.488 471.682 282.082 476.58 284.561 474.78C287.039 472.979 273.547 451.954 262.586 455.444Z" fill="white"/>
<path d="M257.985 461.966C258.727 463.582 269.236 472.882 276.939 470.859C279.447 470.2 276.427 456.363 276.427 456.363V455.296L276.561 440.289L254.667 432.189C254.667 432.189 257.673 461.277 257.985 461.966Z" fill="#FFC5C1"/>
<path d="M276.575 440.289L276.434 455.281V456.363C276.434 456.363 276.976 458.868 277.414 461.796C266.475 462.485 259.907 455.563 256.634 450.531C255.721 442.134 254.705 432.181 254.705 432.181L276.575 440.289Z" fill="#071843"/>
<path d="M287.885 406.243C309.073 430.44 296.947 445.847 291.715 450.405C286.973 454.54 270.275 468.028 246.697 446.136C223.119 424.244 227.683 406.762 238.044 396.728C248.404 386.693 266.697 382.039 287.885 406.243Z" fill="#FFC5C1"/>
<path d="M283.448 407.325C282.795 407.676 282.124 407.99 281.436 408.266C280.778 408.698 279.995 408.901 279.21 408.844C278.965 408.78 278.749 408.636 278.595 408.434C278.442 408.233 278.36 407.986 278.364 407.733C278.44 407.232 278.651 406.76 278.973 406.369C279.296 405.977 279.719 405.68 280.197 405.51C281.101 405.008 282.16 404.862 283.165 405.102C283.477 405.195 283.738 405.406 283.894 405.691C284.05 405.975 284.087 406.31 283.997 406.621C283.91 406.917 283.713 407.169 283.448 407.325Z" fill="#071843"/>
<path d="M266.66 421.339C267.184 420.808 267.68 420.248 268.145 419.664C268.74 419.146 269.147 418.445 269.302 417.671C269.306 417.418 269.224 417.171 269.071 416.97C268.918 416.768 268.701 416.624 268.456 416.559C267.395 416.337 266.527 416.967 265.829 417.715C265.103 418.455 264.677 419.437 264.634 420.472C264.638 420.635 264.674 420.795 264.742 420.943C264.809 421.091 264.905 421.224 265.025 421.334C265.145 421.444 265.286 421.529 265.439 421.583C265.593 421.638 265.756 421.661 265.918 421.651C266.194 421.636 266.457 421.526 266.66 421.339Z" fill="#071843"/>
<path d="M283.9 437.651C284.642 437.792 285.451 438.088 286.127 437.703C286.798 437.24 287.363 436.638 287.782 435.939C287.788 435.932 287.795 435.927 287.804 435.924C287.812 435.92 287.821 435.918 287.83 435.918C287.839 435.918 287.848 435.92 287.856 435.924C287.864 435.927 287.872 435.932 287.878 435.939C287.895 435.944 287.909 435.955 287.917 435.971C287.925 435.986 287.927 436.004 287.923 436.02C287.899 436.551 287.733 437.066 287.442 437.51C287.15 437.955 286.745 438.313 286.268 438.547C285.831 438.698 285.36 438.716 284.913 438.598C284.466 438.481 284.065 438.234 283.759 437.888C283.685 437.762 283.796 437.636 283.9 437.651Z" fill="#071843"/>
<path d="M286.468 425.83C286.468 425.83 288.798 428.172 289.726 429.402C289.808 429.521 289.555 429.803 289.154 430.143C289.154 430.143 289.154 430.181 289.103 430.181C288.188 431.17 287.019 431.888 285.723 432.256C284.427 432.625 283.054 432.63 281.755 432.27C281.585 432.219 281.644 431.974 281.815 431.967C284.338 431.967 286.371 430.892 288.323 429.477C288.153 429.069 284.167 425.549 284.39 425.438C285.31 424.956 287.032 424.237 287.67 423.955C286.186 422.399 281.778 418.19 279.091 415.351C278.92 415.181 279.173 414.892 279.351 415.033C283.009 417.81 286.48 420.826 289.741 424.059C289.978 424.319 287.121 425.667 286.468 425.83Z" fill="#071843"/>
<path d="M271.41 426.097C271.412 426.349 271.372 426.599 271.291 426.838C271.234 427.036 271.134 427.219 270.998 427.374C270.862 427.529 270.694 427.652 270.505 427.735C269.332 428.276 268.174 427.416 267.44 426.327C267.388 426.253 267.395 426.179 267.484 426.208C268.286 426.505 269.169 426.779 269.748 426.305C270.101 425.899 270.329 425.4 270.401 424.867C270.691 425.312 271.03 425.725 271.41 426.097Z" fill="#071843"/>
<path d="M270.668 426.171C270.422 425.623 270.327 425.019 270.393 424.422C270.448 424.098 270.567 423.787 270.745 423.51C270.922 423.232 271.153 422.993 271.425 422.807C271.711 422.627 272.034 422.516 272.371 422.483C272.707 422.449 273.046 422.494 273.362 422.614C273.911 422.827 274.4 423.171 274.787 423.614C275.018 423.879 275.231 424.159 275.425 424.452C275.829 425.061 276.083 425.757 276.167 426.482C275.906 426.023 275.592 425.595 275.232 425.208C274.917 424.851 274.574 424.519 274.208 424.215C273.466 423.607 272.568 423.251 271.981 423.703C271.675 423.975 271.459 424.333 271.362 424.73C271.266 425.128 271.293 425.545 271.44 425.927C271.724 426.899 272.107 427.84 272.583 428.735C271.749 428.045 271.093 427.166 270.668 426.171Z" fill="#071843"/>
<path d="M287.114 413.632C287.357 413.691 287.608 413.706 287.856 413.676C288.054 413.662 288.247 413.604 288.42 413.507C288.593 413.409 288.743 413.275 288.858 413.113C289.6 412.098 288.984 410.808 288.116 409.875C288.056 409.808 287.982 409.801 287.997 409.875C288.131 410.705 288.227 411.616 287.663 412.098C287.213 412.356 286.695 412.47 286.179 412.424C286.534 412.791 286.847 413.196 287.114 413.632Z" fill="#071843"/>
<path d="M287.129 412.943C286.668 412.582 286.115 412.356 285.533 412.291C285.215 412.265 284.896 412.308 284.596 412.417C284.297 412.526 284.024 412.697 283.796 412.92C283.569 413.158 283.398 413.444 283.299 413.758C283.2 414.072 283.175 414.404 283.225 414.729C283.33 415.299 283.558 415.841 283.893 416.315C284.093 416.597 284.316 416.862 284.561 417.108C285.049 417.633 285.654 418.036 286.327 418.286C285.949 417.931 285.609 417.539 285.31 417.115C285.029 416.734 284.781 416.33 284.568 415.907C284.138 415.047 283.982 414.136 284.516 413.684C284.841 413.451 285.23 413.326 285.629 413.326C286.029 413.326 286.418 413.451 286.743 413.684C287.611 414.172 288.429 414.746 289.184 415.396C288.7 414.429 287.996 413.589 287.129 412.943Z" fill="#071843"/>
<path d="M252.159 450.946C255.706 443.854 251.165 437.606 251.165 437.606C254.103 432.109 255.491 425.918 255.18 419.694C255.432 420.376 257.265 425.245 258.148 427.75C272.078 412.15 267.098 395.505 267.098 395.505C276.664 396.868 280.457 399.514 282.572 400.655C282.572 400.655 274.631 390.317 264.07 387.39C251.142 383.803 243.765 391.97 243.765 391.97C238.936 394.037 234.781 397.409 231.765 401.706C228.75 406.003 226.995 411.054 226.696 416.292C225.346 436.183 252.159 450.946 252.159 450.946Z" fill="#071843"/>
<path d="M268.397 415.462C266.92 418.929 264.917 422.149 262.46 425.008C266.067 420.187 268.22 414.438 268.664 408.437C268.844 405.85 268.699 403.251 268.234 400.7C267.744 398.017 266.942 394.993 265.406 392.674C265.385 392.638 265.378 392.595 265.386 392.554C265.394 392.513 265.417 392.477 265.451 392.451C265.487 392.429 265.531 392.422 265.573 392.432C265.614 392.442 265.65 392.467 265.673 392.503C267.299 394.956 268.776 397.232 269.555 400.077C270.296 402.778 270.535 405.591 270.26 408.378C269.994 410.825 269.376 413.221 268.427 415.492L268.397 415.462Z" fill="#071843"/>
<path d="M252.174 444.624C252.174 444.624 240.567 440.674 238.37 445.366C236.173 450.057 249.035 458.705 254.534 457.149C255.234 457.003 255.898 456.72 256.489 456.317C257.079 455.914 257.585 455.398 257.975 454.8C258.366 454.202 258.635 453.533 258.767 452.831C258.898 452.129 258.89 451.408 258.742 450.709C258.729 450.631 258.712 450.555 258.69 450.479L252.174 444.624Z" fill="#FFC5C1"/>
<path d="M242.118 447.767C242.104 447.781 242.097 447.799 242.097 447.819C242.097 447.838 242.104 447.857 242.118 447.87C242.13 447.877 242.144 447.88 242.159 447.88C242.173 447.88 242.187 447.877 242.2 447.87C246.125 446.885 249.777 448.523 253.027 450.612C251.306 450.153 249.628 450.435 248.916 452.606C248.879 452.717 249.042 452.784 249.116 452.702C249.524 452.145 250.095 451.728 250.75 451.507C251.405 451.287 252.113 451.275 252.775 451.472C253.882 451.811 254.95 452.268 255.959 452.836C256.3 452.999 256.701 452.502 256.352 452.265L256.278 452.213C253.502 448.33 246.548 445.128 242.118 447.767Z" fill="#071843"/>
<path d="M263.729 491.721C282.698 501.896 319.961 518.697 329.838 515.436C349.72 508.877 369.305 478.3 373.84 469.325C375.962 465.116 350.151 442.846 346.262 446.047C342.017 449.538 319.79 481.36 315.337 481.62C311.567 481.842 288.056 477.914 269.978 475.217C247.172 471.845 247.669 483.117 263.729 491.721Z" fill="#FFC5C1"/>
<path d="M339.197 455.244C339.197 455.244 342.663 441.075 345.364 431.922C346.848 426.816 350.247 418.286 353.067 415.04C357.297 410.178 378.092 392.563 382.478 397.506C386.449 401.952 366.663 414.847 366.663 414.847C366.663 414.847 385.476 400.1 389.269 406.369C393.061 412.639 368.764 424.2 368.764 424.2C368.764 424.2 388.437 409.482 391.317 416.559C393.499 421.91 372.088 433.604 372.088 433.604C372.088 433.604 389.083 421.065 391.562 426.475C394.3 432.404 375.235 444.498 375.235 444.498C379.22 459.32 375.057 467.962 371.361 473.779C370.441 475.209 339.197 455.244 339.197 455.244Z" fill="#FFC5C1"/>
<path d="M360.734 418.864C373.766 406.947 383.814 405.087 383.554 405.191C377.491 407.629 369.157 413.291 366.856 414.907C364.556 416.522 363.094 417.345 360.793 418.953C360.734 418.997 360.689 418.909 360.734 418.864Z" fill="#2F351A"/>
<path d="M365.513 427.942C371.317 421.895 379.799 417.004 382.983 415.774C383.243 415.677 383.22 415.774 382.983 415.959C380.014 417.938 368.43 425.904 365.558 428.009C365.513 428.046 365.476 427.979 365.513 427.942Z" fill="#2F351A"/>
<path d="M369.075 436.028C374.671 431.018 377.684 429.358 382.879 427.009C383.131 426.897 383.094 427.105 382.879 427.253C378.233 430.166 374.567 432.441 369.224 436.146C369.142 436.235 369.016 436.109 369.075 436.028Z" fill="#2F351A"/>
<path d="M293.585 475.246L288.101 505.95C288.101 505.95 265.02 495.575 255.239 485.659C245.457 475.743 251.484 472.556 261.733 472.527C271.981 472.497 293.585 475.246 293.585 475.246Z" fill="#355F81"/>
<path d="M254.482 484.643H254.296C254.482 484.844 254.667 485.051 254.89 485.273C255.632 485.355 256.327 485.674 256.871 486.183C257.416 486.692 257.78 487.364 257.911 488.097C258.133 488.282 258.356 488.475 258.579 488.638C258.555 487.569 258.113 486.552 257.347 485.805C256.581 485.058 255.552 484.641 254.482 484.643Z" fill="#6C72FC"/>
<path d="M279.277 484.643C278.467 484.643 277.675 484.883 277.001 485.333C276.327 485.782 275.802 486.421 275.492 487.169C275.182 487.916 275.101 488.739 275.259 489.532C275.417 490.326 275.807 491.055 276.38 491.627C276.953 492.199 277.683 492.589 278.478 492.747C279.272 492.904 280.096 492.823 280.844 492.514C281.593 492.204 282.233 491.68 282.683 491.007C283.133 490.334 283.373 489.543 283.373 488.734C283.373 487.649 282.942 486.609 282.174 485.842C281.405 485.074 280.363 484.643 279.277 484.643ZM279.277 492.225C278.584 492.225 277.907 492.02 277.331 491.635C276.755 491.251 276.306 490.705 276.041 490.066C275.775 489.426 275.706 488.723 275.841 488.044C275.976 487.366 276.31 486.743 276.8 486.253C277.29 485.764 277.914 485.431 278.593 485.296C279.273 485.161 279.977 485.23 280.617 485.495C281.257 485.76 281.804 486.208 282.189 486.784C282.574 487.359 282.78 488.035 282.78 488.727C282.778 489.655 282.409 490.546 281.752 491.203C281.096 491.861 280.207 492.234 279.277 492.24V492.225Z" fill="#6C72FC"/>
<path d="M268.412 472.786C267.939 473.03 267.415 473.157 266.883 473.157C266.238 473.157 265.605 472.978 265.057 472.638H264.033C264.792 473.388 265.816 473.808 266.883 473.809C267.814 473.811 268.717 473.489 269.436 472.897C269.103 472.805 268.757 472.768 268.412 472.786Z" fill="#6C72FC"/>
<path d="M287.967 505.898L288.093 505.957L288.167 505.505C288.087 505.629 288.02 505.761 287.967 505.898Z" fill="#6C72FC"/>
<path d="M288.034 476.677C288.034 476.477 288.212 476.432 288.19 476.632C286.906 486.756 284.731 498.309 283.477 502.385C283.477 502.452 283.373 502.385 283.373 502.385C283.611 498.057 287.678 478.9 288.034 476.677Z" fill="#153043"/>
<path d="M269.718 472.69C277.733 473.305 286.149 474.172 293.963 475.046C293.763 476.282 293.481 477.502 293.117 478.7C293.058 478.9 292.873 478.781 292.902 478.581C292.991 478.085 293.362 476.114 293.377 475.617C285.473 474.765 277.577 473.898 269.71 472.808C269.629 472.786 269.629 472.682 269.718 472.69Z" fill="#153043"/>
<path d="M263.209 493.292C264.048 493.603 264.857 493.937 265.666 494.315L266.26 494.596C264.167 493.114 262.133 491.543 260.181 489.861C260.085 489.787 260.219 489.661 260.308 489.727C264.722 492.885 269.321 495.776 274.082 498.383C276.397 499.68 278.75 500.91 281.087 502.163C282.235 502.781 283.386 503.388 284.538 503.986C285.674 504.536 286.779 505.147 287.848 505.817C288.019 505.075 288.197 504.334 288.338 503.593C288.338 503.475 288.568 503.497 288.553 503.593C288.472 504.497 288.435 505.394 288.383 506.306C288.381 506.348 288.37 506.39 288.352 506.429C288.334 506.468 288.308 506.503 288.277 506.532C288.245 506.561 288.208 506.583 288.167 506.598C288.127 506.612 288.084 506.619 288.041 506.617H287.982C285.466 505.831 283.054 504.394 280.709 503.178C278.238 501.926 275.818 500.592 273.436 499.206C271.388 498.028 269.414 496.76 267.499 495.434C266.015 494.811 264.53 494.196 263.135 493.44C263.054 493.418 263.105 493.255 263.209 493.292Z" fill="#153043"/>
</g>
<defs>
<clipPath id="clip0_60_3013">
<rect width="703" height="605" fill="white" transform="translate(366.933 -172) rotate(37.3369)"/>
</clipPath>
<clipPath id="clip1_60_3013">
<rect width="323" height="623" fill="white" transform="translate(140 144)"/>
</clipPath>
</defs>
</svg>
