<svg width="559" height="626" viewBox="0 0 559 626" fill="none" xmlns="http://www.w3.org/2000/svg">
<path d="M-143 913.002H559C559 913.002 479.731 747.743 443.256 584.233C406.782 420.722 216.118 164.094 -143 193.281V913.002Z" fill="#BBE9F3"/>
<g clip-path="url(#clip0_184_94)">
<path d="M297.872 639.993C292.92 641.607 151.584 640.364 146.219 636.896C144.182 635.594 143.16 614.947 142.638 589.952C142.522 584.558 142.435 578.989 142.384 573.326L131.849 497.599L226.342 498.159L234.317 573.878L233.751 590.505C233.751 590.505 287.649 615.223 293.123 619.68C298.597 624.137 302.824 638.386 297.872 639.993Z" fill="#ED776A"/>
<path d="M297.872 639.993C292.92 641.607 151.585 640.364 146.219 636.896C143.74 635.304 142.754 605.147 142.384 573.326L234.331 573.871L233.766 590.498C233.766 590.498 287.664 615.216 293.138 619.673C298.612 624.129 302.824 638.386 297.872 639.993Z" fill="white"/>
<path d="M297.872 639.993C292.92 641.607 151.584 640.364 146.219 636.896C144.182 635.595 143.16 614.947 142.638 589.952L233.766 590.498C233.766 590.498 287.664 615.216 293.138 619.673C298.612 624.129 302.824 638.386 297.872 639.993Z" fill="#660BA4"/>
<path d="M284.09 614.496C281.455 614.402 278.831 614.858 276.382 615.836C273.933 616.813 271.714 618.291 269.865 620.174C266.892 623.373 264.333 627.881 264.456 632.81C264.456 632.948 264.724 632.955 264.746 632.81C266.196 623.526 274.686 615.434 284.09 614.795C284.128 614.784 284.161 614.76 284.183 614.726C284.204 614.693 284.212 614.652 284.206 614.613C284.199 614.585 284.184 614.559 284.164 614.539C284.143 614.518 284.118 614.504 284.09 614.496Z" fill="#071843"/>
<path d="M242.937 592.94C233.454 592.722 222.434 595.979 216.474 603.707C216.242 604.006 216.67 604.333 216.952 604.187C225.282 599.904 234.044 596.526 243.09 594.111C243.227 594.072 243.347 593.985 243.426 593.866C243.505 593.746 243.538 593.602 243.52 593.459C243.501 593.317 243.432 593.186 243.325 593.091C243.218 592.995 243.08 592.942 242.937 592.94Z" fill="#071843"/>
<path d="M250.231 595.863C240.748 595.652 229.72 598.909 223.76 606.63C223.528 606.936 223.956 607.255 224.239 607.117C232.569 602.828 241.334 599.448 250.383 597.034C250.521 596.995 250.641 596.908 250.72 596.788C250.799 596.669 250.832 596.524 250.814 596.382C250.795 596.24 250.726 596.109 250.619 596.013C250.512 595.918 250.374 595.865 250.231 595.863Z" fill="#071843"/>
<path d="M257.525 598.793C248.042 598.575 237.014 601.832 231.054 609.56C230.822 609.858 231.257 610.185 231.533 610.04C239.865 605.756 248.629 602.378 257.677 599.963C257.815 599.925 257.935 599.838 258.014 599.718C258.093 599.599 258.126 599.454 258.107 599.312C258.089 599.17 258.02 599.039 257.913 598.943C257.806 598.848 257.668 598.795 257.525 598.793Z" fill="#071843"/>
<path d="M264.818 601.716C255.335 601.505 244.315 604.762 238.355 612.49C238.123 612.788 238.551 613.108 238.834 612.97C247.151 608.687 255.901 605.307 264.934 602.886C265.07 602.849 265.189 602.765 265.269 602.649C265.349 602.533 265.385 602.392 265.371 602.251C265.357 602.111 265.294 601.98 265.193 601.882C265.092 601.784 264.959 601.725 264.818 601.716Z" fill="#071843"/>
<path d="M159.349 611.072C148.713 611.007 148.597 627.59 159.255 627.656C169.913 627.721 170.007 611.138 159.349 611.072Z" fill="#FFFFF2"/>
<path d="M-2.70044 146.45C-2.70044 146.45 104.726 334.973 107.503 348.147C111.766 368.394 136.656 589.08 136.656 589.08L242.386 588.426C242.386 588.426 221.462 391.404 203.539 333.243C193.752 301.494 142.297 215.466 118.168 172.95C115.993 169.155 116.653 151.779 116.653 151.779L-2.70044 146.45Z" fill="#6C72FC"/>
<path d="M232.221 570.774C215.829 570.447 166.201 569.072 144.349 570.846C144.182 570.846 144.189 571.137 144.349 571.166C151.853 572.337 215.829 571.552 232.221 571.225C232.281 571.225 232.338 571.201 232.38 571.158C232.423 571.116 232.446 571.059 232.446 570.999C232.446 570.939 232.423 570.882 232.38 570.84C232.338 570.797 232.281 570.774 232.221 570.774Z" fill="#C2C08D"/>
<path d="M15.8239 163.899C22.8711 175.291 30.3243 186.436 37.5383 197.763C44.7523 209.09 51.9445 220.388 59.0352 231.773C73.2167 254.519 87.0549 277.468 100.55 300.621C106.894 311.461 112.933 322.432 117.226 334.195C121.378 345.904 124.455 357.97 126.419 370.241C128.507 382.556 129.826 394.959 131.066 407.391C132.386 420.618 133.693 433.842 134.989 447.064C137.664 474.124 143.747 522.151 146.422 549.203C146.756 552.523 147.07 555.843 147.365 559.163C147.408 559.65 146.538 559.737 146.48 559.25C143.457 532.351 137.584 484.426 134.88 457.504L130.812 417.293C129.558 404.832 128.369 392.356 126.593 379.954C124.962 367.731 122.423 355.649 118.995 343.806C115.193 331.528 110.043 319.712 103.639 308.575C90.6897 285.529 76.965 262.867 63.2331 240.235C49.3852 217.436 35.4212 194.702 20.9208 172.288C19.13 169.526 17.2957 166.77 15.4614 164.051C15.3163 163.855 15.6861 163.659 15.8239 163.899Z" fill="#C2C08D"/>
<path d="M39.815 647.692C34.6166 647.314 -99.1138 591.05 -102.797 585.823C-102.948 585.514 -103.016 585.17 -102.993 584.827C-102.906 580.196 -93.4006 564.085 -85.3601 542.9C-84.8526 541.54 -81.3073 535.273 -76.3916 526.811C-62.8699 503.583 -38.9587 463.793 -38.9587 463.793L48.4573 499.882L5.63747 562.478L-1.09799 577.673C-1.09799 577.673 39.6048 620.909 43.0124 627.067C46.42 633.224 45.0062 648.092 39.815 647.692Z" fill="#ED776A"/>
<path d="M39.815 647.692C34.6166 647.314 -99.1138 591.05 -102.797 585.823C-102.948 585.514 -103.016 585.17 -102.993 584.827C-102.906 580.196 -93.4006 564.085 -85.3601 542.9C-84.8526 541.54 -81.3073 535.273 -76.3916 526.811L5.63747 562.478L-1.098 577.673C-1.098 577.673 39.6048 620.909 43.0124 627.067C46.42 633.224 45.0062 648.092 39.815 647.692Z" fill="white"/>
<path d="M39.8078 647.685C34.6094 647.314 -99.1211 591.05 -102.79 585.823C-104.196 583.845 -97.961 565.517 -85.3891 542.929L-1.11248 577.709C-1.11248 577.709 39.5903 620.931 43.0051 627.096C46.42 633.261 45.0062 648.048 39.8078 647.685Z" fill="#660BA4"/>
<path d="M40.105 641.665C18.4413 632.025 -69.8375 595.172 -91.9797 587.284C-92.1537 587.226 -92.2044 587.342 -92.0377 587.422C-70.7727 597.455 17.796 633.588 39.9165 642.029C40.424 642.203 40.5617 641.876 40.105 641.665Z" fill="#071843"/>
<path d="M36.5741 618.859C34.1667 617.782 31.5628 617.219 28.927 617.204C26.2913 617.189 23.6811 617.723 21.2616 618.771C17.3103 620.618 13.2501 623.86 11.5246 628.455C11.4738 628.586 11.7131 628.688 11.7856 628.564C16.5925 620.494 27.5041 616.205 36.4364 619.113C36.4757 619.119 36.516 619.11 36.5486 619.087C36.5811 619.064 36.6033 619.029 36.6104 618.989C36.6138 618.966 36.6123 618.943 36.6061 618.92C36.5999 618.898 36.589 618.877 36.5741 618.859Z" fill="#071843"/>
<path d="M6.48573 583.387C-2.21454 579.622 -13.6626 578.495 -22.0802 583.387C-22.4064 583.576 -22.1309 584.042 -21.8119 584.013C-12.4876 583.174 -3.10056 583.339 6.18847 584.507C6.2675 584.505 6.3454 584.488 6.41769 584.456C6.48999 584.424 6.55526 584.377 6.60979 584.32C6.66433 584.263 6.70706 584.195 6.73553 584.121C6.76401 584.047 6.77766 583.968 6.77574 583.889C6.772 583.788 6.74361 583.689 6.69305 583.602C6.64249 583.515 6.5713 583.441 6.48573 583.387Z" fill="#071843"/>
<path d="M12.1554 588.855C3.45514 585.089 -7.99297 583.962 -16.4105 588.855C-16.7367 589.044 -16.4612 589.502 -16.1422 589.48C-6.81822 588.638 2.56886 588.802 11.8582 589.967C12.0158 589.967 12.167 589.904 12.2785 589.792C12.39 589.681 12.4527 589.529 12.4527 589.371C12.4512 589.266 12.4232 589.164 12.3711 589.074C12.3191 588.984 12.2448 588.908 12.1554 588.855Z" fill="#071843"/>
<path d="M17.8178 594.293C9.11757 590.519 -2.3233 589.4 -10.7408 594.293C-11.0671 594.482 -10.7916 594.947 -10.4798 594.918C-1.15312 594.079 8.23638 594.245 17.5278 595.412C17.685 595.412 17.8359 595.351 17.9483 595.241C18.0607 595.131 18.1258 594.981 18.1296 594.823C18.1316 594.715 18.1035 594.608 18.0484 594.514C17.9934 594.42 17.9136 594.344 17.8178 594.293Z" fill="#071843"/>
<path d="M23.4873 599.767C14.787 596.001 3.33892 594.874 -5.07133 599.767C-5.39759 599.956 -5.12932 600.421 -4.81031 600.392C4.5138 599.55 13.9013 599.715 23.19 600.887C23.2691 600.885 23.3469 600.867 23.4192 600.835C23.4915 600.803 23.5568 600.757 23.6114 600.7C23.6659 600.642 23.7086 600.575 23.7371 600.501C23.7656 600.427 23.7792 600.348 23.7773 600.269C23.7736 600.168 23.7452 600.069 23.6946 599.982C23.6441 599.894 23.5729 599.821 23.4873 599.767Z" fill="#071843"/>
<path d="M6.78299 579.636L-91.0588 538.603C-91.0588 538.603 38.7202 339.75 39.8078 326.38C40.7503 314.537 -11.5311 210.784 -13.2784 180.664C-15.1707 148.195 0.729042 123.288 18.0353 107.918L116.638 151.794C116.638 151.794 108.018 169.446 91.0306 178.803C91.0306 178.803 141.594 298.651 138.157 335.271C134.786 372.087 6.78299 579.636 6.78299 579.636Z" fill="#6C72FC"/>
<path d="M11.3868 560.937C-2.75842 554.627 1.38871 556.241 -12.829 550.09C-19.782 547.08 -65.5091 527.356 -72.4911 525.691C-72.6434 525.691 -72.7449 525.902 -72.6144 525.982C-66.5387 529.814 -20.478 548.738 -13.467 551.609C0.866692 557.484 -3.18619 555.644 11.1838 561.352C11.2389 561.378 11.3018 561.382 11.3597 561.363C11.4177 561.344 11.4662 561.303 11.4955 561.25C11.5209 561.194 11.5238 561.13 11.5035 561.072C11.4833 561.013 11.4415 560.965 11.3868 560.937Z" fill="#C2C08D"/>
<path d="M107.771 176.825C97.1788 179.006 86.7457 182.59 76.7549 186.487C76.714 186.5 76.6761 186.522 76.6434 186.55C76.6106 186.578 76.5837 186.612 76.5642 186.651C76.5447 186.689 76.5329 186.731 76.5296 186.774C76.5262 186.817 76.5313 186.86 76.5447 186.902C76.558 186.943 76.5793 186.981 76.6072 187.013C76.6352 187.046 76.6694 187.073 76.7078 187.093C76.7461 187.112 76.788 187.124 76.8309 187.127C76.8738 187.131 76.917 187.126 76.9579 187.112C87.3693 184.204 97.9473 181.492 108.17 178.032C108.249 178.006 108.322 177.965 108.386 177.911C108.449 177.857 108.5 177.791 108.537 177.716C108.575 177.642 108.596 177.56 108.602 177.477C108.607 177.394 108.596 177.311 108.569 177.232C108.543 177.153 108.503 177.079 108.449 177.016C108.395 176.952 108.329 176.9 108.255 176.862C108.181 176.824 108.1 176.802 108.017 176.795C107.934 176.789 107.85 176.799 107.771 176.825Z" fill="#C2C08D"/>
<path d="M95.794 172.492C94.7841 174.236 93.8903 176.046 93.1187 177.908C92.5169 179.362 91.7411 180.882 91.7339 182.459C91.7339 182.765 92.1399 182.845 92.3284 182.663C93.5247 181.514 94.1699 179.828 94.9312 178.388C95.8157 176.716 96.7365 175.066 97.5703 173.372C98.1286 172.252 96.4175 171.423 95.794 172.492Z" fill="#C2C08D"/>
<path d="M97.1424 162.946C97.7804 161.383 98.4257 159.827 99.1 158.286C99.7743 156.745 100.608 155.116 101.181 153.473C101.275 153.212 101.681 153.393 101.572 153.655C100.934 155.211 100.514 156.883 99.9918 158.49C99.4698 160.096 98.926 161.703 98.375 163.303C97.3185 166.3 96.1085 169.241 94.7498 172.114C96.4172 172.217 98.0864 171.946 99.6365 171.322C101.282 170.522 102.297 168.792 103.124 167.228C104.037 165.484 104.886 163.702 105.828 161.979C106.963 160.112 107.933 158.149 108.728 156.112C108.815 155.851 109.214 156.032 109.12 156.294C107.539 160.569 105.98 164.844 103.559 168.77C102.609 170.311 101.833 171.925 100.101 172.507C98.2445 173.139 96.2289 172.986 94.3003 172.826C94.0611 172.892 93.7566 172.732 93.8436 172.441C94.7822 169.222 95.8832 166.053 97.1424 162.946Z" fill="#C2C08D"/>
<path d="M92.5821 182.699C96.0912 190.413 99.1725 198.083 102.45 205.76C105.647 213.263 108.641 220.853 111.541 228.472C117.4 243.88 122.615 259.521 127.187 275.394C129.449 283.231 131.513 291.122 133.379 299.066C135.242 307.063 137.062 315.06 137.78 323.239C138.545 331.365 137.753 339.563 135.445 347.39C133.038 355.388 120.024 382.505 116.327 389.965C114.064 394.53 113.31 393.898 114.412 391.593C117.516 385.05 135.438 347.39 136.373 331.796C136.852 323.726 133.473 312.297 131.748 304.424C129.993 296.427 127.992 288.429 125.803 280.483C121.452 264.867 116.327 249.541 111.005 234.245C108.025 225.673 104.82 217.189 101.79 208.632C98.7593 200.075 95.5836 192.252 92.205 182.845C92.1918 182.793 92.1996 182.737 92.2268 182.691C92.2539 182.645 92.2982 182.611 92.35 182.598C92.3945 182.584 92.4422 182.587 92.4847 182.606C92.5272 182.624 92.5617 182.658 92.5821 182.699Z" fill="#C2C08D"/>
<path d="M18.231 156.469C20.0001 155.836 22.4361 156.948 24.2269 157.268C28.8025 158.109 33.4707 158.325 38.1039 157.908C40.395 157.712 42.7368 157.457 44.7378 156.236C48.1237 154.178 50.973 150.514 53.2859 147.352C55.8307 143.884 58.4698 139.893 60.0141 135.85C60.1083 135.603 60.4563 135.778 60.3766 136.025C59.6081 138.38 59.028 140.758 58.0565 143.055C57.1159 145.212 56.0056 147.291 54.7359 149.271C52.4231 152.986 49.7768 156.948 45.8544 159.122C41.7508 161.405 36.4943 161.201 31.9484 160.882C29.316 160.698 26.7009 160.316 24.1255 159.74C22.2694 159.326 19.1445 159.013 17.9773 157.334C17.8899 157.209 17.8553 157.055 17.8812 156.905C17.907 156.755 17.9911 156.622 18.115 156.534C18.1494 156.505 18.1887 156.483 18.231 156.469Z" fill="#C2C08D"/>
<path d="M-62.7541 520.137C-46.2888 495.811 22.9871 376.188 38.4156 351.12C42.106 345.115 46.3546 339.124 48.7689 332.458C51.3863 325.187 50.0377 318.143 47.8336 310.989C43.6884 297.901 38.8036 285.06 33.2027 272.53C27.6853 259.93 21.7328 247.527 15.8819 235.081C10.031 222.634 3.88277 210.362 -0.474621 197.4C-4.63625 185.04 -6.12255 172.23 -2.64969 159.5C0.82317 146.77 8.0299 135.545 15.5991 125.04C17.5929 122.262 19.6158 119.507 21.6168 116.737C21.7691 116.519 22.0881 116.788 21.9358 116.992C13.6126 127.97 5.49232 139.587 0.533169 152.535C-1.99928 158.916 -3.45235 165.676 -3.76621 172.536C-3.89007 179.498 -2.89618 186.435 -0.82262 193.081C2.95475 206.066 9.11743 218.338 14.8234 230.523C20.6235 242.984 26.6412 255.372 32.2602 267.935C38.0036 280.535 43.0857 293.428 47.4856 306.561C49.3997 312.421 51.5458 318.557 51.3355 324.809C51.1035 331.658 47.7684 337.787 44.3173 343.523C29.3021 368.489 -39.6331 487.225 -55.9968 511.464L-62.203 520.624C-62.464 520.995 -63.0223 520.537 -62.7541 520.137Z" fill="#C2C08D"/>
<path d="M212.189 91.2406C235.042 145.178 274.374 251.744 278.463 269.97C281.24 282.33 222.499 296.318 221.861 287.637C221.049 276.521 190.047 146.661 189.96 90.5282C189.873 62.1163 204.779 73.7486 212.189 91.2406Z" fill="#C36358"/>
<path d="M221.912 284.009C220.976 290.69 219.381 321.683 220.86 330.407C222.339 339.132 228.415 363.93 235.194 363.472C241.973 363.014 240.777 355.606 240.777 355.606C240.777 355.606 244.996 365.668 251.775 364.584C258.554 363.501 256.314 352.043 256.314 352.043C256.314 352.043 261.389 362.062 268.081 360.499C274.773 358.935 270.59 347.79 270.59 347.79C270.59 347.79 274.809 357.169 279.783 353.556C285.757 349.193 276.02 332.799 275.107 323.021C274.896 320.84 274.084 277.822 274.084 277.822L221.912 284.009Z" fill="#C36358"/>
<path d="M270.894 348.75C263.767 336.674 262.73 330.153 263.122 316.34C263.122 316.063 262.738 315.991 262.701 316.274C261.085 329.768 261.208 338.136 270.329 349.128C270.771 349.666 271.213 349.332 270.894 348.75Z" fill="#071843"/>
<path d="M256.858 352.996C250.55 339.837 249.361 332.734 248.737 318.237C248.737 318.034 248.382 318.026 248.375 318.237C247.824 332.508 248.136 340.855 256.169 353.214C256.51 353.774 257.148 353.599 256.858 352.996Z" fill="#071843"/>
<path d="M240.762 354.871C235.578 341.647 233.94 333.962 235.114 319.807C235.117 319.773 235.114 319.738 235.103 319.705C235.093 319.673 235.076 319.642 235.054 319.616C235.031 319.589 235.004 319.568 234.973 319.552C234.943 319.536 234.909 319.527 234.875 319.524C234.812 319.517 234.749 319.534 234.698 319.572C234.647 319.61 234.612 319.665 234.6 319.727C232.004 334.05 233.969 343.661 240.349 354.981C240.762 355.758 241.06 355.7 240.762 354.871Z" fill="#071843"/>
<path d="M278.355 271.359C278.355 271.359 289.042 285.303 292.384 292.443C295.726 299.582 298.402 330.916 291.659 331.883C282.959 333.119 277.883 315.351 276.549 306.321C276.549 306.321 256.503 309.229 250.101 297.248C243.699 285.267 278.355 271.359 278.355 271.359Z" fill="#C36358"/>
<path d="M289.194 331.469C280.494 326.881 279.457 314.915 277.485 306.256C277.451 306.042 277.334 305.851 277.161 305.723C276.987 305.595 276.77 305.541 276.557 305.572C276.463 305.59 276.372 305.622 276.288 305.667C267.813 306.321 255.662 304.758 249.985 297.786C249.953 297.741 249.904 297.711 249.85 297.701C249.796 297.692 249.74 297.704 249.695 297.735C249.673 297.75 249.654 297.77 249.64 297.792C249.625 297.815 249.615 297.84 249.611 297.866C249.606 297.893 249.606 297.92 249.612 297.946C249.618 297.972 249.629 297.997 249.644 298.019C254.719 306.321 266.537 308.837 275.745 307.528C277.63 316.441 279.181 328.401 289.143 331.52C289.216 331.571 289.252 331.498 289.194 331.469Z" fill="#071843"/>
<path d="M187.995 142.815L240.922 147.243C240.922 147.243 218.207 93.2835 207.063 79.303C194.52 63.5776 189.242 73.4432 186.965 92.4547C184.689 111.466 187.995 142.815 187.995 142.815Z" fill="#FD8496"/>
<path d="M226.987 121.637C226.251 120.724 225.417 119.895 224.5 119.165C225.457 118.25 226.333 117.253 227.117 116.185C226.813 115.538 226.494 114.89 226.196 114.251C225.292 115.66 224.227 116.958 223.021 118.118C219.861 116.17 216.286 114.999 212.588 114.701C210.362 114.505 207.853 114.701 205.968 116.01C205.169 116.529 204.572 117.308 204.279 118.217C203.986 119.125 204.014 120.107 204.359 120.997C206.331 125.636 213.378 125.076 217.213 123.724C219.293 122.979 221.234 121.89 222.956 120.503C223.687 121.085 224.358 121.741 224.957 122.459C228.045 126.043 229.155 131.183 226.777 135.48C224.681 139.26 220.607 141.645 216.626 143.041C214.549 143.774 212.415 144.334 210.246 144.713L215.626 145.171C216.22 144.996 216.822 144.8 217.402 144.611C221.839 143.084 226.334 140.46 228.647 136.185C231.235 131.437 230.206 125.788 226.987 121.637ZM209.456 122.909C207.404 122.437 204.062 120.241 206.2 117.82C207.527 116.366 210.057 116.192 211.899 116.366C215.285 116.625 218.564 117.671 221.477 119.42C218.185 122.008 213.581 123.833 209.419 122.909H209.456Z" fill="#C4556B"/>
<path d="M194.941 71.7711C195.622 71.6839 196.333 71.5966 197.058 71.5312C196.343 71.4648 195.623 71.5465 194.941 71.7711ZM190.591 122.393C189.196 122.334 187.811 122.147 186.451 121.834C186.494 122.35 186.516 122.866 186.538 123.36C187.933 123.491 189.34 123.418 190.714 123.142C191.185 123.055 191.018 122.415 190.612 122.415L190.591 122.393ZM188.742 84.981C188.586 84.8145 188.408 84.6701 188.212 84.5521C188.082 85.1991 187.951 85.8825 187.821 86.5732C187.842 86.84 187.815 87.1084 187.741 87.3656C187.721 87.4347 187.692 87.5007 187.654 87.5619C187.502 88.5507 187.328 89.583 187.205 90.659L187.27 90.5936C188.662 89.2413 190.525 86.8349 188.764 84.981H188.742Z" fill="#C4556B"/>
<path d="M190.062 133.946C191.918 133.829 208.426 135.072 212.008 135.4C215.59 135.727 230.242 136.999 233.911 137.726C233.945 137.726 233.979 137.74 234.003 137.764C234.028 137.789 234.041 137.822 234.041 137.857C234.041 137.892 234.028 137.925 234.003 137.949C233.979 137.974 233.945 137.988 233.911 137.988C230.199 137.988 215.416 136.774 211.761 136.49C208.107 136.207 191.802 134.622 190.011 134.193C189.873 134.149 189.938 133.953 190.062 133.946Z" fill="#6D2D3C"/>
<path d="M211.334 144.793L187.995 142.815C187.995 142.815 184.689 111.452 186.973 92.4547C187.814 85.3082 189.148 79.4775 191.048 75.7842L211.334 144.793Z" fill="#6D2D3C"/>
<path d="M125.679 191.918L9.00158 112.128C8.90732 109.801 68.0256 74.3593 121.975 56.7001C140.223 50.724 174.553 50.8258 186.168 55.0643C200.067 60.1534 209.862 88.6452 199.538 101.332C194.767 107.199 169.036 120.445 164.381 126.595C162.329 129.322 156.319 145.367 154.818 148.406C137.809 182.801 127.144 191.642 125.679 191.918Z" fill="#FD8496"/>
<path d="M155.391 130.572C154.137 127.831 152.737 125.163 151.316 122.502C150.02 119.931 148.324 117.582 146.292 115.545C142.116 111.524 136.968 108.645 132.234 105.367C132.052 105.243 131.9 105.541 132.067 105.665C136.752 108.967 140.98 112.879 144.639 117.297C146.415 119.478 148.264 121.659 150.026 123.84C151.787 126.021 153.354 128.486 155.021 130.805C155.037 130.83 155.057 130.851 155.081 130.867C155.104 130.884 155.131 130.896 155.16 130.902C155.188 130.908 155.217 130.908 155.246 130.903C155.274 130.898 155.301 130.886 155.326 130.87C155.35 130.856 155.371 130.836 155.388 130.813C155.404 130.789 155.416 130.763 155.422 130.735C155.428 130.707 155.428 130.679 155.423 130.651C155.418 130.623 155.407 130.596 155.391 130.572Z" fill="#6D2D3C"/>
<path d="M159.444 123.913C159.095 123.281 158.707 122.672 158.284 122.088C157.436 120.925 156.49 119.838 155.456 118.838C153.382 116.851 150.99 115.227 148.38 114.033C148.361 114.022 148.339 114.015 148.317 114.012C148.295 114.01 148.273 114.012 148.251 114.019C148.23 114.026 148.211 114.037 148.194 114.052C148.178 114.067 148.164 114.085 148.155 114.105C148.144 114.124 148.136 114.145 148.134 114.167C148.131 114.189 148.133 114.211 148.139 114.232C148.145 114.253 148.155 114.273 148.169 114.29C148.183 114.307 148.201 114.321 148.22 114.331C150.517 115.92 152.641 117.748 154.557 119.783C155.529 120.779 156.399 121.848 157.269 122.931C157.682 123.447 158.073 123.985 158.479 124.509C158.885 125.032 159.357 125.556 159.813 126.079C159.852 126.122 159.904 126.15 159.961 126.159C160.018 126.167 160.077 126.155 160.126 126.125C160.175 126.094 160.212 126.048 160.23 125.993C160.249 125.938 160.248 125.879 160.227 125.825C160.028 125.164 159.766 124.523 159.444 123.913Z" fill="#6D2D3C"/>
<path d="M62.5154 109.416C63.937 108.049 65.1751 106.502 66.1985 104.814C70.9764 96.9114 70.0991 87.5619 66.4595 79.463C66.0317 79.652 65.5967 79.8701 65.1907 80.0809C67.6123 86.1006 68.6853 92.6292 66.8003 98.947C65.7143 102.547 63.7159 105.804 61.0001 108.398C57.8398 106.45 54.2648 105.279 50.567 104.981C48.3557 104.785 45.8471 104.981 43.9621 106.29C43.164 106.81 42.5689 107.59 42.2771 108.498C41.9852 109.406 42.0144 110.388 42.3598 111.277C44.3101 115.916 51.379 115.356 55.2144 114.025C57.291 113.264 59.2303 112.168 60.9566 110.783C61.6946 111.37 62.3766 112.025 62.9939 112.739C66.0535 116.323 67.1918 121.463 64.8137 125.759C62.7112 129.54 58.6438 131.924 54.6634 133.32C50.9928 134.599 47.1659 135.372 43.2878 135.618L45.1076 136.868C48.6253 136.685 52.1014 136.019 55.4392 134.891C59.8691 133.364 64.3714 130.747 66.6843 126.465C69.2581 121.717 68.2286 116.068 64.9732 111.924C64.2498 110.999 63.4254 110.158 62.5154 109.416ZM47.4712 113.153C45.4121 112.68 42.0698 110.485 44.2158 108.1C45.5426 106.646 48.0729 106.472 49.9145 106.646C53.2938 106.902 56.5665 107.947 59.4703 109.7C56.2367 112.28 51.6328 114.076 47.4712 113.153Z" fill="#C4556B"/>
<path d="M132.821 126.45C127.061 126.567 121.379 127.802 116.087 130.085C114.054 128.854 111.792 128.05 109.439 127.722C103.102 126.864 96.5625 129.096 90.8638 131.692C84.971 134.295 79.6321 138.009 75.1381 142.633C72.9397 144.896 71.037 147.429 69.4757 150.173C69.0697 150.9 68.6201 151.743 68.1924 152.601L68.7941 153.008C69.3089 152.106 69.9107 151.249 70.3964 150.492C71.7818 148.412 73.3389 146.452 75.0511 144.633C78.575 140.988 82.6366 137.908 87.0937 135.501C91.8498 132.899 97.099 130.667 102.457 129.722C106.292 129.053 110.555 129.271 114.057 130.987C109.533 133.349 105.444 137.239 105.807 142.764C106.147 147.853 111.034 150.667 115.747 149.402C120.952 147.984 123.12 142.415 121.815 137.472C121.135 134.983 119.667 132.784 117.632 131.205C122.383 129.278 127.426 128.172 132.545 127.933C142.362 127.417 151.94 129.867 160.821 133.909C160.952 133.626 161.061 133.371 161.191 133.095C152.424 128.572 142.679 126.29 132.821 126.45ZM117.929 133.866C121.01 137.37 121.699 143.986 117.349 146.843C113.34 149.511 107.619 147.424 107.51 142.27C107.387 137.239 111.65 134.018 115.805 132.019C116.586 132.545 117.299 133.165 117.929 133.866Z" fill="#C4556B"/>
<path d="M156.58 66.5511C156.096 62.3048 155.353 58.0923 154.354 53.9374C154.202 53.334 154.057 52.7087 153.883 52.1053H153.034C154.383 57.9941 155.601 63.992 155.71 70.0481C155.835 73.462 155.207 76.8616 153.87 80.0037C152.532 83.1457 150.519 85.9526 147.974 88.2235C143.109 92.5856 136.533 95.3337 129.935 94.6867C127.507 94.4237 125.162 93.6481 123.055 92.4111C126.847 87.8527 129.935 81.9493 127.68 76.1914C126.549 73.3487 124.055 71.1604 120.829 71.5239C119.31 71.7449 117.889 72.4053 116.739 73.4242C115.589 74.443 114.76 75.7761 114.354 77.2601C112.578 83.0762 115.804 89.0814 120.358 92.6874C116.087 97.2458 110.345 101.95 103.878 102.269C98.0052 102.575 93.4448 98.7507 91.2987 93.4871C87.3764 83.796 91.2552 72.4472 98.6505 65.228L97.2004 65.8096C90.233 72.6217 86.3251 82.531 89.16 92.2803C90.7913 97.9292 94.8876 103.004 100.905 104.014C108.38 105.279 115.406 100.277 120.401 95.2901C120.872 94.8175 121.365 94.3014 121.851 93.7852C121.884 93.8122 121.921 93.8342 121.96 93.8506C128.007 97.6311 135.503 97.3112 141.826 94.3886C148.148 91.466 153.651 85.6644 155.775 78.8086C157.029 74.8609 157.029 70.6297 156.58 66.5511ZM121.525 91.4078C119.149 89.7227 117.317 87.3775 116.254 84.6611C115.137 81.6731 114.949 77.849 117.03 75.2099C119.111 72.5708 123.2 71.9601 125.36 74.8609C129.37 80.2118 125.295 87.0457 121.525 91.4078Z" fill="#C4556B"/>
<path d="M200.233 70.7169C198.259 70.5207 196.27 70.5207 194.295 70.7169C188.408 71.234 182.656 72.7817 177.301 75.2899C172.951 77.3328 168.064 80.379 167.064 85.4681C166.288 89.4231 167.963 93.1381 171.414 94.6431C169.529 98.0617 168.723 101.973 169.101 105.861C169.74 110.505 171.957 114.786 175.38 117.98C175.851 117.653 176.344 117.355 176.83 117.013C173.758 114.384 171.698 110.762 171.006 106.772C170.313 102.782 171.032 98.6745 173.038 95.1592C173.19 95.1592 173.292 95.2465 173.444 95.2683C175.946 95.5662 178.484 95.2962 180.868 94.4782C183.253 93.6602 185.423 92.3152 187.219 90.5427C188.611 89.1904 190.475 86.7622 188.713 84.9301C187.263 83.4761 184.776 84.0504 183.079 84.6102C178.622 86.1341 174.815 89.134 172.284 93.1163C171.311 92.7904 170.454 92.1864 169.819 91.3788C169.285 90.5873 168.922 89.693 168.752 88.753C168.583 87.8129 168.61 86.8477 168.833 85.9189C169.688 81.644 173.632 78.9831 177.25 77.1147C182.282 74.5041 187.716 72.7592 193.324 71.9529C195.684 71.5233 198.082 71.3357 200.48 71.3931C200.422 71.2113 200.335 70.9496 200.233 70.7169ZM177.685 89.4522C179.185 88.1546 180.904 87.1353 182.76 86.4423C184.022 85.9479 188.633 84.5084 187.836 87.3656C187.553 88.398 186.335 89.3649 185.559 90.012C184.637 90.7783 183.63 91.4346 182.557 91.9676C180.575 93.0018 178.388 93.5804 176.155 93.6616C175.483 93.6859 174.809 93.6592 174.14 93.5816C175.124 92.0466 176.318 90.6567 177.685 89.4522Z" fill="#C4556B"/>
<path d="M135.583 159.006C130.369 160.739 125.693 163.803 122.018 167.897C118.523 164.677 112.781 163.601 108.09 163.841C103.238 164.192 98.4895 165.424 94.0757 167.476C93.2419 167.846 92.4081 168.203 91.5889 168.639L92.7054 169.366C95.5995 168.123 98.5953 167.133 101.659 166.407C107.51 165.047 116.276 164.531 120.902 169.315C120.073 170.392 119.329 171.532 118.676 172.725C117.842 174.36 116.965 176.273 117.349 178.163C117.486 178.904 117.837 179.589 118.359 180.132C118.881 180.675 119.551 181.052 120.285 181.216C123.758 181.776 125.36 177.007 125.128 174.317C124.975 172.418 124.275 170.604 123.113 169.097C126.719 165.082 131.303 162.075 136.417 160.373C140.796 158.891 145.364 158.044 149.982 157.857C150.178 157.472 150.388 157.087 150.584 156.701C145.491 156.628 140.421 157.407 135.583 159.006ZM122.083 178.773C121.395 179.544 120.452 179.871 119.596 179.072C118.741 178.272 118.784 177.014 119.06 175.96C119.591 174.27 120.395 172.679 121.438 171.249C121.59 171.016 121.786 170.798 121.953 170.587C123.497 172.95 124.034 176.52 122.083 178.773Z" fill="#C4556B"/>
<path d="M188.27 97.9147C180.868 94.803 177.054 77.2165 178.468 66.2531C178.57 65.526 183.5 60.4369 189.206 53.9956C192.657 50.0769 196.398 45.6276 199.53 41.3164C200.168 40.4294 221.701 67.5399 221.701 67.5399C221.701 67.5399 212.501 74.6356 207.099 82.1747C206.671 82.7722 206.302 83.4101 205.997 84.0795C205.947 84.1668 205.903 84.2831 205.823 84.3994C203.931 88.1581 195.426 100.917 188.27 97.9147Z" fill="#C36358"/>
<path d="M201.103 42.6396C197.065 50.833 188.814 71.7202 202.952 82.5382C203.851 83.241 204.809 83.8638 205.816 84.3994C205.888 84.2995 205.948 84.1923 205.997 84.0795C206.306 83.415 206.669 82.7778 207.085 82.1747C212.501 74.621 221.708 67.5326 221.708 67.5326C221.708 67.5326 206.171 47.9759 201.103 42.6396Z" fill="#071843"/>
<path d="M225.247 7.74274C214.451 13.7624 195.267 42.7413 196.036 54.0828C197.152 70.5279 210.783 85.1628 227.69 81.106C244.083 77.1801 268.422 38.939 266.457 27.4449C263.571 10.4981 241.183 -1.13414 225.247 7.74274Z" fill="#C36358"/>
<path d="M235.571 47.4015C235.571 47.3215 235.354 47.4015 235.303 47.4597C233.983 49.3935 232.142 51.3856 229.981 50.7603C229.909 50.7603 229.851 50.8403 229.916 50.8766C232.214 52.1126 234.629 49.4444 235.571 47.4015Z" fill="#071843"/>
<path d="M235.332 44.1881C232.432 41.7308 227.777 47.6487 230.423 49.9315C233.07 52.2144 237.732 46.2528 235.332 44.1881Z" fill="#071843"/>
<path d="M245.221 55.1515C245.294 55.0933 245.294 55.3478 245.221 55.4278C243.706 57.209 242.27 59.5136 243.445 61.4402C243.445 61.5056 243.401 61.5929 243.35 61.5347C241.574 59.6372 243.503 56.5983 245.221 55.1515Z" fill="#071843"/>
<path d="M248.375 54.5408C251.493 56.6637 247.027 62.7561 244.141 60.7931C241.255 58.8302 245.758 52.7596 248.375 54.5408Z" fill="#071843"/>
<path d="M235.15 39.6297C236.1 40.015 237.064 40.3567 238.051 40.6403C239.182 41.0183 240.037 41.44 241.233 41.1055C241.561 40.9766 241.838 40.743 242.02 40.4407C242.202 40.1385 242.28 39.7844 242.241 39.4334C241.973 37.943 240.711 37.136 239.341 36.6271C238.011 36.0653 236.519 36.0212 235.158 36.5035C233.78 36.9834 233.874 39.0481 235.15 39.6297Z" fill="#071843"/>
<path d="M253.022 53.3921C252.358 52.5991 251.736 51.7716 251.159 50.913C250.434 49.9533 249.796 49.2627 249.709 48.0049C249.733 47.6546 249.872 47.322 250.104 47.059C250.336 46.7961 250.648 46.6174 250.992 46.5509C252.486 46.3401 253.639 47.2779 254.53 48.4193C255.473 49.519 255.972 50.9321 255.93 52.3816C255.988 53.8719 253.958 54.4172 253.022 53.3921Z" fill="#071843"/>
<path d="M219.323 62.0436C219.425 62.8215 219.396 63.7594 220.048 64.3483C220.738 64.8801 221.535 65.2569 222.383 65.4533C222.393 65.458 222.403 65.4648 222.411 65.4732C222.419 65.4816 222.425 65.4916 222.429 65.5024C222.433 65.5132 222.435 65.5247 222.434 65.5363C222.434 65.5478 222.431 65.5592 222.426 65.5697C222.423 65.58 222.418 65.5893 222.41 65.5969C222.402 65.6045 222.393 65.6102 222.383 65.6133C221.835 65.7635 221.258 65.7631 220.71 65.6121C220.163 65.4612 219.666 65.1652 219.272 64.7554C218.978 64.3599 218.807 63.8862 218.78 63.3935C218.753 62.9008 218.871 62.411 219.12 61.9855C219.142 61.8546 219.316 61.9273 219.323 62.0436Z" fill="#071843"/>
<path d="M225.602 58.0887C225.492 59.1846 225.609 60.2915 225.946 61.3398C226.283 62.3882 226.832 63.3555 227.559 64.1811C228.19 64.913 228.922 65.5497 229.734 66.0713C229.885 66.1793 230.042 66.2764 230.206 66.3621C230.351 66.4494 230.481 66.5293 230.655 66.6166C230.771 66.6827 230.906 66.7072 231.038 66.686C231.17 66.6649 231.291 66.5994 231.38 66.5002C231.43 66.4369 231.474 66.3687 231.511 66.2967L231.634 66.1295C232.794 64.7481 234.36 62.4944 234.36 62.4944C234.672 63.1632 236.354 66.4348 236.898 65.6642C241.378 59.2737 246.367 52.1562 249.477 44.8424C249.496 44.7883 249.494 44.7288 249.471 44.6761C249.448 44.6234 249.406 44.5815 249.354 44.5589C249.311 44.5435 249.264 44.5415 249.22 44.5531C249.176 44.5648 249.137 44.5896 249.107 44.6243C244.554 50.6004 241.081 57.3398 236.608 63.4177C236.028 62.4289 235.158 60.7495 234.382 60.1752C234.135 60.0734 231.431 64.5882 230.858 65.1698C230.842 65.1944 230.819 65.2145 230.793 65.228C228.19 63.6431 226.972 61.5056 225.943 58.0814C225.856 57.8415 225.609 57.8488 225.602 58.0887Z" fill="#071843"/>
<path d="M229.372 64.799C227.785 65.1217 226.142 65.0291 224.602 64.53C223.771 64.2311 223.053 63.6796 222.55 62.9524C221.462 61.3529 222.55 60.0443 223.768 59.1428C224.421 58.6793 225.126 58.296 225.87 58.0014C226.286 60.5833 227.513 62.9646 229.372 64.799Z" fill="#071843"/>
<path d="M224.602 64.53C223.771 64.2311 223.053 63.6796 222.55 62.9524C221.462 61.3529 222.55 60.0443 223.768 59.1428C225.145 60.6187 225.747 62.9451 224.602 64.53Z" fill="#FF98BB"/>
<path d="M263.521 40.175C263.796 38.9099 265.529 32.6358 263.767 31.8433C261.491 30.811 254.871 32.7885 251.746 27.2486C248.622 21.7087 244.605 15.7981 236.825 16.8159C230.496 17.6447 225.718 24.6168 220.491 28.6299C215.263 32.6431 210.456 35.4784 204.141 32.8757C204.141 32.8757 204.207 32.6285 204.301 32.185C210.609 21.5924 221.085 5.97608 227.096 2.61726C243.046 -6.2887 267.327 9.01501 267.943 26.2308C268.183 33.072 264.92 36.2927 263.521 40.175Z" fill="#071843"/>
<path d="M212.008 33.6827C212.008 33.6827 214.611 20.4292 209.159 18.7279C203.706 17.0267 196.195 32.3086 198.711 38.1248C199.244 39.6228 200.348 40.8473 201.781 41.529C203.214 42.2107 204.859 42.2937 206.353 41.7598L206.577 41.6726L212.008 33.6827Z" fill="#C36358"/>
<path d="M207.114 23.17C207.098 23.1557 207.077 23.1478 207.056 23.1478C207.035 23.1478 207.014 23.1557 206.998 23.17C206.99 23.183 206.985 23.1982 206.985 23.2136C206.985 23.2291 206.99 23.2443 206.998 23.2573C208.651 27.394 207.397 31.618 205.599 35.4712C205.845 33.53 205.287 31.7416 202.822 31.2763C202.795 31.2767 202.769 31.2854 202.747 31.3012C202.726 31.317 202.709 31.3392 202.701 31.3646C202.692 31.39 202.691 31.4175 202.699 31.4433C202.706 31.4691 202.721 31.492 202.742 31.5089C203.41 31.8732 203.948 32.4355 204.284 33.1188C204.621 33.8021 204.738 34.573 204.62 35.3257C204.417 36.5855 204.076 37.8191 203.605 39.0045C203.474 39.397 204.076 39.7315 204.286 39.3461L204.33 39.2589C208.18 35.682 210.645 27.6121 207.114 23.17Z" fill="#071843"/>
<path d="M258.765 351.789C261.723 356.595 271.859 423.538 265.544 438.304C259.229 453.07 242.539 448.148 238.072 436.428C233.606 424.709 239.327 361.858 240.915 357.183C242.502 352.509 254.328 344.57 258.765 351.789Z" fill="#ED776A"/>
<path d="M259.83 345.071C258.768 346.978 257.556 348.796 256.205 350.509C254.668 352.314 252.998 354 251.21 355.555C250.347 355.62 249.76 355.613 249.455 355.686C247.911 356.093 243.394 358.114 240.9 357.14C240.733 354.159 239.45 350.4 238.725 348.488C238.101 346.882 239.283 344.468 240.828 342.512C242.437 342.214 245.402 342.396 245.707 343.167C245.895 343.654 245.156 344.541 244.366 345.297C243.206 346.067 242.546 346.583 242.916 346.416C243.44 346.1 243.927 345.724 244.366 345.297C245.758 344.337 247.86 343.014 249.825 341.952C251.377 341.138 253.03 340.004 254.458 339.197C256.046 339.364 257.554 339.597 258.808 339.844C259.518 341.493 259.867 343.276 259.83 345.071Z" fill="#ED776A"/>
<path d="M240.545 342.607L240.813 342.549C239.269 344.504 238.087 346.911 238.71 348.525C239.435 350.437 240.748 354.195 240.885 357.176C240.623 357.089 240.377 356.956 240.16 356.784C237.985 354.981 235.136 350.749 235.194 349.201C235.288 346.896 239 343.007 240.545 342.607Z" fill="#ED776A"/>
<path d="M244.387 345.333C243.948 345.761 243.462 346.136 242.937 346.453C242.531 346.62 243.191 346.104 244.387 345.333Z" fill="#ED776A"/>
<path d="M258.765 339.88C257.539 339.633 256.031 339.401 254.415 339.233C256.01 338.339 257.315 337.823 257.887 338.506C258.24 338.923 258.535 339.385 258.765 339.88Z" fill="#ED776A"/>
<path d="M236.898 339.19C236.709 342.825 241.451 352.218 243.952 351.665C246.454 351.113 243.445 338.797 242.038 337.474C241.654 337.043 241.153 336.734 240.597 336.586C240.04 336.437 239.452 336.455 238.906 336.638C238.359 336.82 237.878 337.159 237.521 337.613C237.164 338.066 236.948 338.614 236.898 339.19Z" fill="#ED776A"/>
<path d="M242.386 335.591C241.661 339.146 245.09 349.121 247.65 348.932C250.209 348.743 248.919 336.114 247.715 334.61C247.395 334.129 246.942 333.754 246.411 333.529C245.88 333.304 245.296 333.239 244.729 333.344C244.162 333.448 243.638 333.717 243.222 334.116C242.806 334.515 242.515 335.028 242.386 335.591Z" fill="#ED776A"/>
<path d="M248.295 335.038C247.389 338.172 249.615 347.398 251.92 347.434C254.226 347.47 254.095 336.049 253.146 334.595C252.895 334.142 252.519 333.772 252.063 333.53C251.607 333.287 251.09 333.183 250.576 333.23C250.062 333.277 249.573 333.473 249.168 333.794C248.763 334.115 248.459 334.548 248.295 335.038Z" fill="#ED776A"/>
<path d="M253.544 335.751C252.239 338.579 253.015 347.609 255.19 347.979C257.365 348.35 258.888 337.547 258.163 336.034C257.99 335.576 257.688 335.178 257.295 334.887C256.901 334.597 256.433 334.426 255.945 334.396C255.457 334.366 254.971 334.478 254.545 334.719C254.12 334.959 253.772 335.317 253.544 335.751Z" fill="#ED776A"/>
<path d="M217.395 422.346C222.194 436.886 234.36 444.222 240.305 446.759C246.251 449.296 270.031 452.51 286.062 444.295C289.687 442.448 292.696 438.936 295.081 434.414C297.502 429.648 299.212 424.55 300.156 419.285C303.056 404.592 301.737 387.391 295.487 377.751C286.787 364.315 259.961 355.708 238.573 364.083C221.397 370.83 212.595 407.762 217.395 422.346Z" fill="#ED776A"/>
<path d="M265.993 402.869C266.923 402.745 267.845 402.57 268.755 402.346C269.814 402.128 270.677 402.069 271.474 401.27C271.669 401.015 271.775 400.704 271.775 400.383C271.775 400.062 271.669 399.75 271.474 399.496C270.597 398.434 269.234 398.376 267.951 398.58C266.649 398.747 265.456 399.392 264.601 400.39C263.716 401.408 264.724 402.993 265.993 402.869Z" fill="#071843"/>
<path d="M295.589 406.17C294.675 405.901 293.87 405.508 292.986 405.152C292.101 404.796 291.159 404.527 290.535 403.603C290.387 403.322 290.335 402.999 290.388 402.686C290.44 402.372 290.594 402.084 290.825 401.866C291.869 400.993 293.21 401.182 294.45 401.619C295.691 402.014 296.741 402.859 297.394 403.989C297.528 404.258 297.581 404.56 297.546 404.858C297.512 405.156 297.392 405.439 297.201 405.67C297.009 405.901 296.755 406.071 296.469 406.16C296.182 406.249 295.877 406.252 295.589 406.17Z" fill="#071843"/>
<path d="M268.864 425.763C268.676 426.215 268.516 426.679 268.386 427.151C267.849 429.027 267.385 432.342 270.184 433.695C271.256 434.182 272.458 434.305 273.606 434.044C276.745 433.462 279.819 430.35 279.819 430.35C273.106 431.121 268.864 425.763 268.864 425.763Z" fill="#071843"/>
<path d="M268.386 427.151C267.849 429.027 267.385 432.342 270.184 433.695C271.256 434.182 272.458 434.305 273.606 434.044C273.456 432.356 272.776 430.76 271.663 429.485C270.78 428.447 269.654 427.645 268.386 427.151Z" fill="#E15B43"/>
<path d="M268.987 407.886C264.166 407.268 263.296 416.981 267.762 417.548C272.228 418.115 273.026 408.394 268.987 407.886Z" fill="#071843"/>
<path d="M261.063 410.132C262.172 411.317 263.238 411.637 264.311 410.256C264.747 409.61 265.283 409.038 265.899 408.562C266.348 408.218 266.869 407.982 267.424 407.871C267.978 407.76 268.55 407.778 269.096 407.922C269.183 407.922 269.154 408.053 269.096 408.075C267.901 408.569 266.847 409.354 266.029 410.357C265.398 411.004 264.71 411.899 263.789 412.124C262.426 412.466 261.382 411.528 260.969 410.285C260.86 410.103 260.911 410.016 261.063 410.132Z" fill="#071843"/>
<path d="M291.717 410.757C295.958 410.757 295.676 420.143 291.717 420.158C287.758 420.172 288.157 410.772 291.717 410.757Z" fill="#071843"/>
<path d="M298.169 411.71C297.205 412.938 296.241 413.396 295.306 412.291C294.901 411.776 294.41 411.336 293.856 410.99C293.426 410.746 292.945 410.608 292.452 410.588C291.959 410.568 291.468 410.666 291.021 410.874C291.012 410.877 291.003 410.882 290.996 410.888C290.989 410.895 290.983 410.903 290.979 410.912C290.975 410.92 290.973 410.93 290.972 410.94C290.972 410.949 290.974 410.959 290.977 410.968C290.98 410.978 290.986 410.988 290.993 410.995C291.001 411.003 291.01 411.009 291.021 411.012C292.066 411.283 293.013 411.845 293.754 412.633C294.32 413.127 294.936 413.84 295.755 413.913C296.966 414.014 297.872 413.018 298.22 411.826C298.314 411.659 298.264 411.586 298.169 411.71Z" fill="#071843"/>
<path d="M283.836 408.002C283.771 414 283.589 411.833 283.778 417.831C285.061 418.122 290.97 419.038 290.463 419.496C288.643 421.161 283.51 423.771 283.517 423.814C283.981 425.501 286.417 427.588 286.279 427.697C277.941 434.08 271.228 428.947 269.096 426.192C268.661 425.639 268.864 425.676 269.14 425.93C271.394 428.009 277.673 432.982 284.728 427.515C283.548 426.489 282.723 425.115 282.371 423.589C282.371 423.422 286.388 421.168 288.041 419.874C286.265 419.518 284.061 419.249 282.741 419.009C282.429 418.951 282.154 414.203 283.307 407.936C283.322 407.872 283.36 407.815 283.414 407.778C283.469 407.74 283.535 407.723 283.6 407.731C283.666 407.74 283.726 407.772 283.77 407.822C283.813 407.871 283.837 407.936 283.836 408.002Z" fill="#071843"/>
<path d="M267.777 439.438C267.829 439.775 267.8 440.12 267.69 440.443C267.58 440.766 267.393 441.058 267.146 441.292C266.871 441.532 266.541 441.7 266.185 441.778C265.829 441.857 265.459 441.845 265.108 441.743C264.822 441.67 264.555 441.534 264.328 441.344C264.1 441.154 263.919 440.915 263.796 440.645C263.675 440.356 263.641 440.037 263.697 439.729C263.754 439.42 263.899 439.135 264.115 438.907C264.129 438.894 264.147 438.887 264.166 438.887C264.185 438.887 264.203 438.894 264.217 438.907C264.222 438.916 264.224 438.926 264.224 438.936C264.224 438.947 264.222 438.957 264.217 438.966C264.089 439.263 264.057 439.592 264.127 439.908C264.196 440.224 264.363 440.51 264.604 440.726C264.844 440.942 265.147 441.076 265.467 441.109C265.788 441.143 266.112 441.075 266.392 440.914C266.666 440.747 266.872 440.488 266.973 440.183C267.074 439.878 267.063 439.547 266.943 439.249C266.847 439.086 266.699 438.96 266.522 438.891C266.346 438.822 266.152 438.815 265.971 438.871C265.864 438.917 265.779 439.005 265.735 439.114C265.692 439.223 265.693 439.345 265.739 439.453C265.762 439.508 265.797 439.558 265.841 439.598C266.103 439.707 266.398 439.707 266.66 439.598C266.703 439.598 266.74 439.598 266.711 439.671C266.654 439.769 266.578 439.855 266.488 439.924C266.397 439.994 266.294 440.044 266.185 440.073C266.075 440.102 265.96 440.109 265.848 440.094C265.735 440.078 265.627 440.041 265.529 439.983C265.31 439.862 265.145 439.661 265.067 439.423C264.989 439.184 265.004 438.925 265.108 438.697C265.266 438.447 265.498 438.255 265.772 438.148C266.046 438.04 266.347 438.024 266.631 438.1C266.942 438.167 267.222 438.334 267.429 438.575C267.636 438.817 267.758 439.12 267.777 439.438Z" fill="#071843"/>
<path d="M248.498 378.587C251.855 381.219 254.973 383.712 258.989 385.37C263.157 387.1 267.616 388.016 272.127 388.067C279.312 388.154 287.439 386.744 293.355 391.702C293.406 391.702 293.355 391.804 293.297 391.768C285.322 386.366 275.31 390.822 266.414 389.434C259.569 388.365 251.993 384.737 248.027 378.979C247.824 378.696 248.223 378.369 248.498 378.587Z" fill="#071843"/>
<path d="M227.212 413.811C228.96 411.233 231.326 409.135 234.092 407.711C237.514 405.915 240.835 404.563 243.517 401.699C249.318 395.555 250.934 386.671 249.789 378.601C249.753 378.369 250.151 378.289 250.202 378.521C251.877 385.792 251.594 393.382 247.077 399.707C245.043 402.537 242.35 404.826 239.232 406.373C234.788 408.605 230.742 410.008 227.545 414.029C227.407 414.203 227.081 413.993 227.212 413.811Z" fill="#071843"/>
<path d="M217.786 424.345C220.795 424.236 228.227 420.565 229.64 415.228C231.054 409.892 234.614 407.667 235.484 406.504C236.354 405.341 248.317 403.036 250.659 381.698C257.887 385.37 265.999 386.932 274.07 386.206C288.875 384.665 296.545 391.193 300.816 397.467C302.933 400.586 306.275 381.633 291.543 369.754C285.213 364.664 279.29 362.738 275.077 360.448C273.255 359.49 271.607 358.229 270.205 356.718C267.146 352.189 267.305 346.205 271.771 342.599C280.472 335.54 293.399 339.582 297.959 349.143C297.959 349.215 298.111 349.186 298.082 349.143C297.072 346.634 295.496 344.395 293.479 342.599C293.483 342.595 293.487 342.589 293.49 342.583C293.492 342.577 293.494 342.57 293.494 342.563C293.494 342.556 293.492 342.55 293.49 342.543C293.487 342.537 293.483 342.531 293.479 342.527C291.539 340.751 289.368 339.247 287.026 338.056C290.634 339.755 293.846 342.198 296.451 345.224C296.516 345.311 296.676 345.224 296.611 345.115C292.514 339.786 285.554 335.198 278.413 334.282C283.79 334.398 288.962 336.376 293.051 339.88C293.067 339.895 293.089 339.902 293.11 339.901C293.132 339.899 293.152 339.889 293.167 339.873C293.181 339.857 293.189 339.835 293.187 339.813C293.186 339.792 293.176 339.771 293.16 339.757C288.367 334.726 279.681 331.847 272.772 333.737C270.955 334.225 269.278 335.137 267.878 336.398C266.129 337.594 264.658 339.153 263.564 340.971C259.903 331.098 249.201 323.944 237.659 327.339C237.507 327.383 237.587 327.601 237.732 327.572C241.514 326.599 245.499 326.761 249.191 328.036C252.883 329.312 256.121 331.645 258.503 334.748C259.744 336.319 260.75 338.062 261.491 339.924C261.085 339.274 260.626 338.659 260.12 338.085C253.863 330.902 242.872 330.858 234.831 334.944C234.821 334.955 234.816 334.969 234.816 334.984C234.816 334.999 234.821 335.013 234.831 335.024C234.84 335.027 234.848 335.029 234.857 335.029C234.866 335.029 234.874 335.027 234.882 335.024C236.682 334.346 238.535 333.819 240.421 333.446C238.839 333.819 237.333 334.463 235.97 335.351C235.955 335.358 235.944 335.37 235.939 335.385C235.933 335.4 235.934 335.417 235.941 335.431C235.947 335.445 235.96 335.457 235.975 335.462C235.99 335.468 236.006 335.467 236.021 335.46C238.025 334.593 240.182 334.138 242.364 334.122C239.262 334.47 236.304 335.628 233.787 337.481C233.766 337.496 233.747 337.516 233.732 337.538C233.718 337.561 233.708 337.586 233.703 337.612C233.699 337.639 233.699 337.666 233.705 337.692C233.711 337.718 233.721 337.743 233.737 337.765C233.769 337.81 233.817 337.84 233.871 337.85C233.926 337.859 233.981 337.847 234.027 337.816C239.994 333.788 248.07 333.788 253.602 338.543C254.143 339.01 254.649 339.515 255.118 340.055C255.98 341.15 256.71 342.343 257.293 343.61C257.832 344.999 257.943 346.519 257.612 347.972V348.139C257.423 348.895 257.148 349.627 256.792 350.32C256.792 350.364 256.734 350.4 256.713 350.437C256.582 350.687 256.436 350.93 256.278 351.164C256.169 351.345 256.046 351.534 255.915 351.716C255.855 351.809 255.787 351.896 255.712 351.978C254.037 354.268 250.905 357.183 245.069 359.83C237.094 363.428 214.93 367.754 211.471 398.049C209.941 411.273 217.786 424.345 217.786 424.345Z" fill="#071843"/>
<path d="M270.894 342.309C276.97 336.725 287.519 338.826 292.855 344.621C292.964 344.737 292.804 344.926 292.688 344.81C287.751 339.909 278.231 338.266 272.641 342.81C266.385 347.899 267.044 355.897 272.489 361.269C272.554 361.325 272.593 361.404 272.599 361.49C272.606 361.575 272.578 361.659 272.522 361.724C272.494 361.756 272.461 361.782 272.423 361.801C272.385 361.82 272.344 361.831 272.302 361.834C272.217 361.84 272.133 361.812 272.069 361.756C265.928 356.653 264.797 347.914 270.894 342.309Z" fill="#071843"/>
<path d="M242.06 337.198C242.045 337.198 242.03 337.192 242.019 337.181C242.008 337.17 242.002 337.155 242.002 337.14C242.002 337.124 242.008 337.109 242.019 337.098C242.03 337.088 242.045 337.081 242.06 337.081C248.034 336.631 257.409 338.455 258.736 345.464C260.128 352.734 253.943 359.415 247.135 360.862C246.744 360.942 246.352 360.389 246.787 360.171C252.152 357.445 257.546 353.73 257.517 346.954C257.525 339.408 248.136 337.009 242.06 337.198Z" fill="#071843"/>
<path d="M212.349 384.432C217.119 373.33 227.864 366.911 238.739 362.876C228.408 367.456 218.439 373.054 213.77 383.959C211.29 389.776 209.195 396.551 210.239 402.862C211.283 409.172 214.864 414.741 218.141 420.201C218.203 420.293 218.226 420.406 218.206 420.514C218.186 420.623 218.123 420.72 218.033 420.783C217.94 420.842 217.828 420.863 217.719 420.841C217.611 420.82 217.516 420.757 217.453 420.667C213.828 415.432 210.311 409.812 209.071 403.48C207.832 397.148 209.818 390.328 212.349 384.432Z" fill="#071843"/>
<path d="M271.054 358.121C274.476 361.327 279.029 362.701 283.307 364.366C287.816 366.104 293.015 368.394 296.654 371.593C302.679 376.9 305.971 387.42 302.708 394.857C302.563 395.177 301.983 394.996 302.114 394.654C303.497 389.943 303.197 384.895 301.265 380.383C299.177 375.163 295.922 371.862 291.035 369.077C287.308 366.998 283.45 365.165 279.486 363.588C276.201 362.236 273.388 360.789 270.981 358.179C270.938 358.15 271.003 358.07 271.054 358.121Z" fill="#071843"/>
<path d="M210.667 430.132C219.236 426.112 214.814 415.403 212.958 408.489C212.907 408.285 213.204 408.184 213.262 408.38C215.437 415.279 221.622 427.682 210.855 430.692C210.778 430.707 210.699 430.691 210.633 430.648C210.568 430.604 210.523 430.536 210.507 430.459C210.493 430.395 210.5 430.327 210.529 430.268C210.558 430.208 210.607 430.16 210.667 430.132Z" fill="#071843"/>
<path d="M214.952 433.062C219.229 428.322 218.308 421.612 216.641 415.999C216.608 415.892 216.619 415.776 216.669 415.676C216.72 415.576 216.807 415.499 216.912 415.462C217.017 415.424 217.133 415.429 217.235 415.475C217.337 415.521 217.418 415.604 217.46 415.708C219.635 421.844 219.809 428.257 215.075 433.157C215.002 433.244 214.879 433.142 214.952 433.062Z" fill="#071843"/>
<path d="M211.254 427.493C217.946 423.924 213.813 414.123 212.305 408.78C212.28 408.686 212.291 408.587 212.334 408.501C212.378 408.415 212.451 408.348 212.541 408.313C212.631 408.278 212.73 408.277 212.821 408.311C212.911 408.345 212.985 408.411 213.03 408.496C215.278 413.28 218.997 425.421 211.326 427.631C211.313 427.645 211.295 427.652 211.276 427.652C211.257 427.652 211.238 427.645 211.225 427.631C211.214 427.622 211.205 427.61 211.201 427.596C211.196 427.582 211.195 427.568 211.198 427.554C211.201 427.539 211.208 427.526 211.218 427.516C211.227 427.505 211.24 427.497 211.254 427.493Z" fill="#071843"/>
<path d="M267.82 352.109C267.82 352.047 267.844 351.988 267.888 351.944C267.931 351.901 267.99 351.876 268.052 351.876C268.114 351.876 268.173 351.901 268.216 351.944C268.26 351.988 268.284 352.047 268.284 352.109C268.937 357.481 273.693 357.78 277.949 356.769C279.732 356.347 281.516 355.846 283.379 356.042C284.991 356.258 286.516 356.907 287.792 357.919C289.068 358.931 290.048 360.269 290.629 361.793C290.654 361.843 290.658 361.901 290.641 361.954C290.623 362.007 290.585 362.051 290.535 362.076C290.485 362.101 290.427 362.105 290.374 362.088C290.321 362.07 290.277 362.032 290.252 361.982C288.469 359.197 285.764 357.045 282.277 357.307C279.377 357.525 276.709 359.066 273.751 358.892C272.931 358.856 272.127 358.657 271.384 358.308C270.642 357.959 269.975 357.467 269.422 356.859C268.87 356.251 268.443 355.54 268.165 354.766C267.888 353.992 267.766 353.17 267.805 352.349C267.805 352.291 267.813 352.196 267.82 352.109Z" fill="#5868F7"/>
<path d="M257.793 353.119C258.33 352.843 257.858 352.087 257.351 352.232L257.112 352.291C255.821 347.245 247.338 338.245 244.17 346.831C241.226 354.784 253.088 355.562 257.793 353.119ZM245.721 347.107C248.484 340.506 255.226 349.135 256.923 352.356C253.088 353.221 242.974 353.65 245.721 347.107Z" fill="#5868F7"/>
<path d="M267.371 354.653C271.815 357.46 274.744 355.031 278.971 353.548C281.871 352.516 284.699 353.228 287.33 354.704C287.337 354.71 287.342 354.718 287.345 354.726C287.349 354.734 287.351 354.743 287.351 354.752C287.351 354.76 287.349 354.769 287.345 354.777C287.342 354.785 287.337 354.793 287.33 354.799C287.323 354.803 287.314 354.805 287.305 354.805C287.296 354.805 287.288 354.803 287.28 354.799C284.583 354.457 282.067 353.861 279.413 354.799C277.637 355.446 276.085 356.602 274.258 357.14C272.981 357.533 271.622 357.578 270.322 357.268C269.022 356.959 267.828 356.307 266.863 355.38C266.537 355.053 266.928 354.377 267.371 354.653Z" fill="#5868F7"/>
<path d="M271.075 354.45C267.958 354.035 265.079 352.72 261.897 352.458C258.714 352.196 255.69 352.938 252.565 352.843C251.978 352.843 251.993 352.065 252.399 351.818C257.235 348.91 267.211 349.55 271.554 353.199C271.657 353.298 271.728 353.426 271.759 353.565C271.79 353.705 271.779 353.85 271.728 353.984C271.677 354.117 271.588 354.233 271.472 354.315C271.356 354.398 271.218 354.445 271.075 354.45Z" fill="#5868F7"/>
<path d="M270.372 356.217C267.748 355.584 265.225 354.682 262.528 354.363C259.493 354.101 256.441 354.101 253.407 354.363C253.153 354.363 252.87 354.057 253.095 353.861C254.726 352.407 258.649 351.956 261.23 352.087C264.565 352.261 268.096 353.119 270.778 355.184C271.213 355.475 270.981 356.355 270.372 356.217Z" fill="#5868F7"/>
<path d="M240.407 412.538C240.407 412.538 235.027 400.092 228.082 399.161C220.766 398.173 218.004 411.412 222.513 417.431C227.806 424.498 237.094 422.957 237.094 422.957L240.407 412.538Z" fill="#ED776A"/>
<path d="M229.597 407.217C228.635 406.156 227.55 405.217 226.363 404.418C226.225 404.33 226.363 404.091 226.515 404.17C231.591 406.802 235.868 412.807 234.541 418.798C234.541 418.848 234.522 418.896 234.486 418.932C234.451 418.967 234.403 418.987 234.353 418.987C234.303 418.987 234.255 418.967 234.22 418.932C234.184 418.896 234.164 418.848 234.164 418.798C234.085 418.246 234.005 417.708 233.918 417.17C233.264 415.607 232.274 414.21 231.018 413.076C229.646 411.985 228 411.295 226.262 411.084C226.059 411.084 226.117 410.765 226.312 410.772C227.663 410.822 228.987 411.16 230.197 411.762C231.407 412.365 232.475 413.22 233.331 414.269C233.009 412.877 232.492 411.538 231.794 410.292C231.168 409.198 230.424 408.177 229.575 407.246" fill="#071843"/>
<path d="M235.688 422.564V422.63C235.636 422.63 235.607 422.564 235.688 422.564Z" fill="#071843"/>
<path d="M263.666 449.5C258.329 451.136 257.684 454.967 257.684 454.967C257.684 454.967 242.386 454.138 234.483 443.677C226.581 433.215 263.666 449.5 263.666 449.5Z" fill="#ED776A"/>
<path d="M194.557 636.845C194.745 638.023 193.194 643.272 194.557 645.22C195.92 647.169 233.896 652.614 235.448 650.535C236.999 648.455 220.694 640.931 221.462 639.891C221.462 639.891 231.699 596.117 236.528 573.275C238.284 565.133 239.115 556.819 239.008 548.491C238.428 512.867 198.24 515.993 192.222 537.207C188.597 550.097 189.539 569.843 191.2 585.314C192.599 598.189 194.462 636.307 194.557 636.845Z" fill="#ED776A"/>
<path d="M192.722 494.132C215.575 509.399 260.149 508.723 262.419 506.382C262.419 506.382 262.419 485.422 262.165 476.661C261.969 467.697 258.968 453.6 258.264 451.754C256.604 446.599 235.375 441.576 233.614 440.405C232.751 439.838 226.443 423.727 220.947 406.344C215.147 388.06 210.181 368.445 209.006 367.231C206.715 364.861 194.47 367.231 193.592 368.467C192.715 369.703 192.142 400.048 193.592 413.2C193.81 415.076 194.035 416.922 194.317 418.725C195.927 429.98 198.269 441.118 201.328 452.066C201.546 453.077 193.027 485.24 192.36 491.958C192.186 493.099 192.309 493.863 192.722 494.132Z" fill="#ED776A"/>
<path d="M197.732 414.218C198.111 414.095 198.515 414.072 198.905 414.152C199.295 414.231 199.659 414.409 199.96 414.67C200.262 414.931 200.491 415.265 200.627 415.64C200.762 416.015 200.799 416.42 200.734 416.813C200.701 417.146 200.595 417.467 200.421 417.753C200.248 418.039 200.013 418.282 199.733 418.464C199.432 418.645 199.084 418.735 198.733 418.722C198.381 418.709 198.041 418.594 197.754 418.391C197.674 418.347 197.754 418.238 197.812 418.253C198.162 418.342 198.532 418.319 198.869 418.187C199.206 418.056 199.494 417.822 199.692 417.519C199.891 417.216 199.99 416.859 199.977 416.496C199.963 416.134 199.838 415.785 199.617 415.497C199.385 415.22 199.063 415.034 198.707 414.972C198.351 414.911 197.985 414.979 197.674 415.163C197.51 415.298 197.395 415.485 197.349 415.693C197.303 415.902 197.328 416.119 197.42 416.312C197.487 416.426 197.596 416.509 197.724 416.543C197.851 416.578 197.987 416.56 198.102 416.493C198.177 416.45 198.24 416.387 198.283 416.312C198.322 416.158 198.33 415.997 198.307 415.84C198.283 415.682 198.228 415.531 198.145 415.396C198.109 415.352 198.145 415.294 198.218 415.323C198.455 415.417 198.646 415.601 198.749 415.835C198.852 416.069 198.859 416.334 198.769 416.573C198.67 416.839 198.475 417.058 198.222 417.185C197.969 417.311 197.677 417.337 197.406 417.257C197.102 417.125 196.849 416.898 196.686 416.609C196.522 416.321 196.457 415.987 196.5 415.657C196.531 415.319 196.667 414.999 196.888 414.741C197.109 414.483 197.404 414.301 197.732 414.218Z" fill="#071843"/>
<path d="M214.618 384.548C221.085 405.632 227.487 426.65 235.643 447.13C235.759 447.428 235.288 447.61 235.143 447.341C229.916 438.122 226.573 427.711 223.478 417.642C220.121 406.737 217.431 395.628 214.4 384.614C214.404 384.596 214.411 384.58 214.421 384.565C214.431 384.551 214.443 384.538 214.458 384.529C214.473 384.519 214.49 384.513 214.507 384.51C214.525 384.507 214.543 384.508 214.56 384.512L214.618 384.548Z" fill="#071843"/>
<path d="M235.934 463.968C236.112 463.537 236.453 463.195 236.882 463.016C237.312 462.837 237.795 462.837 238.225 463.015C238.719 463.194 239.126 463.556 239.362 464.027C239.598 464.497 239.645 465.041 239.493 465.545C239.359 465.884 239.098 466.156 238.766 466.304C238.434 466.452 238.058 466.464 237.717 466.338C237.414 466.384 237.104 466.348 236.82 466.231C236.536 466.114 236.289 465.922 236.106 465.676C235.923 465.429 235.81 465.137 235.779 464.831C235.749 464.525 235.802 464.217 235.934 463.939V463.968Z" fill="#071843"/>
<path d="M256.981 466.432C257.068 466.219 257.195 466.026 257.357 465.863C257.518 465.7 257.71 465.57 257.922 465.482C258.134 465.393 258.36 465.347 258.59 465.347C258.819 465.347 259.046 465.392 259.258 465.48C259.75 465.658 260.156 466.019 260.392 466.488C260.628 466.957 260.676 467.499 260.526 468.003C260.398 468.348 260.138 468.628 259.804 468.782C259.469 468.936 259.088 468.951 258.743 468.824C258.439 468.875 258.128 468.842 257.842 468.727C257.556 468.612 257.308 468.421 257.124 468.174C256.939 467.927 256.826 467.633 256.797 467.326C256.769 467.019 256.825 466.71 256.959 466.432H256.981Z" fill="#071843"/>
<path d="M252.624 498.385C252.658 498.351 252.703 498.333 252.751 498.333C252.798 498.333 252.844 498.351 252.877 498.385C252.898 498.404 252.914 498.429 252.921 498.457C252.943 498.728 252.943 499.001 252.921 499.272C252.921 499.424 252.921 499.882 253.153 499.933C253.385 499.984 253.602 499.642 253.646 499.446C253.85 498.609 253.747 497.727 253.356 496.96C253.349 496.942 253.346 496.922 253.346 496.903C253.347 496.883 253.352 496.864 253.36 496.847C253.368 496.829 253.379 496.813 253.394 496.8C253.408 496.787 253.425 496.777 253.443 496.771C253.471 496.76 253.501 496.758 253.53 496.766C253.559 496.774 253.584 496.791 253.602 496.814C254.211 497.752 255.226 500.166 253.755 500.878C253.479 500.989 253.172 500.992 252.895 500.885C252.618 500.779 252.392 500.571 252.261 500.304C252.114 499.986 252.07 499.63 252.135 499.286C252.2 498.942 252.371 498.627 252.624 498.385Z" fill="#071843"/>
<path d="M263.898 506.731C263.173 504.768 194.593 491.376 191.809 492.416C189.025 493.455 190.504 497.33 190.359 497.868C190.214 498.406 178.954 517.956 181.963 533.361C184.972 548.767 199.849 562.631 216.365 563.271C232.881 563.911 240.762 557.651 243.662 555.434C246.562 553.216 244.511 524.281 262.469 514.466C264.362 513.427 262.941 510.402 262.846 510.104C262.752 509.806 264.739 508.955 263.898 506.731Z" fill="#FFFFF2"/>
<path d="M192.824 496.967C204.221 498.217 215.575 500.239 226.856 502.281C238.138 504.324 249.535 506.28 260.548 509.406C260.584 509.422 260.614 509.45 260.631 509.486C260.648 509.521 260.653 509.562 260.643 509.6C260.633 509.638 260.611 509.672 260.579 509.695C260.547 509.718 260.508 509.729 260.468 509.726C249.143 507.887 237.935 505.255 226.639 503.219C215.343 501.184 204.076 499.395 192.758 497.469C192.294 497.389 192.367 496.916 192.824 496.967Z" fill="#071843"/>
<path d="M206.918 502.107C217.023 503.383 227.033 505.326 236.883 507.923C236.97 507.923 236.934 508.068 236.883 508.047C226.907 506.011 216.851 504.412 206.846 502.565C206.789 502.551 206.74 502.517 206.707 502.468C206.675 502.419 206.662 502.36 206.671 502.303C206.68 502.245 206.711 502.193 206.757 502.156C206.802 502.12 206.86 502.103 206.918 502.107Z" fill="#071843"/>
<path d="M218.743 541.838C220.288 547.873 223.739 551.646 227.342 554.467C242.423 566.237 262.984 553.274 264.108 553.245C264.173 553.245 258.446 574.67 257.583 580.705C257.583 580.705 255.038 586.913 256.481 587.342C259.511 588.237 293.189 586.913 297.749 583.707C302.309 580.501 282.306 578.887 282.306 578.887C282.306 578.887 305.949 547.625 303.382 529.974C300.816 512.322 257.764 503.975 246.062 504.586C229.698 505.429 214.016 523.299 218.743 541.838Z" fill="#ED776A"/>
<path d="M232.062 509.232C240.095 501.961 252.921 503.212 262.411 506.324C262.425 506.338 262.433 506.358 262.433 506.378C262.433 506.398 262.425 506.418 262.411 506.433C262.405 506.447 262.395 506.458 262.382 506.466C262.369 506.474 262.354 506.478 262.339 506.476C256.901 505.8 251.681 504.462 246.149 504.87C241.195 505.152 236.404 506.748 232.265 509.493C231.989 509.683 231.772 509.479 232.062 509.232Z" fill="#071843"/>
<path d="M266.138 541.947C265.993 539.326 266.377 536.702 267.269 534.234C267.269 534.183 267.356 534.234 267.342 534.234C266.878 536.259 266.681 538.337 266.754 540.413C268.26 537.044 270.169 533.87 272.439 530.962C272.439 530.962 272.526 530.962 272.504 531.006C267.98 537.818 266.073 545.444 264.529 553.354C264.529 553.408 264.507 553.46 264.469 553.498C264.431 553.537 264.379 553.558 264.325 553.558C264.272 553.558 264.22 553.537 264.182 553.498C264.144 553.46 264.122 553.408 264.122 553.354C264.019 549.455 264.705 545.574 266.138 541.947Z" fill="#071843"/>
<path d="M188.401 362.643C188.401 362.643 191.613 369.913 193.23 370.808C196.035 372.4 208.455 368.794 210.413 367.005C209.485 364.163 209.318 360.201 209.318 358.143C209.318 356.413 207.339 354.602 205.192 353.345C203.583 353.657 200.886 354.908 200.886 355.737C200.886 356.26 201.894 356.82 202.909 357.191C204.264 357.489 205.084 357.729 204.685 357.7C204.075 357.599 203.479 357.428 202.909 357.191C201.263 356.813 198.827 356.347 196.608 356.078C194.868 355.882 192.918 355.431 191.287 355.213C189.987 355.872 188.724 356.6 187.502 357.394C187.428 359.188 187.735 360.977 188.401 362.643Z" fill="#ED776A"/>
<path d="M205.461 353.308L205.193 353.345C207.368 354.602 209.318 356.413 209.318 358.143C209.318 360.2 209.485 364.163 210.413 367.005C210.629 366.83 210.811 366.615 210.949 366.373C212.349 363.886 213.429 358.921 212.813 357.496C211.914 355.373 207.049 353.105 205.461 353.308Z" fill="#ED776A"/>
<path d="M202.909 357.227C203.479 357.465 204.075 357.636 204.685 357.736C205.069 357.765 204.265 357.525 202.909 357.227Z" fill="#ED776A"/>
<path d="M187.502 357.423C188.553 356.754 189.873 355.969 191.287 355.242C189.481 354.988 188.075 354.988 187.799 355.846C187.631 356.356 187.531 356.887 187.502 357.423Z" fill="#ED776A"/>
<path d="M207.614 348.786C209.1 352.087 208.114 362.6 205.577 362.985C203.039 363.37 201.379 350.815 202.206 349.07C202.406 348.529 202.761 348.059 203.225 347.717C203.689 347.375 204.242 347.177 204.817 347.147C205.392 347.117 205.963 347.256 206.46 347.547C206.957 347.839 207.358 348.269 207.614 348.786Z" fill="#ED776A"/>
<path d="M201.198 347.441C203.126 350.502 203.597 361.029 201.147 361.785C198.696 362.541 195.303 350.32 195.876 348.474C196.002 347.911 196.289 347.397 196.702 346.996C197.115 346.594 197.635 346.322 198.2 346.212C198.765 346.103 199.349 346.161 199.882 346.379C200.414 346.597 200.871 346.966 201.198 347.441Z" fill="#ED776A"/>
<path d="M195.492 349.092C197.471 351.673 198.754 361.08 196.616 361.96C194.477 362.84 190.438 352.16 190.815 350.451C190.884 349.938 191.1 349.457 191.436 349.065C191.773 348.673 192.216 348.387 192.712 348.243C193.207 348.099 193.734 348.103 194.228 348.253C194.721 348.404 195.16 348.695 195.492 349.092Z" fill="#ED776A"/>
<path d="M190.866 351.673C193.106 353.854 195.666 362.52 193.766 363.661C191.867 364.803 186.516 355.3 186.625 353.636C186.609 353.136 186.741 352.644 187.003 352.219C187.265 351.794 187.645 351.456 188.098 351.247C188.55 351.038 189.053 350.966 189.546 351.042C190.038 351.118 190.497 351.337 190.866 351.673Z" fill="#ED776A"/>
<path d="M143.486 104.69C138.309 163.07 133.604 276.601 135.3 295.212C136.453 307.841 196.637 302.999 194.571 294.544C191.932 283.718 181.557 150.594 164.439 97.1513C155.768 70.1135 145.168 85.7734 143.486 104.69Z" fill="#C36358"/>
<path d="M187.951 331.163C189.082 327.528 190.989 328.103 193.396 334.42C195.803 340.738 199.972 367.805 209.267 365.551C218.562 363.298 212.124 325.195 207.317 314.973C202.51 304.751 191.156 289.92 191.156 289.92C190.924 297.583 188.597 316.129 187.951 331.163Z" fill="#C36358"/>
<path d="M135.33 293.468C134.945 315.547 134.01 342.963 146.48 363.901C147.807 366.264 149.889 368.11 152.389 369.143C157.812 378.63 163.91 378.907 163.91 378.907C171.66 386.177 177.939 385.617 177.939 385.617C177.939 385.617 184.428 396.682 191.715 393.861C199.929 390.721 189.206 375.795 188.314 363.966C186.277 336.871 190.932 297.808 191.12 289.92L135.33 293.468Z" fill="#C36358"/>
<path d="M166.317 337.081C167.042 345.042 167.615 352.887 169.442 360.702C171.45 369.274 174.821 377.191 178.048 385.334C178.057 385.361 178.06 385.39 178.057 385.419C178.053 385.448 178.045 385.476 178.03 385.501C178.016 385.527 177.997 385.549 177.973 385.566C177.95 385.583 177.924 385.596 177.896 385.603C177.853 385.614 177.809 385.613 177.767 385.598C177.726 385.584 177.69 385.558 177.664 385.523C169.493 371.709 165.295 353.127 165.954 337.11C165.969 336.725 166.281 336.682 166.317 337.081Z" fill="#071843"/>
<path d="M149.83 335.94C150.997 343.646 153.136 357.176 164.142 378.79C164.142 378.863 164.069 378.943 164.019 378.87C155.014 365.784 150.511 351.723 149.46 335.976C149.409 335.511 149.75 335.431 149.83 335.94Z" fill="#071843"/>
<path d="M140.956 335.475C143.435 348.503 146.647 356.406 152.418 369.056C152.454 369.128 152.338 369.201 152.295 369.128C144.225 355.439 142.87 349.557 140.499 335.504C140.419 335.031 140.861 334.988 140.956 335.475Z" fill="#071843"/>
<path d="M181.455 140.438L131.32 158.01C131.32 158.01 139.839 100.067 147.133 83.7378C155.355 65.3588 162.924 73.5596 169.877 91.4224C176.83 109.285 181.455 140.438 181.455 140.438Z" fill="#FD8496"/>
<path d="M167.187 136.614C158.08 130.528 147.499 127.031 136.569 126.494C136.482 126.966 136.395 127.439 136.308 127.89C147.111 128.108 157.566 131.779 166.977 136.999C167.187 137.108 167.404 136.766 167.187 136.614Z" fill="#C4556B"/>
<path d="M155.55 73.5087C154.939 79.1934 152.232 84.4441 147.959 88.2308C146.908 89.1861 145.775 90.0473 144.574 90.8044C144.342 91.6041 144.081 92.4402 143.849 93.3199C149.499 90.1331 153.762 84.9489 155.804 78.7795C156.328 77.0236 156.651 75.214 156.769 73.3851C156.358 73.3492 155.945 73.3911 155.55 73.5087Z" fill="#C4556B"/>
<path d="M169.87 91.4296C169.301 90.657 168.933 89.7554 168.797 88.8051C168.26 87.4965 167.723 86.2533 167.165 85.0901C167.117 85.2292 167.083 85.3729 167.064 85.519C166.339 89.2995 167.789 92.8691 170.979 94.4613C170.616 93.3781 170.254 92.3966 169.87 91.4296ZM177.12 117.319C174.826 115.415 173.048 112.962 171.95 110.187C170.38 106.119 170.396 101.608 171.994 97.5511C171.718 96.7151 171.457 95.9008 171.182 95.1011C169.445 98.4221 168.714 102.18 169.079 105.912C169.703 111.372 173.067 116.657 177.693 119.965C177.54 119.107 177.345 118.22 177.156 117.319H177.12Z" fill="#C4556B"/>
<path d="M177.236 132.346C175.409 132.695 159.741 138.046 156.355 139.282C152.969 140.518 139.107 145.44 135.721 147.01C135.705 147.017 135.691 147.027 135.679 147.04C135.667 147.053 135.658 147.067 135.652 147.084C135.646 147.1 135.643 147.117 135.644 147.135C135.644 147.152 135.648 147.169 135.656 147.185C135.669 147.211 135.69 147.232 135.716 147.245C135.742 147.258 135.772 147.262 135.801 147.257C139.426 146.363 153.404 141.441 156.87 140.249C160.335 139.057 175.72 133.422 177.337 132.572C177.475 132.499 177.359 132.324 177.236 132.346Z" fill="#6D2D3C"/>
<path d="M174.974 142.713C177.072 141.744 179.181 140.843 181.303 140.009L181.006 140.511L179.034 130.71L177.142 120.91C175.88 114.367 174.648 107.824 173.176 101.332C174.4 104.434 175.445 107.604 176.308 110.826C177.221 114.047 177.983 117.304 178.671 120.568C180.049 127.112 181.144 133.698 181.905 140.336L181.949 140.736L181.608 140.845C179.413 141.528 177.202 142.151 174.974 142.713Z" fill="#6D2D3C"/>
<path d="M176.692 114.97C176.381 113.484 176.227 111.968 176.235 110.448C176.213 108.934 176.33 107.42 176.583 105.926C177.08 107.379 177.326 108.906 177.308 110.441C177.336 111.974 177.128 113.501 176.692 114.97Z" fill="#6D2D3C"/>
<path d="M135.634 156.127C134.546 156.367 133.459 156.708 132.415 157.014C133.488 152.077 134.032 146.959 134.793 141.972C135.598 136.672 136.395 131.365 137.287 126.072C139.092 115.334 141.376 104.676 143.551 94.0033C143.553 93.988 143.552 93.9724 143.548 93.9575C143.544 93.9427 143.537 93.9287 143.528 93.9165C143.518 93.9044 143.507 93.8942 143.493 93.8866C143.48 93.879 143.465 93.8742 143.45 93.8724C143.423 93.8707 143.397 93.8776 143.375 93.892C143.353 93.9064 143.336 93.9276 143.326 93.9524C142.087 97.3185 141.021 100.728 140.064 104.174C140.129 102.429 140.252 100.692 140.426 98.947C140.426 98.92 140.416 98.8941 140.397 98.875C140.378 98.8559 140.352 98.8452 140.325 98.8452C140.298 98.8452 140.272 98.8559 140.253 98.875C140.234 98.8941 140.223 98.92 140.223 98.947C139.854 101.133 139.672 103.346 139.68 105.563C137.889 112.244 136.518 119.042 135.264 125.854C134.278 131.212 133.372 136.592 132.589 141.979C131.806 147.366 130.791 152.775 130.552 158.184C130.574 158.394 130.676 158.587 130.837 158.722C130.998 158.858 131.205 158.926 131.414 158.911C131.472 158.918 131.531 158.918 131.588 158.911C133.038 158.315 134.554 157.923 136.004 157.326C137.454 156.73 138.904 156.105 140.354 155.465C140.375 155.458 140.394 155.447 140.411 155.431C140.427 155.416 140.441 155.398 140.449 155.377C140.458 155.357 140.463 155.334 140.463 155.312C140.462 155.29 140.457 155.268 140.448 155.247C140.432 155.212 140.405 155.182 140.371 155.164C140.337 155.145 140.298 155.139 140.26 155.145C138.665 155.458 137.135 155.778 135.634 156.127Z" fill="#6D2D3C"/>
</g>
<defs>
<clipPath id="clip0_184_94">
<rect width="406.991" height="651" fill="white" transform="translate(-103)"/>
</clipPath>
</defs>
</svg>
