<svg width="28" height="28" viewBox="0 0 28 28" fill="none" xmlns="http://www.w3.org/2000/svg">
<path fill-rule="evenodd" clip-rule="evenodd" d="M14 0C6.26803 0 0 6.26803 0 14C0 21.732 6.26803 28 14 28C21.732 28 28 21.732 28 14C28 6.26803 21.732 0 14 0ZM19.8343 9.18709C20.4768 9.36343 20.9828 9.88295 21.1546 10.5427C21.4667 11.7384 21.4667 14.2333 21.4667 14.2333C21.4667 14.2333 21.4667 16.7281 21.1546 17.924C20.9828 18.5837 20.4768 19.1032 19.8343 19.2796C18.6698 19.6 14 19.6 14 19.6C14 19.6 9.33018 19.6 8.16567 19.2796C7.52307 19.1032 7.01703 18.5837 6.8453 17.924C6.53333 16.7281 6.53333 14.2333 6.53333 14.2333C6.53333 14.2333 6.53333 11.7384 6.8453 10.5427C7.01703 9.88295 7.52307 9.36343 8.16567 9.18709C9.33018 8.86667 14 8.86667 14 8.86667C14 8.86667 18.6698 8.86667 19.8343 9.18709Z" fill="#5A3D8A"/>
<path d="M12.6 16.8V12.1333L16.3333 14.4667L12.6 16.8Z" fill="#5A3D8A"/>
</svg>
