<svg width="179" height="74" viewBox="0 0 179 74" fill="none" xmlns="http://www.w3.org/2000/svg">
<path d="M5.11645e-07 19.02C2.29071e-07 8.51553 8.52564 -2.29343e-07 19.0426 -5.12253e-07L159.957 -4.30292e-06C170.474 -4.58583e-06 179 8.51551 179 19.0199L179 54.98C179 65.4845 170.474 74 159.957 74L19.0426 74C8.52564 74 1.76156e-06 65.4845 1.47899e-06 54.9801L5.11645e-07 19.02Z" fill="#E2CCFD"/>
<path d="M44.476 43.3791C44.0272 44.4272 43.4959 45.392 42.8803 46.279C42.0413 47.4882 41.3542 48.3253 40.8248 48.7901C40.004 49.553 39.1247 49.9437 38.183 49.9659C37.507 49.9659 36.6917 49.7715 35.7427 49.3771C34.7906 48.9845 33.9156 48.7901 33.1156 48.7901C32.2765 48.7901 31.3766 48.9845 30.414 49.3771C29.45 49.7715 28.6734 49.9771 28.0797 49.9974C27.1766 50.0363 26.2766 49.6345 25.3781 48.7901C24.8047 48.2845 24.0875 47.4179 23.2282 46.1901C22.3064 44.8791 21.5484 43.3587 20.9547 41.6255C20.3188 39.7533 20 37.9404 20 36.1853C20 34.1748 20.4298 32.4407 21.2907 30.9876C21.9672 29.8204 22.8673 28.8997 23.9938 28.2238C25.1204 27.5479 26.3376 27.2035 27.6484 27.1815C28.3656 27.1815 29.3062 27.4057 30.475 27.8464C31.6406 28.2886 32.389 28.5129 32.7171 28.5129C32.9624 28.5129 33.7938 28.2507 35.2032 27.7279C36.536 27.2431 37.6609 27.0424 38.5824 27.1215C41.0794 27.3252 42.9554 28.3201 44.2031 30.1127C41.9698 31.4804 40.8651 33.3961 40.8871 35.8536C40.9072 37.7678 41.5942 39.3607 42.9445 40.6255C43.5564 41.2125 44.2397 41.6662 45 41.9884C44.8351 42.4717 44.6611 42.9347 44.476 43.3791ZM38.7491 20.6002C38.7491 22.1005 38.2068 23.5014 37.1259 24.798C35.8215 26.3394 34.2437 27.2302 32.5328 27.0896C32.511 26.9096 32.4984 26.7202 32.4984 26.5211C32.4984 25.0808 33.1187 23.5393 34.2203 22.279C34.7703 21.6409 35.4697 21.1103 36.318 20.687C37.1644 20.2701 37.965 20.0395 38.7179 20C38.7399 20.2006 38.7491 20.4012 38.7491 20.6002L38.7491 20.6002Z" fill="#4C248E"/>
<path d="M61.6699 50.1494C62.2588 50.1494 62.5928 49.8594 62.8037 49.1738L63.6387 46.7656H68.376L69.2109 49.1914C69.4131 49.8682 69.7559 50.1494 70.3711 50.1494C71.0303 50.1494 71.5049 49.7188 71.5049 49.1035C71.5049 48.9014 71.4609 48.6992 71.3555 48.4092L67.6641 38.3896C67.3477 37.5371 66.8379 37.168 66.0029 37.168C65.1768 37.168 64.667 37.5547 64.3594 38.3984L60.6768 48.4092C60.5713 48.6816 60.5273 48.9277 60.5273 49.1035C60.5273 49.7451 60.9756 50.1494 61.6699 50.1494ZM64.1748 44.9727L65.959 39.5586H66.0205L67.8223 44.9727H64.1748ZM74.0273 53.3135C74.6689 53.3135 75.126 52.9004 75.126 52.1621V48.4531H75.1699C75.6797 49.499 76.7344 50.1494 78.0879 50.1494C80.4258 50.1494 81.9199 48.3125 81.9199 45.3418C81.9199 42.3623 80.417 40.5254 78.0527 40.5254C76.6992 40.5254 75.6445 41.2109 75.1172 42.292H75.0732V41.624C75.0732 40.9033 74.625 40.499 74.001 40.499C73.377 40.499 72.9375 40.9033 72.9375 41.624V52.1621C72.9375 52.9004 73.3857 53.3135 74.0273 53.3135ZM77.3848 48.3564C76.0225 48.3564 75.1172 47.1699 75.1084 45.3418C75.1172 43.5312 76.0225 42.3271 77.3848 42.3271C78.7998 42.3271 79.6787 43.5049 79.6787 45.3418C79.6787 47.1875 78.7998 48.3564 77.3848 48.3564ZM84.416 53.3135C85.0576 53.3135 85.5146 52.9004 85.5146 52.1621V48.4531H85.5586C86.0684 49.499 87.123 50.1494 88.4766 50.1494C90.8145 50.1494 92.3086 48.3125 92.3086 45.3418C92.3086 42.3623 90.8057 40.5254 88.4414 40.5254C87.0879 40.5254 86.0332 41.2109 85.5059 42.292H85.4619V41.624C85.4619 40.9033 85.0137 40.499 84.3896 40.499C83.7656 40.499 83.3262 40.9033 83.3262 41.624V52.1621C83.3262 52.9004 83.7744 53.3135 84.416 53.3135ZM87.7734 48.3564C86.4111 48.3564 85.5059 47.1699 85.4971 45.3418C85.5059 43.5312 86.4111 42.3271 87.7734 42.3271C89.1885 42.3271 90.0674 43.5049 90.0674 45.3418C90.0674 47.1875 89.1885 48.3564 87.7734 48.3564ZM102.003 50.2109C105.053 50.2109 106.96 48.6816 106.96 46.2559C106.96 44.375 105.835 43.3027 103.163 42.749L101.801 42.4678C100.219 42.1338 99.5859 41.5801 99.5859 40.7188C99.5859 39.6553 100.588 38.9873 101.994 38.9873C103.181 38.9873 104.086 39.4443 104.517 40.5166C104.754 41.0088 105.079 41.2373 105.606 41.2373C106.195 41.2373 106.591 40.8594 106.591 40.3057C106.591 40.0947 106.564 39.9277 106.512 39.7871C105.993 38.1084 104.253 37.1064 102.012 37.1064C99.2607 37.1064 97.3008 38.6182 97.3008 40.8506C97.3008 42.7051 98.4873 43.9004 101.027 44.4189L102.39 44.7002C104.042 45.043 104.675 45.6055 104.675 46.5195C104.675 47.5742 103.603 48.3301 102.073 48.3301C100.72 48.3301 99.6299 47.8379 99.2344 46.7393C98.9883 46.2295 98.6719 46.0273 98.1709 46.0273C97.5732 46.0273 97.1689 46.4316 97.1689 47.0645C97.1689 47.2754 97.2129 47.5039 97.292 47.7148C97.7842 49.1562 99.4717 50.2109 102.003 50.2109ZM109.052 47.6973C109.052 49.2881 109.878 50.0967 111.504 50.0967H111.592C112.594 50.0967 113.156 49.7539 113.156 49.1123C113.156 48.6025 112.857 48.3564 112.277 48.3037L112.119 48.2861C111.486 48.2334 111.24 47.9258 111.24 47.2227V42.3711H112.251C112.796 42.3711 113.13 42.0459 113.13 41.5186C113.13 41 112.796 40.6836 112.251 40.6836H111.24V39.4443C111.24 38.7412 110.818 38.3018 110.15 38.3018C109.474 38.3018 109.052 38.7412 109.052 39.4443V40.6836H108.463C107.918 40.6836 107.584 41 107.584 41.5186C107.584 42.0459 107.918 42.3711 108.463 42.3711H109.052V47.6973ZM118.438 50.1846C121.172 50.1846 122.947 48.3652 122.947 45.3418C122.947 42.3271 121.154 40.4902 118.438 40.4902C115.723 40.4902 113.93 42.3359 113.93 45.3418C113.93 48.3652 115.705 50.1846 118.438 50.1846ZM118.438 48.4531C117.05 48.4531 116.153 47.3281 116.153 45.3418C116.153 43.3643 117.059 42.2305 118.438 42.2305C119.827 42.2305 120.724 43.3643 120.724 45.3418C120.724 47.3281 119.827 48.4531 118.438 48.4531ZM125.443 50.1758C126.103 50.1758 126.542 49.7451 126.542 49.0244V44.542C126.542 43.4082 127.017 42.626 128.265 42.6172C128.695 42.6084 129.021 42.5117 129.231 42.3271C129.451 42.1514 129.557 41.8965 129.557 41.5537C129.557 41.1934 129.451 40.9297 129.249 40.7627C129.082 40.6133 128.818 40.5254 128.476 40.5254C127.544 40.5254 126.735 41.2285 126.48 42.3184H126.437V41.6064C126.437 40.9209 126.006 40.499 125.399 40.499C124.775 40.499 124.354 40.9209 124.354 41.6064V49.0244C124.354 49.7451 124.784 50.1758 125.443 50.1758ZM134.329 50.1846C136.104 50.1846 137.493 49.4902 138.108 48.3037C138.205 48.1104 138.258 47.917 138.258 47.75C138.258 47.2227 137.871 46.9062 137.379 46.9062C137.071 46.9062 136.869 47.0029 136.641 47.2578C135.938 48.1543 135.296 48.4971 134.312 48.4971C132.888 48.4971 131.982 47.4951 131.982 45.9395V45.8691H137.476C138.126 45.8691 138.495 45.4824 138.495 44.832C138.495 42.3008 136.755 40.4902 134.206 40.4902C131.517 40.4902 129.803 42.4062 129.803 45.377C129.803 48.4004 131.481 50.1846 134.329 50.1846ZM132 44.4277C132.088 43.0918 132.984 42.1865 134.215 42.1865C135.445 42.1865 136.307 43.0742 136.351 44.4277H132Z" fill="#4C248E"/>
<path d="M61.123 28H63.0518C65.1465 28 66.377 26.6963 66.377 24.4746C66.377 22.2578 65.1416 20.9541 63.0518 20.9541H61.123C60.8545 20.9541 60.6836 21.1299 60.6836 21.4082V27.5459C60.6836 27.8242 60.8545 28 61.123 28ZM61.5625 27.209V21.7451H62.9932C64.5947 21.7451 65.4785 22.7217 65.4785 24.4844C65.4785 26.2324 64.5898 27.209 62.9932 27.209H61.5625ZM69.3434 28.0879C70.7447 28.0879 71.692 27.0771 71.692 25.4609C71.692 23.8398 70.7447 22.834 69.3434 22.834C67.9371 22.834 66.9898 23.8398 66.9898 25.4609C66.9898 27.0771 67.9371 28.0879 69.3434 28.0879ZM69.3434 27.3408C68.4449 27.3408 67.8541 26.6572 67.8541 25.4609C67.8541 24.2646 68.4449 23.5811 69.3434 23.5811C70.2418 23.5811 70.8277 24.2646 70.8277 25.4609C70.8277 26.6572 70.2418 27.3408 69.3434 27.3408ZM73.882 28.0879C74.1506 28.0879 74.3361 27.9463 74.4143 27.6777L75.4641 24.0693H75.4836L76.5383 27.6777C76.6213 27.9658 76.7824 28.0879 77.0656 28.0879C77.3293 28.0879 77.5051 27.9512 77.5832 27.6777L78.8234 23.4199C78.8479 23.3369 78.8576 23.2637 78.8576 23.2002C78.8576 22.9756 78.6965 22.834 78.4426 22.834C78.2326 22.834 78.1203 22.9316 78.0568 23.1807L77.0559 27.0527H77.0363L75.9621 23.21C75.8938 22.9609 75.7326 22.834 75.4787 22.834C75.2199 22.834 75.049 22.9658 74.9807 23.2148L73.9162 27.0527H73.8967L72.8957 23.1807C72.8322 22.9316 72.7199 22.834 72.51 22.834C72.2561 22.834 72.0949 22.9756 72.0949 23.2002C72.0949 23.2637 72.1047 23.3369 72.1291 23.4199L73.3693 27.6777C73.4523 27.9609 73.6135 28.0879 73.882 28.0879ZM79.9344 28.0879C80.1834 28.0879 80.3592 27.9023 80.3592 27.6338V25.0117C80.3592 24.1523 80.8816 23.5859 81.6824 23.5859C82.4637 23.5859 82.8494 24.0352 82.8494 24.8555V27.6338C82.8494 27.9023 83.0252 28.0879 83.2742 28.0879C83.5232 28.0879 83.699 27.9023 83.699 27.6338V24.7041C83.699 23.5518 83.0545 22.834 81.9412 22.834C81.1551 22.834 80.6131 23.1855 80.3299 23.7324H80.3104V23.2637C80.3104 23.0098 80.1443 22.834 79.91 22.834C79.6756 22.834 79.5096 23.0098 79.5096 23.2637V27.6338C79.5096 27.9023 79.6854 28.0879 79.9344 28.0879ZM85.1518 28.0879C85.4008 28.0879 85.5766 27.9023 85.5766 27.6338V21.3203C85.5766 21.0518 85.4008 20.8662 85.1518 20.8662C84.9027 20.8662 84.727 21.0518 84.727 21.3203V27.6338C84.727 27.9023 84.9027 28.0879 85.1518 28.0879ZM88.7285 28.0879C90.1299 28.0879 91.0771 27.0771 91.0771 25.4609C91.0771 23.8398 90.1299 22.834 88.7285 22.834C87.3223 22.834 86.375 23.8398 86.375 25.4609C86.375 27.0771 87.3223 28.0879 88.7285 28.0879ZM88.7285 27.3408C87.8301 27.3408 87.2393 26.6572 87.2393 25.4609C87.2393 24.2646 87.8301 23.5811 88.7285 23.5811C89.627 23.5811 90.2129 24.2646 90.2129 25.4609C90.2129 26.6572 89.627 27.3408 88.7285 27.3408ZM93.316 28.0879C93.9996 28.0879 94.649 27.707 94.9518 27.126H94.9713V27.6582C94.9713 27.9121 95.1373 28.0879 95.3766 28.0879C95.6109 28.0879 95.777 27.9121 95.777 27.6582V24.4893C95.777 23.4785 95.025 22.834 93.8336 22.834C93.0084 22.834 92.2662 23.2002 91.9781 23.7568C91.9098 23.8789 91.8756 24.001 91.8756 24.1084C91.8756 24.3379 92.0318 24.4893 92.2516 24.4893C92.4127 24.4893 92.525 24.4258 92.6031 24.2842C92.8863 23.7812 93.2623 23.5811 93.8141 23.5811C94.5172 23.5811 94.9273 23.9521 94.9273 24.5723V24.9971L93.4674 25.0801C92.2955 25.1484 91.6266 25.6953 91.6266 26.5645C91.6266 27.4775 92.3053 28.0879 93.316 28.0879ZM93.5064 27.3652C92.8961 27.3652 92.4908 27.0479 92.4908 26.5645C92.4908 26.0859 92.8814 25.7832 93.565 25.7393L94.9273 25.6562V26.0713C94.9273 26.8037 94.3072 27.3652 93.5064 27.3652ZM98.6799 28.0879C99.4758 28.0879 100.003 27.6973 100.281 27.0918H100.296V27.6729C100.296 27.9219 100.491 28.0879 100.731 28.0879C100.975 28.0879 101.146 27.917 101.146 27.6729V21.3203C101.146 21.0518 100.97 20.8662 100.721 20.8662C100.472 20.8662 100.296 21.0518 100.296 21.3203V23.7471H100.277C99.9738 23.1904 99.3879 22.834 98.6604 22.834C97.3811 22.834 96.507 23.8691 96.507 25.4609C96.507 27.0527 97.3859 28.0879 98.6799 28.0879ZM98.841 27.3408C97.9426 27.3408 97.3762 26.6133 97.3762 25.4609C97.3762 24.3135 97.9426 23.5811 98.841 23.5811C99.715 23.5811 100.301 24.3281 100.301 25.4609C100.301 26.5986 99.715 27.3408 98.841 27.3408ZM106.248 28.0879C107.65 28.0879 108.597 27.0771 108.597 25.4609C108.597 23.8398 107.65 22.834 106.248 22.834C104.842 22.834 103.895 23.8398 103.895 25.4609C103.895 27.0771 104.842 28.0879 106.248 28.0879ZM106.248 27.3408C105.35 27.3408 104.759 26.6572 104.759 25.4609C104.759 24.2646 105.35 23.5811 106.248 23.5811C107.147 23.5811 107.733 24.2646 107.733 25.4609C107.733 26.6572 107.147 27.3408 106.248 27.3408ZM109.781 28.0879C110.03 28.0879 110.206 27.9023 110.206 27.6338V25.0117C110.206 24.1523 110.729 23.5859 111.529 23.5859C112.311 23.5859 112.696 24.0352 112.696 24.8555V27.6338C112.696 27.9023 112.872 28.0879 113.121 28.0879C113.37 28.0879 113.546 27.9023 113.546 27.6338V24.7041C113.546 23.5518 112.901 22.834 111.788 22.834C111.002 22.834 110.46 23.1855 110.177 23.7324H110.157V23.2637C110.157 23.0098 109.991 22.834 109.757 22.834C109.522 22.834 109.356 23.0098 109.356 23.2637V27.6338C109.356 27.9023 109.532 28.0879 109.781 28.0879ZM116.754 26.8281C116.754 27.6387 117.164 28.0391 117.985 28.0391H118.038C118.512 28.0391 118.658 27.9023 118.658 27.6436C118.658 27.4434 118.531 27.3311 118.253 27.3115L118.18 27.3066C117.755 27.2773 117.604 27.0723 117.604 26.6426V23.6201H118.258C118.502 23.6201 118.639 23.4932 118.639 23.2686C118.639 23.0488 118.502 22.9219 118.258 22.9219H117.604V22.0527C117.604 21.7842 117.428 21.5986 117.179 21.5986C116.93 21.5986 116.754 21.7842 116.754 22.0527V22.9219H116.329C116.085 22.9219 115.948 23.0488 115.948 23.2686C115.948 23.4932 116.085 23.6201 116.329 23.6201H116.754V26.8281ZM119.867 28.0879C120.116 28.0879 120.292 27.9023 120.292 27.6338V25.041C120.292 24.1621 120.814 23.5859 121.659 23.5859C122.455 23.5859 122.86 24.0693 122.86 24.875V27.6338C122.86 27.9023 123.036 28.0879 123.285 28.0879C123.534 28.0879 123.71 27.9023 123.71 27.6338V24.7188C123.71 23.5859 123.036 22.834 121.923 22.834C121.151 22.834 120.595 23.166 120.311 23.7324H120.292V21.3105C120.292 21.0469 120.126 20.8662 119.867 20.8662C119.613 20.8662 119.442 21.0469 119.442 21.3105V27.6338C119.442 27.9023 119.618 28.0879 119.867 28.0879ZM126.818 28.0879C127.746 28.0879 128.458 27.6973 128.786 27.0088C128.825 26.916 128.849 26.8281 128.849 26.7598C128.849 26.5352 128.698 26.3887 128.473 26.3887C128.341 26.3887 128.244 26.4375 128.156 26.5596C127.76 27.1357 127.389 27.3506 126.784 27.3506C125.875 27.3506 125.314 26.7158 125.314 25.6904H128.488C128.781 25.6904 128.956 25.5049 128.956 25.1973C128.956 23.8057 128.043 22.834 126.745 22.834C125.343 22.834 124.44 23.8789 124.44 25.4805C124.44 27.1211 125.319 28.0879 126.818 28.0879ZM125.319 25.0264C125.372 24.1523 125.939 23.5713 126.73 23.5713C127.516 23.5713 128.058 24.1475 128.078 25.0264H125.319Z" fill="#7B6EA3"/>
</svg>
