<svg width="750" height="664" viewBox="0 0 750 664" fill="none" xmlns="http://www.w3.org/2000/svg">
<g clip-path="url(#clip0_25_651)">
<g style="mix-blend-mode:color-burn" opacity="0.38">
<g style="mix-blend-mode:color-burn" opacity="0.38">
<g style="mix-blend-mode:color-burn" opacity="0.38">
<path d="M137.276 299.242C137.624 299.596 138.008 299.913 138.42 300.189L53.0169 382.635C51.8733 380.753 50.7191 378.874 49.5357 377.014L132.36 297.004C134.03 297.696 135.657 298.4 137.276 299.242Z" fill="#4C248E"/>
</g>
<g style="mix-blend-mode:color-burn" opacity="0.38">
<path d="M158.15 314.893C159.628 316.458 161.051 318.079 162.422 319.755L70.6856 408.308C70.1027 407.667 69.5197 407.025 68.9631 406.354C68.1284 405.369 67.288 404.363 66.5329 403.335L158.15 314.893Z" fill="#2C00A9"/>
</g>
<g style="mix-blend-mode:color-burn" opacity="0.38">
<path d="M175.211 341.151C176.115 343.333 176.924 345.544 177.639 347.784L95.2661 427.309L93.7115 426.791C93.1467 426.6 92.5975 426.382 92.0376 426.168L89.2118 424.144L175.211 341.151Z" fill="#2C00A9"/>
</g>
<g style="mix-blend-mode:color-burn" opacity="0.38">
<path d="M180.638 378.664C180.105 382.64 179.172 386.551 177.853 390.34L135.417 431.344C134.135 430.748 132.718 430.499 131.308 430.621C129.747 430.72 128.173 430.811 126.604 430.879L180.638 378.664Z" fill="#2C00A9"/>
</g>
<g style="mix-blend-mode:color-burn" opacity="0.38">
<path d="M155.754 464.075L215.502 429.226C218.4 430.237 221.38 430.994 224.409 431.489L152.728 473.32C153.84 470.184 154.916 467.172 155.754 464.075Z" fill="#2C00A9"/>
</g>
<g style="mix-blend-mode:color-burn" opacity="0.38">
<path d="M151.782 506.522C151.432 505.214 151.15 503.865 150.829 502.538L254.285 442.13C256.42 443.336 258.521 444.6 260.588 445.923L152.32 509.125C152.153 508.247 151.981 507.392 151.782 506.522Z" fill="#2C00A9"/>
</g>
<g style="mix-blend-mode:color-burn" opacity="0.38">
<path d="M157.909 533.989L279.671 462.943C281.015 464.635 282.303 466.375 283.536 468.164L160.845 539.79C159.766 537.909 158.786 535.972 157.909 533.989Z" fill="#2C00A9"/>
</g>
<g style="mix-blend-mode:color-burn" opacity="0.38">
<path d="M175.722 559.179L294.92 489.641C295.745 491.699 296.518 493.772 297.214 495.774L180.297 563.982C178.744 562.404 177.217 560.796 175.722 559.179Z" fill="#2C00A9"/>
</g>
<g style="mix-blend-mode:color-burn" opacity="0.38">
<path d="M96.0597 282.967C137.846 287.225 176.622 317.147 183.029 359.891C186.183 380.951 180.503 400.914 172.974 420.369C164.307 442.693 156.254 464.876 155.168 489.032C153.664 522.407 169.644 557.97 203.97 567.407C209.972 569.058 206.2 577.945 200.308 576.366C178.737 570.43 162.607 554.294 153.608 534.173C144.459 513.705 143.911 490.442 147.721 468.655C151.864 445.001 162.456 423.768 169.767 401.112C175.871 382.221 176.038 361.285 168.377 342.834C156.274 313.812 125.172 295.613 94.7692 292.511C88.5747 291.891 89.8866 282.342 96.0597 282.967Z" fill="#4C248E"/>
</g>
<g style="mix-blend-mode:color-burn" opacity="0.38">
<path d="M50.0021 339.085C49.438 360.458 55.9799 381.932 69.3436 398.741C83.2939 416.247 104.805 425.072 126.791 426.418C138.395 427.115 149.988 425.513 161.462 424.319C172.683 423.121 183.967 422.613 195.25 422.799C216.436 423.209 239.636 426.532 258.222 437.348C287.836 454.681 306.191 488.627 312.602 521.545C313.791 527.643 304.266 528.782 303.019 522.722C299.169 503.111 290.885 484.639 278.798 468.716C272.77 460.766 265.514 453.823 257.302 448.148C248.71 442.245 238.841 438.906 228.785 436.528C206.605 431.302 183.718 431.702 161.199 434.032C149.749 435.231 138.347 436.44 126.823 436.04C115.747 435.592 104.835 433.237 94.5649 429.081C58.1077 414.459 39.4546 375.567 40.4382 337.864C40.6012 331.654 50.1481 332.982 49.9951 339.144L50.0021 339.085Z" fill="#4C248E"/>
</g>
<g style="mix-blend-mode:color-burn" opacity="0.38">
<path d="M671.856 224.02C671.908 224.62 672.017 225.212 672.182 225.791L527.948 236.492C528.375 233.825 528.738 231.175 529.077 228.519L668.999 218.175C670.017 220.057 670.988 222.019 671.856 224.02Z" fill="#2C00A9"/>
</g>
<g style="mix-blend-mode:color-burn" opacity="0.38">
<path d="M679.154 254.923C679.32 257.545 679.417 260.164 679.37 262.843L524.431 274.327C524.376 273.271 524.345 272.219 524.347 271.159C524.337 269.589 524.373 268.018 524.43 266.441L679.154 254.923Z" fill="#2C00A9"/>
</g>
<g style="mix-blend-mode:color-burn" opacity="0.38">
<path d="M674.608 292.794C673.746 295.544 672.782 298.253 671.699 300.902L532.547 311.222C532.193 310.667 531.836 310.102 531.503 309.542C531.17 308.981 530.776 308.278 530.426 307.653L529.401 303.574L674.608 292.794Z" fill="#2C00A9"/>
</g>
<g style="mix-blend-mode:color-burn" opacity="0.38">
<path d="M650.382 332.132C646.788 335.433 642.867 338.363 638.682 340.875L567.035 346.191C566.302 344.633 565.176 343.293 563.767 342.303C562.229 341.195 560.695 340.056 559.163 338.886L650.382 332.132Z" fill="#2C00A9"/>
</g>
<g style="mix-blend-mode:color-burn" opacity="0.38">
<path d="M560.397 392.749L643.489 406.625C645.395 409.84 647.588 412.877 650.041 415.697L550.365 399.027C553.761 397 557.198 394.997 560.397 392.749Z" fill="#2C00A9"/>
</g>
<g style="mix-blend-mode:color-burn" opacity="0.38">
<path d="M523.529 429.388C524.275 427.912 525.016 426.414 525.756 424.917L669.64 448.956C670.697 451.75 671.682 454.575 672.569 457.415L521.972 432.267C522.486 431.332 523.048 430.361 523.529 429.388Z" fill="#2C00A9"/>
</g>
<g style="mix-blend-mode:color-burn" opacity="0.38">
<path d="M507.815 459.881L677.147 488.18C677.083 490.795 676.923 493.437 676.669 496.069L506.047 467.558C506.498 464.969 507.089 462.407 507.815 459.881Z" fill="#2C00A9"/>
</g>
<g style="mix-blend-mode:color-burn" opacity="0.38">
<path d="M504.778 497.337L670.511 525.027C669.675 527.531 668.785 530.048 667.863 532.575L505.306 505.401C505.08 502.726 504.918 500.034 504.778 497.337Z" fill="#2C00A9"/>
</g>
<g style="mix-blend-mode:color-burn" opacity="0.38">
<path d="M646.064 176.681C681.781 213.212 694.671 271.417 667.262 316.429C653.795 338.603 632.868 352.884 610.621 365.216C585.094 379.373 560.221 393.879 540.343 415.651C512.873 445.738 500.029 491.417 524.759 527.04C529.074 533.258 518.621 538.646 514.364 532.515C498.831 510.168 496.392 482.488 503.663 456.742C511.097 430.417 528.738 408.219 549.299 390.788C571.643 371.91 598.2 360.236 622.685 344.705C643.186 331.736 659.673 312.308 666.891 289.05C678.239 252.444 663.383 211.19 637.367 184.618C632.068 179.2 640.749 171.289 646.043 176.686L646.064 176.681Z" fill="#4C248E"/>
</g>
<g style="mix-blend-mode:color-burn" opacity="0.38">
<path d="M559.138 193.362C541.922 212.928 531.252 238.171 530.645 264.285C529.958 291.549 543.235 316.553 562.725 334.923C572.987 344.585 585.126 352.136 596.786 359.988C608.217 367.603 619.166 375.917 629.568 384.882C649.058 401.759 668.197 422.947 677.079 447.533C691.28 486.809 681.861 532.916 662.211 568.748C658.576 575.421 648.705 569.005 652.336 562.402C664.047 541.036 670.726 517.29 671.865 492.969C672.453 480.812 671.092 468.641 667.834 456.917C664.424 444.701 657.822 433.91 650.261 423.844C633.602 401.684 611.893 384.239 589.009 368.887C577.374 361.086 565.774 353.333 555.302 343.99C545.276 334.92 536.899 324.186 530.542 312.261C507.854 270.199 520.817 219.256 551.186 184.779C556.194 179.095 564.075 187.799 559.12 193.424L559.138 193.362Z" fill="#4C248E"/>
</g>
<g style="mix-blend-mode:color-burn" opacity="0.38">
<path d="M403.422 139.566C403.487 139.958 403.59 140.343 403.73 140.715L308.724 154.216C308.877 152.443 309.03 150.715 309.123 148.889L401.26 135.803C402.013 136.992 402.745 138.277 403.422 139.566Z" fill="#1E2144"/>
</g>
<g style="mix-blend-mode:color-burn" opacity="0.38">
<path d="M409.626 159.695C409.85 161.425 410.017 163.158 410.107 164.9L308.051 179.402C307.978 178.703 307.905 178.005 307.854 177.3C307.78 176.26 307.742 175.222 307.701 174.173L409.626 159.695Z" fill="#1E2144"/>
</g>
<g style="mix-blend-mode:color-burn" opacity="0.38">
<path d="M408.302 184.964C407.863 186.822 407.343 188.656 406.739 190.466L315.096 203.477C314.841 203.123 314.576 202.773 314.329 202.406C314.083 202.039 313.797 201.614 313.539 201.204C313.247 200.325 312.965 199.443 312.68 198.551L408.302 184.964Z" fill="#1E2144"/>
</g>
<g style="mix-blend-mode:color-burn" opacity="0.38">
<path d="M394.022 212.075C391.783 214.421 389.312 216.534 386.646 218.382L339.431 225.096C338.878 224.095 338.071 223.258 337.09 222.669C336.02 221.998 334.958 221.314 333.9 220.606L394.022 212.075Z" fill="#4C248E"/>
</g>
<g style="mix-blend-mode:color-burn" opacity="0.38">
<path d="M337.159 256.203L392.784 261.7C394.189 263.735 395.767 265.646 397.5 267.411L330.77 260.822C332.957 259.312 335.142 257.838 337.159 256.203Z" fill="#2C00A9"/>
</g>
<g style="mix-blend-mode:color-burn" opacity="0.38">
<path d="M314.39 282.101L315.662 279.048L411.994 288.567C412.817 290.36 413.587 292.182 414.304 294.034L313.452 284.096C313.807 283.42 314.112 282.768 314.39 282.101Z" fill="#2C00A9"/>
</g>
<g style="mix-blend-mode:color-burn" opacity="0.38">
<path d="M305.347 302.976L418.698 314.181C418.774 315.916 418.787 317.667 418.744 319.423L304.514 308.135C304.701 306.402 304.979 304.68 305.347 302.976Z" fill="#2C00A9"/>
</g>
<g style="mix-blend-mode:color-burn" opacity="0.38">
<path d="M305.018 327.911L415.949 338.863C415.519 340.581 415.05 342.284 414.543 343.97L305.704 333.243C305.453 331.452 305.221 329.691 305.018 327.911Z" fill="#2C00A9"/>
</g>
<g style="mix-blend-mode:color-burn" opacity="0.38">
<path d="M384.214 109.382C409.503 131.965 420.632 169.921 404.498 200.937C396.559 216.217 383.355 226.593 369.184 235.747C352.908 246.251 337.099 256.96 324.904 272.252C308.065 293.393 301.614 324.241 319.558 346.683C322.699 350.606 315.982 354.64 312.916 350.742C301.644 336.667 298.769 318.438 302.445 301.053C306.204 283.337 316.895 267.845 329.739 255.399C343.689 241.883 360.708 233.003 376.249 221.636C389.211 212.145 399.302 198.545 403.038 182.83C408.966 158.083 397.262 131.449 378.828 115.019C375.076 111.671 380.475 106.041 384.171 109.393L384.214 109.382Z" fill="#1E2144"/>
</g>
<g style="mix-blend-mode:color-burn" opacity="0.38">
<path d="M327.433 124.289C316.905 138.005 310.971 155.187 311.728 172.501C312.516 190.526 322.4 206.534 336.126 217.832C343.343 223.763 351.722 228.23 359.785 232.885C367.69 237.418 375.307 242.434 382.591 247.905C396.244 258.208 409.864 271.37 416.838 287.258C428.002 312.645 423.824 343.58 412.401 368.147C410.285 372.692 403.472 368.91 405.58 364.379C412.383 349.715 415.745 333.698 415.409 317.547C415.257 309.487 413.819 301.505 411.151 293.899C408.341 285.967 403.491 279.118 398.04 272.794C386.033 258.916 370.916 248.264 355.033 239.139C346.932 234.472 338.966 229.882 331.61 224.16C324.57 218.605 318.548 211.874 313.812 204.265C296.926 177.425 303.219 143.131 321.774 118.933C324.838 114.943 330.445 120.359 327.403 124.262L327.433 124.289Z" fill="#1E2144"/>
</g>
<g style="mix-blend-mode:color-burn" opacity="0.38">
<path d="M751.725 521.969L753.573 519.194C784.443 528.672 815.271 538.164 846.058 547.672C846.504 549.592 846.9 551.538 847.228 553.49L750.461 523.686C750.891 523.115 751.296 522.539 751.725 521.969Z" fill="#2C00A9"/>
</g>
<g style="mix-blend-mode:color-burn" opacity="0.38">
<path d="M738.688 540.597L847.527 574.118C847.227 575.84 846.891 577.556 846.52 579.266L736.891 545.478C737.406 543.821 738.006 542.192 738.688 540.597Z" fill="#2C00A9"/>
</g>
<g style="mix-blend-mode:color-burn" opacity="0.38">
<path d="M733.391 564.971L839.901 597.771C839.183 599.354 838.332 600.949 837.499 602.483L732.973 570.314C733.123 568.53 733.255 566.808 733.391 564.971Z" fill="#2C00A9"/>
</g>
<g style="mix-blend-mode:color-burn" opacity="0.38">
<path d="M854.585 366.531C874.857 393.695 878.147 433.159 856.204 460.306C845.371 473.694 830.358 481.239 814.643 487.399C796.624 494.506 778.977 501.81 763.985 514.375C743.27 531.745 730.796 560.697 743.902 586.259C746.238 590.716 738.829 593.317 736.625 588.927C728.391 572.898 729.201 554.445 736.284 538.141C743.495 521.507 757.054 508.448 772.131 498.801C788.492 488.319 806.937 483.013 824.429 474.963C839.033 468.235 851.617 456.908 858.422 442.251C869.104 419.182 862.98 390.746 848.228 370.97C845.219 366.943 851.665 362.492 854.628 366.519L854.585 366.531Z" fill="#4C248E"/>
</g>
<g style="mix-blend-mode:color-burn" opacity="0.38">
<path d="M796.01 369.837C782.769 381.187 773.922 396.804 771.004 413.977C768.184 431.829 774.679 449.464 785.864 463.255C791.758 470.508 799.071 476.538 806.046 482.715C812.879 488.73 819.331 495.162 825.364 501.975C836.689 514.794 847.404 530.409 851.068 547.366C856.937 574.469 846.674 603.957 830.592 625.795C827.609 629.831 821.684 624.763 824.67 620.737C834.262 607.722 840.751 592.694 843.644 576.8C845.102 568.871 845.284 560.762 844.184 552.778C843.022 544.439 839.63 536.766 835.552 529.47C826.488 513.413 813.766 500.022 800.108 487.908C793.16 481.792 786.223 475.673 780.152 468.569C774.36 461.727 769.799 453.933 766.673 445.534C755.492 415.866 768.49 383.502 791.494 363.468C795.281 360.174 799.696 366.593 795.946 369.855L796.01 369.837Z" fill="#4C248E"/>
</g>
</g>
</g>
<g style="mix-blend-mode:overlay" opacity="0.26">
<g style="mix-blend-mode:overlay" opacity="0.26">
<path d="M679.686 347.029C670.426 349.51 660.911 344.028 658.434 334.784C655.957 325.541 661.456 316.035 670.717 313.554C679.977 311.073 689.492 316.555 691.969 325.799C694.445 335.043 688.946 344.548 679.686 347.029Z" fill="white"/>
</g>
<g style="mix-blend-mode:overlay" opacity="0.26">
<path d="M463.328 240.039C454.068 242.521 444.553 237.038 442.076 227.795C439.6 218.551 445.099 209.046 454.359 206.564C463.619 204.083 473.134 209.565 475.611 218.809C478.087 228.053 472.589 237.558 463.328 240.039Z" fill="white"/>
</g>
<g style="mix-blend-mode:overlay" opacity="0.26">
<path d="M611.953 225.483C613.073 225.181 614.258 225.217 615.358 225.587C616.458 225.957 617.422 226.645 618.13 227.563C618.837 228.481 619.256 229.588 619.333 230.745C619.409 231.901 619.141 233.055 618.561 234.059C617.981 235.064 617.116 235.874 616.075 236.388C615.034 236.901 613.864 237.096 612.714 236.945C611.563 236.795 610.483 236.307 609.61 235.544C608.738 234.78 608.112 233.775 607.812 232.656C607.41 231.157 607.621 229.56 608.397 228.216C609.173 226.871 610.452 225.888 611.953 225.483Z" fill="white"/>
</g>
<g style="mix-blend-mode:overlay" opacity="0.26">
<path d="M583.76 350.531C584.878 350.231 586.061 350.269 587.157 350.64C588.254 351.012 589.215 351.699 589.92 352.616C590.624 353.533 591.04 354.639 591.116 355.792C591.191 356.946 590.922 358.097 590.342 359.098C589.763 360.1 588.899 360.908 587.86 361.42C586.821 361.932 585.654 362.125 584.506 361.974C583.358 361.824 582.28 361.337 581.41 360.575C580.54 359.813 579.915 358.81 579.616 357.693C579.215 356.196 579.426 354.6 580.203 353.256C580.98 351.913 582.259 350.933 583.76 350.531Z" fill="white"/>
</g>
<g style="mix-blend-mode:overlay" opacity="0.26">
<path d="M478.12 352.384C471.555 354.143 464.808 350.256 463.052 343.702C461.296 337.148 465.195 330.409 471.761 328.65C478.326 326.89 485.073 330.777 486.829 337.331C488.585 343.885 484.686 350.625 478.12 352.384Z" fill="white"/>
</g>
<g style="mix-blend-mode:overlay" opacity="0.26">
<path d="M700.394 449.03C693.603 449.316 687.871 444.051 687.59 437.271C687.31 430.491 692.587 424.763 699.378 424.477C706.169 424.191 711.901 429.455 712.182 436.235C712.462 443.015 707.184 448.744 700.394 449.03Z" fill="white"/>
</g>
<g style="mix-blend-mode:overlay" opacity="0.26">
<path d="M209.691 403.703C200.431 406.185 190.916 400.702 188.439 391.459C185.962 382.215 191.461 372.71 200.722 370.228C209.982 367.747 219.497 373.229 221.973 382.473C224.45 391.717 218.951 401.222 209.691 403.703Z" fill="white"/>
</g>
<g style="mix-blend-mode:overlay" opacity="0.26">
<path d="M205.656 281.011C206.777 280.711 207.963 280.749 209.061 281.121C210.16 281.494 211.124 282.183 211.829 283.103C212.535 284.022 212.952 285.13 213.026 286.287C213.101 287.443 212.83 288.596 212.248 289.599C211.667 290.603 210.8 291.412 209.758 291.923C208.716 292.435 207.546 292.627 206.395 292.475C205.245 292.322 204.166 291.833 203.295 291.067C202.424 290.302 201.8 289.296 201.502 288.176C201.303 287.434 201.253 286.659 201.354 285.897C201.455 285.135 201.706 284.4 202.092 283.735C202.477 283.069 202.991 282.486 203.603 282.019C204.214 281.551 204.912 281.209 205.656 281.011Z" fill="white"/>
</g>
<g style="mix-blend-mode:overlay" opacity="0.26">
<path d="M306.093 423.742C304.477 420.947 305.438 417.371 308.239 415.755C311.04 414.138 314.621 415.094 316.237 417.89C317.853 420.685 316.892 424.261 314.091 425.877C311.29 427.493 307.71 426.537 306.093 423.742Z" fill="white"/>
</g>
<g style="mix-blend-mode:overlay" opacity="0.26">
<path d="M367.117 266.808C360.355 267.497 354.318 262.584 353.633 255.833C352.948 249.082 357.874 243.05 364.636 242.36C371.398 241.67 377.435 246.584 378.12 253.335C378.805 260.086 373.878 266.118 367.117 266.808Z" fill="white"/>
</g>
<g style="mix-blend-mode:overlay" opacity="0.26">
<path d="M223.501 474.081C217.851 470.327 216.322 462.707 220.088 457.062C223.853 451.417 231.486 449.884 237.136 453.638C242.787 457.393 244.315 465.013 240.55 470.658C236.785 476.303 229.152 477.836 223.501 474.081Z" fill="white"/>
</g>
</g>
<path d="M538.859 324.256C551.276 322.958 560.845 312.564 565.336 301.502C565.554 300.828 565.908 300.205 566.376 299.673C566.613 299.411 566.929 299.231 567.275 299.161C567.622 299.09 567.983 299.133 568.303 299.282C568.539 299.463 568.736 299.689 568.882 299.948C569.028 300.207 569.12 300.492 569.152 300.787C570.084 304.948 569.047 308.109 566.839 311.585C565.721 313.343 564.496 315.03 563.169 316.637C562.073 317.956 560.934 319.162 559.908 320.531C566.48 318.065 572.341 314.016 576.97 308.745C577.522 308.011 578.2 307.382 578.972 306.886C579.34 306.603 579.79 306.447 580.254 306.442C580.718 306.437 581.171 306.582 581.544 306.856C581.918 307.13 582.192 307.519 582.326 307.962C582.459 308.406 582.444 308.881 582.284 309.315C582.013 310.177 581.565 310.972 580.969 311.651C574.91 319.438 566.687 325.27 557.328 328.414C558.756 327.951 560.608 328.127 562.124 327.778C563.918 327.335 565.665 326.718 567.339 325.936C570.477 324.431 573.372 322.465 575.926 320.102C577.035 319.014 578.279 318.071 579.627 317.298C582.655 315.815 583.337 318.914 582.04 321.017C580.013 324.103 577.481 326.827 574.551 329.076C570.449 332.204 566.099 334.993 561.544 337.416C565.315 336.406 569.096 335.392 572.919 334.573C574.963 334.105 577.74 333.008 579.854 333.399C580.443 333.475 580.981 333.772 581.358 334.23C581.735 334.688 581.923 335.272 581.885 335.864C581.693 336.895 580.627 337.477 579.677 337.937L569.257 342.894C566.218 344.335 562.997 345.951 561.387 348.889C560.135 351.162 560.048 353.864 559.563 356.399C558.901 359.76 557.496 362.932 555.452 365.684C554.698 366.706 553.243 367.666 552.753 368.823C552.112 370.306 552.691 372.851 553.09 374.34" fill="#FF8698"/>
<path d="M495.759 268.607C494.861 260.789 496.305 252.879 499.909 245.877C503.513 238.875 509.114 233.095 516.005 229.269C522.896 225.442 530.767 223.741 538.622 224.38C546.477 225.019 553.964 227.97 560.136 232.859C566.308 237.748 570.888 244.356 573.297 251.847C575.705 259.339 575.834 267.377 573.667 274.945C571.5 282.513 567.135 289.272 561.123 294.367C555.111 299.462 547.723 302.663 539.892 303.567C534.693 304.167 529.427 303.739 524.395 302.306C519.363 300.874 514.664 298.466 510.566 295.22C506.467 291.974 503.05 287.952 500.51 283.386C497.969 278.82 496.355 273.798 495.759 268.607ZM538.685 293.097C544.443 292.434 549.876 290.082 554.298 286.337C558.719 282.592 561.93 277.622 563.524 272.058C565.118 266.493 565.024 260.582 563.253 255.074C561.483 249.566 558.116 244.707 553.577 241.112C549.039 237.517 543.534 235.348 537.758 234.878C531.982 234.409 526.195 235.66 521.128 238.475C516.062 241.289 511.944 245.54 509.295 250.689C506.647 255.839 505.586 261.655 506.248 267.403C507.136 275.107 511.051 282.142 517.133 286.96C523.216 291.778 530.968 293.985 538.685 293.097Z" fill="#365F82"/>
<path d="M548.044 374.598C549.322 374.452 550.49 373.805 551.291 372.799C552.092 371.794 552.461 370.512 552.316 369.236L544.546 301.59C544.477 300.958 544.283 300.345 543.975 299.787C543.667 299.23 543.252 298.739 542.753 298.343C542.254 297.947 541.682 297.653 541.068 297.48C540.455 297.306 539.813 297.255 539.18 297.33C538.547 297.401 537.935 297.595 537.378 297.903C536.82 298.21 536.329 298.624 535.932 299.121C535.535 299.618 535.24 300.188 535.064 300.799C534.887 301.41 534.833 302.049 534.905 302.681L542.684 370.359C542.832 371.631 543.479 372.792 544.484 373.586C545.489 374.381 546.77 374.745 548.044 374.598Z" fill="#365F82"/>
<path d="M529.606 362.329C531.405 356.262 531.184 349.813 530.945 343.507C530.705 337.2 530.492 330.738 532.294 324.682C534.258 318.035 539.516 312.136 544.537 307.565C546.63 305.659 549.544 302.006 551.992 304.793C557.459 311.009 544.064 320.457 541.913 324.532C539.324 329.443 549.747 336.257 552.19 340.219C554.35 343.854 555.721 347.903 556.213 352.102C556.705 356.301 556.307 360.558 555.046 364.596" fill="#FF8698"/>
<path d="M412.228 705.869C401.329 722.546 385.496 736.875 366.172 741.836C346.847 746.798 324.049 740.586 313.033 724.015C306.583 714.346 304.595 702.239 298.573 692.25C293.659 684.096 286.31 677.847 278.394 672.72C271.422 668.217 261.925 665.496 256.705 659.054C247.197 647.234 242.143 632.457 242.421 617.293C242.686 604.605 246.684 592.341 249.544 579.961C252.403 567.581 253.987 554.358 249.618 542.445C243.477 525.661 226.235 513.596 224.047 495.844C222.239 481.17 231.415 467.565 240.781 456.029C253.421 440.481 267.102 423.959 258.357 403.041C251.029 385.492 249.602 367.126 259.318 350.254C267.758 335.603 281.26 324.509 296.666 317.748C301.002 315.82 305.484 314.238 310.069 313.017C312.2 312.446 321.574 312.066 322.771 310.651C330.159 301.833 342.695 298.725 354.176 300.025C372.268 302.095 389.515 310.729 398.806 326.486C406.618 339.745 411.555 356.806 425.87 364.766C438.006 371.498 452.233 369.031 465.279 372.168C478.325 375.306 491.776 386.643 494.033 400.182C495.41 408.43 494.34 416.923 495.562 425.189C496.783 433.455 501.185 442.168 509.157 444.693C515.247 446.629 522.776 446.093 529.005 444.242C534.917 442.487 540.379 437.604 546.023 434.975C558.3 429.236 571.574 425.927 585.108 425.231C613.815 423.796 665.715 444.834 657.883 481.819C654.367 498.524 637.186 507.948 625.291 520.185C610.35 535.585 603.02 558.509 607.822 579.412C610.187 589.686 615.31 599.858 613.418 610.224C609.449 631.802 578.096 640.659 575.661 662.51C574.415 673.626 581.427 685.39 576.857 695.606C574.213 701.546 568.252 705.252 562.423 708.125C534.416 721.782 502.307 724.464 472.436 715.642" fill="#2C00A9"/>
<g style="mix-blend-mode:multiply" opacity="0.25">
<g style="mix-blend-mode:multiply" opacity="0.25">
<path d="M427.824 644.34C419.487 639.816 412.475 633.202 407.477 625.15C402.478 617.097 399.666 607.882 399.317 598.411C399.047 587.52 402.082 576.859 403.85 566.117C405.619 555.374 405.945 543.764 400.746 534.204C392.792 519.604 374.548 513.985 363.596 501.488C358.856 495.948 355.643 489.27 354.273 482.111C352.904 474.952 353.424 467.559 355.784 460.659C359.543 450.101 367.733 439.803 364.779 428.992C361.891 418.471 349.634 413.504 338.758 412.84C320.307 411.732 302.024 419.685 289.027 432.581C272.369 449.115 261.005 475.9 273.033 498.036C277.41 506.106 283.411 513.331 286.721 521.892C292.613 537.193 289.102 554.386 284.506 570.126C279.909 585.866 274.21 601.925 275.962 618.221C277.052 628.425 282.577 644.143 291.787 650.052C300.535 655.686 313.538 655.211 323.112 660.772C331.683 665.747 338.99 673.841 340.574 683.629C341.487 689.254 340.472 695.053 341.418 700.715C343.461 712.898 354.898 722.177 367.095 724.106C379.292 726.035 391.891 721.793 402.202 714.938C412.513 708.084 420.934 698.818 429.234 689.653" fill="#2C00A9"/>
</g>
</g>
<g style="mix-blend-mode:multiply" opacity="0.25">
<g style="mix-blend-mode:multiply" opacity="0.25">
<path d="M615.105 529.296C606.824 539.641 597.366 550.404 596.368 563.596C595.389 576.475 602.821 588.445 611.16 598.303C619.498 608.162 629.226 617.237 634.464 629.032C646.068 655.293 631.742 686.325 611.505 706.758L610.187 708.057L503.011 736.775C497.81 734.777 492.852 732.198 488.232 729.087C459.247 709.5 448.302 672.827 439.011 639.131C429.719 605.435 417.702 568.81 387.881 550.576C381.504 546.677 374.22 543.523 370.105 537.286C364.302 528.412 366.893 516.777 367.632 506.196C368.425 493.841 366.42 481.469 361.765 470C357.11 458.53 349.926 448.257 340.746 439.945L337.992 315.473C363.772 309.421 392.825 324.362 402.866 348.797C408.762 363.173 409.518 381.206 422.005 390.397C435.934 400.706 458.214 394.759 470.415 407.058C487.719 424.509 467.767 460.195 486.275 476.434C492.84 482.186 502.464 483.163 511.054 481.557C519.643 479.95 527.623 476.114 535.849 473.192C552.918 467.135 571.128 464.982 589.135 466.892C605.982 468.703 624.985 476.775 628.546 493.304C631.314 506.273 623.385 518.952 615.105 529.296Z" fill="#2C00A9"/>
</g>
</g>
<path d="M566.199 464L757.587 479.972L771.058 530.248L649.418 533.061L609.806 662.707L519.384 714.448L505.813 690.686L566.199 464Z" fill="#1E2144"/>
<path d="M594.621 496.399L596.294 496.464C620.374 497.488 700.493 500.912 763.969 503.792L765.166 508.258C711.838 505.839 643.849 502.903 597.766 500.936L529.303 708.77L526.441 710.403L524.341 709.724L594.621 496.399Z" fill="#242A54"/>
<path d="M347.431 503.243L342.618 444.675L373.375 444.412L390.668 487.646C392.504 485.369 394.571 483.287 396.836 481.434C393.899 496.297 383.363 509.685 369.274 515.478C363.398 517.785 357.118 518.885 350.809 518.711C344.5 518.537 338.293 517.093 332.558 514.465" fill="#FF8698"/>
<path d="M396.772 481.452L397.659 480.713L396.772 481.452Z" fill="#FF8698"/>
<path d="M493.935 739.206C489.419 731.983 484.45 723.877 479.339 715.24C470.035 699.566 461.986 685.163 456.354 674.67C453.54 669.407 451.295 665.119 449.809 662.132C448.939 660.628 448.219 659.042 447.661 657.396C448.736 658.761 449.676 660.227 450.467 661.773C452.467 665.234 454.824 669.313 457.536 674.012C463.473 684.365 471.705 698.64 480.985 714.309C486.206 723.099 491.202 731.391 495.68 738.773L493.935 739.206Z" fill="#9AAEF5"/>
<path d="M525.958 520.052L476.32 527.483L499.437 658.454L559.289 721.695L361.45 774.706L366.45 705.462L317.891 650.193L265.898 771.257L245.742 696.034C266.069 640.441 297.66 557.689 315.599 530.088C318.162 526.155 321.401 522.706 325.166 519.9L332.469 514.432C338.205 517.061 344.415 518.505 350.726 518.678C357.037 518.852 363.319 517.751 369.196 515.442C383.285 509.649 393.832 496.303 396.758 481.398C405.717 473.801 424.714 462.419 455.59 466.01L503.917 465.404L523.928 354.049L563.362 359.883C563.362 359.883 554.472 453.853 546.394 500.147C545.513 505.187 543.065 509.822 539.396 513.395C535.727 516.969 531.026 519.298 525.958 520.052Z" fill="#E8EEFE"/>
<path d="M330.705 515.771L332.48 514.429C338.214 517.057 344.422 518.501 350.731 518.675C357.04 518.849 363.32 517.749 369.196 515.442C383.285 509.649 393.833 496.303 396.758 481.398C399.596 479.005 402.642 476.869 405.86 475.016C417.604 509.172 451.582 611.863 459.604 679.042L330.705 515.771Z" fill="#9AAEF5"/>
<path d="M369.196 515.442C383.285 509.649 393.832 496.303 396.758 481.398C399.488 479.102 402.407 477.039 405.483 475.231C408.317 492.707 401.41 511.802 387.409 522.825C375.154 532.48 358.069 535.405 343.018 531.3L330.725 515.72L332.501 514.378C338.229 517.011 344.431 518.462 350.736 518.645C357.041 518.828 363.32 517.738 369.196 515.442Z" fill="#768ED3"/>
<path d="M478.324 677.024L475.876 672.916L499.203 657.114L499.447 658.451L502.011 661.16L478.324 677.024Z" fill="#9AAEF5"/>
<path d="M479.008 541.476C478.741 541.548 477.807 538.06 476.388 532.422C474.642 525.482 472.842 518.294 470.859 510.425C468.876 502.557 466.839 495.421 465.072 488.487C463.567 482.872 462.721 479.372 462.974 479.293C463.226 479.214 464.539 482.577 466.363 488.106C468.187 493.635 470.491 501.338 472.705 509.942C474.919 518.547 476.637 526.406 477.715 532.135C478.793 537.864 479.253 541.411 479.008 541.476Z" fill="#9AAEF5"/>
<path d="M320.523 645.954C323.622 638.901 327.181 630.494 330.798 620.942C332.627 616.178 334.568 611.191 336.43 605.996C338.398 600.662 340.086 595.23 341.488 589.722C344.296 578.427 345.023 567.12 342.49 557.37C342.373 556.76 342.212 556.16 342.009 555.573L341.437 553.823C341.28 553.238 341.07 552.667 340.882 552.091L340.167 550.448C339.684 549.369 339.247 548.289 338.74 547.251C338.234 546.213 337.691 545.253 337.086 544.275C334.974 540.711 332.418 537.429 329.479 534.506C326.23 531.247 322.517 528.486 318.458 526.313C318.666 526.063 318.873 525.814 319.093 525.573C323.254 527.639 327.076 530.323 330.429 533.534C333.519 536.481 336.213 539.816 338.442 543.456C339.068 544.428 339.598 545.426 340.194 546.497C340.789 547.569 341.2 548.678 341.716 549.793C341.969 550.352 342.211 550.914 342.466 551.484C342.721 552.054 342.873 552.663 343.07 553.271C343.268 553.879 343.473 554.474 343.681 555.079C343.895 555.686 344.061 556.308 344.179 556.94C344.515 558.195 344.769 559.483 345.058 560.774C345.347 562.064 345.414 563.425 345.602 564.765C345.702 565.437 345.758 566.115 345.769 566.795C345.805 567.48 345.829 568.169 345.865 568.855C345.934 570.25 345.928 571.648 345.845 573.043C345.586 578.827 344.742 584.571 343.326 590.187C341.912 595.765 340.195 601.262 338.182 606.655C336.275 611.896 334.297 616.87 332.428 621.611C328.694 631.114 325.008 639.555 321.744 646.55C320.878 648.401 320.047 650.143 319.251 651.777L318.379 650.78C319.064 649.244 319.778 647.635 320.523 645.954Z" fill="#9AAEF5"/>
<path d="M405.86 475.016L451.146 523.355L438.146 542.886L462.485 560.218L456.348 656.323L405.86 475.016Z" fill="white"/>
<path d="M442.13 656.907L371.804 610.012L367.339 577.541L345.863 582.315L330.694 515.774L442.13 656.907Z" fill="white"/>
<g style="mix-blend-mode:multiply" opacity="0.26">
<g style="mix-blend-mode:multiply" opacity="0.26">
<path d="M345.345 477.817L342.618 444.675L373.375 444.412L383.708 470.193C371.228 474.791 358.345 477.718 345.345 477.817Z" fill="#FF8698"/>
</g>
</g>
<path d="M397.018 364.382C399.678 361.527 404.331 361.123 407.902 362.731C411.472 364.339 414.069 367.598 415.796 371.101C418.398 376.675 419.171 382.928 418.006 388.97C416.841 395.012 413.797 400.535 409.308 404.752" fill="#E26D83"/>
<path d="M405.928 395.503C405.715 395.56 404.625 394.176 403.606 391.44C403.032 389.832 402.631 388.166 402.412 386.472C402.156 384.389 402.136 382.284 402.352 380.197C402.607 378.122 403.091 376.082 403.793 374.112C404.38 372.507 405.14 370.97 406.058 369.528C407.681 367.064 409.05 365.911 409.216 366.06C409.382 366.209 408.443 367.692 407.237 370.18C406.536 371.631 405.942 373.131 405.46 374.668C404.899 376.556 404.496 378.486 404.255 380.439C404.059 382.393 404.033 384.36 404.175 386.319C404.301 387.925 404.549 389.52 404.916 391.089C405.538 393.749 406.201 395.372 405.928 395.503Z" fill="#C6556B"/>
<path d="M297.027 417.525C289.567 416.105 281.626 420.512 278.241 427.266C274.856 434.02 275.976 442.632 280.55 448.666C282.892 451.642 285.88 454.046 289.29 455.699C292.699 457.352 296.441 458.21 300.233 458.209C309.088 458.275 317.882 453.388 325.421 449.18" fill="#FF8698"/>
<g style="mix-blend-mode:overlay" opacity="0.35">
<path d="M394.782 335.884L377.302 351.179L380.144 353.734L398.544 339.868L394.782 335.884Z" fill="white"/>
</g>
<path d="M295.649 334.706C309.263 323.513 326.859 315.596 344.79 316.98C355.042 317.789 363.118 322.235 371.594 327.532C380.576 333.103 385.383 342.266 390.551 351.412C400.879 369.844 412.167 391.859 410.342 413.638C409.009 429.415 397.049 441.795 383.865 449.305C376.625 453.433 368.746 455.943 360.837 458.382C346.324 462.852 327.475 452.756 316.811 443.68C302.01 431.052 290.213 415.362 280.371 398.658C266.577 375.343 275.845 351 295.649 334.706Z" fill="#FF8698"/>
<path d="M384.415 380.923C383.753 381.18 381.985 378.246 380.47 374.378C378.954 370.51 378.238 367.158 378.9 366.9C379.562 366.643 381.319 369.58 382.835 373.448C384.351 377.316 385.066 380.669 384.415 380.923Z" fill="#C6556B"/>
<path d="M340.123 401.145C339.474 401.41 337.638 398.392 336.058 394.496C334.477 390.6 333.68 387.155 334.341 386.898C335.003 386.641 336.826 389.651 338.407 393.547C339.987 397.443 340.782 400.877 340.123 401.145Z" fill="#C6556B"/>
<path d="M283.781 430.386C283.724 430.173 285.748 429.46 289.165 429.559C293.649 429.727 297.979 431.237 301.591 433.892C305.204 436.548 307.933 440.226 309.425 444.451C310.529 447.677 310.449 449.807 310.228 449.832C310.006 449.857 309.529 447.865 308.179 444.956C306.468 441.168 303.808 437.884 300.457 435.421C297.105 432.957 293.174 431.397 289.042 430.891C285.914 430.464 283.829 430.692 283.781 430.386Z" fill="#C6556B"/>
<g style="mix-blend-mode:multiply" opacity="0.26">
<g style="mix-blend-mode:multiply" opacity="0.26">
<path d="M335.819 317.378C342.285 325.383 345.567 335.489 345.039 345.765C344.51 356.04 340.209 365.765 332.956 373.079C331.394 374.432 330.017 375.985 328.862 377.698C327.188 380.654 327.303 384.236 327.168 387.612C326.83 395.68 324.749 403.806 320.228 410.499C315.708 417.192 308.554 422.323 300.572 423.47C297.613 424.001 294.565 423.679 291.784 422.543C290.402 421.958 289.184 421.048 288.233 419.889C287.282 418.73 286.627 417.358 286.325 415.891C285.838 412.796 287.307 409.758 288.533 406.876C294.518 392.756 295.537 377.032 291.423 362.268" fill="#FF8698"/>
</g>
</g>
<path d="M305.304 448.587C305.228 448.812 304.046 448.707 302.397 447.793C300.244 446.553 298.537 444.667 297.52 442.402C296.503 440.137 296.228 437.61 296.733 435.178C297.155 433.344 297.862 432.402 298.092 432.535C298.321 432.667 298.121 433.667 298.082 435.398C297.977 437.553 298.381 439.703 299.262 441.672C300.143 443.642 301.476 445.376 303.153 446.736C304.448 447.779 305.404 448.321 305.304 448.587Z" fill="#C6556B"/>
<path d="M359.099 398.294C359.19 397.951 360.451 398.012 361.907 398.419C363.364 398.827 364.462 399.433 364.369 399.766C364.275 400.098 363.017 400.048 361.561 399.64C360.104 399.233 359.006 398.627 359.099 398.294Z" fill="#C6556B"/>
<path d="M365.927 347.035C363.118 342.089 369.171 338.347 373.083 337.14C377.852 335.634 382.907 336.73 387.361 338.272C388.967 338.682 390.359 339.68 391.262 341.067C391.629 341.91 391.753 342.839 391.619 343.749C391.486 344.658 391.1 345.513 390.506 346.216C389.297 347.611 387.737 348.659 385.987 349.25C381.279 351.102 376.117 351.466 371.197 350.296C369.137 349.811 366.971 348.887 365.927 347.035Z" fill="#C6556B"/>
<path d="M332.163 358.316C330.33 352.881 323.527 354.931 320.009 357.014C315.691 359.561 313.132 364.031 311.296 368.386C310.539 369.834 310.345 371.51 310.753 373.091C311.134 373.929 311.742 374.644 312.508 375.156C313.274 375.667 314.169 375.955 315.091 375.986C316.938 376.013 318.76 375.552 320.373 374.65C324.881 372.397 328.592 368.821 331.009 364.404C332.061 362.537 332.838 360.323 332.163 358.316Z" fill="#C6556B"/>
<path d="M361.519 406.9C366.529 406.037 371.725 405.191 375.835 402.164C376.409 405.158 376.113 408.254 374.984 411.088C374.422 412.486 373.526 413.725 372.372 414.696C371.219 415.667 369.844 416.34 368.369 416.656C365.406 417.142 362.337 415.788 359.992 413.726C358.032 411.876 356.346 409.756 354.983 407.432C357.175 407.508 359.368 407.329 361.519 406.9Z" fill="white"/>
<path d="M272.458 360.9C277.796 341.918 294.22 326.815 311.355 317.858C314.807 316.134 318.405 314.716 322.105 313.621C324.59 312.734 327.123 311.986 329.692 311.383C333.566 310.63 333.661 311.368 335.441 315.029C340.686 325.943 342.065 338.315 339.352 350.121C338.185 355.743 335.922 361.081 332.693 365.833C331.76 367.166 320.013 377.824 319.903 377.329C321.237 383.506 321.139 389.907 319.617 396.043C318.095 402.179 315.19 407.888 311.122 412.734C306.782 417.84 300.132 422.084 293.595 420.485C289.589 419.507 286.405 416.53 283.756 413.376C277.821 406.164 273.699 397.639 271.734 388.511C269.768 379.383 270.017 369.916 272.458 360.9Z" fill="#2C00A9"/>
<path d="M367.643 400.096C367.643 400.096 367.784 399.899 368.117 399.65L368.712 399.229L369.455 398.551C370.086 397.903 370.632 397.178 371.081 396.394C371.63 395.333 372.01 394.193 372.208 393.015C372.745 389.954 372.077 386.805 370.344 384.226C369.251 382.79 367.808 381.658 366.152 380.938C364.412 380.071 362.446 379.379 360.512 378.255C358.638 377.134 357.029 375.622 355.796 373.821C354.664 372.173 353.793 370.362 353.215 368.449C352.28 365.25 351.926 361.91 352.17 358.585C352.31 356.383 352.58 354.191 352.98 352.02C353.265 350.485 353.475 349.608 353.594 349.667C353.734 350.469 353.737 351.289 353.604 352.092C353.507 353.645 353.316 355.873 353.297 358.614C353.222 361.796 353.663 364.968 354.604 368.008C355.712 371.672 358.098 374.817 361.329 376.874C363.074 377.888 365.022 378.597 366.859 379.53C367.775 379.974 368.647 380.504 369.463 381.111C369.867 381.425 370.224 381.819 370.598 382.152C370.973 382.485 371.232 382.939 371.541 383.324C372.578 384.857 373.243 386.61 373.484 388.445C373.698 390.02 373.64 391.62 373.312 393.175C373.032 394.454 372.532 395.675 371.836 396.785C371.297 397.608 370.63 398.341 369.86 398.955L368.985 399.566L368.271 399.883C367.881 400.09 367.668 400.147 367.643 400.096Z" fill="#C6556B"/>
<g style="mix-blend-mode:multiply" opacity="0.26">
<path d="M387.862 401.882C387.144 399.263 386.997 396.52 387.43 393.838C387.863 391.157 388.867 388.598 390.374 386.336C391.881 384.073 393.855 382.159 396.165 380.723C398.475 379.286 401.065 378.36 403.763 378.007C408.381 389.534 411.37 401.623 410.369 413.654C410.307 414.32 410.208 414.973 410.109 415.626C405.343 416.593 400.389 415.71 396.255 413.156C392.122 410.602 389.12 406.571 387.862 401.882Z" fill="#FF8698"/>
</g>
<g style="mix-blend-mode:multiply" opacity="0.26">
<path d="M318.362 434.202C313.566 424.806 317.31 413.3 326.726 408.503C336.141 403.706 347.661 407.434 352.457 416.83C357.253 426.227 353.509 437.733 344.094 442.53C334.679 447.327 323.158 443.599 318.362 434.202Z" fill="#FF8698"/>
</g>
<g style="mix-blend-mode:overlay" opacity="0.35">
<path d="M256.529 421.572L281.334 401.101C315.457 371.899 394.782 335.884 394.782 335.884C413.415 353.481 422.037 390.73 395.272 394.129C385.666 395.347 377.65 391.511 371.31 386.087C370.983 384.846 370.401 383.687 369.601 382.683C368.801 381.679 367.802 380.852 366.665 380.254C366.223 380.052 365.744 379.947 365.258 379.947C360.659 374.389 356.867 368.211 353.993 361.596L345.621 365.549C364.086 397.687 355.514 416.316 347.946 425.057C344.651 428.801 340.475 431.667 335.794 433.396C304.503 445.257 288.942 419.053 283.59 406.879C283.59 406.879 262.793 422.322 260.088 426.545C258.129 429.589 261.425 437.117 263.389 441.036C263.725 441.707 263.79 442.482 263.57 443.201C263.351 443.919 262.863 444.526 262.208 444.896C261.566 445.269 260.807 445.384 260.084 445.218C259.361 445.051 258.728 444.617 258.315 444.002C248.863 429.735 256.529 421.572 256.529 421.572Z" fill="white"/>
</g>
<g style="mix-blend-mode:multiply" opacity="0.26">
<g style="mix-blend-mode:multiply" opacity="0.26">
<path d="M310.309 450.095C309.332 444.995 306.722 440.351 302.874 436.861C299.026 433.371 294.146 431.223 288.968 430.74C285.848 430.516 282.361 431.097 280.398 433.526C278.434 435.956 278.647 439.774 279.801 442.804C280.881 445.599 282.616 448.094 284.859 450.083C287.103 452.072 289.791 453.495 292.698 454.235C295.606 454.975 298.649 455.01 301.575 454.337C304.5 453.663 307.222 452.302 309.514 450.365" fill="#FF8698"/>
</g>
</g>
<path d="M665.549 533.822L804.133 653.684L804.734 655.928L741.756 672.803L674.597 624.433L643.497 699.132L462.723 747.57L665.549 533.822Z" fill="#242A54"/>
<path d="M767.194 665.987L670.066 584.685L560.844 721.278L553.664 723.202L669.437 578.414L772.393 664.594L767.194 665.987Z" fill="#1E2144"/>
<path d="M522.593 361.382C529.523 362.191 537.067 363.202 544.944 364.305C551.124 365.214 557.064 366.163 562.662 367.114C562.582 367.895 562.502 368.703 562.421 369.538C556.784 368.655 550.796 367.74 544.568 366.822C536.655 365.671 529.135 364.62 522.176 363.704L522.593 361.382Z" fill="#9AAEF5"/>
</g>
<defs>
<clipPath id="clip0_25_651">
<rect width="789.474" height="644.49" fill="white" transform="matrix(-0.965926 0.258819 0.258819 0.965926 762.573 0)"/>
</clipPath>
</defs>
</svg>
