<svg width="323" height="576" viewBox="0 0 323 576" fill="none" xmlns="http://www.w3.org/2000/svg">
<g clip-path="url(#clip0_60_2856)">
<path d="M129.503 335.641C155.055 341.11 182.87 336.834 201.943 331.684C209.579 329.616 228.251 286.848 229.157 269.469C229.454 263.762 197.987 256.033 191.775 260.25C187.53 263.125 182.068 304.1 178.202 305.264C171.092 307.398 151.834 312.378 131.885 320.93C118.452 326.696 115.966 332.751 129.503 335.641Z" fill="#FFC5C1"/>
<path d="M189.742 263.807C192.347 250.823 194.811 234.512 204.785 223.38C205.86 222.113 207.332 221.246 208.963 220.92C213.349 215.858 217.06 216.399 217.06 216.399C222.589 212.931 226.307 214.005 226.307 214.005C226.307 214.005 231.502 208.114 235.606 210.671C240.2 213.516 231.984 221.239 230.062 228.242C225.669 244.287 223.279 270.692 222.47 275.45L189.742 263.807Z" fill="#FFC5C1"/>
<path d="M213.639 241.804C215.027 237.113 216.266 232.459 218.285 227.975C220.511 223.054 223.48 218.689 226.359 214.176C226.366 214.16 226.371 214.143 226.371 214.125C226.372 214.107 226.369 214.09 226.363 214.073C226.357 214.056 226.347 214.041 226.335 214.028C226.323 214.016 226.308 214.005 226.292 213.998C226.27 213.987 226.246 213.981 226.222 213.981C226.197 213.981 226.173 213.987 226.151 213.998C219.606 221.342 214.893 232.021 213.424 241.722C213.386 241.982 213.572 242.078 213.639 241.804Z" fill="#2F351A"/>
<path d="M203.553 240.596C205.156 236.097 208.006 228.22 217.201 216.51C217.206 216.506 217.21 216.501 217.212 216.495C217.215 216.49 217.216 216.483 217.216 216.477C217.216 216.471 217.215 216.464 217.212 216.459C217.21 216.453 217.206 216.448 217.201 216.444C217.193 216.436 217.182 216.432 217.171 216.432C217.16 216.432 217.15 216.436 217.142 216.444C210.395 223.03 205.618 231.362 203.345 240.507C203.264 240.781 203.449 240.863 203.553 240.596Z" fill="#2F351A"/>
<path d="M198.151 239.796C201.164 232.259 204.028 227.886 208.986 220.957C208.986 220.912 208.986 220.853 208.919 220.898C202.455 228.183 200.934 231.555 197.876 239.729C197.765 240.01 198.032 240.092 198.151 239.796Z" fill="#2F351A"/>
<path d="M225.98 247.911C226.233 250.23 227.465 250.134 229.639 246.591C231.814 243.049 237.513 227.323 242.857 229.739C248.2 232.155 238.908 253.736 235.769 259.909C232.655 266.094 228.087 271.434 222.455 275.472C223.212 270.81 224.622 257.026 225.98 247.911Z" fill="#FFC5C1"/>
<path d="M160.146 310.6C162.595 310.177 165.014 309.621 167.418 309.036C169.823 308.45 172.22 307.791 174.602 307.087C175.797 306.701 176.947 306.346 178.179 305.879C178.552 305.729 178.87 305.471 179.092 305.138C179.286 304.863 179.457 304.573 179.604 304.271C179.891 303.703 180.139 303.116 180.346 302.514C181.194 300.161 181.854 297.745 182.321 295.289C181.385 297.593 180.525 299.913 179.523 302.144C179.263 302.7 178.988 303.24 178.714 303.759C178.582 304.017 178.43 304.265 178.261 304.5C178.046 304.745 178.075 304.767 177.756 304.878C176.688 305.279 175.448 305.619 174.283 305.983C171.923 306.724 169.548 307.405 167.203 308.206C164.858 309.006 162.468 309.703 160.146 310.6Z" fill="#2F351A"/>
<path d="M160.272 308.161L168.725 342.341C168.725 342.341 140.16 342.244 125.503 336.471C110.845 330.698 115.602 324.673 126.163 319.952C136.724 315.231 160.272 308.161 160.272 308.161Z" fill="#355F81"/>
<path d="M160.272 308.154C160.297 308.238 160.33 308.32 160.368 308.398L160.272 308.154Z" fill="#6C72FC"/>
<path d="M164.094 340.643C163.497 340.646 162.908 340.78 162.369 341.037C161.83 341.293 161.355 341.665 160.977 342.126H161.763C162.402 341.55 163.233 341.233 164.094 341.236C164.558 341.236 165.017 341.327 165.445 341.505C165.873 341.684 166.261 341.945 166.587 342.274H167.389C167.006 341.763 166.508 341.35 165.936 341.066C165.364 340.783 164.733 340.638 164.094 340.643Z" fill="#6C72FC"/>
<path d="M126.883 321.545C126.07 321.543 125.274 321.78 124.596 322.229C123.919 322.678 123.389 323.317 123.076 324.066C122.762 324.815 122.677 325.641 122.833 326.438C122.989 327.235 123.378 327.967 123.951 328.544C124.523 329.12 125.255 329.514 126.052 329.675C126.849 329.836 127.676 329.758 128.428 329.45C129.18 329.142 129.824 328.618 130.279 327.944C130.733 327.271 130.977 326.478 130.98 325.666C130.983 325.127 130.879 324.592 130.674 324.093C130.47 323.593 130.169 323.139 129.788 322.756C129.408 322.373 128.955 322.069 128.456 321.862C127.958 321.654 127.423 321.546 126.883 321.545ZM126.883 329.134C126.192 329.133 125.516 328.927 124.942 328.542C124.368 328.157 123.921 327.611 123.658 326.973C123.395 326.334 123.327 325.632 123.464 324.955C123.6 324.279 123.934 323.657 124.424 323.17C124.914 322.683 125.538 322.352 126.216 322.219C126.894 322.086 127.597 322.156 128.235 322.422C128.873 322.687 129.418 323.136 129.801 323.711C130.184 324.285 130.387 324.961 130.386 325.651C130.378 326.575 130.006 327.459 129.35 328.111C128.695 328.763 127.808 329.13 126.883 329.134Z" fill="#6C72FC"/>
<path d="M151.685 321.545C150.872 321.543 150.076 321.78 149.399 322.229C148.721 322.678 148.192 323.317 147.878 324.066C147.564 324.815 147.479 325.641 147.635 326.438C147.791 327.235 148.18 327.967 148.753 328.544C149.326 329.12 150.057 329.514 150.854 329.675C151.651 329.836 152.478 329.758 153.23 329.45C153.983 329.142 154.627 328.618 155.081 327.944C155.535 327.271 155.779 326.478 155.782 325.666C155.785 325.127 155.681 324.592 155.477 324.093C155.272 323.593 154.971 323.139 154.59 322.756C154.21 322.373 153.757 322.069 153.259 321.862C152.76 321.654 152.226 321.546 151.685 321.545ZM151.685 329.134C150.994 329.133 150.319 328.927 149.745 328.542C149.171 328.157 148.724 327.611 148.461 326.973C148.197 326.334 148.13 325.632 148.266 324.955C148.402 324.279 148.736 323.657 149.226 323.17C149.716 322.683 150.34 322.352 151.018 322.219C151.696 322.086 152.399 322.156 153.037 322.422C153.675 322.687 154.22 323.136 154.603 323.711C154.986 324.285 155.19 324.961 155.188 325.651C155.184 326.576 154.813 327.462 154.157 328.115C153.5 328.768 152.612 329.134 151.685 329.134Z" fill="#6C72FC"/>
<path d="M155.195 312.178C155.136 311.956 155.27 311.845 155.337 312.06C158.669 323.094 161.734 335.997 162.313 340.784C162.313 340.858 162.216 340.866 162.194 340.784C160.465 336.256 155.856 314.631 155.195 312.178Z" fill="#153043"/>
<path d="M125.495 336.471C140.167 342.244 168.717 342.348 168.717 342.348L164.183 324.036L116.953 330.891C118.096 332.743 120.805 334.618 125.495 336.471Z" fill="#153043"/>
<path d="M106.215 621.043C110.296 622.37 229.884 621.288 234.285 618.435C235.977 617.375 227.153 504.166 227.153 504.166L151.062 504.662L158.988 580.417C158.988 580.417 114.608 600.73 110.096 604.376C105.584 608.022 102.17 619.724 106.215 621.043Z" fill="#FF9581"/>
<path d="M153.051 562.23H236.912C236.912 562.23 221.134 383.975 221.787 380.566C222.626 376.186 227.576 356.399 234.166 330.542C236.229 322.45 238.456 313.771 240.771 304.775C247.027 280.452 253.914 253.861 259.918 230.732C268.928 196.071 275.963 169.147 275.963 169.147H204.882C204.882 169.147 196.599 195.389 186.165 229.48C169.155 284.906 146.438 361.194 144.19 379.744C140.561 409.647 153.051 562.23 153.051 562.23Z" fill="#FD8496"/>
<path d="M258.167 230.095C258.844 226.187 258.781 222.188 257.981 218.304C257.047 214.597 255.68 211.013 253.907 207.625C250.345 200.303 246.59 192.958 248.245 184.547C249.38 178.878 252.304 173.801 255.71 169.117H255.05C254.382 170.029 253.751 170.941 253.135 171.867C248.779 178.596 245.944 186.318 247.755 194.366C249.565 202.415 254.716 209.04 256.898 216.888C258.701 223.38 257.751 229.887 255.963 236.231C252.389 236.527 248.883 237.379 245.573 238.758C240.198 240.945 235.192 243.945 230.73 247.651C221.196 255.377 214.393 265.952 211.321 277.824C208.249 289.695 209.069 302.237 213.661 313.608C216.057 319.514 219.354 325.014 223.435 329.912C226.337 333.47 229.32 337.02 231.443 341.029C231.517 340.695 231.613 340.362 231.702 340.028C228.734 334.655 224.37 330.268 220.845 325.281C213.614 314.91 209.966 302.469 210.455 289.842C210.93 277.94 215.182 266.497 222.596 257.167C229.728 248.148 239.97 240.507 251.295 237.809C252.732 237.454 254.197 237.224 255.673 237.12C255.094 239.114 254.419 241.1 253.751 243.049C250.961 251.134 248.052 259.153 248.014 267.816C248.001 270.022 248.169 272.226 248.519 274.405C248.69 273.715 248.875 273.041 249.039 272.359C248.502 266.454 249.071 260.5 250.716 254.803C252.371 248.829 254.775 243.049 256.512 237.083C257.068 237.053 257.625 237.053 258.182 237.083C258.256 236.779 258.33 236.483 258.404 236.209H256.749C257.336 234.199 257.81 232.158 258.167 230.095Z" fill="#EEEEC6"/>
<path d="M221.928 508.531C221.224 504.417 219.212 500.639 216.192 497.755C212.798 494.752 208.518 492.931 203.998 492.568C199.654 492.185 195.276 492.551 191.056 493.65C191.278 481.562 185.118 470.327 182.395 458.707C180.773 451.735 180.054 444.585 180.257 437.43C180.443 431.02 181.467 424.602 180.903 418.162C180.421 412.774 178.632 407.505 174.78 403.585C171.484 400.339 167.329 398.099 162.802 397.13C156.271 395.67 149.433 396.574 143.507 399.679V400.672C147.889 398.286 152.844 397.15 157.83 397.389C162.552 397.561 167.134 399.033 171.07 401.643C175.322 404.604 178.284 409.072 179.352 414.138C180.71 420.066 180.042 426.203 179.612 432.176C179.089 438.627 179.251 445.116 180.094 451.533C181.097 457.917 182.699 464.192 184.881 470.275C186.989 476.338 189.245 482.437 189.965 488.855C190.15 490.52 190.232 492.196 190.209 493.872C185.662 495.126 181.272 496.894 177.126 499.141C169.055 503.47 161.899 509.316 156.049 516.357C154.861 517.765 153.756 519.247 152.672 520.729C151.745 520.67 150.795 520.596 149.86 520.47L149.919 521.307C150.661 521.396 151.403 521.455 152.145 521.507C151.477 522.478 150.824 523.442 150.193 524.427C150.193 524.872 150.245 525.339 150.283 525.783C150.936 524.746 151.606 523.723 152.294 522.715C152.553 522.33 152.85 521.974 153.132 521.567C158.162 521.757 163.19 521.147 168.027 519.758C173.615 518.158 179.263 515.616 183.612 511.71C187.823 507.817 190.421 502.489 190.892 496.777C190.981 496.036 191.041 495.295 191.056 494.554C192.347 494.242 193.646 493.961 194.952 493.739C203.998 492.256 214.396 494.035 219.16 502.758C223.331 510.435 221.862 520.277 218.544 527.955C214.596 537.144 207.783 544.748 203.011 553.471C201.529 556.273 200.287 559.196 199.301 562.208H199.894C203.338 551.907 210.566 543.636 215.999 534.41C220.533 526.658 223.606 517.565 221.928 508.531ZM187.367 505.648C184.465 510.999 179.204 514.459 173.756 516.838C167.431 519.618 160.567 520.959 153.659 520.766C162.565 508.642 175.486 498.578 190.18 494.746C190.078 498.546 189.116 502.272 187.367 505.648Z" fill="#EEEEC6"/>
<path d="M189.044 318.87C189.697 329.075 189.096 340.962 181.504 348.736C178.389 352.028 174.292 354.225 169.823 354.998C167.57 355.318 165.275 355.152 163.091 354.513C160.908 353.874 158.886 352.776 157.162 351.293C155.234 349.703 153.491 347.9 151.967 345.92C152.027 345.642 152.101 345.367 152.19 345.097C155.262 348.966 159.025 352.797 164.02 353.991C173.667 356.281 182.618 348.447 185.861 339.91C189.861 329.423 188.169 317.544 186.959 306.701C185.653 294.985 184.517 283.379 186.788 271.722C188.822 261.347 192.414 250.667 189.156 240.144C188.337 237.374 186.983 234.791 185.17 232.54C185.245 232.281 185.341 231.999 185.415 231.74C188.822 235.645 190.685 240.981 191.189 246.28C192.302 258.034 187.145 269.358 186.402 281C185.616 293.688 188.258 306.242 189.044 318.87Z" fill="#EEEEC6"/>
<path d="M156.761 547.92C169.563 547.653 165.89 547.549 178.692 547.423C184.963 547.364 226.136 547.008 231.992 547.979C232.021 547.986 232.047 548.003 232.065 548.026C232.084 548.05 232.094 548.079 232.094 548.109C232.094 548.139 232.084 548.168 232.065 548.191C232.047 548.215 232.021 548.232 231.992 548.239C226.136 549.202 184.963 548.846 178.692 548.787C165.89 548.661 169.563 548.557 156.761 548.29C156.712 548.29 156.665 548.271 156.63 548.236C156.595 548.201 156.576 548.154 156.576 548.105C156.576 548.056 156.595 548.009 156.63 547.974C156.665 547.939 156.712 547.92 156.761 547.92Z" fill="#B96271"/>
<path d="M205.987 368.583C208.733 356.481 212.845 344.623 216.414 332.743C223.687 308.604 231 284.478 238.352 260.368C242.018 248.313 245.704 236.261 249.41 224.21C251.28 218.133 253.162 212.056 255.057 205.979C256.928 200.051 259.05 194.122 260.735 188.149C261.418 185.711 261.796 187.052 260.913 190.15C259.147 196.39 257.403 202.645 255.577 208.87C251.97 221.221 248.336 233.551 244.675 245.858C237.412 270.388 230.082 294.896 222.685 319.382C218.995 331.669 215.284 343.951 211.553 356.229C209.689 362.062 208.177 368.001 207.026 374.015C206.038 380.321 205.789 386.72 206.284 393.083C207.086 405.889 208.577 418.681 209.757 431.464L213.32 469.875C215.68 495.361 216.949 503.565 219.257 529.059C219.554 532.29 219.836 535.521 220.081 538.752C220.162 539.834 218.529 539.753 218.411 538.715C215.65 513.518 214.633 505.507 212.266 480.273C209.906 455.16 207.551 430.044 205.201 404.926C204.607 398.619 203.932 392.327 203.932 385.969C203.962 380.115 204.651 374.283 205.987 368.583Z" fill="#B96271"/>
<path d="M212.949 169.117C217.877 207.224 227.279 278.673 234.137 330.513C250.167 267.705 275.934 169.117 275.934 169.117H212.949Z" fill="#B96271"/>
<path d="M189.267 622.437C193.349 623.763 312.929 622.681 317.337 619.828C319.03 618.776 315.452 505.559 315.452 505.559L239.361 506.055L242.033 581.81C242.033 581.81 197.661 602.123 193.148 605.777C188.636 609.431 185.185 621.125 189.267 622.437Z" fill="#FF9581"/>
<path d="M207.175 169.117C207.175 169.117 208.815 203.067 216.6 229.954C217.223 232.177 217.899 234.363 218.626 236.461C218.626 236.461 226.73 239.425 239.109 246.969C239.109 246.969 239.925 274.286 240.742 304.775C241.654 338.865 236.37 376.809 236.17 384.865C235.428 415.005 239.139 561.897 239.139 561.897L323 562.23C323 562.23 308.655 395.996 308.766 384.953C308.922 367.212 302.666 243.738 303.727 240.974C317.211 205.735 299.378 169.147 299.378 169.147L207.175 169.117Z" fill="#FD8496"/>
<path d="M304.276 268.639C301.678 271.41 299.329 274.403 297.255 277.584C293.107 283.942 290.161 291.998 283.103 295.793C281.05 296.858 278.814 297.527 276.513 297.764C276.216 295.422 275.956 293.073 275.822 290.731C275.429 283.179 276.305 275.798 277.054 268.305C277.708 261.636 277.871 254.825 275.34 248.54C273.27 243.353 269.492 238.906 264.074 237.12C261.732 236.357 259.269 236.03 256.809 236.157C257.373 234.162 257.826 232.139 258.167 230.095C258.844 226.187 258.781 222.188 257.982 218.304C257.047 214.597 255.68 211.013 253.907 207.625C250.345 200.303 246.59 192.958 248.245 184.547C249.38 178.878 252.304 173.801 255.711 169.117H255.05C254.382 170.029 253.751 170.941 253.135 171.867C248.779 178.596 245.944 186.318 247.755 194.366C249.566 202.415 254.716 209.04 256.898 216.888C258.701 223.38 257.751 229.887 255.963 236.231C252.389 236.527 248.883 237.379 245.573 238.758C241.824 240.27 238.257 242.196 234.938 244.501L235.68 244.931C240.418 241.609 245.725 239.183 251.339 237.772C252.776 237.417 254.241 237.187 255.718 237.083C255.139 239.077 254.464 241.063 253.796 243.012C251.005 251.097 248.096 259.116 248.059 267.779C248.022 275.427 249.996 283.253 254.805 289.315C256.921 291.943 259.544 294.119 262.518 295.714C265.492 297.309 268.757 298.291 272.119 298.601C273.354 298.698 274.595 298.698 275.83 298.601C275.845 298.85 275.877 299.098 275.926 299.342C276.933 306.185 278.692 312.895 281.173 319.352C283.652 325.77 286.65 331.995 288.676 338.561C290.65 344.994 291.585 351.901 289.515 358.422C287.786 363.906 284.045 368.553 279.533 372.051C274.974 375.544 269.745 378.067 264.171 379.462C258.494 380.944 252.237 381.3 246.612 379.351C242.796 378.01 239.516 375.472 237.261 372.118C237.244 372.547 237.202 372.975 237.135 373.4C237.506 373.882 237.877 374.348 238.308 374.815C246.523 383.886 260.727 382.345 270.962 377.935C281.463 373.4 290.457 364.64 291.422 352.738C291.964 345.89 289.938 339.124 287.511 332.803C284.943 326.066 281.819 319.559 279.711 312.66C278.325 308.052 277.298 303.345 276.639 298.579C278.449 298.394 280.224 297.949 281.908 297.26C285.155 295.835 287.97 293.584 290.072 290.731C292.491 287.626 294.302 284.113 296.276 280.726C298.447 276.988 300.985 273.476 303.853 270.24C304.001 270.069 304.15 269.899 304.313 269.736C304.298 269.387 304.298 269.009 304.276 268.639ZM263.362 295.229C256.609 291.813 252.193 285.469 250.197 278.273C248.074 270.573 248.675 262.391 250.775 254.751C252.43 248.778 254.835 242.997 256.571 237.031C261.225 236.824 265.863 237.898 269.47 241.159C273.796 245.08 275.934 250.993 276.513 256.663C277.255 264.074 275.771 271.396 275.192 278.718C274.719 285.098 274.9 291.51 275.733 297.853C271.448 298.113 267.172 297.206 263.362 295.229Z" fill="#EEEEC6"/>
<path d="M319.082 516.764C311.282 522.641 302.012 526.495 291.986 525.969C290.088 525.872 288.204 525.592 286.361 525.131C287.634 524.474 288.861 523.731 290.034 522.908C296.773 518.15 301.723 510.769 302.324 502.439C303.066 491.982 297.612 482.429 293.493 473.262C291.518 468.811 289.888 464.215 288.617 459.515C288.335 458.529 288.075 457.544 287.8 456.55C288.987 453.306 289.627 449.888 289.693 446.435C289.997 434.332 284.335 420.852 290.48 409.432C293.493 403.799 298.895 399.501 304.484 396.581C306.016 395.78 307.603 395.089 309.233 394.514V393.943C304.751 395.483 300.581 397.812 296.921 400.82C291.875 404.97 288.283 410.343 287.274 416.872C286.309 423.209 287.407 429.641 288.172 435.948C288.936 442.255 289.455 448.91 287.429 455.12C286.628 452.2 285.812 449.266 284.787 446.42C281.863 438.349 276.965 430.946 268.542 427.937C264.375 426.513 259.924 426.121 255.572 426.793C251.22 427.466 247.096 429.183 243.554 431.798C240.785 433.905 238.413 436.487 236.549 439.424V440.647C237.468 439.135 238.516 437.704 239.68 436.37C242.599 433.049 246.294 430.5 250.437 428.948C254.58 427.397 259.043 426.891 263.429 427.477C267.759 428.04 271.834 429.842 275.162 432.665C278.374 435.533 280.908 439.076 282.583 443.04C284.388 447.367 285.852 451.827 286.962 456.38C285.084 461.456 281.901 465.955 278.635 470.253C271.956 478.991 264.223 488.084 264.727 499.764C265.21 511.125 272.587 521.559 283.407 525.279C283.645 525.354 283.875 525.405 284.097 525.48C279.873 527.376 275.261 528.252 270.635 528.036C261.937 527.555 253.759 523.367 247.629 517.305C243.196 512.863 239.822 507.48 237.758 501.557V503.543C239.261 507.439 241.359 511.079 243.977 514.334C249.417 521.063 257.017 526.25 265.544 528.073C272.134 529.453 278.996 528.636 285.077 525.746C296.884 529.074 309.567 525.005 319.141 517.846C319.139 517.485 319.119 517.124 319.082 516.764ZM275.088 519.447C270.947 515.758 267.987 510.933 266.575 505.574C265.135 500.232 265.411 494.573 267.362 489.396C269.299 484.208 272.557 479.613 275.949 475.226C279.207 470.965 282.628 466.778 285.292 462.094C286.087 460.693 286.783 459.24 287.377 457.744C288.29 461.093 289.203 464.413 290.398 467.689C293.767 476.842 299.304 485.283 301.122 494.954C302.057 499.419 301.819 504.051 300.432 508.397C299.031 512.423 296.705 516.065 293.641 519.032C291.227 521.417 288.443 523.397 285.396 524.894C281.595 523.872 278.072 522.01 275.088 519.447Z" fill="#EEEEC6"/>
<path d="M242.003 546.979C254.812 546.764 251.131 546.645 263.941 546.578C270.204 546.578 311.386 546.356 317.241 547.32C317.367 547.32 317.367 547.557 317.241 547.579C311.386 548.52 270.204 547.987 263.941 547.898C251.131 547.72 254.812 547.631 242.011 547.312C241.988 547.303 241.968 547.289 241.951 547.271C241.934 547.253 241.921 547.232 241.913 547.209C241.904 547.186 241.901 547.162 241.902 547.137C241.904 547.113 241.91 547.089 241.922 547.068C241.938 547.03 241.967 546.998 242.003 546.979Z" fill="#B96271"/>
<path d="M215.145 234.437C223.487 237.75 231.472 242.271 239.109 246.969C239.164 247.008 239.203 247.066 239.219 247.131C239.235 247.197 239.227 247.266 239.196 247.326C239.166 247.386 239.115 247.433 239.052 247.459C238.99 247.484 238.921 247.487 238.857 247.466C230.767 243.538 222.53 239.766 214.648 235.401C214.585 235.368 214.528 235.323 214.482 235.269C214.436 235.215 214.402 235.152 214.38 235.084C214.358 235.016 214.35 234.945 214.356 234.874C214.362 234.803 214.382 234.734 214.414 234.671C214.447 234.608 214.492 234.551 214.546 234.505C214.601 234.459 214.664 234.425 214.731 234.403C214.799 234.381 214.871 234.373 214.942 234.379C215.013 234.385 215.082 234.405 215.145 234.437Z" fill="#B96271"/>
<path d="M227.762 223.054C227.502 219.223 227.213 215.399 226.871 211.575C226.129 202.852 225.194 194.1 223.665 185.481C223.546 184.806 222.596 185.058 222.648 185.703C223.242 192.477 224.014 199.243 224.652 206.016C225.29 212.79 226.136 219.519 226.218 226.256C226.255 228.294 226.114 231.74 223.621 232.296C220.266 233.037 218.678 228.649 217.876 226.248C215.952 220.228 214.545 214.054 213.668 207.795C212.563 200.688 211.976 193.485 211.294 186.303C211.294 186.051 210.841 186.088 210.841 186.348C210.789 200.555 210.997 215.406 216.311 228.82C217.349 231.429 219.16 234.082 222.196 234.437H222.344C222.315 234.518 222.3 234.603 222.3 234.689C222.359 235.09 222.47 235.475 222.537 235.875C222.604 236.275 222.656 236.542 222.737 236.868C222.878 237.557 222.982 238.254 223.153 238.943C223.188 239.062 223.264 239.165 223.367 239.233C223.471 239.302 223.595 239.332 223.719 239.318C223.842 239.303 223.956 239.246 224.042 239.156C224.127 239.066 224.177 238.948 224.185 238.825C224.272 238.794 224.347 238.737 224.401 238.661C224.454 238.585 224.482 238.495 224.481 238.402C224.422 237.019 224.11 235.657 223.561 234.386C224.382 234.216 225.148 233.844 225.79 233.305C226.431 232.765 226.928 232.075 227.235 231.295C228.333 228.738 227.94 225.774 227.762 223.054Z" fill="#B96271"/>
<path d="M295.185 240.944C295.882 235.067 297.478 229.242 298.851 223.484C301.946 210.485 299.86 192.795 296.513 180.093C296.432 179.76 296.981 179.634 297.085 179.967C300.424 190.787 302.858 206.424 301.537 217.763C300.921 223.158 296.565 239.573 296.706 245.443C296.973 256.996 296.053 355.547 296.832 395.781C297.344 422.179 302.821 510.717 303.66 537.115C303.66 537.359 303.259 537.344 303.244 537.115C300.179 490.055 296.194 441.973 295.556 395.862C294.962 351.056 294.435 247.347 295.185 240.944Z" fill="#B96271"/>
<path d="M253.811 182.983C254.182 187.03 254.33 191.091 254.931 195.122C255.458 198.695 256.623 202.244 259.466 204.935C262.161 207.417 265.391 209.25 268.906 210.293C273.514 211.671 287.519 211.701 292.291 211.034C293.493 210.863 293.374 211.775 291.111 212.279C288.58 212.835 278.257 213.405 275.652 213.405C273.129 213.512 270.602 213.335 268.119 212.879C263.926 211.945 260.067 210.211 257.18 207.187C254.293 204.164 253.002 200.147 252.683 196.19C252.413 191.782 252.582 187.358 253.187 182.983C253.203 182.912 253.242 182.849 253.299 182.803C253.356 182.758 253.426 182.733 253.499 182.733C253.572 182.733 253.642 182.758 253.699 182.803C253.756 182.849 253.795 182.912 253.811 182.983Z" fill="#B96271"/>
<path d="M217.372 1.9639C234.871 11.0868 235.027 30.2514 243.421 38.7295C248.549 43.9172 262.174 47.4893 266.204 53.8997C272.824 64.4306 264.06 70.7818 267.689 76.5031C272.817 84.6032 284.476 81.1868 289.953 95.1193C295.43 109.052 283.095 128.053 246.352 140.926C209.609 153.799 185.69 144.81 181.504 132.885C177.319 120.961 188.926 113.995 187.649 104.657C186.84 98.7284 178.157 96.4162 175.27 85.7667C172.383 75.1172 182.061 69.1885 181.452 59.7173C180.844 50.2461 170.855 29.1917 181.66 14.7626C192.466 0.333501 208.741 -2.55677 217.372 1.9639Z" fill="#071843"/>
<path d="M215.754 2.66052C220.508 4.61033 224.721 7.67618 228.036 11.5981C231.494 15.7593 234.455 20.3081 236.86 25.1527C238.345 27.9763 239.755 30.9036 241.84 33.3047C243.69 35.3679 245.894 37.0846 248.348 38.3738C253.284 41.1158 258.798 42.8204 263.421 46.0812C267.8 49.2012 271.718 53.8256 271.585 59.4875C271.511 62.5705 270.101 65.3792 269.574 68.3807C269.039 71.2042 269.329 74.5095 272.03 76.1325C274.338 77.5183 277.27 77.7258 279.756 78.7263C282.206 79.7061 284.482 81.0751 286.494 82.7801C288.524 84.4599 290.179 86.5444 291.355 88.9003C292.531 91.2561 293.201 93.8313 293.322 96.4607C293.819 108.681 284.357 117.893 275.169 124.437C273.885 125.348 272.594 126.245 271.303 127.142C271.102 127.283 270.843 127.009 271.043 126.853C280.186 119.938 290.776 111.853 292.053 99.5658C292.368 96.8748 292.058 94.1475 291.145 91.596C290.232 89.0445 288.742 86.7377 286.791 84.8552C284.85 82.9848 282.587 81.4786 280.112 80.4086C277.707 79.3711 275.125 78.9931 272.691 78.0371C271.502 77.6228 270.446 76.8997 269.631 75.9423C268.816 74.9848 268.271 73.8277 268.052 72.5901C267.54 69.811 268.327 67.0986 269.121 64.438C269.96 61.6367 270.605 58.865 269.7 55.9896C268.757 53.327 267.111 50.9686 264.935 49.1641C260.72 45.4068 255.339 43.554 250.337 41.1232C245.335 38.6925 241.001 35.528 238.226 30.5701C236.816 28.0652 235.695 25.4195 234.389 22.8627C233.194 20.4829 231.866 18.172 230.411 15.9409C227.524 11.4943 223.917 7.44798 219.398 4.66147C218.224 3.92857 216.981 3.31296 215.687 2.82356C215.531 2.83838 215.613 2.60864 215.754 2.66052Z" fill="#071843"/>
<path d="M177.727 124.281C177.725 122.18 178.181 120.104 179.063 118.197C179.99 116.24 181.252 114.492 182.35 112.602C183.449 110.712 184.317 108.896 184.25 106.806C184.176 104.287 182.632 102.212 181.022 100.403C179.253 98.596 177.616 96.6642 176.124 94.6228C174.048 91.4734 172.74 87.8827 172.303 84.138C171.866 80.3933 172.313 76.5984 173.608 73.057C174.402 70.6558 175.389 68.3214 176.205 65.9277C177.117 63.3184 177.676 60.5993 177.868 57.8423C178.254 51.7802 177.229 45.7106 177.289 39.6411C177.376 33.408 178.1 27.2001 179.448 21.1137C179.448 20.9655 179.708 21.0396 179.679 21.1879C178.508 26.6669 177.911 32.2527 177.897 37.855C177.897 43.1761 178.64 48.4156 178.892 53.7144C179.076 56.3066 179.004 58.9105 178.677 61.4885C178.286 63.8897 177.68 66.251 176.866 68.5437C175.278 73.2793 173.593 77.9852 174.031 83.0691C174.447 88.0691 176.442 92.8079 179.73 96.6015C182.58 99.8845 186.313 103.368 185.601 108.155C184.992 112.202 181.964 115.247 180.324 118.864C179.476 120.844 179.056 122.98 179.092 125.133C179.128 127.287 179.619 129.408 180.532 131.359C184.985 141.43 196.8 144.217 206.826 142.475C206.887 142.47 206.948 142.487 206.998 142.524C207.047 142.561 207.081 142.614 207.094 142.674C207.107 142.734 207.097 142.797 207.067 142.85C207.037 142.904 206.988 142.944 206.93 142.964C198.291 144.847 188.05 143.238 182.142 136.117C179.339 132.803 177.778 128.619 177.727 124.281Z" fill="#071843"/>
<path d="M200.481 85.1368C188.963 105.517 174.625 136.369 165.912 145.758C154.995 157.519 127.647 195.152 124.285 201.911C120.219 210.063 165.845 227.012 167.767 221.061C169.111 216.881 185.341 191.684 199.612 161.884C206.967 146.544 213.713 111.586 216.733 91.4805C219.754 71.3747 206.292 74.843 200.481 85.1368Z" fill="#FF9581"/>
<path d="M133.139 188.319C115.447 210.33 114.274 232.533 114.645 237.231C114.859 240.523 115.611 243.757 116.872 246.806C117.562 254.002 121.028 256.537 121.028 256.537C121.028 256.537 119.373 265.089 124.382 266.949C130 269.046 131.225 256.626 136.086 250.2C147.218 235.49 167.166 217.681 170.803 213.761L133.139 188.319Z" fill="#FF9581"/>
<path d="M136.917 226.604C133.726 230.999 130.475 235.238 127.9 240.04C125.072 245.309 123.232 250.86 121.221 256.455C121.212 256.473 121.2 256.489 121.185 256.502C121.17 256.514 121.153 256.524 121.134 256.53C121.116 256.537 121.096 256.539 121.076 256.538C121.057 256.536 121.038 256.531 121.02 256.522C120.994 256.51 120.972 256.49 120.957 256.465C120.942 256.439 120.936 256.41 120.939 256.381C123.285 245.126 128.676 234.727 136.523 226.315C136.731 226.122 137.05 226.389 136.917 226.604Z" fill="#2F351A"/>
<path d="M128.998 218.608C126.134 223.054 121.146 230.902 117.057 246.866C117.057 246.917 116.953 246.91 116.961 246.866C118.099 236.475 122.11 226.606 128.546 218.363C128.746 218.067 129.191 218.311 128.998 218.608Z" fill="#2F351A"/>
<path d="M150.639 233.333C152.865 231.992 153.607 233.14 151.96 237.439C150.312 241.737 140.316 257.404 146.082 260.413C151.849 263.422 165.682 241.144 167.819 233.785C169.957 226.426 170.788 213.776 170.788 213.776C167.255 217.578 157.726 225.967 150.639 233.333Z" fill="#FF9581"/>
<path d="M210.685 142.231L174.899 124.896C174.899 124.896 189 98.5135 200.288 84.3216C211.576 70.1297 222.166 70.3964 219.108 96.7053C217.38 112.06 214.566 127.273 210.685 142.231Z" fill="#6C72FC"/>
<path d="M180.176 118.642C185.123 120.865 190.024 123.209 194.877 125.675C197.26 126.897 199.664 128.076 202.032 129.343C204.399 130.61 206.818 132.115 209.268 133.419C209.438 133.508 209.319 133.782 209.141 133.701C206.737 132.53 204.258 131.522 201.839 130.366C199.419 129.21 196.911 127.883 194.454 126.66C189.601 124.19 184.809 121.601 180.079 118.894C179.946 118.79 180.027 118.575 180.176 118.642Z" fill="#B3B29D"/>
<path d="M219.138 96.7052C217.396 112.058 214.572 127.268 210.685 142.223L182.246 128.446L213.416 74.9616C218.166 75.1469 220.912 81.6759 219.138 96.7052Z" fill="#6C72FC"/>
<path d="M203.16 151.087L204.881 169.117L300.061 170.237C300.061 170.237 270.538 86.9302 235.346 73.1088C217.743 66.1796 209.037 72.0046 204.644 84.9219C203.538 88.1901 188.183 121.028 191.805 135.501C195.033 148.219 203.16 151.087 203.16 151.087Z" fill="#6C72FC"/>
<path d="M215.717 143.972C220.259 143.859 224.803 144.107 229.305 144.713C231.532 145.047 233.758 145.454 235.985 145.988C237.09 146.233 238.211 146.44 239.302 146.64C240.457 146.886 241.64 146.979 242.82 146.914C242.843 146.914 242.866 146.924 242.883 146.94C242.899 146.957 242.909 146.98 242.909 147.003C242.909 147.027 242.899 147.049 242.883 147.066C242.866 147.083 242.843 147.092 242.82 147.092C241.728 147.281 240.624 147.392 239.517 147.426C238.436 147.42 237.357 147.336 236.289 147.174C234.018 146.855 231.754 146.433 229.483 146.092C224.897 145.403 220.318 144.721 215.702 144.387C215.472 144.358 215.472 143.972 215.717 143.972Z" fill="#B3B29D"/>
<path d="M205.149 149.597C208.785 148.731 212.47 148.085 216.184 147.663C218.047 147.463 219.895 147.381 221.78 147.344H224.459C225.35 147.344 226.433 147.515 227.428 147.515C227.441 147.511 227.455 147.51 227.469 147.512C227.482 147.515 227.495 147.52 227.506 147.529C227.517 147.537 227.526 147.548 227.533 147.56C227.539 147.572 227.542 147.586 227.542 147.6C227.542 147.614 227.539 147.627 227.533 147.64C227.526 147.652 227.517 147.663 227.506 147.671C227.495 147.679 227.482 147.685 227.469 147.687C227.455 147.69 227.441 147.689 227.428 147.685C226.507 147.685 225.58 147.915 224.66 148.004L221.877 148.263C220.021 148.441 218.166 148.641 216.31 148.797C212.6 149.115 208.889 149.471 205.178 149.931C204.985 149.953 204.963 149.642 205.149 149.597Z" fill="#B3B29D"/>
<path d="M227.227 77.4591C227.227 79.3933 221.29 93.3778 212.837 94.9859C210.069 95.5047 206.566 80.5642 206.566 80.5642L206.054 79.5267L198.907 64.9124L214.285 48.9492L216.511 46.7778C216.511 46.7778 218.203 50.9057 220.222 56.0711C220.318 56.3083 220.415 56.5454 220.511 56.8122C220.608 57.079 220.756 57.368 220.86 57.6422C221.179 58.3833 221.498 59.1985 221.802 59.9841C222.032 60.5844 222.263 61.1624 222.485 61.7998C222.708 62.4371 222.938 63.0596 223.175 63.6895C225.461 69.9814 227.213 76.6439 227.227 77.4591Z" fill="#FF9581"/>
<path d="M220.288 56.0637C219.763 60.7701 218.219 65.3061 215.764 69.3574C213.308 73.4088 210 76.8787 206.069 79.5267L198.922 64.9124L214.299 48.9492L216.526 46.7778C216.526 46.7778 218.232 50.876 220.288 56.0637Z" fill="#1D1A33"/>
<path d="M171.189 49.0159C178.439 76.6291 195.82 75.4062 201.779 73.8425C207.19 72.4196 225.431 66.8837 221.075 38.6702C216.719 10.4568 201.572 5.09873 189.03 7.69997C176.487 10.3012 163.923 21.4028 171.189 49.0159Z" fill="#FF9581"/>
<path d="M176.049 44.7769C176.627 44.4509 177.187 44.0946 177.727 43.7097C178.365 43.2947 178.922 43.0279 179.211 42.2942C179.275 42.0772 179.266 41.8454 179.185 41.6341C179.105 41.4227 178.958 41.2433 178.766 41.1233C178.35 40.9454 177.894 40.8819 177.445 40.9392C176.996 40.9965 176.571 41.1727 176.213 41.4493C175.398 41.8957 174.781 42.6309 174.484 43.5096C174.443 43.6473 174.429 43.7917 174.445 43.9345C174.46 44.0774 174.503 44.2158 174.572 44.3419C174.641 44.4679 174.734 44.5791 174.846 44.669C174.959 44.7589 175.088 44.8258 175.226 44.8658C175.362 44.9061 175.505 44.9189 175.646 44.9037C175.788 44.8884 175.925 44.8453 176.049 44.7769Z" fill="#071843"/>
<path d="M194.031 39.7596C193.382 39.8982 192.726 39.9996 192.065 40.0635C191.386 40.2694 190.657 40.2434 189.994 39.9894C189.8 39.8719 189.651 39.6924 189.572 39.4799C189.492 39.2674 189.487 39.0344 189.556 38.8185C189.753 38.411 190.054 38.0632 190.43 37.8105C190.806 37.5579 191.242 37.4095 191.694 37.3807C192.599 37.1853 193.545 37.3304 194.351 37.7883C194.529 37.903 194.67 38.0673 194.757 38.2609C194.843 38.4545 194.871 38.669 194.837 38.8783C194.803 39.0875 194.709 39.2824 194.566 39.4389C194.423 39.5955 194.237 39.7069 194.031 39.7596Z" fill="#071843"/>
<path d="M191.664 46.2442C191.664 46.1701 191.842 46.2813 191.864 46.3554C192.458 48.2304 193.445 50.2758 195.338 50.298C195.347 50.2947 195.356 50.2936 195.366 50.2948C195.375 50.296 195.384 50.2995 195.392 50.3049C195.4 50.3104 195.406 50.3177 195.411 50.3261C195.415 50.3346 195.418 50.344 195.418 50.3536C195.418 50.3632 195.415 50.3726 195.411 50.381C195.406 50.3895 195.4 50.3968 195.392 50.4023C195.384 50.4077 195.375 50.4112 195.366 50.4124C195.356 50.4136 195.347 50.4125 195.338 50.4092C193.215 50.8761 191.924 48.1118 191.664 46.2442Z" fill="#071843"/>
<path d="M192.644 43.7319C195.545 42.4646 197.839 48.3563 195.182 49.5272C192.525 50.6982 190.209 44.7991 192.644 43.7319Z" fill="#071843"/>
<path d="M193.92 43.5911C194.566 43.7171 195.308 44.1099 195.954 43.9246C196.599 43.7393 196.993 42.8797 197.23 42.1089C197.23 42.0274 197.327 42.057 197.356 42.1089C197.824 43.2354 197.846 44.5619 196.703 45.2067C195.56 45.8514 194.477 45.1103 193.735 44.0876C193.601 43.9172 193.66 43.5392 193.92 43.5911Z" fill="#071843"/>
<path d="M181.579 49.8904C181.534 49.8237 181.475 50.0312 181.504 50.1053C182.299 51.8988 182.9 54.0924 181.504 55.3597C181.46 55.3597 181.504 55.4856 181.564 55.4486C183.471 54.3592 182.64 51.4615 181.579 49.8904Z" fill="#071843"/>
<path d="M179.211 48.6528C176.191 49.6088 178.328 55.5672 181.126 54.6779C183.924 53.7886 181.734 47.845 179.211 48.6528Z" fill="#071843"/>
<path d="M178.105 49.4828C177.749 49.9719 177.489 50.7056 176.94 50.965C176.391 51.2244 175.589 50.7649 174.951 50.298C174.884 50.2535 174.855 50.298 174.877 50.3943C175.255 51.543 176.057 52.6176 177.237 52.4249C178.417 52.2322 178.721 51.0243 178.551 49.7941C178.528 49.5495 178.246 49.2901 178.105 49.4828Z" fill="#071843"/>
<path d="M199.256 60.036C199.071 60.6659 198.974 61.444 198.38 61.8442C197.734 62.1865 197.024 62.3909 196.295 62.4445C196.279 62.451 196.266 62.4626 196.258 62.4774C196.25 62.4923 196.247 62.5094 196.25 62.526C196.254 62.5365 196.259 62.5461 196.267 62.5538C196.275 62.5616 196.284 62.5673 196.295 62.5705C196.727 62.7731 197.206 62.854 197.681 62.8044C198.156 62.7547 198.608 62.5765 198.989 62.2889C199.287 62.002 199.493 61.6341 199.583 61.2308C199.673 60.8276 199.642 60.4069 199.494 60.0211C199.481 60 199.463 59.9827 199.441 59.9712C199.419 59.9597 199.395 59.9544 199.37 59.9559C199.346 59.9575 199.322 59.9658 199.302 59.9799C199.282 59.994 199.266 60.0134 199.256 60.036Z" fill="#071843"/>
<path d="M187.827 57.3532C187.827 57.3532 188.755 60.1768 189.356 61.4218C190.665 61.1353 191.872 60.5025 192.851 59.5897C193.83 58.677 194.546 57.518 194.922 56.2341C194.967 56.0785 194.729 56.0192 194.655 56.1526C193.591 58.0135 191.953 59.4819 189.987 60.3398C189.727 60.036 188.569 55.456 188.362 55.5375C187.432 56.091 186.583 56.7693 185.838 57.5533C183.746 51.7283 182.603 45.6143 180.436 39.8486C180.43 39.8247 180.42 39.8021 180.406 39.782C180.392 39.762 180.374 39.7449 180.354 39.7318C180.333 39.7188 180.31 39.7099 180.286 39.7058C180.262 39.7016 180.237 39.7023 180.213 39.7078C180.189 39.7122 180.167 39.7213 180.147 39.7346C180.127 39.7479 180.11 39.7651 180.097 39.7852C180.083 39.8053 180.074 39.8278 180.07 39.8514C180.066 39.8751 180.067 39.8993 180.072 39.9227C180.814 46.4147 183.041 53.1734 185.074 59.243C185.289 59.9915 187.434 57.8053 187.827 57.3532Z" fill="#071843"/>
<path d="M191.004 60.4658C192.116 60.9933 193.345 61.228 194.573 61.1476C195.242 61.081 195.873 60.8062 196.377 60.362C197.468 59.3912 196.911 58.2129 196.176 57.3384C195.778 56.8775 195.327 56.4647 194.833 56.1082C194.054 57.9308 192.712 59.4574 191.004 60.4658Z" fill="#071843"/>
<path d="M194.573 61.1476C195.242 61.081 195.873 60.8062 196.377 60.362C197.468 59.3912 196.911 58.2129 196.176 57.3384C194.892 58.1684 194.017 59.7692 194.573 61.1476Z" fill="#FF98BB"/>
<path d="M221.298 39.7597C216.511 42.5536 210.27 31.5261 210.27 31.5261C210.27 31.5261 187.145 37.025 177.868 20.2689C177.868 20.2689 178.944 33.0231 169.808 42.8871C169.808 42.8871 162.387 23.3444 176.027 13.1099C176.027 13.1099 192.028 -1.8305 209.082 8.66338C226.136 19.1573 224.511 37.855 221.298 39.7597Z" fill="#071843"/>
<path d="M177.207 19.009C178.109 21.8235 179.601 24.4134 181.586 26.6052C183.553 28.8598 185.969 30.6797 188.681 31.9485C189.352 32.272 190.044 32.5517 190.751 32.786L191.805 33.1713C192.161 33.2751 192.547 33.3566 192.889 33.4381C193.631 33.5938 194.373 33.7864 195.071 33.9124C195.809 34.0178 196.552 34.0846 197.297 34.1125C197.668 34.1125 198.039 34.1866 198.403 34.194L199.516 34.157L201.742 34.0755C203.227 33.8902 204.644 33.6234 206.069 33.3344C204.585 33.3344 203.16 33.4604 201.713 33.4307L199.56 33.3195L198.484 33.2677C198.128 33.2306 197.742 33.1565 197.423 33.1046C196.681 32.9786 196.02 32.8675 195.315 32.7711C194.618 32.6309 193.929 32.4503 193.252 32.2301L192.228 31.9559L191.226 31.6076C190.557 31.3761 189.903 31.1039 189.267 30.7924C186.688 29.5715 184.338 27.917 182.321 25.9012C180.274 23.8776 178.55 21.5533 177.207 19.009Z" fill="#071843"/>
<path d="M217.201 41.9829C217.201 41.9829 220.081 31.4965 224.623 32.2301C229.164 32.9638 229.075 46.6963 225.239 49.9571C224.781 50.398 224.242 50.7447 223.651 50.9774C223.059 51.21 222.428 51.3241 221.793 51.3131C221.157 51.3021 220.53 51.1662 219.947 50.9132C219.365 50.6602 218.837 50.295 218.396 49.8385L218.262 49.6903L217.201 41.9829Z" fill="#FF9581"/>
<path d="M224.541 36.1283C224.558 36.1237 224.575 36.1257 224.591 36.134C224.606 36.1423 224.617 36.1562 224.623 36.1728C224.628 36.1831 224.63 36.1945 224.63 36.2061C224.63 36.2177 224.628 36.2291 224.623 36.2395C221.943 38.6258 221.327 42.1237 221.246 45.5476C221.765 44.0654 222.812 42.9686 224.764 43.5244C224.867 43.5244 224.83 43.7097 224.764 43.7245C224.15 43.7449 223.558 43.9547 223.069 44.325C222.58 44.6953 222.218 45.2079 222.032 45.7921C221.73 46.7738 221.533 47.785 221.446 48.8084C221.402 49.1419 220.845 49.1715 220.83 48.8084V48.7269C219.279 44.762 220.392 38.0626 224.541 36.1283Z" fill="#071843"/>
<path d="M231.369 94.7562C234.946 104.494 269.833 172.067 271.867 175.98C271.867 175.98 306.911 199.48 311.942 175.239C315.215 159.491 265.611 98.8025 243.406 81.5351C233.209 73.6128 223.88 74.3094 231.369 94.7562Z" fill="#FF9581"/>
<path d="M282.361 119.242L246.886 137.11C246.886 137.11 234.426 109.897 229.973 92.3773C225.52 74.8578 232.162 66.5576 251.25 84.9663C262.419 95.6425 272.815 107.096 282.361 119.242Z" fill="#6C72FC"/>
<path d="M245.076 129.143C249.85 126.554 254.689 124.084 259.592 121.732C262.011 120.576 264.408 119.383 266.85 118.271C269.292 117.159 271.971 116.152 274.487 115.003C274.665 114.921 274.813 115.181 274.635 115.27C272.245 116.47 269.937 117.834 267.555 119.042C265.173 120.25 262.583 121.45 260.097 122.644C255.184 125 250.216 127.223 245.195 129.313C245.046 129.432 244.927 129.217 245.076 129.143Z" fill="#B3B29D"/>
<path d="M248.319 136.376C247.814 136.569 247.295 136.761 246.835 136.969L247.042 137.043C246.234 134.56 245.284 132.137 244.378 129.691C243.473 127.246 242.426 124.867 241.41 122.473C240.393 120.079 239.317 117.708 238.166 115.366C237.016 113.024 235.888 110.682 234.604 108.392C235.346 110.897 236.267 113.343 237.194 115.803C238.122 118.264 239.102 120.657 240.111 123.059C241.12 125.46 242.189 127.831 243.287 130.195C244.386 132.559 245.514 134.901 246.775 137.199L246.857 137.354L246.99 137.273C247.406 136.969 247.859 136.672 248.319 136.376Z" fill="#B3B29D"/>
<path d="M233.647 113.024C234.938 115.363 236.77 117.36 238.99 118.849C237.706 116.505 235.872 114.507 233.647 113.024Z" fill="#B3B29D"/>
<path d="M280.141 120.198C280.683 119.716 281.307 119.331 281.848 118.857C280.156 116.982 278.59 114.958 276.987 113.002C275.384 111.045 273.551 108.889 271.792 106.858C268.319 102.834 264.653 98.9952 261.113 95.0007C259.124 92.7775 257.091 90.5542 255.035 88.3902C254.939 88.279 255.117 88.116 255.228 88.2123C257.375 90.1095 259.471 92.0561 261.514 94.0521L261.128 93.4444C260.49 92.4366 259.814 91.4287 259.124 90.4801C259.08 90.4208 259.169 90.3615 259.221 90.4134C260.063 91.3224 260.809 92.3158 261.447 93.3777C261.714 93.8224 261.952 94.2819 262.189 94.7414C263.673 96.2235 265.158 97.7477 266.642 99.3139C270.264 103.207 273.744 107.224 277.084 111.364C279.06 113.694 280.904 116.134 282.605 118.671C282.658 118.747 282.679 118.841 282.664 118.932C282.649 119.024 282.598 119.106 282.524 119.16C282.501 119.177 282.476 119.19 282.45 119.197C281.707 119.509 280.965 120.013 280.223 120.354C280.127 120.413 280.067 120.265 280.141 120.198Z" fill="#B3B29D"/>
<path d="M286.962 238.543C279.258 254.566 268.742 270.692 252.4 279.533C250.605 280.565 248.513 280.961 246.463 280.659C239.205 284.758 235.094 282.564 235.094 282.564C227.168 284.313 223.272 281.497 223.272 281.497C223.272 281.497 214.7 286.21 210.989 281.497C206.811 276.235 219.665 270.647 224.845 263.259C236.719 246.325 248.868 218.941 251.807 213.724L286.962 238.543Z" fill="#FF9581"/>
<path d="M249.788 254.269C246.196 259.175 242.79 264.096 238.545 268.498C233.892 273.33 228.6 277.198 223.316 281.267C223.3 281.282 223.288 281.299 223.279 281.319C223.27 281.339 223.266 281.36 223.266 281.382C223.266 281.404 223.27 281.425 223.279 281.445C223.288 281.465 223.3 281.482 223.316 281.497C223.338 281.522 223.367 281.539 223.399 281.546C223.431 281.553 223.465 281.548 223.494 281.534C234.233 275.679 244.222 265.163 250.011 254.425C250.152 254.165 249.966 254.017 249.788 254.269Z" fill="#2F351A"/>
<path d="M261.061 259.938C257.299 264.526 250.634 272.537 234.998 282.401C234.946 282.401 234.998 282.527 235.042 282.497C246.048 277.45 254.471 269.995 261.284 260.116C261.492 259.812 261.314 259.635 261.061 259.938Z" fill="#2F351A"/>
<path d="M267.065 263.103C260.386 270.655 255.191 274.575 246.478 280.608C246.426 280.608 246.478 280.734 246.53 280.704C257.15 274.886 260.349 271.574 267.355 263.296C267.6 263.007 267.325 262.829 267.065 263.103Z" fill="#2F351A"/>
<path d="M237.87 241.967C238.545 239.151 237.068 238.78 233.031 241.967C228.994 245.154 215.717 261.258 210.522 256.159C205.327 251.06 224.34 228.642 231.472 223.825C238.604 219.008 251.837 213.731 251.837 213.731C248.979 218.845 243.295 231.881 237.87 241.967Z" fill="#FF9581"/>
<path d="M249.113 214.695C247.695 220.572 273.603 257.093 279.266 250.267C305.983 218.059 312.662 181.509 312.091 173.26C311.348 162.44 278.739 164.619 274.442 170.296C268.839 177.603 250.516 208.877 249.113 214.695Z" fill="#FF9581"/>
<path d="M138.275 298.957C138.393 305.738 138.534 312.556 138.379 319.344C138.275 323.495 137.911 327.571 137.421 331.647C135.861 333.057 134.14 334.278 132.293 335.285C132.427 334.248 132.553 333.218 132.679 332.202C133.28 327.326 133.421 322.472 133.57 317.566C133.57 317.55 133.567 317.535 133.561 317.52C133.555 317.506 133.546 317.493 133.535 317.482C133.524 317.471 133.511 317.462 133.496 317.456C133.482 317.45 133.466 317.447 133.451 317.447C133.435 317.447 133.42 317.45 133.405 317.456C133.391 317.462 133.378 317.471 133.367 317.482C133.356 317.493 133.347 317.506 133.341 317.52C133.335 317.535 133.332 317.55 133.332 317.566C133.028 322.598 132.352 327.66 131.625 332.654C131.462 333.736 131.269 334.826 131.069 335.908C129.325 336.782 127.519 337.525 125.666 338.131C125.874 336.938 126.052 335.745 126.237 334.581C126.668 331.824 127.046 329.068 127.343 326.289C127.914 320.833 128.182 315.351 128.145 309.866C128.145 309.636 127.833 309.681 127.818 309.866C127.506 315.503 127.012 321.133 126.334 326.755C126 329.409 125.636 332.062 125.206 334.7C124.998 335.967 124.746 337.227 124.464 338.502C121.067 339.503 117.591 340.212 114.074 340.621C104.033 341.881 93.6352 339.643 84.1582 336.301C75.833 333.461 68.3192 328.653 62.2577 322.287C65.2899 318.426 67.7517 314.151 69.5678 309.592C69.578 309.562 69.5768 309.53 69.5645 309.501C69.5521 309.472 69.5295 309.449 69.501 309.436C69.4758 309.428 69.4486 309.427 69.4232 309.435C69.3979 309.443 69.3758 309.459 69.36 309.481C67.7273 312.302 65.9956 315.041 64.165 317.699C63.2967 318.952 62.369 320.152 61.4414 321.353L61.1742 321.049C60.5953 320.389 59.9868 319.678 59.3931 318.922C61.1874 316.409 62.8329 313.794 64.3209 311.089C66.5404 307.308 68.4228 303.341 69.9462 299.231C70.0501 298.957 69.7162 298.772 69.5752 299.031C67.4823 302.737 65.5009 306.546 63.3561 310.244C61.8718 312.852 60.1797 315.357 58.6064 317.922C56.9217 315.557 55.6379 312.815 56.1574 309.718C56.5952 307.161 58.1017 305.012 59.3708 302.877C60.8047 300.475 62.1151 298.002 63.2967 295.466C65.7532 290.279 75.3193 248.955 89.6203 251.26C89.6945 251.134 113.703 234.778 126.156 246.532C145.919 265.171 145.347 314.135 144.279 319.567C143.513 323.555 141.635 327.247 138.861 330.216C139.262 326.763 139.418 323.28 139.492 319.893C139.648 312.86 139.143 305.901 138.601 298.92C138.599 298.899 138.593 298.878 138.583 298.859C138.573 298.841 138.559 298.824 138.543 298.811C138.526 298.798 138.507 298.788 138.486 298.783C138.466 298.777 138.444 298.776 138.423 298.779C138.402 298.781 138.381 298.787 138.362 298.797C138.343 298.807 138.326 298.821 138.312 298.837C138.298 298.854 138.288 298.873 138.281 298.893C138.275 298.914 138.273 298.936 138.275 298.957Z" fill="#071843"/>
<path d="M100.374 580.387H146.698C146.698 580.387 169.2 506.767 166.135 485.638C162.008 457.151 151.76 384.776 151.76 384.776H100.374C100.374 384.776 117.443 462.109 119.67 488.529C120.723 501.409 100.374 580.387 100.374 580.387Z" fill="#FFC5C1"/>
<path d="M176.814 622.074C174.305 622.874 102.904 621.933 100.211 620.176C99.179 619.517 97.9841 606.903 97.9841 594.327C97.9841 587.924 107.884 550.076 107.884 550.076L154.186 550.573L143.113 597.121C143.113 597.121 171.708 609.601 174.461 611.839C177.215 614.077 179.352 621.273 176.814 622.074Z" fill="#FFC5C1"/>
<path d="M62.4879 622.948C59.9647 622.207 1.29139 581.573 0.0371788 578.608C-0.44521 577.489 4.97981 568.611 11.8446 558.073C13.3288 555.79 14.8725 553.448 16.4532 551.084C23.6976 540.456 31.4829 530.206 39.7786 520.373L79.379 548.083L54.6733 577.408L49.7232 584.159C49.7232 584.159 65.219 609.757 66.2506 613.151C67.2822 616.545 65.0112 623.682 62.4879 622.948Z" fill="#FFC5C1"/>
<path d="M0.0297753 578.616C1.29141 581.58 59.9573 622.222 62.4805 622.948C65.0038 623.674 67.2896 616.53 66.2654 613.158C65.6198 611.016 59.2819 600.145 54.6362 592.341C60.1799 601.908 64.707 612.01 49.367 600.33C36.6171 590.644 16.1787 570.531 8.64599 563.023C3.38424 571.287 -0.370978 577.675 0.0297753 578.616Z" fill="#660BA4"/>
<path d="M23.5776 540.82L61.7605 568.982C61.7605 568.982 107.506 519.395 113.487 500.668C121.465 475.678 130.371 421.208 130.371 421.208L136.197 419.355C143.499 414.753 150.891 391.253 151.737 384.776H83.9356C83.9356 384.776 74.0503 412.974 79.3417 430.412C79.3417 430.412 67.0445 478.746 63.3858 485.801C53.8048 504.24 23.5776 540.82 23.5776 540.82Z" fill="#FFC5C1"/>
<path d="M77.5384 396.27C77.5978 396.344 157.778 396.27 158.372 395.788C158.661 395.573 149.912 337.042 140.694 321.345C138.342 317.344 125.213 310.889 116.167 317.899C97.0715 332.692 77.2416 395.862 77.5384 396.27Z" fill="#355F81"/>
<path d="M114.482 340.643C113.672 340.643 112.88 340.883 112.206 341.333C111.532 341.782 111.007 342.421 110.697 343.169C110.387 343.916 110.306 344.739 110.464 345.532C110.622 346.326 111.012 347.055 111.585 347.627C112.158 348.199 112.888 348.589 113.683 348.747C114.477 348.904 115.301 348.823 116.05 348.514C116.798 348.204 117.438 347.68 117.888 347.007C118.338 346.334 118.578 345.543 118.578 344.734C118.578 343.649 118.147 342.609 117.379 341.842C116.61 341.074 115.568 340.643 114.482 340.643ZM114.482 348.225C113.789 348.225 113.112 348.02 112.536 347.635C111.96 347.251 111.511 346.705 111.246 346.066C110.98 345.426 110.911 344.723 111.046 344.044C111.181 343.366 111.515 342.743 112.005 342.253C112.495 341.764 113.119 341.431 113.798 341.296C114.478 341.161 115.182 341.23 115.822 341.495C116.462 341.76 117.009 342.208 117.394 342.784C117.779 343.359 117.985 344.035 117.985 344.727C117.985 345.656 117.616 346.547 116.96 347.206C116.303 347.864 115.412 348.236 114.482 348.24V348.225Z" fill="#6C72FC"/>
<path d="M139.277 340.643C138.467 340.643 137.675 340.883 137.001 341.333C136.327 341.782 135.802 342.421 135.492 343.169C135.182 343.916 135.101 344.739 135.259 345.532C135.417 346.326 135.807 347.055 136.38 347.627C136.953 348.199 137.683 348.589 138.478 348.747C139.272 348.904 140.096 348.823 140.844 348.514C141.593 348.204 142.233 347.68 142.683 347.007C143.133 346.334 143.373 345.543 143.373 344.734C143.373 343.649 142.942 342.609 142.174 341.842C141.405 341.074 140.363 340.643 139.277 340.643ZM139.277 348.225C138.584 348.225 137.907 348.02 137.331 347.635C136.755 347.251 136.306 346.705 136.041 346.066C135.775 345.426 135.706 344.723 135.841 344.044C135.976 343.366 136.31 342.743 136.8 342.253C137.29 341.764 137.914 341.431 138.593 341.296C139.273 341.161 139.977 341.23 140.617 341.495C141.257 341.76 141.804 342.208 142.189 342.784C142.574 343.359 142.78 344.035 142.78 344.727C142.778 345.655 142.409 346.546 141.752 347.203C141.096 347.861 140.207 348.234 139.277 348.24V348.225Z" fill="#6C72FC"/>
<path d="M126.883 321.545C126.07 321.543 125.274 321.78 124.596 322.229C123.919 322.678 123.389 323.317 123.076 324.066C122.762 324.815 122.677 325.641 122.833 326.438C122.989 327.235 123.378 327.967 123.951 328.544C124.523 329.12 125.255 329.514 126.052 329.675C126.849 329.836 127.676 329.758 128.428 329.45C129.18 329.142 129.824 328.618 130.279 327.944C130.733 327.271 130.977 326.478 130.98 325.666C130.983 325.127 130.879 324.592 130.674 324.093C130.47 323.593 130.169 323.139 129.788 322.756C129.408 322.373 128.955 322.069 128.456 321.862C127.958 321.654 127.423 321.546 126.883 321.545ZM126.883 329.134C126.192 329.133 125.516 328.927 124.942 328.542C124.368 328.157 123.921 327.611 123.658 326.973C123.395 326.334 123.327 325.632 123.464 324.955C123.6 324.279 123.934 323.657 124.424 323.17C124.914 322.683 125.538 322.352 126.216 322.219C126.894 322.086 127.597 322.156 128.235 322.422C128.873 322.687 129.418 323.136 129.801 323.711C130.184 324.285 130.387 324.961 130.386 325.651C130.378 326.575 130.006 327.459 129.35 328.111C128.695 328.763 127.808 329.13 126.883 329.134Z" fill="#6C72FC"/>
<path d="M89.6797 378.58C88.8666 378.577 88.0708 378.815 87.3931 379.264C86.7153 379.712 86.186 380.352 85.8721 381.101C85.5582 381.85 85.4738 382.675 85.6296 383.472C85.7854 384.269 86.1743 385.002 86.7472 385.578C87.3201 386.155 88.0513 386.548 88.8482 386.709C89.6452 386.871 90.4722 386.792 91.2245 386.484C91.9769 386.176 92.6209 385.652 93.0751 384.979C93.5294 384.305 93.7734 383.513 93.7763 382.7C93.7792 382.161 93.6755 381.626 93.471 381.127C93.2666 380.628 92.9654 380.174 92.5848 379.791C92.2042 379.408 91.7517 379.104 91.2531 378.896C90.7546 378.688 90.2199 378.581 89.6797 378.58ZM89.6797 386.169C88.9884 386.169 88.3126 385.964 87.7377 385.581C87.1629 385.197 86.7149 384.652 86.4503 384.014C86.1858 383.376 86.1166 382.674 86.2514 381.997C86.3863 381.32 86.7192 380.698 87.2081 380.21C87.6969 379.722 88.3197 379.39 88.9978 379.255C89.6758 379.12 90.3787 379.189 91.0174 379.453C91.6561 379.718 92.202 380.165 92.5861 380.739C92.9702 381.313 93.1752 381.988 93.1752 382.678C93.1713 383.603 92.8018 384.488 92.1471 385.142C91.4924 385.796 90.6056 386.165 89.6797 386.169Z" fill="#6C72FC"/>
<path d="M114.482 378.58C113.669 378.577 112.873 378.815 112.195 379.264C111.518 379.712 110.988 380.352 110.674 381.101C110.36 381.85 110.276 382.675 110.432 383.472C110.588 384.269 110.977 385.002 111.549 385.578C112.122 386.155 112.854 386.548 113.65 386.709C114.447 386.871 115.274 386.792 116.027 386.484C116.779 386.176 117.423 385.652 117.877 384.979C118.332 384.305 118.576 383.513 118.579 382.7C118.581 382.161 118.478 381.626 118.273 381.127C118.069 380.628 117.768 380.174 117.387 379.791C117.006 379.408 116.554 379.104 116.055 378.896C115.557 378.688 115.022 378.581 114.482 378.58ZM114.482 386.169C113.791 386.167 113.115 385.961 112.541 385.576C111.967 385.192 111.52 384.646 111.257 384.007C110.994 383.369 110.926 382.667 111.063 381.99C111.199 381.313 111.533 380.692 112.023 380.205C112.513 379.718 113.136 379.387 113.815 379.253C114.493 379.12 115.196 379.191 115.834 379.456C116.472 379.722 117.017 380.17 117.4 380.745C117.783 381.32 117.986 381.995 117.985 382.686C117.981 383.611 117.61 384.497 116.954 385.15C116.297 385.802 115.408 386.169 114.482 386.169Z" fill="#6C72FC"/>
<path d="M139.277 378.58C138.463 378.577 137.668 378.815 136.99 379.264C136.312 379.712 135.783 380.352 135.469 381.101C135.155 381.85 135.071 382.675 135.227 383.472C135.382 384.269 135.771 385.002 136.344 385.578C136.917 386.155 137.648 386.548 138.445 386.709C139.242 386.871 140.069 386.792 140.821 386.484C141.574 386.176 142.218 385.652 142.672 384.979C143.126 384.305 143.37 383.513 143.373 382.7C143.376 382.161 143.272 381.626 143.068 381.127C142.863 380.628 142.562 380.174 142.182 379.791C141.801 379.408 141.349 379.104 140.85 378.896C140.352 378.688 139.817 378.581 139.277 378.58ZM139.277 386.169C138.585 386.167 137.91 385.961 137.336 385.576C136.762 385.192 136.315 384.646 136.052 384.007C135.789 383.369 135.721 382.667 135.857 381.99C135.994 381.313 136.328 380.692 136.818 380.205C137.308 379.718 137.931 379.387 138.609 379.253C139.288 379.12 139.99 379.191 140.629 379.456C141.267 379.722 141.812 380.17 142.195 380.745C142.577 381.32 142.781 381.995 142.779 382.686C142.772 383.61 142.4 384.493 141.744 385.145C141.088 385.797 140.202 386.165 139.277 386.169Z" fill="#6C72FC"/>
<path d="M102.081 359.482C101.271 359.482 100.478 359.722 99.8048 360.171C99.1311 360.621 98.606 361.26 98.296 362.007C97.9859 362.755 97.9048 363.577 98.0628 364.371C98.2209 365.165 98.6111 365.893 99.184 366.466C99.7569 367.038 100.487 367.427 101.282 367.585C102.076 367.743 102.9 367.662 103.648 367.352C104.397 367.043 105.037 366.518 105.487 365.846C105.937 365.173 106.177 364.382 106.177 363.573C106.177 362.488 105.746 361.447 104.977 360.68C104.209 359.913 103.167 359.482 102.081 359.482ZM102.081 367.071C101.388 367.072 100.71 366.869 100.133 366.485C99.5565 366.102 99.1064 365.557 98.8399 364.918C98.5734 364.28 98.5026 363.577 98.6363 362.898C98.77 362.219 99.1023 361.595 99.5911 361.105C100.08 360.614 100.703 360.28 101.383 360.144C102.062 360.007 102.766 360.075 103.407 360.338C104.048 360.602 104.596 361.049 104.982 361.623C105.368 362.198 105.575 362.874 105.576 363.565C105.576 364.493 105.208 365.382 104.553 366.039C103.898 366.696 103.009 367.067 102.081 367.071Z" fill="#6C72FC"/>
<path d="M126.883 359.482C126.073 359.482 125.281 359.722 124.607 360.171C123.933 360.621 123.408 361.26 123.098 362.007C122.788 362.755 122.707 363.577 122.865 364.371C123.023 365.165 123.413 365.893 123.986 366.466C124.559 367.038 125.289 367.427 126.084 367.585C126.878 367.743 127.702 367.662 128.451 367.352C129.199 367.043 129.839 366.518 130.289 365.846C130.739 365.173 130.98 364.382 130.98 363.573C130.98 362.488 130.548 361.447 129.78 360.68C129.011 359.913 127.969 359.482 126.883 359.482ZM126.883 367.071C126.19 367.071 125.513 366.866 124.937 366.481C124.361 366.097 123.912 365.551 123.647 364.911C123.382 364.272 123.312 363.569 123.447 362.89C123.583 362.212 123.916 361.589 124.406 361.099C124.896 360.61 125.52 360.277 126.2 360.142C126.879 360.007 127.583 360.076 128.223 360.341C128.864 360.606 129.411 361.054 129.796 361.63C130.18 362.205 130.386 362.881 130.386 363.573C130.382 364.499 130.012 365.387 129.356 366.042C128.699 366.697 127.811 367.067 126.883 367.071Z" fill="#6C72FC"/>
<path d="M153.511 366.582C152.967 366.932 152.332 367.114 151.685 367.108C150.756 367.108 149.865 366.739 149.208 366.083C148.551 365.427 148.182 364.538 148.182 363.61C148.182 362.682 148.551 361.793 149.208 361.137C149.865 360.481 150.756 360.112 151.685 360.112C151.875 360.113 152.064 360.133 152.249 360.171C152.19 359.962 152.145 359.749 152.116 359.534H151.685C151.149 359.488 150.609 359.548 150.097 359.711C149.584 359.874 149.108 360.135 148.697 360.481C148.285 360.828 147.946 361.251 147.699 361.728C147.451 362.205 147.3 362.726 147.255 363.262C147.209 363.797 147.269 364.336 147.432 364.848C147.595 365.36 147.857 365.835 148.203 366.246C148.55 366.657 148.974 366.995 149.452 367.242C149.93 367.49 150.452 367.64 150.988 367.686C151.22 367.708 151.453 367.708 151.685 367.686C152.371 367.687 153.045 367.514 153.644 367.182C153.616 366.979 153.571 366.778 153.511 366.582Z" fill="#6C72FC"/>
<path d="M158.372 395.788L178.358 472.921C178.358 472.921 156.257 484.934 130.557 487.461C104.856 489.989 62.4211 472.217 62.4211 472.217L77.5385 396.27L158.372 395.788Z" fill="#355F81"/>
<path d="M89.6799 416.517C88.8696 416.517 88.0776 416.757 87.4039 417.206C86.7302 417.656 86.2051 418.294 85.8951 419.042C85.585 419.789 85.5039 420.612 85.662 421.406C85.82 422.199 86.2102 422.928 86.7831 423.5C87.356 424.072 88.086 424.462 88.8806 424.62C89.6753 424.778 90.499 424.696 91.2475 424.387C91.9961 424.077 92.6359 423.553 93.086 422.88C93.5362 422.207 93.7764 421.417 93.7764 420.607C93.7764 419.522 93.3448 418.482 92.5766 417.715C91.8083 416.948 90.7663 416.517 89.6799 416.517ZM89.6799 424.105C88.987 424.107 88.3093 423.903 87.7325 423.52C87.1556 423.137 86.7055 422.591 86.439 421.953C86.1725 421.314 86.1017 420.611 86.2354 419.932C86.3691 419.253 86.7014 418.629 87.1903 418.139C87.6791 417.649 88.3026 417.315 88.9818 417.178C89.661 417.042 90.3654 417.11 91.0061 417.373C91.6467 417.636 92.1947 418.083 92.5808 418.658C92.967 419.232 93.1738 419.908 93.1753 420.6C93.1753 421.527 92.8075 422.416 92.1524 423.073C91.4973 423.73 90.6083 424.101 89.6799 424.105Z" fill="#6C72FC"/>
<path d="M114.482 416.517C113.672 416.517 112.88 416.757 112.206 417.206C111.532 417.656 111.007 418.294 110.697 419.042C110.387 419.789 110.306 420.612 110.464 421.406C110.622 422.199 111.012 422.928 111.585 423.5C112.158 424.072 112.888 424.462 113.683 424.62C114.477 424.778 115.301 424.696 116.05 424.387C116.798 424.077 117.438 423.553 117.888 422.88C118.338 422.207 118.578 421.417 118.578 420.607C118.578 419.522 118.147 418.482 117.379 417.715C116.61 416.948 115.568 416.517 114.482 416.517ZM114.482 424.105C113.789 424.105 113.112 423.9 112.536 423.516C111.96 423.131 111.511 422.585 111.246 421.946C110.98 421.307 110.911 420.604 111.046 419.925C111.181 419.246 111.515 418.623 112.005 418.134C112.495 417.645 113.119 417.312 113.798 417.177C114.478 417.042 115.182 417.111 115.822 417.376C116.462 417.641 117.009 418.089 117.394 418.664C117.779 419.239 117.985 419.916 117.985 420.607C117.981 421.534 117.611 422.421 116.954 423.077C116.298 423.732 115.41 424.101 114.482 424.105Z" fill="#6C72FC"/>
<path d="M139.277 416.517C138.467 416.517 137.675 416.757 137.001 417.206C136.327 417.656 135.802 418.294 135.492 419.042C135.182 419.789 135.101 420.612 135.259 421.406C135.417 422.199 135.807 422.928 136.38 423.5C136.953 424.072 137.683 424.462 138.478 424.62C139.272 424.778 140.096 424.696 140.844 424.387C141.593 424.077 142.233 423.553 142.683 422.88C143.133 422.207 143.373 421.417 143.373 420.607C143.373 419.522 142.942 418.482 142.174 417.715C141.405 416.948 140.363 416.517 139.277 416.517ZM139.277 424.105C138.584 424.105 137.907 423.9 137.331 423.516C136.755 423.131 136.306 422.585 136.041 421.946C135.775 421.307 135.706 420.604 135.841 419.925C135.976 419.246 136.31 418.623 136.8 418.134C137.29 417.645 137.914 417.312 138.593 417.177C139.273 417.042 139.977 417.111 140.617 417.376C141.257 417.641 141.804 418.089 142.189 418.664C142.574 419.239 142.78 419.916 142.78 420.607C142.776 421.534 142.405 422.421 141.749 423.077C141.093 423.732 140.205 424.101 139.277 424.105Z" fill="#6C72FC"/>
<path d="M165.615 423.727C165.158 423.97 164.649 424.1 164.131 424.105C163.226 424.097 162.36 423.739 161.714 423.106C161.069 422.473 160.694 421.615 160.669 420.711C160.644 419.808 160.971 418.931 161.58 418.263C162.19 417.596 163.035 417.19 163.938 417.132L163.775 416.531C162.692 416.63 161.693 417.153 160.997 417.987C160.652 418.4 160.393 418.877 160.233 419.39C160.073 419.903 160.015 420.443 160.064 420.978C160.113 421.513 160.266 422.034 160.517 422.51C160.767 422.986 161.108 423.408 161.522 423.752C162.357 424.447 163.434 424.782 164.517 424.683C164.97 424.641 165.414 424.526 165.83 424.343L165.615 423.727Z" fill="#6C72FC"/>
<path d="M77.3083 397.419L77.1821 398.034C77.2113 398.026 77.242 398.026 77.2712 398.034C78.2002 398.034 79.0912 398.402 79.7481 399.058C80.405 399.714 80.7741 400.604 80.7741 401.532C80.7741 402.459 80.405 403.349 79.7481 404.005C79.0912 404.661 78.2002 405.03 77.2712 405.03C76.783 405.033 76.3005 404.924 75.8611 404.711L75.7275 405.326C76.219 405.52 76.7426 405.621 77.2712 405.623C78.2941 405.54 79.2488 405.077 79.9464 404.326C80.644 403.574 81.0337 402.588 81.0384 401.564C81.0431 400.539 80.6624 399.55 79.9716 398.792C79.2809 398.034 78.3304 397.562 77.3083 397.471V397.419Z" fill="#6C72FC"/>
<path d="M102.081 397.419C101.271 397.419 100.478 397.659 99.8048 398.108C99.1311 398.558 98.606 399.196 98.296 399.944C97.9859 400.691 97.9048 401.514 98.0628 402.308C98.2209 403.101 98.6111 403.83 99.184 404.402C99.7569 404.974 100.487 405.364 101.282 405.522C102.076 405.68 102.9 405.599 103.648 405.289C104.397 404.979 105.037 404.455 105.487 403.782C105.937 403.11 106.177 402.319 106.177 401.509C106.177 400.425 105.746 399.384 104.977 398.617C104.209 397.85 103.167 397.419 102.081 397.419ZM102.081 405.007C101.388 405.009 100.71 404.805 100.133 404.422C99.5565 404.039 99.1064 403.494 98.8399 402.855C98.5734 402.216 98.5026 401.513 98.6363 400.834C98.77 400.156 99.1023 399.532 99.5911 399.041C100.08 398.551 100.703 398.217 101.383 398.08C102.062 397.944 102.766 398.012 103.407 398.275C104.048 398.538 104.596 398.986 104.982 399.56C105.368 400.134 105.575 400.81 105.576 401.502C105.576 402.429 105.208 403.319 104.553 403.976C103.898 404.633 103.009 405.004 102.081 405.007Z" fill="#6C72FC"/>
<path d="M126.883 397.419C126.073 397.419 125.281 397.659 124.607 398.108C123.933 398.558 123.408 399.196 123.098 399.944C122.788 400.691 122.707 401.514 122.865 402.308C123.023 403.101 123.413 403.83 123.986 404.402C124.559 404.974 125.289 405.364 126.084 405.522C126.878 405.68 127.702 405.599 128.451 405.289C129.199 404.979 129.839 404.455 130.289 403.782C130.739 403.11 130.98 402.319 130.98 401.509C130.98 400.425 130.548 399.384 129.78 398.617C129.011 397.85 127.969 397.419 126.883 397.419ZM126.883 405.007C126.19 405.007 125.513 404.802 124.937 404.418C124.361 404.034 123.912 403.487 123.647 402.848C123.382 402.209 123.312 401.506 123.447 400.827C123.583 400.149 123.916 399.525 124.406 399.036C124.896 398.547 125.52 398.214 126.2 398.079C126.879 397.944 127.583 398.013 128.223 398.278C128.864 398.543 129.411 398.991 129.796 399.566C130.18 400.141 130.386 400.818 130.386 401.509C130.382 402.436 130.012 403.323 129.356 403.979C128.699 404.634 127.811 405.004 126.883 405.007Z" fill="#6C72FC"/>
<path d="M151.685 397.419C150.875 397.419 150.083 397.659 149.409 398.108C148.736 398.558 148.211 399.196 147.9 399.944C147.59 400.691 147.509 401.514 147.667 402.308C147.825 403.101 148.216 403.83 148.788 404.402C149.361 404.974 150.091 405.364 150.886 405.522C151.681 405.68 152.504 405.599 153.253 405.289C154.001 404.979 154.641 404.455 155.091 403.782C155.542 403.11 155.782 402.319 155.782 401.509C155.782 400.425 155.35 399.384 154.582 398.617C153.814 397.85 152.772 397.419 151.685 397.419ZM151.685 405.007C150.992 405.007 150.315 404.802 149.739 404.418C149.163 404.034 148.714 403.487 148.449 402.848C148.184 402.209 148.114 401.506 148.25 400.827C148.385 400.149 148.718 399.525 149.208 399.036C149.698 398.547 150.322 398.214 151.002 398.079C151.681 397.944 152.386 398.013 153.026 398.278C153.666 398.543 154.213 398.991 154.598 399.566C154.983 400.141 155.188 400.818 155.188 401.509C155.184 402.436 154.814 403.323 154.158 403.979C153.502 404.634 152.613 405.004 151.685 405.007Z" fill="#6C72FC"/>
<path d="M65.9165 454.601L65.8052 455.194C66.5444 455.39 67.1976 455.825 67.6624 456.431C68.1271 457.037 68.3771 457.781 68.373 458.544C68.373 459.472 68.0039 460.361 67.347 461.017C66.6901 461.673 65.7991 462.042 64.8701 462.042C64.727 462.057 64.5828 462.057 64.4397 462.042L64.3284 462.635C64.4991 462.635 64.6846 462.635 64.8701 462.635C65.9566 462.635 66.9986 462.204 67.7668 461.437C68.5351 460.67 68.9667 459.629 68.9667 458.544C68.969 457.642 68.6705 456.765 68.1182 456.051C67.5659 455.337 66.7912 454.827 65.9165 454.601Z" fill="#6C72FC"/>
<path d="M89.6799 454.453C88.8696 454.453 88.0776 454.693 87.4039 455.143C86.7302 455.592 86.2051 456.231 85.8951 456.979C85.585 457.726 85.5039 458.549 85.662 459.342C85.82 460.136 86.2102 460.865 86.7831 461.437C87.356 462.009 88.086 462.398 88.8806 462.556C89.6753 462.714 90.499 462.633 91.2475 462.324C91.9961 462.014 92.6359 461.49 93.086 460.817C93.5362 460.144 93.7764 459.353 93.7764 458.544C93.7764 457.459 93.3448 456.419 92.5766 455.651C91.8083 454.884 90.7663 454.453 89.6799 454.453ZM89.6799 462.042C88.987 462.043 88.3093 461.84 87.7325 461.457C87.1556 461.073 86.7055 460.528 86.439 459.89C86.1725 459.251 86.1017 458.548 86.2354 457.869C86.3691 457.19 86.7014 456.566 87.1903 456.076C87.6791 455.586 88.3026 455.251 88.9818 455.115C89.661 454.978 90.3654 455.046 91.0061 455.309C91.6467 455.573 92.1947 456.02 92.5808 456.595C92.967 457.169 93.1738 457.845 93.1753 458.537C93.1753 459.464 92.8075 460.353 92.1524 461.01C91.4973 461.667 90.6083 462.038 89.6799 462.042Z" fill="#6C72FC"/>
<path d="M114.482 454.453C113.672 454.453 112.88 454.693 112.206 455.143C111.532 455.592 111.007 456.231 110.697 456.979C110.387 457.726 110.306 458.549 110.464 459.342C110.622 460.136 111.012 460.865 111.585 461.437C112.158 462.009 112.888 462.398 113.683 462.556C114.477 462.714 115.301 462.633 116.05 462.324C116.798 462.014 117.438 461.49 117.888 460.817C118.338 460.144 118.578 459.353 118.578 458.544C118.578 457.459 118.147 456.419 117.379 455.651C116.61 454.884 115.568 454.453 114.482 454.453ZM114.482 462.042C113.789 462.042 113.112 461.837 112.536 461.452C111.96 461.068 111.511 460.522 111.246 459.883C110.98 459.243 110.911 458.54 111.046 457.862C111.181 457.183 111.515 456.56 112.005 456.071C112.495 455.581 113.119 455.248 113.798 455.113C114.478 454.978 115.182 455.048 115.822 455.312C116.462 455.577 117.009 456.025 117.394 456.601C117.779 457.176 117.985 457.852 117.985 458.544C117.981 459.471 117.611 460.358 116.954 461.013C116.298 461.668 115.41 462.038 114.482 462.042Z" fill="#6C72FC"/>
<path d="M139.277 454.453C138.467 454.453 137.675 454.693 137.001 455.143C136.327 455.592 135.802 456.231 135.492 456.979C135.182 457.726 135.101 458.549 135.259 459.342C135.417 460.136 135.807 460.865 136.38 461.437C136.953 462.009 137.683 462.398 138.478 462.556C139.272 462.714 140.096 462.633 140.844 462.324C141.593 462.014 142.233 461.49 142.683 460.817C143.133 460.144 143.373 459.353 143.373 458.544C143.373 457.459 142.942 456.419 142.174 455.651C141.405 454.884 140.363 454.453 139.277 454.453ZM139.277 462.042C138.584 462.042 137.907 461.837 137.331 461.452C136.755 461.068 136.306 460.522 136.041 459.883C135.775 459.243 135.706 458.54 135.841 457.862C135.976 457.183 136.31 456.56 136.8 456.071C137.29 455.581 137.914 455.248 138.593 455.113C139.273 454.978 139.977 455.048 140.617 455.312C141.257 455.577 141.804 456.025 142.189 456.601C142.574 457.176 142.78 457.852 142.78 458.544C142.776 459.471 142.405 460.358 141.749 461.013C141.093 461.668 140.205 462.038 139.277 462.042Z" fill="#6C72FC"/>
<path d="M164.094 454.453C163.283 454.453 162.491 454.693 161.818 455.143C161.144 455.592 160.619 456.231 160.309 456.979C159.999 457.726 159.918 458.549 160.076 459.342C160.234 460.136 160.624 460.865 161.197 461.437C161.77 462.009 162.5 462.398 163.294 462.556C164.089 462.714 164.913 462.633 165.661 462.324C166.41 462.014 167.05 461.49 167.5 460.817C167.95 460.144 168.19 459.353 168.19 458.544C168.19 457.459 167.759 456.419 166.99 455.651C166.222 454.884 165.18 454.453 164.094 454.453ZM164.094 462.042C163.401 462.043 162.723 461.84 162.146 461.457C161.569 461.073 161.119 460.528 160.853 459.89C160.586 459.251 160.516 458.548 160.649 457.869C160.783 457.19 161.115 456.566 161.604 456.076C162.093 455.586 162.716 455.251 163.396 455.115C164.075 454.978 164.779 455.046 165.42 455.309C166.061 455.573 166.609 456.02 166.995 456.595C167.381 457.169 167.588 457.845 167.589 458.537C167.589 459.464 167.221 460.353 166.566 461.01C165.911 461.667 165.022 462.038 164.094 462.042Z" fill="#6C72FC"/>
<path d="M77.2712 435.355C76.4609 435.355 75.6689 435.595 74.9952 436.045C74.3215 436.494 73.7965 437.133 73.4864 437.881C73.1763 438.628 73.0952 439.451 73.2533 440.244C73.4113 441.038 73.8015 441.767 74.3744 442.339C74.9474 442.911 75.6773 443.3 76.4719 443.458C77.2666 443.616 78.0903 443.535 78.8388 443.225C79.5874 442.916 80.2272 442.392 80.6773 441.719C81.1275 441.046 81.3677 440.255 81.3677 439.446C81.3677 438.361 80.9361 437.321 80.1679 436.553C79.3996 435.786 78.3576 435.355 77.2712 435.355ZM77.2712 442.944C76.5784 442.944 75.9011 442.739 75.325 442.354C74.749 441.97 74.3 441.424 74.0349 440.785C73.7698 440.146 73.7004 439.442 73.8356 438.764C73.9707 438.085 74.3044 437.462 74.7942 436.973C75.2841 436.483 75.9083 436.15 76.5878 436.015C77.2673 435.88 77.9716 435.95 78.6116 436.214C79.2517 436.479 79.7988 436.927 80.1837 437.503C80.5686 438.078 80.774 438.754 80.774 439.446C80.7586 440.366 80.3836 441.244 79.7292 441.892C79.0748 442.54 78.1927 442.907 77.2712 442.914V442.944Z" fill="#6C72FC"/>
<path d="M102.081 435.355C101.271 435.355 100.478 435.595 99.8048 436.045C99.1311 436.494 98.606 437.133 98.296 437.881C97.9859 438.628 97.9048 439.451 98.0628 440.244C98.2209 441.038 98.6111 441.767 99.184 442.339C99.7569 442.911 100.487 443.3 101.282 443.458C102.076 443.616 102.9 443.535 103.648 443.225C104.397 442.916 105.037 442.392 105.487 441.719C105.937 441.046 106.177 440.255 106.177 439.446C106.177 438.361 105.746 437.321 104.977 436.553C104.209 435.786 103.167 435.355 102.081 435.355ZM102.081 442.944C101.388 442.945 100.71 442.742 100.133 442.359C99.5565 441.975 99.1064 441.43 98.8399 440.792C98.5734 440.153 98.5026 439.45 98.6363 438.771C98.77 438.092 99.1023 437.468 99.5911 436.978C100.08 436.488 100.703 436.153 101.383 436.017C102.062 435.88 102.766 435.948 103.407 436.212C104.048 436.475 104.596 436.922 104.982 437.497C105.368 438.071 105.575 438.747 105.576 439.439C105.563 440.358 105.189 441.236 104.536 441.884C103.883 442.532 103.002 442.899 102.081 442.907V442.944Z" fill="#6C72FC"/>
<path d="M126.883 435.355C126.073 435.355 125.281 435.595 124.607 436.045C123.933 436.494 123.408 437.133 123.098 437.881C122.788 438.628 122.707 439.451 122.865 440.244C123.023 441.038 123.413 441.767 123.986 442.339C124.559 442.911 125.289 443.3 126.084 443.458C126.878 443.616 127.702 443.535 128.451 443.225C129.199 442.916 129.839 442.392 130.289 441.719C130.739 441.046 130.98 440.255 130.98 439.446C130.98 438.361 130.548 437.321 129.78 436.553C129.011 435.786 127.969 435.355 126.883 435.355ZM126.883 442.944C126.19 442.944 125.513 442.739 124.937 442.354C124.361 441.97 123.912 441.424 123.647 440.785C123.382 440.146 123.312 439.442 123.447 438.764C123.583 438.085 123.916 437.462 124.406 436.973C124.896 436.483 125.52 436.15 126.2 436.015C126.879 435.88 127.583 435.95 128.223 436.214C128.864 436.479 129.411 436.927 129.796 437.503C130.18 438.078 130.386 438.754 130.386 439.446C130.37 440.366 129.995 441.244 129.341 441.892C128.687 442.54 127.805 442.907 126.883 442.914V442.944Z" fill="#6C72FC"/>
<path d="M151.685 435.355C150.875 435.355 150.083 435.595 149.409 436.045C148.736 436.494 148.211 437.133 147.9 437.881C147.59 438.628 147.509 439.451 147.667 440.244C147.825 441.038 148.216 441.767 148.788 442.339C149.361 442.911 150.091 443.3 150.886 443.458C151.681 443.616 152.504 443.535 153.253 443.225C154.001 442.916 154.641 442.392 155.091 441.719C155.542 441.046 155.782 440.255 155.782 439.446C155.782 438.361 155.35 437.321 154.582 436.553C153.814 435.786 152.772 435.355 151.685 435.355ZM151.685 442.944C150.992 442.944 150.315 442.739 149.739 442.354C149.163 441.97 148.714 441.424 148.449 440.785C148.184 440.146 148.114 439.442 148.25 438.764C148.385 438.085 148.718 437.462 149.208 436.973C149.698 436.483 150.322 436.15 151.002 436.015C151.681 435.88 152.386 435.95 153.026 436.214C153.666 436.479 154.213 436.927 154.598 437.503C154.983 438.078 155.188 438.754 155.188 439.446C155.173 440.366 154.798 441.244 154.143 441.892C153.489 442.54 152.607 442.907 151.685 442.914V442.944Z" fill="#6C72FC"/>
<path d="M77.2711 473.299C76.3609 473.303 75.4776 473.608 74.7602 474.167C74.0428 474.727 73.532 475.508 73.3081 476.39L73.887 476.59C74.0797 475.754 74.5741 475.019 75.2756 474.525C75.9772 474.031 76.8365 473.813 77.6892 473.912C78.542 474.011 79.3281 474.42 79.8973 475.062C80.4664 475.704 80.7786 476.533 80.774 477.39C80.7806 477.885 80.6713 478.375 80.4549 478.82C80.6627 478.88 80.8482 478.931 81.056 479.006C81.2633 478.492 81.3692 477.944 81.3677 477.39C81.3677 476.305 80.9361 475.265 80.1679 474.497C79.3996 473.73 78.3576 473.299 77.2711 473.299Z" fill="#6C72FC"/>
<path d="M102.081 473.299C101.271 473.299 100.478 473.539 99.8048 473.989C99.1311 474.438 98.606 475.077 98.296 475.825C97.9859 476.572 97.9048 477.395 98.0628 478.188C98.2209 478.982 98.6111 479.711 99.184 480.283C99.7569 480.855 100.487 481.244 101.282 481.402C102.076 481.56 102.9 481.479 103.648 481.169C104.397 480.86 105.037 480.335 105.487 479.663C105.937 478.99 106.177 478.199 106.177 477.39C106.177 476.305 105.746 475.265 104.977 474.497C104.209 473.73 103.167 473.299 102.081 473.299ZM102.081 480.888C101.388 480.889 100.71 480.686 100.133 480.303C99.5565 479.919 99.1064 479.374 98.8399 478.735C98.5734 478.097 98.5026 477.394 98.6363 476.715C98.77 476.036 99.1023 475.412 99.5911 474.922C100.08 474.432 100.703 474.097 101.383 473.961C102.062 473.824 102.766 473.892 103.407 474.155C104.048 474.419 104.596 474.866 104.982 475.441C105.368 476.015 105.575 476.691 105.576 477.383C105.566 478.303 105.194 479.183 104.54 479.832C103.886 480.481 103.003 480.847 102.081 480.851V480.888Z" fill="#6C72FC"/>
<path d="M126.883 473.299C126.073 473.299 125.281 473.539 124.607 473.989C123.933 474.438 123.408 475.077 123.098 475.825C122.788 476.572 122.707 477.395 122.865 478.188C123.023 478.982 123.413 479.711 123.986 480.283C124.559 480.855 125.289 481.244 126.084 481.402C126.878 481.56 127.702 481.479 128.451 481.169C129.199 480.86 129.839 480.335 130.289 479.663C130.739 478.99 130.98 478.199 130.98 477.39C130.98 476.305 130.548 475.265 129.78 474.497C129.011 473.73 127.969 473.299 126.883 473.299ZM126.883 480.888C126.19 480.888 125.513 480.683 124.937 480.298C124.361 479.914 123.912 479.368 123.647 478.729C123.382 478.089 123.312 477.386 123.447 476.708C123.583 476.029 123.916 475.406 124.406 474.917C124.896 474.427 125.52 474.094 126.2 473.959C126.879 473.824 127.583 473.894 128.223 474.158C128.864 474.423 129.411 474.871 129.796 475.447C130.18 476.022 130.386 476.698 130.386 477.39C130.376 478.312 130.003 479.193 129.347 479.842C128.692 480.491 127.806 480.856 126.883 480.858V480.888Z" fill="#6C72FC"/>
<path d="M151.685 473.299C150.875 473.299 150.083 473.539 149.409 473.989C148.736 474.438 148.211 475.077 147.9 475.825C147.59 476.572 147.509 477.395 147.667 478.188C147.825 478.982 148.216 479.711 148.788 480.283C149.361 480.855 150.091 481.244 150.886 481.402C151.681 481.56 152.504 481.479 153.253 481.169C154.001 480.86 154.641 480.335 155.091 479.663C155.542 478.99 155.782 478.199 155.782 477.39C155.782 476.305 155.35 475.265 154.582 474.497C153.814 473.73 152.772 473.299 151.685 473.299ZM151.685 480.888C150.992 480.888 150.315 480.683 149.739 480.298C149.163 479.914 148.714 479.368 148.449 478.729C148.184 478.089 148.114 477.386 148.25 476.708C148.385 476.029 148.718 475.406 149.208 474.917C149.698 474.427 150.322 474.094 151.002 473.959C151.681 473.824 152.386 473.894 153.026 474.158C153.666 474.423 154.213 474.871 154.598 475.447C154.983 476.022 155.188 476.698 155.188 477.39C155.178 478.312 154.805 479.193 154.15 479.842C153.494 480.491 152.608 480.856 151.685 480.858V480.888Z" fill="#6C72FC"/>
<path d="M176.495 473.299C175.718 473.3 174.957 473.52 174.3 473.934C173.644 474.349 173.118 474.94 172.784 475.641L173.786 475.182C174.108 474.779 174.517 474.454 174.982 474.231C175.447 474.008 175.957 473.892 176.473 473.892C176.821 473.729 177.14 473.559 177.4 473.433C177.107 473.344 176.802 473.299 176.495 473.299Z" fill="#6C72FC"/>
<path d="M80.351 393.602C89.4819 398.118 99.2873 401.121 109.383 402.495C119.458 403.832 129.68 403.582 139.677 401.754C145.259 400.695 150.745 399.181 156.079 397.226C156.096 397.219 156.114 397.215 156.132 397.216C156.151 397.216 156.169 397.22 156.185 397.228C156.202 397.236 156.217 397.247 156.229 397.26C156.242 397.274 156.251 397.29 156.257 397.307C156.267 397.341 156.264 397.377 156.249 397.408C156.234 397.44 156.207 397.465 156.175 397.478C147.047 401.924 136.776 404.244 126.579 404.822C116.19 405.429 105.778 404.112 95.8691 400.939C90.3755 399.218 85.091 396.892 80.1135 394.002C80.0726 393.966 80.0457 393.916 80.0374 393.862C80.0291 393.807 80.0398 393.752 80.0679 393.705C80.0959 393.658 80.1394 393.622 80.191 393.603C80.2426 393.584 80.2992 393.584 80.351 393.602Z" fill="#153043"/>
<path d="M122.586 311.444C115.558 313.668 117.562 321.642 121.324 327.63C125.087 333.618 130.371 337.501 135.099 336.197C139.826 334.893 137.488 327.682 137.488 327.682C137.488 327.682 142.082 332.58 144.561 330.78C147.039 328.979 133.547 307.954 122.586 311.444Z" fill="white"/>
<path d="M117.985 317.966C118.727 319.582 129.236 328.882 136.939 326.859C139.447 326.2 136.427 312.363 136.427 312.363V311.296L136.561 296.289L114.667 288.189C114.667 288.189 117.673 317.277 117.985 317.966Z" fill="#FFC5C1"/>
<path d="M136.575 296.289L136.434 311.281V312.363C136.434 312.363 136.976 314.868 137.414 317.796C126.475 318.485 119.907 311.563 116.634 306.531C115.721 298.134 114.705 288.181 114.705 288.181L136.575 296.289Z" fill="#071843"/>
<path d="M147.885 262.243C169.073 286.44 156.947 301.847 151.715 306.405C146.973 310.54 130.275 324.028 106.697 302.136C83.1192 280.244 87.6833 262.762 98.0436 252.728C108.404 242.693 126.697 238.039 147.885 262.243Z" fill="#FFC5C1"/>
<path d="M143.448 263.325C142.795 263.676 142.124 263.99 141.436 264.266C140.778 264.698 139.995 264.901 139.21 264.844C138.965 264.78 138.749 264.636 138.595 264.434C138.442 264.233 138.36 263.986 138.364 263.733C138.44 263.232 138.651 262.76 138.973 262.369C139.296 261.977 139.719 261.68 140.197 261.51C141.101 261.008 142.16 260.862 143.165 261.102C143.477 261.195 143.738 261.406 143.894 261.691C144.05 261.975 144.087 262.31 143.997 262.621C143.91 262.917 143.713 263.169 143.448 263.325Z" fill="#071843"/>
<path d="M126.66 277.339C127.184 276.808 127.68 276.248 128.145 275.664C128.74 275.146 129.147 274.445 129.302 273.671C129.306 273.418 129.224 273.171 129.071 272.97C128.918 272.768 128.701 272.624 128.456 272.559C127.395 272.337 126.527 272.967 125.829 273.715C125.103 274.455 124.677 275.437 124.634 276.472C124.638 276.635 124.674 276.795 124.742 276.943C124.809 277.091 124.905 277.224 125.025 277.334C125.145 277.444 125.286 277.529 125.439 277.583C125.593 277.638 125.756 277.661 125.918 277.651C126.194 277.636 126.457 277.526 126.66 277.339Z" fill="#071843"/>
<path d="M143.9 293.651C144.642 293.792 145.451 294.088 146.127 293.703C146.798 293.24 147.363 292.638 147.782 291.939C147.788 291.932 147.795 291.927 147.804 291.924C147.812 291.92 147.821 291.918 147.83 291.918C147.839 291.918 147.848 291.92 147.856 291.924C147.864 291.927 147.872 291.932 147.878 291.939C147.895 291.944 147.909 291.955 147.917 291.971C147.925 291.986 147.927 292.004 147.923 292.02C147.899 292.551 147.733 293.066 147.442 293.51C147.15 293.955 146.745 294.313 146.268 294.547C145.831 294.698 145.36 294.716 144.913 294.598C144.466 294.481 144.065 294.234 143.759 293.888C143.685 293.762 143.796 293.636 143.9 293.651Z" fill="#071843"/>
<path d="M146.468 281.83C146.468 281.83 148.798 284.172 149.726 285.402C149.808 285.521 149.555 285.803 149.154 286.143C149.154 286.143 149.154 286.181 149.103 286.181C148.188 287.17 147.019 287.888 145.723 288.256C144.427 288.625 143.054 288.63 141.755 288.27C141.585 288.219 141.644 287.974 141.815 287.967C144.338 287.967 146.371 286.892 148.323 285.477C148.153 285.069 144.167 281.549 144.39 281.438C145.31 280.956 147.032 280.237 147.67 279.955C146.186 278.399 141.778 274.19 139.091 271.351C138.92 271.181 139.173 270.892 139.351 271.033C143.009 273.81 146.48 276.826 149.741 280.059C149.978 280.319 147.121 281.667 146.468 281.83Z" fill="#071843"/>
<path d="M131.41 282.097C131.412 282.349 131.372 282.599 131.291 282.838C131.234 283.036 131.134 283.219 130.998 283.374C130.862 283.529 130.694 283.652 130.505 283.735C129.332 284.276 128.174 283.416 127.44 282.327C127.388 282.253 127.395 282.179 127.484 282.208C128.286 282.505 129.169 282.779 129.748 282.305C130.101 281.899 130.329 281.4 130.401 280.867C130.691 281.312 131.03 281.725 131.41 282.097Z" fill="#071843"/>
<path d="M130.668 282.171C130.422 281.623 130.327 281.019 130.393 280.422C130.448 280.098 130.567 279.787 130.745 279.51C130.922 279.232 131.153 278.993 131.425 278.807C131.711 278.627 132.034 278.516 132.371 278.483C132.707 278.449 133.046 278.494 133.362 278.614C133.911 278.827 134.4 279.171 134.787 279.614C135.018 279.879 135.231 280.159 135.425 280.452C135.829 281.061 136.083 281.757 136.167 282.482C135.906 282.023 135.592 281.595 135.232 281.208C134.917 280.851 134.574 280.519 134.208 280.215C133.466 279.607 132.568 279.251 131.981 279.703C131.675 279.975 131.459 280.333 131.362 280.73C131.266 281.128 131.293 281.545 131.44 281.927C131.724 282.899 132.107 283.84 132.583 284.735C131.749 284.045 131.093 283.166 130.668 282.171Z" fill="#071843"/>
<path d="M147.114 269.632C147.357 269.691 147.608 269.706 147.856 269.676C148.054 269.662 148.247 269.604 148.42 269.507C148.593 269.409 148.743 269.275 148.858 269.113C149.6 268.098 148.984 266.808 148.116 265.875C148.056 265.808 147.982 265.801 147.997 265.875C148.131 266.705 148.227 267.616 147.663 268.098C147.213 268.356 146.695 268.47 146.179 268.424C146.534 268.791 146.847 269.196 147.114 269.632Z" fill="#071843"/>
<path d="M147.129 268.943C146.668 268.582 146.115 268.356 145.533 268.291C145.215 268.265 144.896 268.308 144.596 268.417C144.297 268.526 144.024 268.697 143.796 268.92C143.569 269.158 143.398 269.444 143.299 269.758C143.2 270.072 143.175 270.404 143.225 270.729C143.33 271.299 143.558 271.841 143.893 272.315C144.093 272.597 144.316 272.862 144.561 273.108C145.049 273.633 145.654 274.036 146.327 274.286C145.949 273.931 145.609 273.539 145.31 273.115C145.029 272.734 144.781 272.33 144.568 271.907C144.138 271.047 143.982 270.136 144.516 269.684C144.841 269.451 145.23 269.326 145.629 269.326C146.029 269.326 146.418 269.451 146.743 269.684C147.611 270.172 148.429 270.746 149.184 271.396C148.7 270.429 147.996 269.589 147.129 268.943Z" fill="#071843"/>
<path d="M112.159 306.946C115.706 299.854 111.165 293.606 111.165 293.606C114.103 288.109 115.491 281.918 115.18 275.694C115.432 276.376 117.265 281.245 118.148 283.75C132.078 268.15 127.098 251.505 127.098 251.505C136.664 252.868 140.457 255.514 142.572 256.655C142.572 256.655 134.631 246.317 124.07 243.39C111.142 239.803 103.765 247.97 103.765 247.97C98.9365 250.037 94.7807 253.409 91.7653 257.706C88.75 262.003 86.9945 267.054 86.6963 272.292C85.3457 292.183 112.159 306.946 112.159 306.946Z" fill="#071843"/>
<path d="M128.397 271.462C126.92 274.929 124.917 278.149 122.46 281.008C126.067 276.187 128.22 270.438 128.664 264.437C128.844 261.85 128.699 259.251 128.234 256.7C127.744 254.017 126.942 250.993 125.406 248.674C125.385 248.638 125.378 248.595 125.386 248.554C125.394 248.513 125.417 248.477 125.451 248.451C125.487 248.429 125.531 248.422 125.573 248.432C125.614 248.442 125.65 248.467 125.673 248.503C127.299 250.956 128.776 253.232 129.555 256.077C130.296 258.778 130.535 261.591 130.26 264.378C129.994 266.825 129.376 269.221 128.427 271.492L128.397 271.462Z" fill="#071843"/>
<path d="M112.174 300.624C112.174 300.624 100.567 296.674 98.3702 301.366C96.1735 306.057 109.035 314.705 114.534 313.149C115.234 313.003 115.898 312.72 116.489 312.317C117.079 311.914 117.585 311.398 117.975 310.8C118.366 310.202 118.635 309.533 118.767 308.831C118.898 308.129 118.89 307.408 118.742 306.709C118.729 306.631 118.712 306.555 118.69 306.479L112.174 300.624Z" fill="#FFC5C1"/>
<path d="M102.118 303.767C102.104 303.781 102.097 303.799 102.097 303.819C102.097 303.838 102.104 303.857 102.118 303.87C102.13 303.877 102.144 303.88 102.159 303.88C102.173 303.88 102.187 303.877 102.2 303.87C106.125 302.885 109.777 304.523 113.027 306.612C111.306 306.153 109.628 306.435 108.916 308.606C108.879 308.717 109.042 308.784 109.116 308.702C109.524 308.145 110.095 307.728 110.75 307.507C111.405 307.287 112.113 307.275 112.775 307.472C113.882 307.811 114.95 308.268 115.959 308.836C116.3 308.999 116.701 308.502 116.352 308.265L116.278 308.213C113.502 304.33 106.548 301.128 102.118 303.767Z" fill="#071843"/>
<path d="M123.729 347.721C142.698 357.896 179.961 374.697 189.838 371.436C209.72 364.877 229.305 334.3 233.84 325.325C235.962 321.116 210.151 298.846 206.262 302.047C202.017 305.538 179.79 337.36 175.337 337.62C171.567 337.842 148.056 333.914 129.978 331.217C107.172 327.845 107.669 339.117 123.729 347.721Z" fill="#FFC5C1"/>
<path d="M199.197 311.244C199.197 311.244 202.663 297.075 205.364 287.922C206.848 282.816 210.247 274.286 213.067 271.04C217.297 266.178 238.092 248.563 242.478 253.506C246.449 257.952 226.663 270.847 226.663 270.847C226.663 270.847 245.476 256.1 249.269 262.369C253.061 268.639 228.764 280.2 228.764 280.2C228.764 280.2 248.437 265.482 251.317 272.559C253.499 277.91 232.088 289.604 232.088 289.604C232.088 289.604 249.083 277.065 251.562 282.475C254.3 288.404 235.235 300.498 235.235 300.498C239.22 315.32 235.057 323.962 231.361 329.779C230.441 331.209 199.197 311.244 199.197 311.244Z" fill="#FFC5C1"/>
<path d="M220.734 274.864C233.766 262.947 243.814 261.087 243.554 261.191C237.491 263.629 229.157 269.291 226.856 270.907C224.556 272.522 223.094 273.345 220.793 274.953C220.734 274.997 220.689 274.909 220.734 274.864Z" fill="#2F351A"/>
<path d="M225.513 283.942C231.317 277.895 239.799 273.004 242.983 271.774C243.243 271.677 243.22 271.774 242.983 271.959C240.014 273.938 228.43 281.904 225.558 284.009C225.513 284.046 225.476 283.979 225.513 283.942Z" fill="#2F351A"/>
<path d="M229.075 292.028C234.671 287.018 237.684 285.358 242.879 283.009C243.131 282.897 243.094 283.105 242.879 283.253C238.233 286.166 234.567 288.441 229.224 292.146C229.142 292.235 229.016 292.109 229.075 292.028Z" fill="#2F351A"/>
<path d="M153.585 331.246L148.101 361.95C148.101 361.95 125.02 351.575 115.239 341.659C105.457 331.743 111.484 328.556 121.733 328.527C131.981 328.497 153.585 331.246 153.585 331.246Z" fill="#355F81"/>
<path d="M114.482 340.643H114.296C114.482 340.844 114.667 341.051 114.89 341.273C115.632 341.355 116.327 341.674 116.871 342.183C117.416 342.692 117.78 343.364 117.911 344.097C118.133 344.282 118.356 344.475 118.579 344.638C118.555 343.569 118.113 342.552 117.347 341.805C116.581 341.058 115.552 340.641 114.482 340.643Z" fill="#6C72FC"/>
<path d="M139.277 340.643C138.467 340.643 137.675 340.883 137.001 341.333C136.327 341.782 135.802 342.421 135.492 343.169C135.182 343.916 135.101 344.739 135.259 345.532C135.417 346.326 135.807 347.055 136.38 347.627C136.953 348.199 137.683 348.589 138.478 348.747C139.272 348.904 140.096 348.823 140.844 348.514C141.593 348.204 142.233 347.68 142.683 347.007C143.133 346.334 143.373 345.543 143.373 344.734C143.373 343.649 142.942 342.609 142.174 341.842C141.405 341.074 140.363 340.643 139.277 340.643ZM139.277 348.225C138.584 348.225 137.907 348.02 137.331 347.635C136.755 347.251 136.306 346.705 136.041 346.066C135.775 345.426 135.706 344.723 135.841 344.044C135.976 343.366 136.31 342.743 136.8 342.253C137.29 341.764 137.914 341.431 138.593 341.296C139.273 341.161 139.977 341.23 140.617 341.495C141.257 341.76 141.804 342.208 142.189 342.784C142.574 343.359 142.78 344.035 142.78 344.727C142.778 345.655 142.409 346.546 141.752 347.203C141.096 347.861 140.207 348.234 139.277 348.24V348.225Z" fill="#6C72FC"/>
<path d="M128.412 328.786C127.939 329.03 127.415 329.157 126.883 329.157C126.238 329.157 125.605 328.978 125.057 328.638H124.033C124.792 329.388 125.816 329.808 126.883 329.809C127.814 329.811 128.717 329.489 129.436 328.897C129.103 328.805 128.757 328.768 128.412 328.786Z" fill="#6C72FC"/>
<path d="M147.967 361.898L148.093 361.957L148.167 361.505C148.087 361.629 148.02 361.761 147.967 361.898Z" fill="#6C72FC"/>
<path d="M148.034 332.677C148.034 332.477 148.212 332.432 148.19 332.632C146.906 342.756 144.731 354.309 143.477 358.385C143.477 358.452 143.373 358.385 143.373 358.385C143.611 354.057 147.678 334.9 148.034 332.677Z" fill="#153043"/>
<path d="M129.718 328.69C137.733 329.305 146.149 330.172 153.963 331.046C153.763 332.282 153.481 333.502 153.117 334.7C153.058 334.9 152.873 334.781 152.902 334.581C152.991 334.085 153.362 332.114 153.377 331.617C145.473 330.765 137.577 329.898 129.71 328.808C129.629 328.786 129.629 328.682 129.718 328.69Z" fill="#153043"/>
<path d="M123.209 349.292C124.048 349.603 124.857 349.937 125.666 350.315L126.26 350.596C124.167 349.114 122.133 347.543 120.181 345.861C120.085 345.787 120.219 345.661 120.308 345.727C124.722 348.885 129.321 351.776 134.082 354.383C136.397 355.68 138.75 356.91 141.087 358.163C142.235 358.781 143.386 359.388 144.538 359.986C145.674 360.536 146.779 361.147 147.848 361.817C148.019 361.075 148.197 360.334 148.338 359.593C148.338 359.475 148.568 359.497 148.553 359.593C148.472 360.497 148.435 361.394 148.383 362.306C148.381 362.348 148.37 362.39 148.352 362.429C148.334 362.468 148.308 362.503 148.277 362.532C148.245 362.561 148.208 362.583 148.167 362.598C148.127 362.612 148.084 362.619 148.041 362.617H147.982C145.466 361.831 143.054 360.394 140.709 359.178C138.238 357.926 135.818 356.592 133.436 355.206C131.388 354.028 129.414 352.76 127.499 351.434C126.015 350.811 124.53 350.196 123.135 349.44C123.054 349.418 123.105 349.255 123.209 349.292Z" fill="#153043"/>
</g>
<defs>
<clipPath id="clip0_60_2856">
<rect width="323" height="623" fill="white"/>
</clipPath>
</defs>
</svg>
