<svg width="176" height="215" viewBox="0 0 176 215" fill="none" xmlns="http://www.w3.org/2000/svg">
<g clip-path="url(#clip0_67_332)">
<path d="M88 191.273C136.601 191.273 176 151.887 176 103.302C176 54.7171 136.601 15.3311 88 15.3311C39.3989 15.3311 0 54.7171 0 103.302C0 151.887 39.3989 191.273 88 191.273Z" fill="#E2CCFD"/>
<path d="M124.679 158.746C124.489 159.454 124.288 160.173 124.076 160.878C124.69 160.659 126.139 160.91 126.749 161.192C126.784 161.153 126.809 161.107 126.824 161.057C126.839 161.007 126.844 160.955 126.837 160.903C126.615 160.124 126.113 159.455 125.427 159.023C125.193 158.891 124.939 158.796 124.675 158.742L124.679 158.746Z" fill="#FBBA45"/>
<path d="M117.212 163.422C117.958 163.617 118.723 163.726 119.494 163.747C119.45 163.017 119.428 162.188 119.424 161.352C118.865 162.211 118.106 162.921 117.212 163.422Z" fill="#FBBA45"/>
<path d="M95.46 29.9796L95.4856 30.0126C97.5158 31.7975 102.149 38.1526 105.184 46.4569H105.213C106.359 46.0058 107.383 45.2898 108.199 44.3673C109.015 43.4447 109.601 42.3419 109.909 41.1494C110.41 38.8136 110.313 36.3892 109.628 34.1007C108.987 32.2433 107.688 30.6849 105.976 29.7204C107.097 28.3917 106.842 26.395 106.25 24.7634C105.518 22.7833 104.393 20.9719 102.942 19.4381C101.491 17.9042 99.7446 16.6799 97.8079 15.8386C99.4839 14.8238 100.116 12.5533 99.5752 10.6625C99.0348 8.77164 97.5231 7.29327 95.8032 6.35881C94.0834 5.42434 92.1518 4.97171 90.2275 4.53368C87.5583 3.94964 84.7868 3.41302 82.1066 3.94961C75.2383 -1.09505 65.1968 -1.33233 58.0984 3.38745C55.9842 4.7928 54.0051 6.83343 53.8116 9.3667C51.3615 9.23885 48.916 9.69423 46.6764 10.6956C44.4368 11.697 42.4671 13.2157 40.9292 15.1267C37.9022 18.9668 37.1427 24.2085 38.5667 28.8845C36.9515 29.8076 35.5778 31.1 34.558 32.6556C33.5383 34.2113 32.9014 35.986 32.6994 37.8349C32.4975 39.6839 32.7362 41.5544 33.3962 43.2934C34.0561 45.0324 35.1185 46.5906 36.4964 47.8404C33.9404 50.0305 31.8116 52.8777 30.9608 56.152C30.11 59.4263 30.6577 63.1386 32.8121 65.7412C30.1684 68.3548 29.1314 72.3664 29.7667 76.0313C30.4021 79.6961 32.5893 82.9922 35.4521 85.3649C33.9683 86.0842 32.6884 87.1636 31.7289 88.5043C30.7695 89.845 30.1611 91.4045 29.9593 93.0406C29.7574 94.6767 29.9685 96.3372 30.5733 97.8708C31.1782 99.4044 32.1574 100.762 33.4218 101.82C31.7919 102.858 30.4455 104.284 29.5037 105.971C28.5619 107.658 28.0542 109.552 28.0264 111.483C27.9985 113.415 28.4513 115.323 29.344 117.036C30.2367 118.749 31.5414 120.214 33.1407 121.298C32.0051 123.158 31.2522 125.227 30.9262 127.382C30.6001 129.536 30.7075 131.735 31.2419 133.848C32.3374 138.056 34.9664 143.893 39.1948 143.904H39.3007C39.0086 133.844 39.3007 125.456 40.2318 123.685C42.0867 120.177 46.2348 119.287 48.2248 119.922C56.6524 122.619 59.4202 133.428 59.3545 142.272V142.294C59.3362 144.528 59.1208 146.854 60.019 148.898C61.1765 151.537 63.9954 153.121 66.8253 153.683C69.1513 154.147 71.7183 154.001 73.6901 152.679C75.6618 151.358 76.8047 148.664 75.8408 146.474C76.9873 146.096 78.0714 145.549 79.0577 144.853C80.8187 143.651 82.2447 142.021 83.2016 140.117C84.1585 138.212 84.6148 136.095 84.5275 133.965C84.4403 131.836 83.8122 129.763 82.7027 127.943C81.5931 126.123 80.0384 124.615 78.185 123.561C82.4937 118.9 83.7279 111.84 81.935 105.752C81.683 104.896 81.3769 104.057 81.0185 103.24C80.8652 102.897 80.7045 102.554 80.5365 102.218C79.8474 100.847 79.0243 99.5471 78.0791 98.3379C75.8874 95.5442 73.1664 93.2098 70.0715 91.4682C71.7863 89.4028 72.6426 86.7583 72.464 84.0802C72.2853 81.402 71.0851 78.8946 69.1111 77.0752C68.0283 76.0543 66.7398 75.2765 65.3319 74.7938C69.7136 70.5157 68.9249 62.215 63.8165 58.8385C65.9599 58.0026 68.1983 57.0134 69.5603 55.1883C70.9223 53.3631 71.0866 50.3845 69.2718 48.9828C72.2733 46.278 72.978 41.6824 71.9045 37.7767C70.831 33.8709 68.275 30.5674 65.5364 27.5961C66.5553 28.6878 67.8744 29.4541 69.3278 29.7983C70.7813 30.1426 72.304 30.0493 73.7047 29.5306C79.4411 35.0754 89.4935 35.2104 95.46 29.9796Z" fill="#3D160C"/>
<path d="M40.5969 164.415C41.1811 179.238 32.0817 192.558 34.0754 194.19C35.1623 195.072 36.3242 195.857 37.548 196.537C50.6932 203.892 72.6968 202.085 76.8193 201.14C76.3227 199.541 76.4359 196.53 76.8449 192.65C64.9521 190.846 48.8309 187.798 45.4132 185.444C43.2953 183.973 41.6595 175.063 40.5969 164.415Z" fill="#FBBA45"/>
<path d="M37.548 196.537C37.3252 198.508 34.5866 200.519 36.0874 202.742C42.5724 212.233 90.3516 223.983 103.665 204.363C104.446 203.213 101.814 201.049 101.237 198.523C99.4291 199.512 96.3692 200.231 94.0104 199.618C92.8273 198.231 92.4439 192.974 92.4585 186.159H92.1153C91.5712 190.131 90.4137 193.263 89.7783 194.172C88.5515 194.237 83.3189 193.62 76.8266 192.635C76.4177 196.515 76.3045 199.527 76.8011 201.125C72.6968 202.085 50.6859 203.892 37.548 196.537Z" fill="#FF5A76"/>
<path d="M88.8801 186.104C88.734 181.454 88.9823 176.187 89.8185 173.456C89.9412 173.012 90.123 172.586 90.3589 172.19C87.7481 172.153 83.7242 172.044 79.547 171.799C73.0474 171.434 66.1754 170.722 63.6558 169.463C60.6471 167.959 58.7666 146.244 59.3289 142.294H59.3654V142.272C59.4311 133.424 56.6633 122.619 48.2358 119.922C46.2457 119.287 42.0977 120.177 40.2427 123.685C39.3043 125.456 39.0195 133.844 39.3116 143.904C39.5015 150.474 39.9397 157.775 40.5969 164.415C41.6595 175.063 43.2954 183.98 45.4132 185.444C48.831 187.798 64.9521 190.846 76.8449 192.649C83.3372 193.635 88.5697 194.252 89.7966 194.186C89.3219 192.733 88.9896 189.594 88.8801 186.104Z" fill="#FBBA45"/>
<path d="M59.3289 142.294C58.7666 146.244 60.6471 167.959 63.6559 169.463C66.1754 170.722 73.0474 171.423 79.547 171.799C80.6863 161.849 81.2376 151.639 79.0687 144.864C78.0824 145.56 76.9983 146.106 75.8517 146.485C76.8157 148.657 75.6765 151.358 73.701 152.69C71.7256 154.022 69.1623 154.15 66.8363 153.694C64.0064 153.132 61.1875 151.548 60.03 148.908C59.1317 146.864 59.3472 144.528 59.3654 142.305L59.3289 142.294Z" fill="#FBBA45"/>
<path d="M69.1512 77.0569L69.122 77.0862C68.0391 76.0653 66.7506 75.2875 65.3427 74.8048C69.7245 70.5267 68.9358 62.226 63.8274 58.8495C65.9708 58.0136 68.2091 57.0244 69.5711 55.1993C70.9331 53.3741 71.0974 50.3955 69.2827 48.9938C72.2842 46.289 72.9889 41.6933 71.9154 37.7875C70.8418 33.8817 68.2858 30.5782 65.5472 27.6069C66.5662 28.6987 67.8853 29.4649 69.3387 29.8091C70.7921 30.1534 72.3149 30.0603 73.7155 29.5416C79.441 35.09 89.4935 35.225 95.4599 29.9942L95.4855 30.0269C97.5157 31.8119 102.149 38.1671 105.184 46.4715C107.068 51.6366 108.339 57.5536 107.981 63.5984L103.102 60.5943C103.12 58.4151 102.612 56.2637 101.62 54.3231C101.195 53.4707 100.701 52.6552 100.141 51.8848C96.9716 47.5045 86.6928 50.6619 85.7544 54.4216C85.5655 55.3557 85.5053 56.3113 85.5754 57.2616C85.7272 59.9883 86.3576 62.6669 87.4377 65.1753C88.8581 68.3619 91.1293 70.899 94.4047 70.6836C95.7552 70.5816 97.065 70.1748 98.2357 69.4939C99.4063 68.813 100.407 67.8756 101.163 66.7523C102.279 65.1309 102.938 63.24 103.073 61.2769L107.933 64.3212C107.597 68.776 106.286 73.1027 104.092 76.9949C102.913 79.0693 101.508 81.007 99.9037 82.7731C95.2226 87.9601 89.4241 88.2487 83.9506 86.5002C78.0206 84.5656 72.474 80.229 69.1512 77.0569ZM80.5109 39.9958C81.5041 39.6855 81.9715 38.3277 81.5296 36.9662C81.0878 35.6046 79.9486 34.7541 78.9736 35.0644C77.9987 35.3747 77.513 36.7326 77.9549 38.0978C78.3967 39.463 79.5213 40.3097 80.5109 39.9958ZM96.7562 40.1163C96.2633 38.3094 89.8915 40.3974 89.3255 41.8101C88.7595 43.2227 92.8053 44.0659 93.8387 43.7812C94.9998 43.4672 97.0374 41.1493 96.7635 40.1163H96.7562ZM95.8397 37.364C96.8292 37.0537 97.3003 35.6959 96.8548 34.3344C96.4093 32.9728 95.2737 32.1223 94.2988 32.4326C93.3238 32.7429 92.8382 34.1008 93.2837 35.466C93.7291 36.8312 94.8501 37.6779 95.8397 37.364Z" fill="#A46052"/>
<path d="M69.1513 77.0569L69.1221 77.0862C71.0961 78.9056 72.2962 81.4129 72.4749 84.091C72.6536 86.7691 71.7972 89.4137 70.0824 91.479C73.1773 93.2206 75.8984 95.5552 78.09 98.3489C78.1375 95.2024 81.694 88.5588 83.9506 86.4745C78.0207 84.5654 72.4741 80.229 69.1513 77.0569Z" fill="#A46052"/>
<path d="M78.9592 35.0645C77.966 35.3784 77.4986 36.7326 77.9404 38.0978C78.3823 39.463 79.5215 40.3098 80.4965 39.9959C81.4714 39.6819 81.957 38.3278 81.5152 36.9662C81.0734 35.6047 79.967 34.7542 78.9592 35.0645Z" fill="#1A1A1A"/>
<path d="M79.5471 171.799C83.7243 172.044 87.7482 172.164 90.359 172.19C90.6975 172.515 90.8976 172.958 90.9177 173.427C91.4691 173.427 92.1081 173.427 92.8128 173.391C93.3496 160.808 94.3136 147.609 94.0287 143.335C93.4628 134.873 84.6263 108.657 81.0296 103.255C81.388 104.072 81.6941 104.91 81.9461 105.766C83.739 111.855 82.5048 118.907 78.196 123.576C80.0495 124.629 81.6041 126.137 82.7137 127.957C83.8233 129.778 84.4513 131.85 84.5386 133.98C84.6259 136.11 84.1696 138.226 83.2127 140.131C82.2558 142.036 80.8297 143.666 79.0687 144.868C81.2377 151.639 80.6973 161.849 79.5471 171.799Z" fill="#FF5A76"/>
<path d="M102.971 139.491C103.331 139.45 103.676 139.325 103.979 139.126C104.449 138.785 104.837 138.343 105.115 137.834C105.91 136.53 106.464 135.093 106.75 133.592C107.283 130.907 106.964 128.122 105.837 125.627C109.184 121.674 110.861 116.573 110.515 111.406C110.168 106.238 107.824 101.408 103.979 97.9363C106.078 94.7788 107.59 91.1432 107.787 87.3506C107.985 83.558 106.801 79.6267 104.096 76.9657C102.917 79.04 101.512 80.9779 99.9075 82.7441C95.2264 87.9311 89.4279 88.2194 83.9543 86.471C81.6977 88.5553 78.1412 95.1987 78.0938 98.3452C79.0389 99.5544 79.8621 100.854 80.5512 102.225H80.584C82.2816 104.548 84.5438 106.398 87.1567 107.602C86.9818 110.919 87.5959 114.231 88.9484 117.265C90.301 120.299 92.3536 122.97 94.9379 125.058C94.6834 127.326 94.9223 129.622 95.6383 131.79C96.3542 133.957 97.5303 135.944 99.0859 137.615C100.101 138.71 101.609 139.655 102.971 139.491Z" fill="#3D160C"/>
<path d="M80.5805 102.207H80.5476C80.7156 102.543 80.8762 102.886 81.0296 103.229C84.6263 108.621 93.4445 134.848 94.0288 143.309C94.3136 147.584 93.3496 160.783 92.8128 173.365C95.1683 173.337 97.5158 173.085 99.8236 172.613C99.6922 166.824 99.7908 161.297 100.119 157.614C100.198 156.634 100.331 155.66 100.517 154.694C102.011 147.594 105.078 144.948 102.968 139.48C101.609 139.644 100.101 138.691 99.086 137.618C97.5299 135.947 96.3535 133.96 95.6376 131.792C94.9216 129.624 94.683 127.327 94.938 125.058C92.3508 122.969 90.2958 120.297 88.9419 117.261C87.588 114.225 86.9737 110.911 87.1494 107.591C84.5371 106.385 82.2761 104.531 80.5805 102.207Z" fill="#FBBA45"/>
<path d="M85.7544 54.3888C85.5655 55.3229 85.5053 56.2783 85.5755 57.2286C89.519 52.7133 99.5021 52.7936 101.62 54.3084C101.195 53.4561 100.701 52.6406 100.141 51.8702C96.9716 47.4899 86.6928 50.6437 85.7544 54.3888Z" fill="white"/>
<path d="M85.5754 57.2432C85.7272 59.9698 86.3576 62.6486 87.4377 65.157L87.5399 65.1096C89.8513 62.4741 99.8015 63.518 101.164 66.7338C102.279 65.1124 102.938 63.2215 103.073 61.2584L99.0201 58.7216C97.9831 58.1558 93.3786 57.1228 94.5982 55.4364C95.8981 53.6368 98.4541 57.6922 99.2063 58.1595L103.113 60.5649C103.131 58.3857 102.623 56.2345 101.631 54.2939C99.5021 52.8083 89.519 52.7278 85.5754 57.2432Z" fill="#6C0024"/>
<path d="M87.4377 65.1571C88.8582 68.3438 91.1294 70.8807 94.4047 70.6653C95.7553 70.5632 97.0651 70.1565 98.2358 69.4756C99.4064 68.7947 100.407 67.8573 101.164 66.734C99.8016 63.5181 89.8441 62.4742 87.54 65.1097L87.4377 65.1571Z" fill="#F65274"/>
<path d="M117.212 163.422C118.098 162.918 118.85 162.208 119.403 161.352C119.613 161.03 119.797 160.691 119.95 160.337C120.411 159.264 120.631 158.103 120.593 156.935C120.585 156.172 120.437 155.416 120.158 154.705C120.039 154.405 119.866 154.129 119.647 153.891C118.636 152.858 117.252 154.037 117.821 156.019C118.311 157.76 113.871 160.907 112.366 161.473C111.806 161.739 111.315 162.132 110.931 162.619C109.704 163.995 108.163 166.426 105.786 169.463C104.479 171.131 102.244 172.088 99.8271 172.639C97.5193 173.111 95.1718 173.363 92.8164 173.391C92.1116 173.409 91.4726 173.416 90.9213 173.427C90.4977 173.427 90.1252 173.427 89.8258 173.456C88.9896 176.187 88.7304 181.454 88.8874 186.105C89.3256 186.148 90.4758 186.181 92.1408 186.174H92.4841C94.5654 186.174 97.3734 186.094 100.557 185.922C107.992 185.52 117.493 184.557 124.69 182.436C130.331 176.041 131.262 167.017 131.084 165.514C132.632 164.616 133.859 163.637 133.534 162.794C133.096 161.673 131.416 159.432 130.032 157.859C129.538 157.25 128.977 156.699 128.36 156.216C127.478 155.737 126.53 155.389 125.548 155.183C125.322 156.256 125.029 157.487 124.69 158.753C124.954 158.807 125.208 158.902 125.442 159.034C126.128 159.466 126.63 160.135 126.852 160.914C126.858 160.966 126.854 161.018 126.839 161.068C126.824 161.118 126.798 161.164 126.764 161.203C126.417 161.717 125.128 162.604 123.339 163.188C123.127 163.258 122.908 163.32 122.685 163.382C121.826 163.605 120.944 163.728 120.056 163.747C119.87 163.747 119.691 163.747 119.494 163.747C118.723 163.726 117.958 163.617 117.212 163.422Z" fill="#A46052"/>
<path d="M89.3256 41.81C88.7633 43.219 92.8054 44.0658 93.8388 43.7811C94.9999 43.4672 97.0375 41.1493 96.7599 40.1309C96.2633 38.3277 89.8916 40.3974 89.3256 41.81Z" fill="#904D15"/>
<path d="M88.8801 186.105C88.9897 189.594 89.322 192.73 89.7966 194.186C90.432 193.277 91.5895 190.145 92.1336 186.174C90.4685 186.181 89.3183 186.163 88.8801 186.105Z" fill="#904D15"/>
<path d="M90.359 172.19C90.1231 172.586 89.9413 173.012 89.8186 173.456C90.1217 173.456 90.4941 173.435 90.9141 173.427C90.8949 172.959 90.6961 172.516 90.359 172.19Z" fill="#904D15"/>
<path d="M92.4768 186.163C92.4768 192.978 92.842 198.234 94.0287 199.622C96.3875 200.231 99.4474 199.512 101.255 198.526C102.255 197.975 102.872 197.344 102.774 196.811C101.792 195.402 101.05 191.193 100.55 185.915C97.3661 186.094 94.5727 186.163 92.4768 186.163Z" fill="#FBBA45"/>
<path d="M94.2843 32.4326C93.2948 32.7465 92.8237 34.1008 93.2692 35.466C93.7147 36.8312 94.8503 37.6779 95.8252 37.364C96.8001 37.0501 97.2858 35.6959 96.8403 34.3344C96.3948 32.9728 95.2738 32.1223 94.2843 32.4326Z" fill="#1A1A1A"/>
<path d="M94.5909 55.44C93.3714 57.1301 97.9758 58.1631 99.0128 58.7252L98.4396 58.3602C98.0744 58.0791 98.3446 57.7031 98.7207 57.8893L99.1881 58.1777C98.4469 57.6958 95.8908 53.6587 94.5909 55.44Z" fill="white"/>
<path d="M98.7281 57.8821C98.3629 57.6959 98.0708 58.0719 98.4469 58.353L99.0202 58.718L103.073 61.255C103.073 61.0324 103.099 60.8097 103.103 60.5797L99.1955 58.1742L98.7281 57.8821Z" fill="#BADFFF"/>
<path d="M114.444 138.794C111.384 137.94 108.291 135.906 106.747 133.592C106.461 135.093 105.907 136.53 105.111 137.834C104.833 138.343 104.445 138.785 103.975 139.126C103.673 139.325 103.328 139.45 102.968 139.491C105.078 144.966 102.011 147.605 100.517 154.705C100.331 155.67 100.198 156.645 100.119 157.625C100.85 159.049 105.597 161.071 110.928 162.604C111.312 162.117 111.803 161.725 112.363 161.458C113.867 160.892 118.307 157.746 117.818 156.005C117.263 154.022 118.647 152.843 119.644 153.876C119.713 152.803 119.779 151.967 119.823 151.54C120.998 150.927 124.935 151.493 125.983 152.526C125.913 153.157 125.753 154.077 125.523 155.161C126.505 155.367 127.452 155.715 128.334 156.194C128.952 156.677 129.513 157.228 130.007 157.837C133.716 147.781 137.612 129.091 142.911 121.039C142.078 122.203 138.343 121.645 135.056 120.729C133.704 120.365 132.377 119.909 131.087 119.363C128.975 118.393 126.989 117.167 125.176 115.713C123.715 114.53 122.587 113.26 122.273 112.125H122.247C123.251 119.29 117.84 130.891 114.444 138.794Z" fill="#FBBA45"/>
<path d="M103.073 61.2512L107.933 64.2956C107.952 64.0584 107.97 63.8211 107.984 63.5656L103.102 60.5942C103.099 60.806 103.088 61.0285 103.073 61.2512Z" fill="#BADFFF"/>
<path d="M107.933 64.2957L118.026 70.6216C118.386 70.5389 118.759 70.5326 119.121 70.6032V70.574C118.989 70.5429 118.866 70.482 118.761 70.3959C118.656 70.3099 118.572 70.2011 118.515 70.0776L107.97 63.5838C107.97 63.8211 107.952 64.0584 107.933 64.2957Z" fill="#BADFFF"/>
<path d="M126.319 77.4585C126.364 78.2732 126.478 79.0827 126.658 79.8786C127.016 81.1898 127.467 82.4742 128.005 83.7222C128.496 84.8905 129.082 86.0162 129.758 87.0878C129.758 86.606 129.605 80.5174 130.419 79.8786H130.441C129.711 78.3747 128.98 76.7503 128.352 75.2865C127.687 73.7911 127.11 72.2577 126.625 70.6945C126.554 70.8724 126.502 71.0571 126.468 71.2458C126.163 71.546 125.814 71.7994 125.435 71.9977C124.705 72.4139 122.674 72.2641 121.842 71.9428C123.956 73.3482 125.778 75.1588 126.319 77.4585ZM119.136 70.574C119.004 70.5429 118.881 70.482 118.775 70.3959C118.67 70.3099 118.586 70.2011 118.53 70.0776C118.413 69.8393 118.364 69.5731 118.389 69.3087C118.415 69.0443 118.513 68.7922 118.673 68.5802C118.833 68.3683 119.049 68.205 119.296 68.1085C119.544 68.0119 119.813 67.9859 120.075 68.0334C121.9 68.3072 123.361 69.103 124.307 68.3182C124.869 67.8474 124.869 67.1902 125.906 66.5295C126.943 65.8688 134.18 66.5295 137.189 67.2815C140.198 68.0334 145.463 80.9116 146.405 84.0143C147.347 87.1171 140.855 99.7104 139.445 101.97C138.613 103.302 137.514 108.318 136.594 112.965C135.955 116.18 135.4 119.217 135.071 120.743C133.713 120.376 132.382 119.915 131.087 119.363C128.975 118.393 126.989 117.167 125.176 115.713C125.38 115.016 125.983 112.585 126.636 109.712C127.713 104.813 128.878 98.6298 128.283 97.5639C126.874 95.0088 124.898 91.5448 124.522 86.0001C124.146 80.4553 121.093 76.294 117.847 74.2499C116.065 73.1293 116.416 71.0303 118.055 70.6324C118.415 70.5497 118.788 70.5436 119.151 70.6143L119.136 70.574Z" fill="#A46052"/>
<path d="M119.403 161.341C119.403 162.177 119.428 162.991 119.472 163.736C119.662 163.736 119.837 163.736 120.034 163.736C119.983 162.845 119.954 161.728 119.965 160.33H119.947C119.794 160.682 119.612 161.02 119.403 161.341Z" fill="#BADFFF"/>
<path d="M125.537 155.176C125.767 154.081 125.928 153.172 125.997 152.541C124.964 151.508 121.013 150.942 119.837 151.555C119.793 151.982 119.728 152.818 119.658 153.891C119.877 154.129 120.05 154.405 120.169 154.705C120.448 155.416 120.596 156.172 120.604 156.935C122.309 156.808 124.369 157.666 124.369 157.666C124.087 158.761 123.766 159.943 123.416 161.082C123.149 161.958 122.897 162.706 122.663 163.349V163.371C122.886 163.309 123.105 163.247 123.317 163.177C123.573 162.447 123.824 161.666 124.047 160.874C124.259 160.17 124.46 159.45 124.65 158.742C125.019 157.479 125.311 156.249 125.537 155.176Z" fill="#BADFFF"/>
<path d="M119.961 160.337H119.979C119.979 161.735 119.998 162.852 120.049 163.743C120.936 163.724 121.819 163.602 122.678 163.378V163.356C122.912 162.714 123.164 161.965 123.43 161.089C123.795 159.95 124.102 158.782 124.383 157.673C124.383 157.673 122.324 156.811 120.618 156.943C120.65 158.109 120.426 159.268 119.961 160.337Z" fill="#8BC7EE"/>
<path d="M126.607 109.701C123.708 109.599 121.86 110.515 122.225 112.026C122.232 112.056 122.24 112.085 122.251 112.114C122.565 113.249 123.711 114.52 125.154 115.702C125.369 115.005 125.975 112.574 126.607 109.701Z" fill="#904D15"/>
<path d="M123.332 163.166C125.121 162.582 126.41 161.706 126.757 161.181C126.147 160.9 124.697 160.648 124.084 160.867C123.839 161.67 123.587 162.436 123.332 163.166Z" fill="#A46052"/>
<path d="M126.318 77.4585C126.364 78.2733 126.478 79.0827 126.658 79.8786C127.016 81.1899 127.467 82.4742 128.005 83.7222C127.571 82.0176 127.721 75.8122 128.349 75.2719C127.683 73.7765 127.106 72.2431 126.621 70.6799C126.55 70.8578 126.498 71.0425 126.464 71.2312C126.212 72.5416 126.158 75.2647 126.318 77.4585Z" fill="#A46052"/>
<path d="M128.349 75.2719C127.721 75.8121 127.571 82.0175 128.005 83.7222C128.496 84.8905 129.082 86.0162 129.758 87.0878C129.758 86.606 129.605 80.5174 130.419 79.8786H130.441C129.711 78.3747 128.98 76.7503 128.352 75.2865L128.349 75.2719Z" fill="#A46052"/>
<path d="M136.594 112.965C135.955 116.18 135.4 119.217 135.071 120.743C138.357 121.659 142.093 122.203 142.925 121.053C144.233 119.221 143.028 116.571 136.594 112.965Z" fill="#904D15"/>
<path d="M69.2937 77.254C70.6133 78.5329 71.5772 80.1329 72.0907 81.8971C72.4233 83.0747 72.5468 84.3016 72.4559 85.5218C74.1136 88.2741 76.6295 90.5884 79.9706 92.4792C81.1901 89.9861 82.7712 87.5659 83.9872 86.4599V86.4782C78.1448 84.602 72.6932 80.3785 69.3485 77.2211L69.2937 77.254Z" fill="#4A2B19"/>
<path d="M76.6478 194.77C76.6989 194.099 76.7683 193.391 76.845 192.65C64.9486 190.846 48.8311 187.798 45.4133 185.444C43.2955 183.984 41.6596 175.063 40.597 164.415C40.6808 166.847 40.5378 169.281 40.1698 171.686C39.9763 173.011 41.6304 183.973 43.091 185.798C44.4164 187.455 51.1242 190.543 60.2528 192.368C65.876 193.493 71.5687 194.559 76.6478 194.77Z" fill="#DD9131"/>
<path d="M91.6151 186.163C90.1983 186.163 89.227 186.13 88.8546 186.09C88.6756 181.345 88.9276 177.063 89.8149 173.446C90.275 173.424 90.8884 173.416 91.6151 173.405C90.505 177.585 90.505 181.983 91.6151 186.163Z" fill="#945643"/>
<path d="M124.964 180.461C127.125 175.855 126.658 167.769 126.658 167.769C127.604 167.251 129.503 166.419 131.073 165.506C131.263 167.01 130.32 176.034 124.679 182.429L124.964 180.461Z" fill="#945643"/>
<path d="M111.895 145.868C112.103 144.408 113.122 141.853 114.451 138.783C113.384 138.48 112.353 138.061 111.377 137.534C110.161 139.932 110.789 142.834 111.895 145.868Z" fill="#DD9131"/>
<path d="M135.586 118.162C135.381 119.217 135.221 120.112 135.071 120.743C133.713 120.376 132.381 119.915 131.087 119.363C128.975 118.393 126.989 117.167 125.176 115.713C125.278 115.366 125.475 114.593 125.731 113.552C128.433 116.11 131.89 117.727 135.586 118.162Z" fill="#945643"/>
<path d="M126.625 70.6798C127.158 69.468 133.333 69.9133 135.754 70.6798C135.754 70.6798 132.946 69.1614 130.313 69.2563C127.68 69.3512 126.614 70.6798 126.614 70.6798" fill="#945643"/>
<path d="M139.256 89.6539C131.171 92.0046 132.646 83.7661 132.646 83.7661C130.255 80.3604 126.804 71.7202 126.625 70.6799C126.092 71.8881 126.088 77.6811 126.658 79.8786C127.315 82.4155 129.689 88.6866 132.581 89.8437C135.473 91.0008 138.412 90.8913 139.256 89.6539Z" fill="#945643"/>
<path d="M36.4634 47.8805L36.5072 47.8404C35.1293 46.5906 34.067 45.0324 33.407 43.2934C32.7471 41.5544 32.5083 39.6839 32.7103 37.8349C32.9122 35.986 33.5491 34.2113 34.5689 32.6556C35.5887 31.1 36.9624 29.8076 38.5776 28.8845C37.1535 24.2085 37.913 18.9668 40.9401 15.1267C42.4779 13.2157 44.4477 11.697 46.6873 10.6956C48.9269 9.69423 51.3723 9.23885 53.8224 9.3667C54.0159 6.83343 55.995 4.7928 58.1092 3.38745C65.2076 -1.33233 75.2491 -1.09505 82.1175 3.94961C84.7977 3.41302 87.5691 3.94973 90.242 4.53743C92.1554 4.95355 94.0906 5.40973 95.8105 6.34419C97.5303 7.27866 99.0456 8.76798 99.5861 10.6479C100.126 12.5277 99.4948 14.8092 97.8188 15.824C99.7544 16.6663 101.5 17.891 102.95 19.4247C104.4 20.9584 105.525 22.7694 106.257 24.7488C106.794 26.2308 107.053 28.0158 106.257 29.3226C106.078 29.2204 105.892 29.1108 105.735 28.9904C104.778 22.8616 100.926 19.1895 95.1057 17.0395C93.8934 12.2541 89.2634 6.69824 82.9026 8.9614C81.9276 6.67269 79.3607 5.54123 76.9617 4.88784C73.3869 3.92052 69.5894 3.54453 65.9744 4.33299C62.3595 5.12144 58.9344 7.16926 56.9371 10.2866C56.4332 11.0677 56.006 11.9292 55.272 12.4987C54.7165 12.8776 54.1121 13.1797 53.4755 13.3966C47.1914 16.0248 43.0725 23.077 43.8759 29.8409C43.9781 30.6768 44.1315 31.582 43.7334 32.323C43.4082 32.8117 42.9856 33.2281 42.4919 33.5459C40.4663 35.1652 38.9251 37.3104 38.037 39.7465C37.149 42.1826 36.9482 44.816 37.4566 47.3586C37.1426 47.5192 36.8066 47.7271 36.4634 47.8805Z" fill="#502D24"/>
<path d="M59.3289 142.294C58.7666 146.244 60.6471 167.959 63.6559 169.463C66.1754 170.722 73.0474 171.423 79.547 171.799C79.6018 171.321 79.6347 171.496 79.6894 171.014C73.8836 170.777 65.0179 169.792 63.7034 168.383C62.3888 166.974 60.3185 153.716 60.6836 150.051C60.4277 149.689 60.2087 149.303 60.03 148.898C59.1281 146.846 59.3472 144.517 59.3654 142.272L59.3289 142.294Z" fill="#DD9131"/>
<path d="M103.395 145.382C103.395 145.382 102.369 158.253 107.484 161.531C103.68 160.213 100.685 158.746 100.119 157.64C100.198 156.66 100.331 155.685 100.517 154.72C101.39 150.577 102.796 147.952 103.398 145.397L103.395 145.382Z" fill="#DD9131"/>
</g>
<defs>
<clipPath id="clip0_67_332">
<rect width="176" height="215" fill="white"/>
</clipPath>
</defs>
</svg>
