<svg width="28" height="28" viewBox="0 0 28 28" fill="none" xmlns="http://www.w3.org/2000/svg">
<path fill-rule="evenodd" clip-rule="evenodd" d="M14 0C6.26803 0 0 6.26803 0 14C0 21.732 6.26803 28 14 28C21.732 28 28 21.732 28 14C28 6.26803 21.732 0 14 0ZM13.6101 11.8638L13.5807 11.3794C13.4926 10.1238 14.2662 8.97697 15.4903 8.53212C15.9407 8.37393 16.7046 8.35415 17.204 8.49257C17.3998 8.5519 17.772 8.74959 18.0364 8.92757L18.5162 9.25382L19.045 9.08577C19.3388 8.99675 19.7305 8.84847 19.9068 8.74959C20.0733 8.66063 20.2201 8.61117 20.2201 8.64086C20.2201 8.80892 19.8578 9.38233 19.5543 9.69868C19.143 10.1436 19.2605 10.1831 20.0929 9.88651C20.5923 9.71845 20.6021 9.71845 20.5042 9.90628C20.4454 10.0052 20.1418 10.3512 19.8186 10.6675C19.2702 11.2113 19.2409 11.2706 19.2409 11.7254C19.2409 12.4273 18.9079 13.8905 18.575 14.6913C17.958 16.194 16.636 17.7462 15.314 18.5272C13.4534 19.6246 10.9758 19.9014 8.89 19.2588C8.19473 19.0413 7 18.4876 7 18.3888C7 18.3591 7.36231 18.3196 7.80302 18.3097C8.72352 18.2899 9.64402 18.0329 10.4274 17.5781L10.9563 17.2618L10.3491 17.0542C9.48733 16.7575 8.71372 16.0754 8.51789 15.4328C8.45909 15.2252 8.47869 15.2153 9.02708 15.2153L9.59507 15.2054L9.11522 14.978C8.54723 14.6913 8.02824 14.2069 7.77362 13.7125C7.58753 13.3566 7.35257 12.457 7.42111 12.3878C7.44065 12.3581 7.64633 12.4174 7.88136 12.4965C8.55703 12.7437 8.64517 12.6844 8.25347 12.2691C7.51899 11.5178 7.29377 10.4006 7.64633 9.34278L7.81282 8.86824L8.45909 9.51084C9.78116 10.806 11.3382 11.5771 13.1205 11.8045L13.6101 11.8638Z" fill="#5A3D8A"/>
</svg>
