<svg width="730" height="898" viewBox="0 0 730 898" fill="none" xmlns="http://www.w3.org/2000/svg">
<path d="M-164 1309H730C730 1309 629.051 1072.06 582.6 837.634C536.149 603.204 293.338 235.266 -164 277.113V1309Z" fill="#BBE9F3"/>
<g clip-path="url(#clip0_1_113)">
<path d="M397.453 917.58C391.146 919.894 211.154 918.111 204.322 913.139C201.727 911.273 200.426 881.671 199.761 845.835C199.613 838.101 199.502 830.116 199.438 821.996L186.022 713.425L306.358 714.228L316.514 822.788L315.794 846.627C315.794 846.627 384.434 882.067 391.405 888.456C398.376 894.846 403.759 915.276 397.453 917.58Z" fill="#ED776A"/>
<path d="M397.453 917.58C391.146 919.894 211.154 918.111 204.322 913.139C201.164 910.857 199.908 867.62 199.438 821.996L316.533 822.778L315.813 846.617C315.813 846.617 384.452 882.056 391.423 888.446C398.394 894.836 403.759 915.276 397.453 917.58Z" fill="white"/>
<path d="M397.453 917.58C391.146 919.894 211.154 918.111 204.322 913.139C201.727 911.274 200.425 881.671 199.761 845.835L315.813 846.617C315.813 846.617 384.452 882.057 391.423 888.446C398.394 894.836 403.759 915.276 397.453 917.58Z" fill="#660BA4"/>
<path d="M379.9 881.024C376.546 880.889 373.203 881.543 370.084 882.945C366.966 884.346 364.139 886.465 361.785 889.165C357.999 893.751 354.74 900.214 354.897 907.281C354.897 907.479 355.238 907.49 355.266 907.281C357.113 893.97 367.925 882.369 379.9 881.452C379.949 881.437 379.992 881.402 380.019 881.354C380.046 881.306 380.057 881.248 380.048 881.191C380.039 881.151 380.021 881.114 379.995 881.085C379.969 881.055 379.936 881.035 379.9 881.024V881.024Z" fill="#071843"/>
<path d="M327.493 850.119C315.416 849.806 301.381 854.476 293.792 865.556C293.496 865.983 294.041 866.452 294.401 866.244C305.008 860.102 316.167 855.259 327.687 851.797C327.862 851.742 328.014 851.617 328.115 851.446C328.216 851.274 328.258 851.067 328.235 850.863C328.211 850.659 328.123 850.471 327.987 850.335C327.85 850.198 327.675 850.121 327.493 850.119V850.119Z" fill="#071843"/>
<path d="M336.781 854.309C324.704 854.007 310.661 858.676 303.071 869.746C302.775 870.184 303.32 870.643 303.68 870.445C314.289 864.295 325.451 859.448 336.975 855.987C337.151 855.932 337.303 855.807 337.404 855.636C337.504 855.464 337.547 855.257 337.523 855.053C337.5 854.849 337.412 854.661 337.275 854.525C337.139 854.388 336.964 854.311 336.781 854.309V854.309Z" fill="#071843"/>
<path d="M346.07 858.51C333.993 858.197 319.949 862.867 312.36 873.947C312.064 874.374 312.618 874.843 312.969 874.635C323.579 868.493 334.741 863.65 346.264 860.188C346.44 860.133 346.592 860.008 346.692 859.836C346.793 859.665 346.835 859.458 346.812 859.254C346.788 859.05 346.7 858.862 346.564 858.725C346.428 858.589 346.252 858.512 346.07 858.51V858.51Z" fill="#071843"/>
<path d="M355.359 862.7C343.282 862.398 329.247 867.067 321.657 878.148C321.362 878.575 321.907 879.033 322.267 878.835C332.86 872.695 344.002 867.849 355.506 864.378C355.679 864.325 355.83 864.205 355.932 864.039C356.034 863.872 356.08 863.67 356.063 863.468C356.045 863.267 355.964 863.079 355.835 862.938C355.707 862.798 355.537 862.713 355.359 862.7V862.7Z" fill="#071843"/>
<path d="M221.043 876.115C207.498 876.021 207.35 899.797 220.923 899.891C234.496 899.985 234.616 876.209 221.043 876.115Z" fill="#FFFFF2"/>
<path d="M14.6721 209.971C14.6721 209.971 151.48 480.262 155.017 499.15C160.446 528.179 192.143 844.584 192.143 844.584L326.791 843.646C326.791 843.646 300.144 561.169 277.32 477.781C264.855 432.262 199.327 308.921 168.599 247.964C165.829 242.523 166.669 217.611 166.669 217.611L14.6721 209.971Z" fill="#6C72FC"/>
<path d="M313.846 818.338C292.97 817.869 229.769 815.898 201.94 818.442C201.727 818.442 201.737 818.859 201.94 818.901C211.496 820.579 292.97 819.453 313.846 818.984C313.922 818.984 313.995 818.95 314.049 818.889C314.102 818.829 314.132 818.747 314.132 818.661C314.132 818.575 314.102 818.493 314.049 818.432C313.995 818.372 313.922 818.338 313.846 818.338Z" fill="#C2C08D"/>
<path d="M38.2629 234.987C47.2375 251.321 56.7293 267.3 65.9163 283.54C75.1033 299.779 84.2627 315.978 93.2927 332.301C111.353 364.912 128.976 397.816 146.162 431.011C154.241 446.553 161.932 462.282 167.398 479.147C172.687 495.935 176.606 513.233 179.106 530.827C181.765 548.484 183.446 566.266 185.025 584.091C186.705 603.054 188.37 622.015 190.02 640.971C193.427 679.768 201.173 748.625 204.58 787.411C205.005 792.171 205.405 796.931 205.781 801.691C205.836 802.39 204.728 802.515 204.654 801.816C200.804 763.249 193.325 694.538 189.881 655.94L184.701 598.287C183.104 580.421 181.59 562.535 179.328 544.752C177.251 527.229 174.017 509.905 169.651 492.927C164.81 475.324 158.251 458.382 150.095 442.415C133.605 409.372 116.126 376.882 98.6388 344.434C81.0034 311.746 63.2202 279.151 44.7538 247.016C42.4732 243.055 40.1372 239.104 37.8012 235.206C37.6166 234.925 38.0875 234.643 38.2629 234.987Z" fill="#C2C08D"/>
<path d="M68.8154 928.618C62.1952 928.076 -108.111 847.409 -112.801 839.914C-112.994 839.471 -113.08 838.979 -113.051 838.486C-112.94 831.846 -100.835 808.748 -90.5957 778.374C-89.9493 776.425 -85.4343 767.44 -79.1742 755.307C-61.9543 722.004 -31.5032 664.956 -31.5032 664.956L79.8214 716.698L25.2902 806.444L16.7125 828.229C16.7125 828.229 68.5477 890.218 72.8873 899.047C77.2269 907.875 75.4264 929.191 68.8154 928.618Z" fill="#ED776A"/>
<path d="M68.8154 928.618C62.1952 928.076 -108.111 847.409 -112.801 839.914C-112.994 839.471 -113.08 838.979 -113.051 838.486C-112.94 831.846 -100.835 808.748 -90.5957 778.374C-89.9494 776.425 -85.4343 767.44 -79.1742 755.307L25.2901 806.444L16.7125 828.229C16.7125 828.229 68.5476 890.218 72.8872 899.047C77.2268 907.875 75.4264 929.191 68.8154 928.618Z" fill="white"/>
<path d="M68.8061 928.608C62.1859 928.076 -108.12 847.409 -112.792 839.914C-114.584 837.079 -106.643 810.801 -90.6326 778.416L16.694 828.282C16.694 828.282 68.5291 890.249 72.878 899.088C77.2268 907.928 75.4263 929.129 68.8061 928.608Z" fill="#660BA4"/>
<path d="M69.1848 919.977C41.5961 906.155 -70.8273 853.319 -99.0255 842.009C-99.2471 841.926 -99.3117 842.093 -99.0994 842.207C-72.0184 856.592 40.7743 908.397 68.9448 920.498C69.5911 920.748 69.7665 920.279 69.1848 919.977Z" fill="#071843"/>
<path d="M64.6883 887.279C61.6225 885.736 58.3063 884.928 54.9497 884.906C51.593 884.885 48.269 885.65 45.1878 887.153C40.1557 889.801 34.9851 894.45 32.7876 901.037C32.723 901.225 33.0277 901.371 33.12 901.194C39.2416 889.624 53.1376 883.474 64.5129 887.643C64.563 887.652 64.6143 887.639 64.6558 887.606C64.6972 887.573 64.7255 887.523 64.7345 887.466C64.7389 887.433 64.737 887.399 64.729 887.367C64.7211 887.334 64.7072 887.304 64.6883 887.279V887.279Z" fill="#071843"/>
<path d="M26.3705 836.422C15.2907 831.023 0.711489 829.408 -10.0083 836.422C-10.4237 836.693 -10.0729 837.361 -9.66663 837.319C2.20786 836.116 14.1624 836.354 25.992 838.028C26.0926 838.025 26.1918 838 26.2839 837.954C26.376 837.908 26.4591 837.842 26.5285 837.76C26.598 837.677 26.6524 837.58 26.6887 837.474C26.7249 837.368 26.7423 837.255 26.7399 837.142C26.7351 836.997 26.699 836.856 26.6346 836.73C26.5702 836.605 26.4795 836.499 26.3705 836.422V836.422Z" fill="#071843"/>
<path d="M33.5909 844.261C22.511 838.862 7.93183 837.246 -2.78792 844.261C-3.20341 844.532 -2.85255 845.189 -2.44629 845.157C9.42787 843.951 21.3824 844.185 33.2123 845.856C33.4131 845.856 33.6057 845.766 33.7477 845.605C33.8897 845.445 33.9694 845.228 33.9694 845.001C33.9676 844.851 33.9319 844.705 33.8656 844.575C33.7993 844.446 33.7047 844.337 33.5909 844.261V844.261Z" fill="#071843"/>
<path d="M40.802 852.058C29.7222 846.648 15.1522 845.043 4.43247 852.058C4.01698 852.329 4.36785 852.996 4.76488 852.954C16.6425 851.751 28.6 851.989 40.4327 853.663C40.6328 853.663 40.825 853.575 40.9682 853.417C41.1114 853.259 41.1942 853.044 41.1991 852.819C41.2016 852.663 41.1658 852.509 41.0957 852.375C41.0256 852.241 40.924 852.131 40.802 852.058V852.058Z" fill="#071843"/>
<path d="M48.0223 859.906C36.9425 854.507 22.3633 852.892 11.6528 859.906C11.2373 860.177 11.5789 860.845 11.9852 860.803C23.8595 859.595 35.8145 859.832 47.6438 861.512C47.7444 861.509 47.8436 861.484 47.9357 861.438C48.0277 861.392 48.1109 861.326 48.1803 861.244C48.2498 861.161 48.3042 861.064 48.3404 860.958C48.3767 860.852 48.3941 860.739 48.3916 860.626C48.3869 860.481 48.3507 860.34 48.2863 860.214C48.222 860.089 48.1313 859.983 48.0223 859.906V859.906Z" fill="#071843"/>
<path d="M26.7491 831.044L-97.8528 772.214C-97.8528 772.214 67.4213 487.11 68.8063 467.942C70.0066 450.962 3.42607 302.208 1.20087 259.024C-1.20899 212.472 19.0394 176.762 41.079 154.726L166.65 217.632C166.65 217.632 155.672 242.94 134.039 256.355C134.039 256.355 198.431 428.186 194.055 480.69C189.761 533.474 26.7491 831.044 26.7491 831.044Z" fill="#6C72FC"/>
<path d="M32.6122 804.235C14.5983 795.187 19.8796 797.501 1.77335 788.683C-7.08128 784.367 -65.3151 756.089 -74.2066 753.702C-74.4005 753.702 -74.5298 754.004 -74.3636 754.119C-66.6262 759.612 -7.96767 786.744 0.960828 790.861C19.2149 799.283 14.0535 796.646 32.3537 804.829C32.4239 804.866 32.504 804.872 32.5778 804.845C32.6516 804.818 32.7134 804.76 32.7507 804.683C32.7831 804.602 32.7867 804.511 32.7609 804.427C32.7352 804.344 32.6819 804.275 32.6122 804.235Z" fill="#C2C08D"/>
<path d="M155.358 253.52C141.869 256.647 128.582 261.786 115.859 267.373C115.807 267.392 115.758 267.423 115.717 267.463C115.675 267.503 115.641 267.552 115.616 267.607C115.591 267.663 115.576 267.723 115.572 267.784C115.567 267.846 115.574 267.908 115.591 267.967C115.608 268.026 115.635 268.08 115.671 268.127C115.706 268.174 115.75 268.213 115.799 268.241C115.848 268.269 115.901 268.286 115.955 268.291C116.01 268.296 116.065 268.288 116.117 268.269C129.376 264.1 142.847 260.212 155.866 255.25C155.967 255.214 156.06 255.155 156.14 255.077C156.221 255 156.286 254.905 156.334 254.798C156.381 254.691 156.409 254.574 156.416 254.455C156.423 254.336 156.409 254.217 156.374 254.104C156.342 253.99 156.289 253.884 156.221 253.793C156.152 253.702 156.068 253.628 155.974 253.573C155.879 253.519 155.776 253.486 155.671 253.477C155.565 253.468 155.459 253.483 155.358 253.52Z" fill="#C2C08D"/>
<path d="M140.105 247.308C138.819 249.808 137.681 252.403 136.698 255.073C135.932 257.158 134.944 259.336 134.934 261.598C134.934 262.036 135.452 262.151 135.692 261.89C137.215 260.243 138.037 257.825 139.006 255.761C140.133 253.364 141.305 250.998 142.367 248.569C143.078 246.964 140.899 245.775 140.105 247.308Z" fill="#C2C08D"/>
<path d="M141.822 233.622C142.635 231.381 143.457 229.15 144.315 226.94C145.174 224.73 146.236 222.396 146.965 220.04C147.085 219.665 147.602 219.925 147.464 220.3C146.651 222.531 146.116 224.928 145.451 227.232C144.786 229.536 144.094 231.839 143.392 234.132C142.047 238.43 140.506 242.647 138.775 246.766C140.899 246.913 143.025 246.525 144.999 245.63C147.095 244.483 148.387 242.002 149.44 239.761C150.603 237.259 151.684 234.706 152.884 232.235C154.329 229.558 155.565 226.743 156.577 223.824C156.688 223.448 157.196 223.709 157.076 224.084C155.063 230.213 153.078 236.342 149.994 241.971C148.784 244.181 147.796 246.495 145.59 247.329C143.226 248.235 140.659 248.017 138.203 247.787C137.898 247.881 137.511 247.652 137.621 247.235C138.817 242.62 140.219 238.076 141.822 233.622V233.622Z" fill="#C2C08D"/>
<path d="M136.015 261.942C140.484 273.002 144.408 283.998 148.581 295.006C152.653 305.763 156.466 316.645 160.16 327.569C167.62 349.659 174.262 372.084 180.085 394.842C182.966 406.078 185.594 417.391 187.97 428.781C190.343 440.246 192.66 451.712 193.575 463.439C194.549 475.089 193.54 486.843 190.601 498.066C187.536 509.531 170.962 548.411 166.253 559.105C163.373 565.651 162.412 564.745 163.816 561.44C167.768 552.059 190.592 498.066 191.783 475.707C192.393 464.137 188.09 447.751 185.893 436.463C183.658 424.997 181.11 413.531 178.321 402.138C172.781 379.748 166.254 357.776 159.476 335.845C155.681 323.555 151.6 311.391 147.741 299.123C143.881 286.854 139.837 275.639 135.535 262.151C135.518 262.076 135.528 261.997 135.562 261.931C135.597 261.864 135.653 261.816 135.719 261.796C135.776 261.777 135.837 261.781 135.891 261.808C135.945 261.835 135.989 261.882 136.015 261.942V261.942Z" fill="#C2C08D"/>
<path d="M41.3283 224.334C43.5812 223.427 46.6836 225.022 48.9642 225.481C54.7912 226.687 60.7361 226.995 66.6365 226.398C69.5542 226.117 72.5365 225.752 75.0849 224.001C79.3968 221.051 83.0254 215.797 85.9708 211.263C89.2117 206.291 92.5726 200.569 94.5392 194.773C94.6593 194.419 95.1025 194.669 95.0009 195.023C94.0222 198.401 93.2835 201.809 92.0463 205.103C90.8484 208.196 89.4344 211.176 87.8175 214.015C84.8721 219.341 81.502 225.022 76.5068 228.139C71.2808 231.412 64.5867 231.12 58.7975 230.661C55.445 230.398 52.1148 229.851 48.8349 229.025C46.4712 228.431 42.4917 227.983 41.0052 225.575C40.8939 225.396 40.8499 225.175 40.8828 224.96C40.9157 224.745 41.0228 224.554 41.1806 224.428C41.2244 224.387 41.2745 224.355 41.3283 224.334Z" fill="#C2C08D"/>
<path d="M-61.8065 745.738C-40.8379 710.861 47.3852 539.353 67.0335 503.413C71.7332 494.803 77.1438 486.214 80.2185 476.656C83.5517 466.232 81.8343 456.132 79.0274 445.875C73.7485 427.111 67.5275 408.701 60.3948 390.735C53.3683 372.671 45.7879 354.889 38.3367 337.044C30.8855 319.199 23.0558 301.604 17.5066 283.019C12.2068 265.299 10.314 246.932 14.7367 228.681C19.1594 210.429 28.3372 194.335 37.9766 179.274C40.5157 175.292 43.0918 171.341 45.6402 167.37C45.8341 167.057 46.2403 167.443 46.0464 167.735C35.4467 183.474 25.1055 200.131 18.79 218.695C15.565 227.843 13.7145 237.535 13.3148 247.37C13.157 257.353 14.4228 267.299 17.0634 276.827C21.8739 295.443 29.7221 313.038 36.9887 330.508C44.3752 348.374 52.0388 366.135 59.1945 384.147C66.5088 402.213 72.9808 420.698 78.5842 439.527C81.0218 447.929 83.7548 456.726 83.487 465.69C83.1916 475.509 78.9443 484.296 74.5493 492.52C55.4273 528.315 -32.3618 698.551 -53.2012 733.303L-61.1048 746.437C-61.4372 746.968 -62.1481 746.311 -61.8065 745.738Z" fill="#C2C08D"/>
<path d="M288.335 130.815C317.438 208.147 367.528 360.934 372.735 387.066C376.272 404.786 301.464 424.841 300.652 412.395C299.618 396.457 260.137 210.273 260.026 129.793C259.915 89.0583 278.898 105.736 288.335 130.815Z" fill="#C36358"/>
<path d="M300.716 407.194C299.525 416.773 297.494 461.208 299.378 473.716C301.261 486.224 308.999 521.779 317.632 521.122C326.265 520.466 324.741 509.844 324.741 509.844C324.741 509.844 330.115 524.27 338.748 522.717C347.381 521.164 344.528 504.737 344.528 504.737C344.528 504.737 350.991 519.1 359.513 516.859C368.036 514.618 362.708 498.639 362.708 498.639C362.708 498.639 368.082 512.085 374.416 506.905C382.024 500.651 369.624 477.146 368.46 463.126C368.193 459.999 367.159 398.323 367.159 398.323L300.716 407.194Z" fill="#C36358"/>
<path d="M363.096 500.015C354.02 482.701 352.699 473.351 353.198 453.547C353.198 453.151 352.709 453.047 352.662 453.453C350.603 472.799 350.76 484.797 362.376 500.557C362.939 501.328 363.502 500.849 363.096 500.015Z" fill="#071843"/>
<path d="M345.22 506.102C337.187 487.236 335.673 477.052 334.879 456.267C334.879 455.976 334.427 455.965 334.418 456.267C333.716 476.729 334.113 488.695 344.343 506.415C344.777 507.217 345.59 506.967 345.22 506.102Z" fill="#071843"/>
<path d="M324.723 508.791C318.121 489.831 316.034 478.813 317.53 458.519C317.534 458.469 317.529 458.42 317.516 458.373C317.503 458.325 317.481 458.282 317.453 458.244C317.424 458.206 317.39 458.175 317.351 458.152C317.312 458.13 317.269 458.116 317.225 458.112C317.145 458.103 317.065 458.127 317 458.181C316.935 458.235 316.89 458.315 316.875 458.404C313.569 478.938 316.071 492.718 324.196 508.948C324.723 510.063 325.101 509.98 324.723 508.791Z" fill="#071843"/>
<path d="M372.597 389.057C372.597 389.057 386.207 409.049 390.463 419.285C394.72 429.521 398.127 474.446 389.54 475.832C378.46 477.604 371.997 452.129 370.298 439.183C370.298 439.183 344.768 443.353 336.615 426.175C328.462 408.997 372.597 389.057 372.597 389.057Z" fill="#C36358"/>
<path d="M386.4 475.238C375.321 468.661 374 451.504 371.489 439.089C371.446 438.784 371.297 438.509 371.076 438.326C370.855 438.142 370.579 438.065 370.307 438.11C370.188 438.134 370.072 438.18 369.965 438.245C359.172 439.183 343.697 436.942 336.467 426.946C336.426 426.882 336.365 426.838 336.296 426.824C336.227 426.811 336.156 426.828 336.098 426.873C336.07 426.895 336.046 426.923 336.028 426.955C336.01 426.987 335.997 427.024 335.991 427.061C335.985 427.099 335.986 427.138 335.993 427.175C336 427.213 336.014 427.248 336.033 427.28V427.28C342.497 439.183 357.547 442.79 369.273 440.914C371.674 453.693 373.649 470.839 386.336 475.311C386.428 475.384 386.474 475.28 386.4 475.238Z" fill="#071843"/>
<path d="M257.524 204.759L324.926 211.107C324.926 211.107 295.998 133.744 281.807 113.699C265.833 91.1534 259.112 105.298 256.212 132.555C253.313 159.813 257.524 204.759 257.524 204.759Z" fill="#FD8496"/>
<path d="M307.18 174.395C306.242 173.087 305.18 171.898 304.013 170.851C305.232 169.539 306.347 168.109 307.346 166.578C306.958 165.65 306.552 164.722 306.173 163.805C305.022 165.826 303.665 167.687 302.129 169.35C298.105 166.557 293.552 164.879 288.843 164.451C286.008 164.17 282.813 164.451 280.413 166.328C279.395 167.072 278.635 168.189 278.262 169.491C277.888 170.794 277.924 172.202 278.363 173.478C280.874 180.128 289.849 179.326 294.733 177.387C297.382 176.319 299.854 174.758 302.046 172.769C302.977 173.604 303.831 174.544 304.594 175.573C308.528 180.712 309.94 188.081 306.912 194.242C304.244 199.662 299.054 203.081 293.985 205.082C291.341 206.134 288.623 206.936 285.86 207.48L292.711 208.136C293.468 207.886 294.235 207.605 294.973 207.334C300.624 205.145 306.349 201.382 309.294 195.253C312.59 188.446 311.279 180.347 307.18 174.395ZM284.854 176.219C282.241 175.542 277.984 172.394 280.708 168.923C282.398 166.838 285.62 166.588 287.965 166.838C292.277 167.21 296.453 168.708 300.162 171.216C295.971 174.927 290.108 177.543 284.808 176.219H284.854Z" fill="#C4556B"/>
<path d="M266.369 102.901C267.237 102.776 268.142 102.651 269.065 102.557C268.155 102.462 267.237 102.579 266.369 102.901V102.901ZM260.829 175.479C259.054 175.394 257.289 175.126 255.557 174.677C255.612 175.417 255.64 176.157 255.668 176.866C257.445 177.054 259.236 176.948 260.986 176.553C261.586 176.428 261.374 175.511 260.857 175.511L260.829 175.479ZM258.475 121.84C258.276 121.601 258.049 121.394 257.801 121.225V121.225C257.634 122.153 257.468 123.133 257.302 124.123C257.329 124.505 257.294 124.89 257.2 125.259C257.175 125.358 257.137 125.453 257.09 125.541C256.896 126.958 256.674 128.438 256.517 129.981L256.6 129.887C258.373 127.948 260.746 124.498 258.502 121.84H258.475Z" fill="#C4556B"/>
<path d="M260.155 192.042C262.519 191.876 283.543 193.658 288.104 194.127C292.665 194.596 311.325 196.42 315.997 197.463C316.042 197.463 316.084 197.482 316.115 197.518C316.146 197.553 316.164 197.6 316.164 197.65C316.164 197.7 316.146 197.748 316.115 197.783C316.084 197.818 316.042 197.838 315.997 197.838C311.27 197.838 292.444 196.097 287.79 195.691C283.137 195.284 262.371 193.012 260.09 192.397C259.915 192.334 259.998 192.053 260.155 192.042Z" fill="#6D2D3C"/>
<path d="M287.245 207.594L257.524 204.759C257.524 204.759 253.313 159.792 256.222 132.556C257.293 122.309 258.992 113.95 261.411 108.654L287.245 207.594Z" fill="#6D2D3C"/>
<path d="M178.164 275.159L29.5745 160.761C29.4545 157.426 104.742 106.611 173.446 81.2928C196.686 72.7247 240.405 72.8706 255.197 78.9475C272.897 86.244 285.371 127.094 272.223 145.283C266.147 153.694 233.379 172.686 227.451 181.504C224.838 185.413 217.184 208.418 215.272 212.775C193.611 262.088 180.029 274.763 178.164 275.159Z" fill="#FD8496"/>
<path d="M216.002 187.206C214.405 183.276 212.623 179.451 210.813 175.636C209.162 171.949 207.002 168.582 204.414 165.661C199.096 159.896 192.54 155.769 186.511 151.068C186.28 150.89 186.086 151.318 186.299 151.495C192.266 156.23 197.649 161.838 202.309 168.173C204.571 171.3 206.926 174.427 209.169 177.554C211.413 180.681 213.407 184.214 215.531 187.539C215.551 187.575 215.576 187.605 215.607 187.629C215.637 187.653 215.671 187.67 215.707 187.679C215.743 187.687 215.781 187.688 215.817 187.68C215.853 187.672 215.888 187.656 215.919 187.633C215.95 187.612 215.977 187.584 215.998 187.551C216.019 187.517 216.034 187.48 216.041 187.44C216.049 187.4 216.05 187.358 216.043 187.318C216.036 187.278 216.022 187.24 216.002 187.206V187.206Z" fill="#6D2D3C"/>
<path d="M221.163 177.658C220.719 176.753 220.225 175.879 219.686 175.042C218.606 173.375 217.402 171.816 216.085 170.382C213.443 167.533 210.397 165.204 207.073 163.492C207.049 163.477 207.022 163.467 206.993 163.463C206.965 163.46 206.937 163.463 206.91 163.473C206.883 163.483 206.858 163.499 206.837 163.52C206.816 163.541 206.799 163.568 206.787 163.597C206.773 163.624 206.763 163.654 206.76 163.685C206.756 163.717 206.758 163.748 206.766 163.779C206.774 163.809 206.787 163.837 206.805 163.862C206.823 163.886 206.845 163.906 206.87 163.92C209.796 166.199 212.5 168.819 214.94 171.737C216.177 173.165 217.285 174.698 218.393 176.251C218.92 176.991 219.418 177.762 219.935 178.513C220.452 179.263 221.052 180.014 221.634 180.764C221.683 180.826 221.75 180.866 221.823 180.878C221.895 180.89 221.969 180.873 222.032 180.829C222.095 180.786 222.142 180.719 222.165 180.641C222.189 180.562 222.187 180.477 222.16 180.399C221.907 179.451 221.573 178.533 221.163 177.658Z" fill="#6D2D3C"/>
<path d="M97.7247 156.874C99.5352 154.913 101.112 152.695 102.415 150.275C108.5 138.945 107.383 125.541 102.748 113.929C102.203 114.2 101.649 114.512 101.132 114.815C104.216 123.445 105.582 132.806 103.182 141.864C101.799 147.026 99.2535 151.694 95.795 155.414C91.7703 152.621 87.2175 150.942 82.5084 150.515C79.6923 150.234 76.4976 150.515 74.097 152.391C73.0806 153.137 72.3228 154.255 71.9511 155.557C71.5795 156.86 71.6167 158.267 72.0564 159.542C74.5402 166.192 83.5425 165.389 88.4269 163.482C91.0714 162.39 93.5412 160.82 95.7396 158.833C96.6794 159.675 97.548 160.614 98.3341 161.637C102.231 166.776 103.68 174.145 100.652 180.306C97.974 185.726 92.7942 189.145 87.7252 191.146C83.0506 192.979 78.1771 194.087 73.2383 194.44L75.5558 196.233C80.0356 195.97 84.4625 195.016 88.7131 193.397C94.3546 191.208 100.088 187.456 103.034 181.317C106.312 174.51 105 166.411 100.855 160.47C99.9335 159.143 98.8836 157.937 97.7247 156.874ZM78.5658 162.231C75.9436 161.554 71.6871 158.406 74.4201 154.987C76.1098 152.902 79.3322 152.652 81.6774 152.902C85.981 153.269 90.1488 154.768 93.8468 157.28C89.7288 160.98 83.8657 163.555 78.5658 162.231Z" fill="#C4556B"/>
<path d="M187.259 181.296C179.924 181.464 172.688 183.234 165.949 186.507C163.359 184.742 160.478 183.589 157.482 183.12C149.412 181.89 141.084 185.09 133.826 188.811C126.322 192.543 119.523 197.868 113.8 204.498C111 207.742 108.577 211.374 106.589 215.308C106.071 216.35 105.499 217.559 104.954 218.789L105.721 219.373C106.376 218.08 107.143 216.85 107.761 215.766C109.525 212.784 111.508 209.973 113.689 207.365C118.177 202.14 123.349 197.724 129.025 194.273C135.082 190.541 141.767 187.341 148.59 185.986C153.475 185.027 158.904 185.34 163.363 187.8C157.602 191.188 152.394 196.764 152.856 204.686C153.29 211.982 159.513 216.016 165.515 214.203C172.144 212.17 174.905 204.186 173.243 197.098C172.377 193.53 170.507 190.377 167.915 188.113C173.967 185.351 180.388 183.765 186.908 183.422C199.41 182.682 211.607 186.195 222.918 191.99C223.084 191.584 223.222 191.219 223.388 190.823C212.223 184.338 199.813 181.066 187.259 181.296V181.296ZM168.294 191.928C172.218 196.952 173.095 206.437 167.555 210.534C162.449 214.359 155.164 211.367 155.026 203.977C154.869 196.764 160.298 192.147 165.589 189.28C166.583 190.034 167.492 190.923 168.294 191.928V191.928Z" fill="#C4556B"/>
<path d="M217.516 95.4166C216.9 89.3285 215.954 83.2889 214.681 77.3319C214.488 76.4667 214.303 75.5703 214.081 74.7051H213.001C214.718 83.1482 216.27 91.7475 216.408 100.43C216.568 105.325 215.768 110.199 214.065 114.704C212.362 119.209 209.798 123.233 206.556 126.489C200.361 132.743 191.986 136.683 183.584 135.756C180.492 135.378 177.506 134.266 174.822 132.493C179.651 125.957 183.584 117.494 180.713 109.238C179.272 105.163 176.096 102.025 171.987 102.546C170.053 102.863 168.243 103.81 166.779 105.271C165.314 106.731 164.259 108.643 163.742 110.77C161.48 119.109 165.589 127.719 171.387 132.889C165.949 139.425 158.636 146.169 150.4 146.627C142.921 147.065 137.113 141.582 134.38 134.036C129.385 120.141 134.325 103.87 143.743 93.5195L141.896 94.3534C133.023 104.12 128.046 118.327 131.657 132.305C133.734 140.404 138.951 147.68 146.614 149.129C156.134 150.943 165.081 143.771 171.442 136.621C172.043 135.943 172.67 135.203 173.289 134.463C173.331 134.502 173.378 134.533 173.428 134.557C181.128 139.977 190.675 139.518 198.727 135.328C206.778 131.138 213.786 122.82 216.491 112.991C218.089 107.331 218.089 101.264 217.516 95.4166ZM172.874 131.055C169.848 128.639 167.515 125.276 166.161 121.382C164.739 117.097 164.499 111.615 167.149 107.831C169.799 104.047 175.006 103.172 177.758 107.331C182.864 115.002 177.675 124.8 172.874 131.055V131.055Z" fill="#C4556B"/>
<path d="M273.109 101.389C270.595 101.108 268.062 101.108 265.547 101.389C258.049 102.131 250.724 104.35 243.905 107.946C238.365 110.875 232.141 115.242 230.867 122.539C229.879 128.209 232.012 133.535 236.407 135.693C234.007 140.594 232.98 146.202 233.462 151.776C234.275 158.435 237.1 164.573 241.458 169.152C242.058 168.683 242.686 168.256 243.304 167.766C239.392 163.996 236.769 158.803 235.887 153.082C235.006 147.362 235.921 141.473 238.475 136.433C238.669 136.433 238.799 136.558 238.993 136.589C242.18 137.017 245.411 136.629 248.447 135.457C251.484 134.284 254.248 132.356 256.536 129.814C258.308 127.875 260.681 124.394 258.438 121.767C256.591 119.683 253.424 120.506 251.263 121.309C245.587 123.493 240.738 127.794 237.515 133.504C236.276 133.037 235.185 132.171 234.376 131.013C233.697 129.878 233.234 128.596 233.018 127.248C232.802 125.9 232.836 124.517 233.12 123.185C234.21 117.056 239.233 113.241 243.84 110.562C250.248 106.819 257.168 104.317 264.31 103.161C267.316 102.545 270.369 102.276 273.423 102.359C273.349 102.098 273.238 101.723 273.109 101.389ZM244.394 128.251C246.304 126.39 248.493 124.929 250.857 123.935C252.464 123.226 258.336 121.163 257.32 125.259C256.96 126.739 255.409 128.126 254.421 129.053C253.248 130.152 251.965 131.093 250.599 131.857C248.074 133.34 245.289 134.169 242.446 134.286C241.589 134.321 240.731 134.282 239.879 134.171C241.133 131.97 242.652 129.978 244.394 128.251V128.251Z" fill="#C4556B"/>
<path d="M190.777 227.972C184.136 230.457 178.182 234.85 173.501 240.72C169.051 236.102 161.738 234.56 155.765 234.904C149.585 235.408 143.538 237.174 137.917 240.115C136.855 240.647 135.793 241.158 134.75 241.783L136.172 242.826C139.857 241.043 143.673 239.624 147.575 238.583C155.026 236.634 166.189 235.894 172.08 242.753C171.025 244.297 170.077 245.932 169.245 247.641C168.183 249.987 167.066 252.728 167.555 255.438C167.73 256.501 168.177 257.483 168.842 258.262C169.507 259.04 170.36 259.58 171.295 259.816C175.717 260.618 177.758 253.781 177.463 249.924C177.267 247.201 176.375 244.601 174.896 242.44C179.488 236.683 185.326 232.373 191.839 229.932C197.416 227.808 203.233 226.593 209.114 226.325C209.363 225.773 209.631 225.22 209.88 224.668C203.394 224.563 196.938 225.68 190.777 227.972ZM173.585 256.314C172.707 257.418 171.507 257.888 170.418 256.741C169.328 255.594 169.384 253.791 169.734 252.28C170.411 249.857 171.434 247.575 172.763 245.525C172.957 245.192 173.206 244.879 173.418 244.577C175.385 247.964 176.068 253.082 173.585 256.314Z" fill="#C4556B"/>
<path d="M257.874 140.384C248.447 135.922 243.591 110.708 245.391 94.9893C245.52 93.9469 251.799 86.6505 259.065 77.4153C263.46 71.797 268.225 65.4178 272.214 59.2367C273.026 57.965 300.449 96.8342 300.449 96.8342C300.449 96.8342 288.732 107.008 281.853 117.817C281.308 118.673 280.837 119.588 280.45 120.548C280.385 120.673 280.33 120.84 280.228 121.006C277.818 126.395 266.988 144.688 257.874 140.384Z" fill="#C36358"/>
<path d="M274.217 61.1338C269.074 72.881 258.567 102.828 276.571 118.338C277.716 119.345 278.936 120.238 280.219 121.006C280.31 120.863 280.387 120.709 280.449 120.548C280.842 119.595 281.305 118.681 281.834 117.817C288.732 106.987 300.458 96.8238 300.458 96.8238C300.458 96.8238 280.671 68.7846 274.217 61.1338Z" fill="#071843"/>
<path d="M304.964 11.101C291.216 19.7317 266.784 61.2797 267.763 77.5403C269.185 101.118 286.544 122.101 308.075 116.284C328.952 110.656 359.947 55.8282 357.445 39.3487C353.77 15.0515 325.258 -1.62606 304.964 11.101Z" fill="#C36358"/>
<path d="M318.112 67.9612C318.112 67.8465 317.835 67.9612 317.77 68.0445C316.09 70.8172 313.744 73.6733 310.993 72.7768C310.901 72.7768 310.827 72.8915 310.91 72.9436C313.837 74.7156 316.911 70.8902 318.112 67.9612Z" fill="#071843"/>
<path d="M317.807 63.3539C314.114 59.8308 308.186 68.3155 311.556 71.5885C314.926 74.8615 320.863 66.3142 317.807 63.3539Z" fill="#071843"/>
<path d="M330.401 79.0726C330.494 78.9892 330.494 79.354 330.401 79.4687C328.471 82.0224 326.643 85.3267 328.139 88.0889C328.139 88.1827 328.084 88.3078 328.019 88.2244C325.757 85.5039 328.213 81.1469 330.401 79.0726Z" fill="#071843"/>
<path d="M334.418 78.197C338.388 81.2406 332.7 89.9755 329.025 87.1612C325.351 84.3468 331.085 75.6432 334.418 78.197Z" fill="#071843"/>
<path d="M317.576 56.8184C318.786 57.3709 320.014 57.8608 321.269 58.2673C322.71 58.8093 323.799 59.4139 325.323 58.9344C325.74 58.7496 326.092 58.4146 326.324 57.9812C326.556 57.5479 326.655 57.0403 326.606 56.537C326.265 54.4002 324.658 53.2432 322.913 52.5135C321.219 51.708 319.319 51.6449 317.585 52.3363C315.831 53.0243 315.951 55.9846 317.576 56.8184Z" fill="#071843"/>
<path d="M340.336 76.5501C339.49 75.4131 338.698 74.2267 337.963 72.9957C337.04 71.6198 336.227 70.6295 336.117 68.8263C336.147 68.324 336.324 67.8472 336.62 67.4701C336.915 67.0931 337.313 66.8369 337.751 66.7416C339.653 66.4393 341.121 67.7839 342.257 69.4204C343.457 70.997 344.093 73.023 344.039 75.1012C344.112 77.238 341.527 78.0198 340.336 76.5501Z" fill="#071843"/>
<path d="M297.42 88.9541C297.55 90.0694 297.513 91.414 298.344 92.2583C299.223 93.0208 300.237 93.5611 301.317 93.8426C301.33 93.8494 301.342 93.8591 301.352 93.8712C301.362 93.8832 301.37 93.8974 301.375 93.913C301.38 93.9285 301.383 93.945 301.382 93.9615C301.382 93.9781 301.378 93.9944 301.372 94.0094C301.368 94.0242 301.361 94.0376 301.351 94.0485C301.342 94.0594 301.33 94.0675 301.317 94.072C300.619 94.2873 299.884 94.2867 299.187 94.0703C298.49 93.8539 297.857 93.4296 297.356 92.842C296.981 92.275 296.763 91.5957 296.728 90.8893C296.694 90.1829 296.844 89.4808 297.162 88.8707C297.189 88.6831 297.411 88.7873 297.42 88.9541Z" fill="#071843"/>
<path d="M305.416 83.2837C305.276 84.855 305.426 86.4419 305.855 87.945C306.284 89.448 306.983 90.8349 307.909 92.0185C308.712 93.068 309.645 93.9808 310.679 94.7287C310.87 94.8834 311.071 95.0228 311.279 95.1456C311.464 95.2707 311.63 95.3853 311.852 95.5104C311.999 95.6052 312.171 95.6403 312.339 95.61C312.507 95.5797 312.661 95.4857 312.775 95.3436V95.3436C312.839 95.2528 312.895 95.1551 312.941 95.0518V95.0518L313.098 94.812C314.575 92.8316 316.57 89.6003 316.57 89.6003C316.967 90.5593 319.109 95.2498 319.801 94.1449C325.508 84.9827 331.86 74.7781 335.821 64.2921C335.846 64.2145 335.843 64.1292 335.814 64.0536C335.785 63.978 335.731 63.9179 335.664 63.8856C335.609 63.8635 335.55 63.8606 335.494 63.8773C335.438 63.8941 335.388 63.9297 335.35 63.9794C329.552 72.5475 325.129 82.21 319.432 90.9241C318.693 89.5065 317.585 87.0987 316.598 86.2752C316.284 86.1293 312.84 92.6023 312.11 93.4361C312.089 93.4715 312.061 93.5002 312.027 93.5195C308.712 91.2472 307.161 88.1827 305.85 83.2732C305.739 82.9293 305.425 82.9397 305.416 83.2837Z" fill="#071843"/>
<path d="M310.217 92.9046C308.197 93.3673 306.104 93.2344 304.142 92.5189C303.084 92.0903 302.17 91.2996 301.529 90.257C300.144 87.9638 301.529 86.0876 303.08 84.7951C303.911 84.1305 304.81 83.581 305.758 83.1586C306.288 86.8603 307.85 90.2745 310.217 92.9046V92.9046Z" fill="#071843"/>
<path d="M304.142 92.5189C303.084 92.0903 302.17 91.2996 301.529 90.257C300.144 87.9638 301.529 86.0876 303.08 84.7951C304.834 86.911 305.601 90.2466 304.142 92.5189Z" fill="#FF98BB"/>
<path d="M353.706 57.6002C354.057 55.7865 356.263 46.791 354.02 45.6549C351.12 44.1747 342.691 47.0099 338.711 39.0672C334.732 31.1245 329.616 22.6502 319.709 24.1095C311.649 25.2978 305.564 35.2939 298.907 41.0477C292.25 46.8015 286.128 50.8666 278.086 47.135C278.086 47.135 278.169 46.7806 278.289 46.1448C286.322 30.9578 299.664 8.56812 307.318 3.75247C327.631 -9.01631 358.553 12.9251 359.338 37.6079C359.643 47.4165 355.488 52.0341 353.706 57.6002Z" fill="#071843"/>
<path d="M288.104 48.292C288.104 48.292 291.419 29.29 284.475 26.8509C277.532 24.4118 267.966 46.322 271.17 54.6608C271.849 56.8086 273.255 58.5642 275.08 59.5416C276.905 60.5189 278.999 60.638 280.902 59.8725L281.188 59.7474L288.104 48.292Z" fill="#C36358"/>
<path d="M281.872 33.2197C281.851 33.1991 281.825 33.1878 281.798 33.1878C281.77 33.1878 281.744 33.1991 281.724 33.2197C281.713 33.2383 281.707 33.26 281.707 33.2822C281.707 33.3044 281.713 33.3261 281.724 33.3447C283.829 39.2757 282.232 45.3318 279.942 50.8562C280.256 48.0731 279.545 45.509 276.406 44.8418C276.371 44.8425 276.338 44.855 276.311 44.8777C276.283 44.9003 276.262 44.932 276.251 44.9685C276.24 45.0049 276.239 45.0443 276.249 45.0813C276.258 45.1183 276.277 45.1512 276.304 45.1754C277.154 45.6976 277.84 46.5039 278.268 47.4836C278.696 48.4633 278.846 49.5685 278.695 50.6477C278.437 52.4539 278.003 54.2226 277.403 55.922C277.237 56.4849 278.003 56.9644 278.271 56.4119L278.326 56.2868C283.229 51.1585 286.368 39.5884 281.872 33.2197Z" fill="#071843"/>
<path d="M347.649 504.372C351.416 511.262 364.324 607.241 356.282 628.411C348.24 649.581 326.985 642.525 321.297 625.722C315.61 608.919 322.895 518.808 324.917 512.106C326.939 505.404 341.998 494.021 347.649 504.372Z" fill="#ED776A"/>
<path d="M349.006 494.74C347.653 497.473 346.109 500.081 344.389 502.537C342.432 505.124 340.305 507.542 338.028 509.771C336.929 509.865 336.181 509.854 335.793 509.959C333.827 510.542 328.074 513.44 324.898 512.043C324.686 507.77 323.052 502.381 322.128 499.64C321.334 497.336 322.839 493.875 324.806 491.071C326.856 490.644 330.632 490.905 331.02 492.01C331.26 492.708 330.318 493.98 329.312 495.064C327.834 496.168 326.994 496.909 327.465 496.669C328.133 496.215 328.753 495.677 329.312 495.064C331.084 493.688 333.762 491.791 336.264 490.269C338.24 489.101 340.345 487.475 342.164 486.318C344.186 486.558 346.107 486.892 347.704 487.246C348.609 489.61 349.053 492.166 349.006 494.74Z" fill="#ED776A"/>
<path d="M324.446 491.207L324.787 491.124C322.821 493.927 321.316 497.378 322.11 499.692C323.033 502.433 324.704 507.822 324.88 512.096C324.545 511.971 324.232 511.78 323.956 511.533C321.186 508.948 317.558 502.881 317.632 500.661C317.752 497.357 322.479 491.78 324.446 491.207Z" fill="#ED776A"/>
<path d="M329.339 495.116C328.78 495.729 328.161 496.268 327.493 496.721C326.976 496.961 327.816 496.221 329.339 495.116Z" fill="#ED776A"/>
<path d="M347.649 487.298C346.088 486.944 344.168 486.61 342.109 486.37C344.14 485.088 345.802 484.348 346.532 485.328C346.981 485.925 347.357 486.588 347.649 487.298V487.298Z" fill="#ED776A"/>
<path d="M319.801 486.308C319.561 491.52 325.6 504.987 328.785 504.195C331.971 503.402 328.139 485.745 326.348 483.848C325.859 483.23 325.221 482.788 324.512 482.575C323.803 482.362 323.055 482.387 322.359 482.649C321.662 482.911 321.049 483.396 320.595 484.047C320.141 484.697 319.865 485.483 319.801 486.308V486.308Z" fill="#ED776A"/>
<path d="M326.791 481.148C325.868 486.245 330.235 500.546 333.494 500.275C336.754 500.004 335.11 481.899 333.577 479.741C333.17 479.053 332.592 478.514 331.916 478.191C331.241 477.869 330.496 477.777 329.774 477.926C329.053 478.076 328.386 478.461 327.856 479.033C327.325 479.606 326.955 480.341 326.791 481.148V481.148Z" fill="#ED776A"/>
<path d="M334.316 480.356C333.162 484.849 335.997 498.076 338.933 498.128C341.869 498.18 341.703 481.805 340.493 479.72C340.175 479.071 339.696 478.54 339.115 478.193C338.534 477.845 337.876 477.696 337.221 477.764C336.566 477.831 335.943 478.112 335.427 478.572C334.911 479.033 334.525 479.652 334.316 480.356V480.356Z" fill="#ED776A"/>
<path d="M341.001 481.378C339.339 485.432 340.327 498.378 343.097 498.91C345.867 499.441 347.806 483.952 346.882 481.784C346.662 481.127 346.278 480.556 345.777 480.139C345.276 479.723 344.679 479.478 344.058 479.435C343.437 479.393 342.818 479.553 342.276 479.897C341.733 480.242 341.291 480.756 341.001 481.378V481.378Z" fill="#ED776A"/>
<path d="M294.964 605.532C301.077 626.379 316.57 636.896 324.141 640.534C331.712 644.172 361.997 648.779 382.412 637C387.028 634.353 390.86 629.318 393.898 622.835C396.982 616.001 399.159 608.692 400.361 601.143C404.054 580.078 402.374 555.416 394.415 541.594C383.335 522.332 349.172 509.99 321.934 521.998C300.061 531.671 288.852 584.622 294.964 605.532Z" fill="#ED776A"/>
<path d="M356.854 577.607C358.038 577.43 359.212 577.179 360.372 576.857C361.72 576.544 362.819 576.461 363.835 575.314C364.083 574.949 364.218 574.502 364.218 574.042C364.218 573.582 364.083 573.135 363.835 572.771C362.717 571.249 360.982 571.165 359.347 571.457C357.69 571.697 356.17 572.622 355.082 574.053C353.955 575.512 355.238 577.784 356.854 577.607Z" fill="#071843"/>
<path d="M394.544 582.339C393.381 581.954 392.356 581.391 391.229 580.88C390.103 580.369 388.903 579.984 388.109 578.66C387.92 578.256 387.854 577.794 387.921 577.344C387.988 576.894 388.183 576.481 388.478 576.169C389.808 574.918 391.516 575.189 393.095 575.814C394.675 576.381 396.012 577.593 396.843 579.212C397.014 579.598 397.081 580.031 397.038 580.459C396.994 580.887 396.841 581.291 396.597 581.622C396.353 581.954 396.03 582.198 395.665 582.326C395.301 582.453 394.911 582.458 394.544 582.339V582.339Z" fill="#071843"/>
<path d="M360.511 610.431C360.271 611.079 360.067 611.744 359.901 612.422C359.218 615.111 358.627 619.864 362.191 621.803C363.556 622.502 365.087 622.678 366.549 622.303C370.547 621.469 374.462 617.008 374.462 617.008C365.912 618.113 360.511 610.431 360.511 610.431Z" fill="#071843"/>
<path d="M359.901 612.422C359.218 615.111 358.627 619.864 362.191 621.803C363.556 622.502 365.087 622.678 366.549 622.303C366.358 619.884 365.492 617.595 364.075 615.768C362.95 614.279 361.516 613.13 359.901 612.422V612.422Z" fill="#E15B43"/>
<path d="M360.668 584.799C354.528 583.913 353.42 597.839 359.107 598.652C364.795 599.465 365.811 585.529 360.668 584.799Z" fill="#071843"/>
<path d="M350.576 588.02C351.988 589.719 353.346 590.178 354.712 588.197C355.268 587.272 355.95 586.452 356.734 585.769C357.306 585.276 357.971 584.937 358.676 584.778C359.382 584.619 360.11 584.644 360.806 584.851C360.917 584.851 360.88 585.039 360.806 585.07C359.284 585.78 357.942 586.904 356.9 588.343C356.097 589.271 355.22 590.553 354.047 590.876C352.312 591.366 350.982 590.022 350.456 588.239C350.317 587.979 350.382 587.853 350.576 588.02Z" fill="#071843"/>
<path d="M389.614 588.917C395.015 588.917 394.655 602.373 389.614 602.394C384.572 602.415 385.08 588.938 389.614 588.917Z" fill="#071843"/>
<path d="M397.831 590.282C396.603 592.044 395.375 592.7 394.184 591.116C393.669 590.378 393.044 589.746 392.337 589.25C391.791 588.9 391.178 588.703 390.55 588.674C389.922 588.645 389.297 588.785 388.727 589.083C388.716 589.088 388.705 589.095 388.696 589.105C388.687 589.114 388.679 589.125 388.674 589.138C388.669 589.151 388.666 589.164 388.666 589.178C388.665 589.192 388.667 589.206 388.672 589.219C388.676 589.234 388.683 589.247 388.693 589.258C388.702 589.269 388.714 589.277 388.727 589.281C390.058 589.671 391.265 590.477 392.208 591.606C392.928 592.315 393.713 593.336 394.756 593.44C396.298 593.586 397.453 592.158 397.896 590.449C398.016 590.209 397.951 590.105 397.831 590.282Z" fill="#071843"/>
<path d="M379.577 584.966C379.494 593.566 379.263 590.459 379.503 599.059C381.138 599.476 388.663 600.789 388.016 601.446C385.699 603.833 379.162 607.575 379.171 607.637C379.762 610.055 382.864 613.047 382.689 613.203C372.071 622.355 363.521 614.996 360.806 611.046C360.252 610.254 360.511 610.306 360.862 610.67C363.733 613.652 371.729 620.781 380.713 612.943C379.211 611.472 378.16 609.501 377.712 607.314C377.712 607.074 382.827 603.843 384.932 601.988C382.67 601.477 379.863 601.091 378.183 600.747C377.786 600.664 377.435 593.857 378.903 584.872C378.923 584.78 378.971 584.699 379.041 584.645C379.11 584.59 379.194 584.567 379.277 584.579C379.361 584.59 379.438 584.636 379.493 584.708C379.548 584.779 379.578 584.871 379.577 584.966V584.966Z" fill="#071843"/>
<path d="M359.126 630.037C359.193 630.521 359.155 631.015 359.015 631.478C358.875 631.942 358.637 632.359 358.322 632.695C357.973 633.04 357.552 633.28 357.098 633.393C356.645 633.505 356.174 633.488 355.728 633.342C355.363 633.238 355.023 633.042 354.733 632.77C354.444 632.497 354.213 632.155 354.057 631.768C353.903 631.353 353.859 630.896 353.931 630.454C354.003 630.011 354.188 629.602 354.463 629.276C354.48 629.257 354.503 629.247 354.528 629.247C354.552 629.247 354.575 629.257 354.592 629.276C354.599 629.289 354.602 629.303 354.602 629.318C354.602 629.333 354.599 629.347 354.592 629.36C354.429 629.786 354.389 630.259 354.478 630.712C354.566 631.165 354.779 631.575 355.085 631.884C355.392 632.193 355.776 632.385 356.185 632.434C356.594 632.482 357.006 632.384 357.362 632.153C357.711 631.915 357.974 631.543 358.102 631.106C358.231 630.668 358.217 630.193 358.064 629.766C357.942 629.532 357.753 629.351 357.529 629.253C357.304 629.155 357.057 629.144 356.827 629.224C356.69 629.291 356.582 629.416 356.526 629.572C356.471 629.729 356.473 629.903 356.531 630.058C356.56 630.138 356.604 630.209 356.66 630.267C356.995 630.422 357.37 630.422 357.704 630.267C357.759 630.267 357.805 630.267 357.768 630.371C357.696 630.512 357.599 630.636 357.484 630.735C357.369 630.834 357.238 630.906 357.098 630.948C356.958 630.989 356.813 630.999 356.669 630.977C356.526 630.955 356.388 630.901 356.263 630.819V630.819C355.985 630.644 355.774 630.357 355.675 630.015C355.576 629.673 355.595 629.301 355.728 628.974C355.928 628.617 356.224 628.341 356.573 628.187C356.922 628.033 357.305 628.009 357.667 628.119C358.062 628.214 358.42 628.454 358.683 628.8C358.947 629.147 359.102 629.581 359.126 630.037V630.037Z" fill="#071843"/>
<path d="M334.575 542.793C338.849 546.566 342.82 550.141 347.935 552.518C353.243 554.999 358.921 556.311 364.666 556.385C373.816 556.51 384.166 554.488 391.7 561.597C391.765 561.597 391.7 561.743 391.626 561.69C381.47 553.946 368.719 560.335 357.39 558.345C348.674 556.812 339.025 551.611 333.974 543.356C333.716 542.949 334.224 542.48 334.575 542.793Z" fill="#071843"/>
<path d="M307.466 593.295C309.693 589.598 312.706 586.591 316.228 584.549C320.586 581.975 324.815 580.036 328.231 575.929C335.618 567.121 337.677 554.384 336.218 542.814C336.172 542.48 336.68 542.365 336.744 542.699C338.877 553.122 338.517 564.005 332.765 573.073C330.175 577.131 326.745 580.412 322.775 582.631C317.115 585.831 311.963 587.843 307.891 593.607C307.715 593.857 307.3 593.555 307.466 593.295Z" fill="#071843"/>
<path d="M295.463 608.398C299.295 608.242 308.759 602.978 310.559 595.327C312.36 587.676 316.893 584.487 318.001 582.819C319.109 581.151 334.344 577.847 337.326 547.254C346.532 552.519 356.862 554.758 367.14 553.717C385.994 551.507 395.763 560.867 401.201 569.863C403.897 574.334 408.154 547.16 389.392 530.128C381.331 522.832 373.788 520.069 368.423 516.786C366.102 515.413 364.004 513.604 362.219 511.439C358.322 504.945 358.526 496.366 364.213 491.196C375.293 481.075 391.756 486.871 397.563 500.578C397.563 500.682 397.757 500.64 397.72 500.578C396.434 496.981 394.427 493.771 391.857 491.196C391.863 491.19 391.868 491.182 391.872 491.173C391.875 491.164 391.877 491.154 391.877 491.144C391.877 491.135 391.875 491.125 391.872 491.116C391.868 491.107 391.863 491.099 391.857 491.092C389.387 488.546 386.623 486.39 383.64 484.682C388.235 487.119 392.325 490.62 395.643 494.959C395.726 495.084 395.929 494.959 395.846 494.803C390.629 487.163 381.765 480.585 372.671 479.272C379.519 479.438 386.105 482.274 391.313 487.298C391.333 487.319 391.361 487.329 391.388 487.327C391.416 487.325 391.442 487.311 391.46 487.288C391.479 487.264 391.488 487.233 391.486 487.202C391.485 487.171 391.472 487.142 391.451 487.121C385.348 479.908 374.287 475.78 365.487 478.49C363.173 479.19 361.038 480.498 359.255 482.305C357.028 484.019 355.154 486.256 353.761 488.862C349.098 474.706 335.47 464.45 320.771 469.318C320.577 469.38 320.679 469.693 320.863 469.651C325.681 468.257 330.755 468.488 335.457 470.317C340.159 472.145 344.282 475.491 347.316 479.939C348.896 482.192 350.178 484.692 351.12 487.361C350.603 486.429 350.02 485.547 349.375 484.723C341.407 474.425 327.41 474.363 317.17 480.221C317.157 480.236 317.15 480.257 317.15 480.278C317.15 480.299 317.157 480.32 317.17 480.335C317.18 480.34 317.191 480.343 317.202 480.343C317.213 480.343 317.224 480.34 317.235 480.335C319.527 479.363 321.886 478.607 324.289 478.073C322.274 478.607 320.356 479.531 318.62 480.804C318.601 480.814 318.587 480.831 318.58 480.853C318.573 480.874 318.574 480.898 318.583 480.919C318.591 480.94 318.607 480.956 318.626 480.963C318.645 480.971 318.666 480.97 318.684 480.961C321.237 479.718 323.984 479.065 326.763 479.043C322.812 479.541 319.045 481.201 315.84 483.858C315.813 483.88 315.789 483.908 315.77 483.94C315.752 483.973 315.74 484.009 315.734 484.046C315.728 484.084 315.728 484.123 315.735 484.16C315.743 484.198 315.756 484.233 315.776 484.265C315.817 484.329 315.878 484.373 315.947 484.386C316.016 484.4 316.087 484.383 316.145 484.338V484.338C323.744 478.563 334.03 478.563 341.075 485.38C341.763 486.05 342.408 486.774 343.004 487.548C344.103 489.118 345.032 490.829 345.774 492.645C346.461 494.637 346.602 496.816 346.181 498.899V498.899V499.139C345.941 500.223 345.591 501.273 345.137 502.266C345.137 502.329 345.063 502.381 345.036 502.433C344.869 502.792 344.684 503.14 344.482 503.475C344.343 503.736 344.186 504.007 344.02 504.268C343.943 504.4 343.857 504.526 343.762 504.643C341.629 507.926 337.64 512.106 330.207 515.9C320.051 521.06 291.825 527.262 287.421 570.696C285.472 589.657 295.463 608.398 295.463 608.398Z" fill="#071843"/>
<path d="M363.096 490.78C370.833 482.774 384.268 485.787 391.063 494.094C391.202 494.261 390.999 494.532 390.851 494.365C384.563 487.34 372.44 484.984 365.321 491.499C357.353 498.795 358.193 510.261 365.127 517.964C365.209 518.044 365.26 518.158 365.268 518.28C365.275 518.402 365.24 518.523 365.169 518.615C365.134 518.661 365.091 518.699 365.043 518.726C364.995 518.753 364.942 518.769 364.889 518.774C364.781 518.783 364.674 518.743 364.592 518.662C356.771 511.345 355.331 498.816 363.096 490.78Z" fill="#071843"/>
<path d="M326.375 483.452C326.356 483.452 326.337 483.443 326.323 483.427C326.309 483.412 326.302 483.391 326.302 483.368C326.302 483.346 326.309 483.325 326.323 483.309C326.337 483.294 326.356 483.285 326.375 483.285C333.984 482.639 345.922 485.255 347.612 495.303C349.385 505.727 341.509 515.306 332.839 517.38C332.34 517.495 331.841 516.703 332.395 516.39C339.228 512.481 346.098 507.155 346.061 497.44C346.07 486.621 334.113 483.181 326.375 483.452Z" fill="#071843"/>
<path d="M288.538 551.173C294.613 535.257 308.297 526.053 322.147 520.268C308.989 526.834 296.294 534.861 290.348 550.496C287.19 558.835 284.521 568.549 285.851 577.597C287.181 586.644 291.742 594.629 295.915 602.457C295.994 602.588 296.023 602.75 295.997 602.906C295.971 603.062 295.892 603.2 295.777 603.291C295.658 603.376 295.515 603.406 295.378 603.375C295.24 603.344 295.118 603.254 295.038 603.124C290.421 595.619 285.943 587.562 284.364 578.483C282.786 569.404 285.315 559.627 288.538 551.173Z" fill="#071843"/>
<path d="M363.299 513.451C367.657 518.047 373.456 520.017 378.903 522.404C384.646 524.896 391.266 528.179 395.902 532.765C403.574 540.375 407.766 555.457 403.611 566.121C403.427 566.579 402.688 566.319 402.854 565.829C404.616 559.074 404.234 551.838 401.774 545.367C399.115 537.883 394.969 533.151 388.746 529.159C383.999 526.178 379.086 523.549 374.037 521.289C369.855 519.35 366.272 517.276 363.207 513.534C363.151 513.492 363.235 513.378 363.299 513.451Z" fill="#071843"/>
<path d="M286.396 616.695C297.309 610.931 291.677 595.577 289.314 585.665C289.249 585.373 289.627 585.227 289.701 585.508C292.471 595.4 300.347 613.183 286.636 617.498C286.538 617.519 286.437 617.496 286.354 617.434C286.271 617.372 286.213 617.275 286.193 617.164C286.174 617.072 286.184 616.975 286.221 616.889C286.258 616.804 286.32 616.736 286.396 616.695Z" fill="#071843"/>
<path d="M291.853 620.896C297.3 614.1 296.128 604.479 294.004 596.432C293.963 596.278 293.976 596.112 294.04 595.969C294.104 595.825 294.215 595.715 294.349 595.661C294.484 595.608 294.631 595.614 294.761 595.68C294.891 595.746 294.994 595.866 295.047 596.015C297.817 604.812 298.039 614.006 292.01 621.031C291.917 621.157 291.76 621.011 291.853 620.896Z" fill="#071843"/>
<path d="M287.144 612.912C295.666 607.794 290.403 593.743 288.482 586.081C288.451 585.948 288.464 585.805 288.519 585.682C288.575 585.558 288.669 585.462 288.783 585.412C288.897 585.362 289.024 585.361 289.139 585.409C289.254 585.458 289.349 585.552 289.406 585.675C292.268 592.534 297.005 609.941 287.236 613.11C287.219 613.129 287.196 613.139 287.171 613.139C287.147 613.139 287.124 613.129 287.107 613.11C287.093 613.096 287.082 613.079 287.076 613.059C287.07 613.039 287.069 613.018 287.073 612.998C287.076 612.978 287.085 612.959 287.098 612.944C287.11 612.928 287.126 612.917 287.144 612.912Z" fill="#071843"/>
<path d="M359.181 504.83C359.181 504.742 359.212 504.657 359.268 504.595C359.323 504.532 359.398 504.497 359.477 504.497C359.555 504.497 359.63 504.532 359.685 504.595C359.741 504.657 359.772 504.742 359.772 504.83V504.83C360.603 512.533 366.66 512.961 372.08 511.512C374.351 510.907 376.623 510.188 378.996 510.469C381.049 510.78 382.99 511.709 384.615 513.16C386.24 514.611 387.488 516.53 388.229 518.714C388.261 518.786 388.266 518.87 388.243 518.946C388.221 519.022 388.172 519.085 388.109 519.121C388.045 519.157 387.971 519.163 387.904 519.137C387.836 519.112 387.78 519.057 387.749 518.985V518.985C385.477 514.993 382.033 511.908 377.592 512.283C373.899 512.596 370.501 514.806 366.734 514.555C365.69 514.503 364.666 514.219 363.72 513.719C362.774 513.219 361.925 512.512 361.222 511.641C360.518 510.769 359.974 509.749 359.621 508.639C359.267 507.53 359.112 506.352 359.163 505.174C359.163 505.091 359.172 504.955 359.181 504.83Z" fill="#5868F7"/>
<path d="M346.412 506.279C347.095 505.883 346.495 504.799 345.848 505.008L345.544 505.091C343.9 497.857 333.097 484.953 329.062 497.263C325.314 508.666 340.419 509.782 346.412 506.279ZM331.038 497.659C334.556 488.194 343.143 500.567 345.304 505.185C340.419 506.425 327.539 507.04 331.038 497.659Z" fill="#5868F7"/>
<path d="M358.609 508.479C364.269 512.502 367.999 509.021 373.382 506.894C377.075 505.414 380.676 506.436 384.028 508.552C384.036 508.56 384.042 508.571 384.047 508.582C384.051 508.594 384.053 508.607 384.053 508.619C384.053 508.632 384.051 508.645 384.047 508.656C384.042 508.668 384.036 508.678 384.028 508.687C384.018 508.693 384.007 508.695 383.995 508.695C383.984 508.695 383.973 508.693 383.963 508.687C380.528 508.197 377.324 507.342 373.945 508.687C371.683 509.615 369.707 511.272 367.38 512.043C365.754 512.608 364.023 512.671 362.367 512.228C360.712 511.784 359.191 510.85 357.962 509.521C357.547 509.052 358.045 508.082 358.609 508.479Z" fill="#5868F7"/>
<path d="M363.327 508.187C359.357 507.593 355.691 505.706 351.638 505.331C347.584 504.955 343.734 506.019 339.754 505.883C339.007 505.883 339.025 504.768 339.542 504.413C345.701 500.244 358.405 501.161 363.936 506.394C364.067 506.536 364.158 506.718 364.197 506.918C364.237 507.118 364.223 507.327 364.158 507.518C364.093 507.71 363.979 507.875 363.832 507.994C363.684 508.113 363.508 508.18 363.327 508.187V508.187Z" fill="#5868F7"/>
<path d="M362.431 510.72C359.089 509.813 355.876 508.52 352.441 508.062C348.576 507.686 344.69 507.686 340.826 508.062C340.502 508.062 340.142 507.624 340.428 507.342C342.506 505.258 347.501 504.611 350.788 504.799C355.035 505.049 359.532 506.279 362.948 509.24C363.502 509.656 363.207 510.918 362.431 510.72Z" fill="#5868F7"/>
<path d="M324.27 591.47C324.27 591.47 317.419 573.625 308.574 572.291C299.258 570.874 295.74 589.855 301.483 598.485C308.223 608.617 320.051 606.407 320.051 606.407L324.27 591.47Z" fill="#ED776A"/>
<path d="M310.504 583.84C309.279 582.32 307.897 580.973 306.386 579.827C306.21 579.702 306.386 579.358 306.58 579.473C313.043 583.246 318.49 591.856 316.801 600.445C316.801 600.517 316.775 600.586 316.73 600.637C316.685 600.687 316.624 600.716 316.561 600.716C316.497 600.716 316.436 600.687 316.391 600.637C316.346 600.586 316.321 600.517 316.321 600.445C316.219 599.653 316.117 598.881 316.007 598.11C315.174 595.87 313.913 593.866 312.313 592.242C310.567 590.677 308.47 589.688 306.256 589.386C305.998 589.386 306.072 588.927 306.321 588.938C308.041 589.009 309.727 589.493 311.268 590.358C312.809 591.222 314.169 592.447 315.259 593.951C314.849 591.955 314.19 590.036 313.301 588.25C312.504 586.681 311.557 585.217 310.476 583.882" fill="#071843"/>
<path d="M318.259 605.844V605.938C318.195 605.938 318.158 605.844 318.259 605.844Z" fill="#071843"/>
<path d="M353.89 644.463C347.095 646.809 346.273 652.302 346.273 652.302C346.273 652.302 326.791 651.114 316.727 636.114C306.663 621.115 353.89 644.463 353.89 644.463Z" fill="#ED776A"/>
<path d="M265.88 913.066C266.12 914.755 264.144 922.281 265.88 925.074C267.616 927.868 315.979 935.675 317.955 932.694C319.931 929.713 299.165 918.924 300.144 917.434C300.144 917.434 313.181 854.674 319.331 821.923C321.566 810.251 322.625 798.331 322.488 786.39C321.75 735.314 270.57 739.797 262.907 770.212C258.29 788.693 259.49 817.003 261.605 839.185C263.387 857.645 265.76 912.295 265.88 913.066Z" fill="#ED776A"/>
<path d="M263.544 708.453C292.647 730.343 349.412 729.373 352.302 726.017C352.302 726.017 352.302 695.966 351.979 683.406C351.73 670.553 347.907 650.342 347.012 647.695C344.897 640.305 317.863 633.102 315.619 631.424C314.52 630.611 306.487 607.512 299.488 582.59C292.102 556.375 285.777 528.252 284.281 526.511C281.364 523.113 265.769 526.511 264.652 528.283C263.534 530.055 262.805 573.563 264.652 592.419C264.929 595.108 265.215 597.756 265.575 600.341C267.625 616.478 270.607 632.446 274.503 648.143C274.78 649.592 263.931 695.705 263.082 705.337C262.86 706.973 263.017 708.068 263.544 708.453Z" fill="#ED776A"/>
<path d="M269.924 593.878C270.406 593.702 270.921 593.67 271.418 593.783C271.914 593.897 272.377 594.153 272.761 594.526C273.145 594.9 273.437 595.379 273.61 595.917C273.782 596.456 273.829 597.035 273.746 597.599C273.705 598.077 273.569 598.537 273.348 598.947C273.128 599.356 272.828 599.705 272.472 599.966C272.088 600.226 271.646 600.355 271.198 600.337C270.75 600.318 270.317 600.153 269.951 599.861C269.85 599.799 269.951 599.642 270.025 599.663C270.472 599.791 270.942 599.758 271.371 599.569C271.8 599.381 272.167 599.046 272.42 598.611C272.673 598.177 272.799 597.664 272.782 597.145C272.765 596.625 272.605 596.125 272.324 595.713C272.029 595.315 271.618 595.048 271.165 594.96C270.712 594.872 270.246 594.969 269.85 595.233C269.64 595.427 269.495 595.695 269.436 595.994C269.377 596.292 269.409 596.605 269.527 596.88C269.612 597.044 269.75 597.164 269.913 597.213C270.076 597.261 270.249 597.236 270.395 597.141C270.491 597.079 270.571 596.989 270.625 596.88C270.675 596.659 270.685 596.429 270.655 596.204C270.625 595.978 270.555 595.762 270.45 595.567C270.404 595.504 270.45 595.421 270.542 595.463C270.844 595.598 271.087 595.861 271.219 596.197C271.35 596.532 271.359 596.912 271.244 597.255C271.119 597.637 270.869 597.95 270.547 598.132C270.225 598.314 269.854 598.351 269.508 598.235C269.121 598.047 268.799 597.721 268.591 597.307C268.383 596.893 268.3 596.414 268.354 595.942C268.395 595.457 268.567 594.998 268.848 594.629C269.129 594.259 269.505 593.997 269.924 593.878V593.878Z" fill="#071843"/>
<path d="M291.428 551.34C299.664 581.568 307.817 611.702 318.204 641.065C318.352 641.493 317.752 641.753 317.567 641.368C310.91 628.151 306.653 613.224 302.711 598.788C298.436 583.152 295.01 567.225 291.151 551.434C291.155 551.409 291.164 551.385 291.177 551.364C291.189 551.343 291.206 551.325 291.225 551.312C291.244 551.298 291.265 551.289 291.287 551.285C291.309 551.281 291.332 551.282 291.354 551.288L291.428 551.34Z" fill="#071843"/>
<path d="M318.573 665.206C318.8 664.589 319.235 664.098 319.782 663.842C320.329 663.586 320.944 663.585 321.491 663.841V663.841C322.121 664.097 322.639 664.616 322.94 665.291C323.24 665.966 323.3 666.745 323.107 667.468C322.936 667.953 322.603 668.344 322.181 668.556C321.758 668.768 321.279 668.785 320.845 668.604C320.459 668.671 320.064 668.618 319.702 668.451C319.341 668.284 319.026 668.009 318.793 667.655C318.56 667.302 318.416 666.883 318.377 666.444C318.338 666.005 318.406 665.563 318.573 665.164V665.206Z" fill="#071843"/>
<path d="M345.377 668.74C345.488 668.435 345.65 668.157 345.856 667.923C346.062 667.689 346.306 667.504 346.576 667.377C346.845 667.25 347.134 667.184 347.426 667.184C347.718 667.184 348.007 667.248 348.277 667.374V667.374C348.904 667.63 349.421 668.148 349.722 668.82C350.022 669.493 350.083 670.269 349.893 670.991C349.728 671.486 349.398 671.888 348.972 672.109C348.546 672.33 348.061 672.351 347.621 672.169C347.235 672.243 346.838 672.194 346.474 672.03C346.11 671.865 345.794 671.591 345.559 671.237C345.324 670.882 345.181 670.462 345.144 670.021C345.107 669.581 345.178 669.137 345.35 668.74H345.377Z" fill="#071843"/>
<path d="M339.828 714.551C339.871 714.503 339.929 714.477 339.99 714.477C340.05 714.477 340.108 714.503 340.151 714.551C340.178 714.579 340.197 714.615 340.207 714.655C340.234 715.044 340.234 715.434 340.207 715.823C340.207 716.042 340.207 716.698 340.502 716.771C340.798 716.844 341.075 716.354 341.13 716.073C341.39 714.873 341.259 713.608 340.761 712.508C340.752 712.482 340.748 712.454 340.749 712.427C340.75 712.399 340.755 712.371 340.766 712.346C340.776 712.321 340.791 712.298 340.809 712.28C340.827 712.261 340.848 712.246 340.872 712.237C340.907 712.221 340.946 712.219 340.982 712.23C341.019 712.241 341.051 712.266 341.075 712.3C341.85 713.644 343.143 717.105 341.269 718.126C340.918 718.286 340.527 718.289 340.174 718.137C339.821 717.984 339.533 717.686 339.367 717.303C339.18 716.847 339.124 716.337 339.207 715.843C339.289 715.35 339.507 714.898 339.828 714.551Z" fill="#071843"/>
<path d="M354.186 726.517C353.263 723.703 265.926 704.503 262.38 705.993C258.835 707.484 260.718 713.04 260.534 713.811C260.349 714.582 246.01 742.611 249.842 764.698C253.673 786.786 272.62 806.663 293.653 807.581C314.686 808.498 324.723 799.523 328.416 796.344C332.109 793.165 329.496 751.679 352.367 737.608C354.777 736.117 352.967 731.781 352.847 731.354C352.727 730.926 355.257 729.707 354.186 726.517Z" fill="#FFFFF2"/>
<path d="M263.673 712.518C278.187 714.311 292.647 717.209 307.014 720.138C321.38 723.067 335.895 725.871 349.92 730.353C349.966 730.376 350.004 730.416 350.026 730.467C350.048 730.518 350.053 730.576 350.041 730.631C350.029 730.686 350 730.734 349.959 730.767C349.918 730.8 349.869 730.816 349.819 730.812C335.396 728.174 321.122 724.401 306.737 721.483C292.351 718.564 278.003 716 263.59 713.238C262.999 713.123 263.091 712.445 263.673 712.518Z" fill="#071843"/>
<path d="M281.622 719.888C294.491 721.717 307.239 724.503 319.783 728.227C319.894 728.227 319.848 728.435 319.783 728.404C307.078 725.485 294.272 723.192 281.53 720.545C281.458 720.525 281.395 720.475 281.354 720.405C281.313 720.336 281.296 720.251 281.308 720.168C281.319 720.086 281.358 720.011 281.417 719.959C281.475 719.907 281.548 719.882 281.622 719.888Z" fill="#071843"/>
<path d="M296.682 776.852C298.648 785.504 303.043 790.913 307.632 794.958C326.837 811.833 353.023 793.248 354.454 793.207C354.537 793.207 347.243 823.925 346.144 832.576C346.144 832.576 342.903 841.478 344.74 842.093C348.6 843.375 391.488 841.478 397.296 836.881C403.103 832.284 377.629 829.97 377.629 829.97C377.629 829.97 407.738 785.149 404.47 759.841C401.201 734.533 346.375 722.567 331.472 723.442C310.633 724.651 290.662 750.272 296.682 776.852Z" fill="#ED776A"/>
<path d="M313.643 730.103C323.873 719.679 340.207 721.472 352.293 725.933C352.311 725.955 352.32 725.983 352.32 726.012C352.32 726.041 352.311 726.069 352.293 726.09C352.285 726.11 352.272 726.127 352.256 726.138C352.239 726.149 352.22 726.154 352.201 726.152C345.276 725.183 338.628 723.265 331.583 723.849C325.273 724.254 319.172 726.542 313.901 730.478C313.551 730.749 313.274 730.457 313.643 730.103Z" fill="#071843"/>
<path d="M357.039 777.009C356.854 773.25 357.344 769.489 358.479 765.949C358.479 765.876 358.59 765.949 358.572 765.949C357.982 768.853 357.73 771.832 357.824 774.809C359.742 769.978 362.172 765.428 365.063 761.259C365.063 761.259 365.174 761.259 365.146 761.321C359.384 771.088 356.956 782.022 354.989 793.363C354.989 793.44 354.962 793.515 354.914 793.569C354.865 793.624 354.799 793.655 354.731 793.655C354.662 793.655 354.596 793.624 354.548 793.569C354.499 793.515 354.472 793.44 354.472 793.363C354.341 787.772 355.214 782.208 357.039 777.009Z" fill="#071843"/>
<path d="M258.041 519.934C258.041 519.934 262.131 530.358 264.19 531.64C267.763 533.922 283.58 528.752 286.073 526.188C284.891 522.113 284.678 516.432 284.678 513.482C284.678 511.001 282.158 508.406 279.425 506.602C277.375 507.051 273.94 508.843 273.94 510.032C273.94 510.782 275.224 511.585 276.516 512.116C278.243 512.544 279.286 512.888 278.778 512.846C278.002 512.702 277.243 512.457 276.516 512.116C274.42 511.574 271.318 510.907 268.493 510.522C266.277 510.24 263.793 509.594 261.715 509.281C260.061 510.226 258.452 511.27 256.896 512.408C256.802 514.98 257.192 517.545 258.041 519.934V519.934Z" fill="#ED776A"/>
<path d="M279.766 506.55L279.425 506.602C282.195 508.406 284.678 511.001 284.678 513.482C284.678 516.432 284.891 522.112 286.073 526.188C286.348 525.936 286.58 525.629 286.756 525.281C288.538 521.716 289.914 514.597 289.129 512.554C287.984 509.51 281.788 506.258 279.766 506.55Z" fill="#ED776A"/>
<path d="M276.516 512.169C277.243 512.509 278.002 512.754 278.778 512.898C279.268 512.94 278.243 512.596 276.516 512.169Z" fill="#ED776A"/>
<path d="M256.896 512.45C258.235 511.491 259.915 510.365 261.716 509.323C259.416 508.958 257.625 508.958 257.274 510.188C257.061 510.92 256.933 511.68 256.896 512.45V512.45Z" fill="#ED776A"/>
<path d="M282.509 500.067C284.401 504.799 283.146 519.872 279.914 520.424C276.682 520.976 274.568 502.975 275.621 500.473C275.876 499.698 276.327 499.023 276.918 498.534C277.509 498.044 278.214 497.76 278.946 497.716C279.678 497.673 280.406 497.873 281.039 498.29C281.672 498.708 282.183 499.326 282.509 500.067V500.067Z" fill="#ED776A"/>
<path d="M274.337 498.139C276.793 502.527 277.393 517.62 274.273 518.704C271.152 519.788 266.831 502.266 267.56 499.619C267.721 498.812 268.086 498.076 268.612 497.5C269.138 496.924 269.801 496.533 270.52 496.376C271.239 496.219 271.983 496.302 272.661 496.615C273.339 496.928 273.922 497.458 274.337 498.139V498.139Z" fill="#ED776A"/>
<path d="M267.071 500.505C269.591 504.205 271.226 517.693 268.502 518.954C265.778 520.215 260.635 504.903 261.115 502.454C261.203 501.719 261.477 501.028 261.906 500.466C262.335 499.904 262.899 499.495 263.53 499.288C264.161 499.081 264.832 499.087 265.461 499.303C266.089 499.519 266.649 499.936 267.071 500.505V500.505Z" fill="#ED776A"/>
<path d="M261.18 504.205C264.033 507.332 267.292 519.757 264.873 521.393C262.454 523.03 255.64 509.406 255.778 507.019C255.759 506.304 255.926 505.597 256.26 504.988C256.594 504.379 257.078 503.895 257.654 503.595C258.23 503.295 258.872 503.192 259.498 503.301C260.125 503.41 260.71 503.724 261.18 504.205Z" fill="#ED776A"/>
<path d="M200.841 150.098C194.248 233.799 188.256 396.572 190.417 423.256C191.885 441.362 268.529 434.42 265.898 422.297C262.537 406.777 249.324 215.912 227.525 139.289C216.482 100.524 202.983 122.976 200.841 150.098Z" fill="#C36358"/>
<path d="M257.468 474.8C258.908 469.589 261.337 470.412 264.402 479.47C267.468 488.528 272.777 527.335 284.614 524.103C296.451 520.872 288.252 466.243 282.13 451.587C276.008 436.932 261.549 415.668 261.549 415.668C261.254 426.654 258.29 453.245 257.468 474.8Z" fill="#C36358"/>
<path d="M190.454 420.755C189.964 452.411 188.773 491.718 204.654 521.737C206.344 525.125 208.995 527.772 212.179 529.253C219.086 542.855 226.851 543.251 226.851 543.251C236.721 553.675 244.717 552.872 244.717 552.872C244.717 552.872 252.981 568.737 262.26 564.692C272.721 560.19 259.066 538.79 257.93 521.831C255.335 482.983 261.263 426.977 261.503 415.668L190.454 420.755Z" fill="#C36358"/>
<path d="M229.916 483.285C230.84 494.699 231.569 505.946 233.896 517.151C236.453 529.44 240.747 540.791 244.856 552.466C244.867 552.505 244.871 552.547 244.867 552.589C244.863 552.63 244.851 552.67 244.833 552.706C244.815 552.743 244.79 552.774 244.761 552.799C244.731 552.824 244.698 552.842 244.662 552.851C244.608 552.868 244.551 552.866 244.498 552.846C244.446 552.825 244.4 552.787 244.366 552.737C233.96 532.932 228.615 506.29 229.455 483.327C229.473 482.774 229.87 482.712 229.916 483.285Z" fill="#071843"/>
<path d="M208.92 481.649C210.407 492.697 213.13 512.096 227.146 543.085C227.146 543.189 227.054 543.303 226.99 543.199C215.522 524.437 209.788 504.278 208.449 481.701C208.385 481.034 208.819 480.919 208.92 481.649Z" fill="#071843"/>
<path d="M197.619 480.981C200.776 499.66 204.867 510.991 212.216 529.128C212.263 529.232 212.115 529.336 212.059 529.232C201.783 509.604 200.056 501.172 197.037 481.023C196.935 480.346 197.499 480.283 197.619 480.981Z" fill="#071843"/>
<path d="M249.195 201.351L185.348 226.544C185.348 226.544 196.197 143.469 205.485 120.058C215.956 93.7072 225.595 105.465 234.45 131.075C243.304 156.686 249.195 201.351 249.195 201.351Z" fill="#FD8496"/>
<path d="M231.024 195.868C219.427 187.143 205.952 182.128 192.032 181.358C191.922 182.036 191.811 182.713 191.7 183.36C205.458 183.672 218.772 188.936 230.756 196.42C231.024 196.577 231.301 196.087 231.024 195.868Z" fill="#C4556B"/>
<path d="M216.205 105.392C215.427 113.542 211.979 121.07 206.538 126.499C205.199 127.869 203.756 129.104 202.226 130.189C201.931 131.336 201.598 132.535 201.303 133.796C208.498 129.227 213.927 121.794 216.528 112.949C217.195 110.431 217.607 107.837 217.756 105.215C217.234 105.163 216.708 105.223 216.205 105.392V105.392Z" fill="#C4556B"/>
<path d="M234.441 131.086C233.717 129.978 233.247 128.685 233.074 127.323C232.391 125.447 231.708 123.664 230.997 121.997C230.935 122.196 230.892 122.402 230.867 122.612C229.944 128.032 231.791 133.15 235.853 135.432C235.392 133.879 234.93 132.472 234.441 131.086ZM243.674 168.204C240.752 165.475 238.488 161.958 237.091 157.978C235.091 152.147 235.111 145.678 237.146 139.862C236.795 138.664 236.463 137.496 236.112 136.35C233.9 141.111 232.969 146.499 233.434 151.849C234.228 159.677 238.512 167.255 244.403 171.998C244.209 170.768 243.96 169.496 243.72 168.204H243.674Z" fill="#C4556B"/>
<path d="M243.822 189.749C241.495 190.25 221.542 197.921 217.23 199.693C212.918 201.465 195.264 208.522 190.952 210.773C190.932 210.784 190.914 210.798 190.899 210.816C190.884 210.834 190.872 210.856 190.864 210.879C190.857 210.902 190.853 210.927 190.854 210.952C190.855 210.977 190.86 211.001 190.869 211.024C190.886 211.061 190.913 211.091 190.946 211.11C190.98 211.128 191.017 211.135 191.054 211.128C195.67 209.846 213.472 202.789 217.885 201.08C222.299 199.37 241.892 191.292 243.951 190.072C244.126 189.968 243.978 189.718 243.822 189.749Z" fill="#6D2D3C"/>
<path d="M240.941 204.613C243.612 203.223 246.299 201.931 249.001 200.736L248.623 201.455L246.111 187.404L243.702 173.353C242.095 163.972 240.525 154.591 238.651 145.283C240.21 149.731 241.541 154.276 242.64 158.896C243.803 163.513 244.773 168.183 245.65 172.863C247.404 182.244 248.798 191.688 249.768 201.205L249.823 201.778L249.389 201.934C246.595 202.914 243.779 203.807 240.941 204.613Z" fill="#6D2D3C"/>
<path d="M243.129 164.837C242.732 162.705 242.537 160.532 242.547 158.354C242.519 156.182 242.668 154.012 242.991 151.87C243.623 153.953 243.936 156.142 243.914 158.343C243.949 160.54 243.685 162.731 243.129 164.837V164.837Z" fill="#6D2D3C"/>
<path d="M190.841 223.844C189.456 224.188 188.071 224.678 186.742 225.116C188.108 218.039 188.801 210.7 189.77 203.55C190.795 195.951 191.811 188.342 192.947 180.754C195.246 165.358 198.154 150.077 200.924 134.776C200.927 134.754 200.925 134.732 200.92 134.71C200.915 134.689 200.906 134.669 200.894 134.651C200.882 134.634 200.867 134.619 200.85 134.608C200.833 134.598 200.814 134.591 200.795 134.588C200.761 134.586 200.728 134.596 200.7 134.616C200.671 134.637 200.65 134.667 200.638 134.703C199.059 139.529 197.702 144.417 196.483 149.358C196.566 146.857 196.723 144.365 196.945 141.864C196.945 141.825 196.931 141.788 196.907 141.761C196.882 141.733 196.85 141.718 196.815 141.718C196.781 141.718 196.748 141.733 196.724 141.761C196.7 141.788 196.686 141.825 196.686 141.864C196.216 144.997 195.984 148.171 195.994 151.349C193.713 160.928 191.968 170.674 190.371 180.441C189.115 188.123 187.961 195.837 186.963 203.56C185.966 211.284 184.674 219.039 184.369 226.794C184.397 227.095 184.527 227.371 184.732 227.566C184.937 227.76 185.201 227.857 185.468 227.837C185.541 227.847 185.616 227.847 185.689 227.837C187.536 226.982 189.466 226.419 191.312 225.564C193.159 224.71 195.006 223.813 196.852 222.896C196.879 222.886 196.904 222.869 196.925 222.847C196.946 222.826 196.963 222.799 196.974 222.77C196.985 222.74 196.991 222.708 196.991 222.676C196.99 222.644 196.984 222.612 196.972 222.583C196.952 222.532 196.918 222.49 196.874 222.464C196.831 222.437 196.781 222.428 196.732 222.437C194.701 222.885 192.753 223.344 190.841 223.844Z" fill="#6D2D3C"/>
</g>
<defs>
<clipPath id="clip0_1_113">
<rect width="518.305" height="933.361" fill="white" transform="translate(-113.06)"/>
</clipPath>
</defs>
</svg>
