<svg width="642" height="1024" viewBox="0 0 642 1024" fill="none" xmlns="http://www.w3.org/2000/svg">
<g clip-path="url(#clip0_1_257)">
<path d="M251.158 109.537C173.165 214.723 322.136 425.459 393.333 566.907C464.53 708.356 350.284 805.092 543.822 834.597C737.36 864.101 1041.06 654.041 1059.05 414.255C1076.21 185.342 434.431 -137.637 251.158 109.537Z" fill="#BBE9F3"/>
</g>
<g clip-path="url(#clip1_1_257)">
<path d="M335.613 666.85C367.433 673.857 402.072 668.379 425.823 661.78C435.333 659.131 458.586 604.338 459.713 582.074C460.083 574.763 420.897 564.86 413.162 570.262C407.876 573.946 401.074 626.441 396.259 627.932C387.405 630.666 363.422 637.047 338.58 648.003C321.852 655.39 318.756 663.147 335.613 666.85Z" fill="#FFC5C1"/>
<path d="M410.63 574.82C413.874 558.185 416.942 537.288 429.363 523.027C430.702 521.403 432.535 520.292 434.566 519.875C440.028 513.39 444.649 514.083 444.649 514.083C451.534 509.64 456.165 511.017 456.165 511.017C456.165 511.017 462.634 503.468 467.745 506.744C473.465 510.39 463.235 520.283 460.841 529.256C455.37 549.811 452.394 583.64 451.387 589.736L410.63 574.82Z" fill="#FFC5C1"/>
<path d="M440.389 546.631C442.117 540.62 443.66 534.658 446.174 528.914C448.947 522.609 452.643 517.017 456.229 511.235C456.239 511.214 456.244 511.192 456.244 511.17C456.245 511.147 456.242 511.124 456.234 511.103C456.226 511.082 456.215 511.063 456.199 511.046C456.184 511.03 456.166 511.016 456.146 511.007C456.119 510.993 456.089 510.986 456.058 510.986C456.028 510.986 455.998 510.993 455.97 511.007C447.819 520.416 441.951 534.098 440.121 546.526C440.074 546.858 440.305 546.982 440.389 546.631Z" fill="#2F351A"/>
<path d="M427.829 545.083C429.825 539.32 433.374 529.227 444.825 514.226C444.831 514.22 444.835 514.214 444.839 514.206C444.842 514.199 444.844 514.191 444.844 514.183C444.844 514.175 444.842 514.167 444.839 514.16C444.835 514.152 444.831 514.146 444.825 514.14C444.815 514.131 444.801 514.126 444.788 514.126C444.774 514.126 444.761 514.131 444.751 514.14C436.349 522.579 430.4 533.253 427.57 544.969C427.469 545.32 427.7 545.425 427.829 545.083Z" fill="#2F351A"/>
<path d="M421.101 544.058C424.853 534.402 428.42 528.8 434.594 519.922C434.594 519.865 434.594 519.79 434.511 519.846C426.461 529.18 424.567 533.5 420.759 543.972C420.62 544.333 420.953 544.437 421.101 544.058Z" fill="#2F351A"/>
<path d="M455.758 554.454C456.072 557.426 457.606 557.302 460.314 552.764C463.022 548.226 470.12 528.078 476.774 531.173C483.428 534.269 471.857 561.917 467.948 569.826C464.07 577.75 458.381 584.591 451.368 589.764C452.311 583.792 454.067 566.132 455.758 554.454Z" fill="#FFC5C1"/>
<path d="M373.773 634.768C376.823 634.227 379.836 633.515 382.83 632.765C385.825 632.015 388.81 631.17 391.776 630.268C393.264 629.774 394.697 629.318 396.231 628.72C396.694 628.529 397.091 628.198 397.368 627.771C397.609 627.418 397.822 627.047 398.005 626.66C398.363 625.932 398.672 625.18 398.93 624.41C399.985 621.395 400.807 618.3 401.388 615.152C400.223 618.105 399.151 621.077 397.904 623.935C397.58 624.647 397.238 625.34 396.896 626.005C396.732 626.335 396.543 626.653 396.333 626.954C396.065 627.267 396.102 627.296 395.704 627.438C394.373 627.951 392.83 628.388 391.379 628.853C388.44 629.803 385.483 630.676 382.562 631.701C379.642 632.727 376.666 633.619 373.773 634.768Z" fill="#2F351A"/>
<path d="M373.93 631.644L384.457 675.433C384.457 675.433 348.885 675.31 330.632 667.913C312.379 660.517 318.303 652.798 331.455 646.75C344.606 640.702 373.93 631.644 373.93 631.644Z" fill="#355F81"/>
<path d="M373.93 631.635C373.962 631.742 374.001 631.847 374.048 631.948L373.93 631.635Z" fill="#6C72FC"/>
<path d="M378.69 673.259C377.947 673.262 377.213 673.434 376.542 673.762C375.871 674.091 375.279 674.567 374.808 675.158H375.788C376.584 674.42 377.618 674.014 378.69 674.018C379.267 674.018 379.839 674.135 380.372 674.363C380.905 674.591 381.389 674.926 381.795 675.348H382.793C382.317 674.693 381.697 674.163 380.984 673.801C380.271 673.438 379.485 673.252 378.69 673.259V673.259Z" fill="#6C72FC"/>
<path d="M332.351 648.791C331.338 648.788 330.348 649.093 329.504 649.667C328.66 650.242 328 651.061 327.609 652.021C327.219 652.981 327.113 654.038 327.307 655.059C327.501 656.08 327.986 657.019 328.699 657.757C329.413 658.496 330.323 659 331.316 659.207C332.308 659.413 333.338 659.313 334.275 658.918C335.212 658.524 336.014 657.852 336.579 656.989C337.145 656.127 337.449 655.111 337.453 654.07V654.07C337.456 653.379 337.327 652.694 337.072 652.055C336.818 651.415 336.443 650.833 335.969 650.343C335.495 649.852 334.931 649.463 334.31 649.197C333.69 648.93 333.024 648.793 332.351 648.791V648.791ZM332.351 658.514C331.49 658.512 330.649 658.248 329.934 657.755C329.22 657.262 328.663 656.562 328.335 655.745C328.007 654.927 327.923 654.027 328.093 653.16C328.263 652.293 328.679 651.497 329.289 650.873C329.899 650.249 330.675 649.825 331.52 649.654C332.365 649.483 333.24 649.574 334.035 649.914C334.829 650.254 335.508 650.829 335.985 651.565C336.462 652.302 336.715 653.167 336.713 654.051V654.051C336.704 655.235 336.24 656.367 335.424 657.203C334.607 658.038 333.503 658.509 332.351 658.514Z" fill="#6C72FC"/>
<path d="M363.237 648.791C362.225 648.788 361.234 649.093 360.39 649.667C359.546 650.242 358.887 651.061 358.496 652.021C358.105 652.981 358 654.038 358.194 655.059C358.388 656.08 358.872 657.019 359.586 657.757C360.299 658.496 361.21 659 362.202 659.207C363.194 659.413 364.224 659.313 365.161 658.918C366.098 658.524 366.9 657.852 367.466 656.989C368.031 656.127 368.335 655.111 368.339 654.07V654.07C368.343 653.379 368.213 652.694 367.959 652.055C367.704 651.415 367.329 650.833 366.855 650.343C366.381 649.852 365.818 649.463 365.197 649.197C364.576 648.93 363.91 648.793 363.237 648.791V648.791ZM363.237 658.514C362.376 658.512 361.535 658.248 360.821 657.755C360.106 657.262 359.549 656.562 359.222 655.745C358.894 654.927 358.809 654.027 358.979 653.16C359.149 652.293 359.565 651.497 360.175 650.873C360.785 650.249 361.562 649.825 362.407 649.654C363.251 649.483 364.126 649.574 364.921 649.914C365.716 650.254 366.394 650.829 366.871 651.565C367.348 652.302 367.601 653.167 367.6 654.051V654.051C367.595 655.237 367.133 656.372 366.315 657.208C365.498 658.044 364.391 658.514 363.237 658.514Z" fill="#6C72FC"/>
<path d="M367.609 636.791C367.535 636.506 367.701 636.363 367.785 636.639C371.934 650.776 375.751 667.306 376.472 673.439C376.472 673.534 376.352 673.544 376.324 673.439C374.171 667.638 368.431 639.933 367.609 636.791Z" fill="#153043"/>
<path d="M330.623 667.913C348.894 675.31 384.448 675.443 384.448 675.443L378.801 651.982L319.985 660.764C321.409 663.138 324.782 665.54 330.623 667.913Z" fill="#153043"/>
<path d="M306.612 1032.49C311.696 1034.19 460.619 1032.81 466.1 1029.15C468.207 1027.79 457.218 882.755 457.218 882.755L362.461 883.392L372.331 980.444C372.331 980.444 317.065 1006.47 311.446 1011.14C305.827 1015.81 301.576 1030.8 306.612 1032.49Z" fill="#FF9581"/>
<path d="M306.612 1032.49C311.686 1034.18 460.619 1032.8 466.1 1029.14C466.756 1028.72 467.135 1014.03 465 994.838C437.949 999.139 341.399 1013.1 333.95 1008.46C328.756 1005.23 333.442 1000.35 337.776 997.069C325.392 1003.21 313.84 1009.13 311.446 1011.13C305.873 1015.8 301.576 1030.81 306.612 1032.49Z" fill="#1E2144"/>
<path d="M379.457 1032.91C420.121 1032.38 463.207 1031.08 466.109 1029.11C466.756 1028.71 467.135 1014.01 464.991 994.81C455.998 996.243 439.326 998.74 420.787 1001.26L379.457 1032.91Z" fill="#1E2144"/>
<path d="M364.938 957.145H469.371C469.371 957.145 449.723 728.773 450.536 724.406C451.58 718.795 457.745 693.444 465.952 660.318C468.521 649.95 471.293 638.832 474.177 627.305C481.968 596.144 490.544 562.078 498.021 532.446C509.241 488.04 518.002 453.546 518.002 453.546H429.483C429.483 453.546 419.169 487.166 406.175 530.841C384.993 601.851 356.703 699.587 353.903 723.352C349.384 761.662 364.938 957.145 364.938 957.145Z" fill="#FD8496"/>
<path d="M495.84 531.629C496.683 526.623 496.605 521.5 495.609 516.523C494.445 511.774 492.743 507.182 490.535 502.842C486.099 493.461 481.422 484.052 483.483 473.276C484.897 466.013 488.539 459.509 492.781 453.508H491.958C491.126 454.676 490.341 455.844 489.574 457.031C484.149 465.652 480.618 475.545 482.873 485.856C485.128 496.167 491.542 504.655 494.259 514.71C496.505 523.027 495.322 531.363 493.095 539.491C488.644 539.87 484.278 540.962 480.156 542.728C473.463 545.53 467.229 549.373 461.673 554.122C449.8 564.02 441.328 577.568 437.503 592.777C433.677 607.986 434.698 624.054 440.416 638.623C443.4 646.189 447.506 653.235 452.588 659.511C456.201 664.068 459.917 668.616 462.56 673.753C462.652 673.325 462.772 672.898 462.883 672.471C459.187 665.587 453.752 659.967 449.362 653.577C440.358 640.291 435.815 624.351 436.424 608.174C437.016 592.926 442.311 578.266 451.544 566.313C460.425 554.758 473.179 544.969 487.282 541.513C489.071 541.058 490.896 540.763 492.735 540.63C492.014 543.184 491.173 545.729 490.341 548.226C486.866 558.584 483.243 568.857 483.197 579.956C483.18 582.783 483.39 585.606 483.825 588.397C484.038 587.514 484.269 586.65 484.472 585.776C483.804 578.211 484.512 570.583 486.561 563.284C488.622 555.631 491.616 548.226 493.779 540.583C494.471 540.545 495.166 540.545 495.858 540.583C495.951 540.193 496.043 539.813 496.136 539.462H494.075C494.806 536.887 495.395 534.272 495.84 531.629V531.629Z" fill="#EEEEC6"/>
<path d="M450.712 888.348C449.834 883.078 447.329 878.238 443.568 874.543C439.341 870.695 434.012 868.363 428.383 867.896C422.973 867.406 417.521 867.875 412.266 869.283C412.543 853.797 404.872 839.403 401.48 824.516C399.46 815.584 398.566 806.423 398.819 797.257C399.05 789.045 400.325 780.822 399.623 772.572C399.022 765.669 396.795 758.918 391.998 753.896C387.893 749.737 382.719 746.868 377.082 745.626C368.948 743.757 360.433 744.914 353.053 748.892V750.165C358.51 747.108 364.681 745.653 370.89 745.958C376.77 746.178 382.476 748.064 387.377 751.408C392.672 755.202 396.361 760.926 397.691 767.416C399.382 775.012 398.551 782.873 398.015 790.526C397.364 798.791 397.566 807.104 398.615 815.325C399.864 823.504 401.86 831.543 404.576 839.337C407.201 847.103 410.011 854.917 410.907 863.14C411.138 865.274 411.24 867.42 411.212 869.567C405.549 871.174 400.082 873.439 394.919 876.318C384.868 881.865 375.956 889.354 368.672 898.374C367.193 900.178 365.816 902.077 364.467 903.976C363.311 903.9 362.128 903.805 360.964 903.643L361.038 904.716C361.962 904.83 362.886 904.906 363.81 904.972C362.979 906.216 362.165 907.451 361.38 908.713C361.38 909.283 361.444 909.881 361.491 910.451C362.304 909.122 363.139 907.811 363.995 906.52C364.319 906.026 364.688 905.571 365.04 905.048C371.303 905.292 377.564 904.51 383.588 902.732C390.547 900.681 397.58 897.424 402.996 892.421C408.24 887.433 411.475 880.607 412.062 873.289C412.173 872.34 412.247 871.39 412.266 870.441C413.874 870.042 415.491 869.681 417.118 869.397C428.383 867.498 441.331 869.776 447.265 880.951C452.458 890.788 450.629 903.396 446.497 913.233C441.581 925.006 433.097 934.747 427.154 945.922C425.308 949.512 423.762 953.257 422.533 957.116H423.273C427.561 943.919 436.562 933.323 443.328 921.502C448.974 911.571 452.8 899.921 450.712 888.348ZM407.672 884.654C404.059 891.509 397.506 895.943 390.723 898.991C382.846 902.552 374.298 904.27 365.696 904.023C376.786 888.49 392.876 875.596 411.175 870.688C411.048 875.555 409.85 880.33 407.672 884.654V884.654Z" fill="#EEEEC6"/>
<path d="M409.761 645.364C410.574 658.438 409.826 673.667 400.371 683.627C396.492 687.844 391.389 690.659 385.825 691.65C383.019 692.059 380.161 691.847 377.442 691.028C374.722 690.209 372.205 688.803 370.058 686.903C367.657 684.865 365.487 682.556 363.589 680.019C363.663 679.663 363.755 679.311 363.866 678.965C367.692 683.921 372.378 688.83 378.597 690.359C390.612 693.292 401.758 683.257 405.796 672.319C410.778 658.884 408.671 643.664 407.164 629.774C405.538 614.763 404.124 599.895 406.952 584.96C409.484 571.668 413.957 557.986 409.9 544.504C408.88 540.955 407.194 537.646 404.937 534.762C405.029 534.43 405.149 534.069 405.242 533.737C409.484 538.741 411.804 545.577 412.432 552.365C413.818 567.424 407.395 581.931 406.471 596.847C405.491 613.102 408.781 629.185 409.761 645.364Z" fill="#EEEEC6"/>
<path d="M369.559 938.811C385.501 938.469 380.926 938.336 396.869 938.175C404.678 938.099 455.952 937.643 463.244 938.887C463.28 938.896 463.312 938.917 463.336 938.947C463.359 938.978 463.371 939.015 463.371 939.053C463.371 939.092 463.359 939.129 463.336 939.159C463.312 939.189 463.28 939.21 463.244 939.219C455.952 940.454 404.678 939.998 396.869 939.922C380.926 939.76 385.501 939.628 369.559 939.286C369.498 939.286 369.439 939.261 369.396 939.216C369.352 939.172 369.328 939.111 369.328 939.048C369.328 938.985 369.352 938.925 369.396 938.881C369.439 938.836 369.498 938.811 369.559 938.811V938.811Z" fill="#B96271"/>
<path d="M430.86 709.053C434.28 693.549 439.4 678.357 443.845 663.138C452.902 632.211 462.008 601.303 471.164 570.414C475.73 554.97 480.32 539.529 484.935 524.091C487.263 516.305 489.608 508.52 491.968 500.734C494.297 493.138 496.94 485.543 499.038 477.89C499.888 474.767 500.359 476.485 499.259 480.454C497.06 488.448 494.888 496.461 492.615 504.437C488.123 520.261 483.598 536.057 479.038 551.824C469.993 583.251 460.866 614.649 451.655 646.019C447.058 661.761 442.437 677.497 437.792 693.226C435.47 700.699 433.587 708.308 432.154 716.013C430.923 724.091 430.613 732.29 431.23 740.442C432.228 756.849 434.086 773.236 435.555 789.614L439.991 838.824C442.93 871.476 444.511 881.986 447.385 914.647C447.754 918.787 448.106 922.927 448.411 927.066C448.512 928.452 446.479 928.348 446.331 927.019C442.893 894.737 441.627 884.474 438.679 852.145C435.74 819.971 432.807 787.794 429.881 755.614C429.141 747.534 428.3 739.474 428.3 731.327C428.338 723.827 429.196 716.356 430.86 709.053V709.053Z" fill="#B96271"/>
<path d="M439.529 453.508C445.666 502.329 457.375 593.866 465.915 660.28C485.877 579.814 517.965 453.508 517.965 453.508H439.529Z" fill="#B96271"/>
<path d="M410.038 1034.28C415.121 1035.98 564.036 1034.59 569.525 1030.94C571.633 1029.59 567.178 884.54 567.178 884.54L472.421 885.176L475.748 982.229C475.748 982.229 420.491 1008.25 414.872 1012.93C409.253 1017.62 404.955 1032.6 410.038 1034.28Z" fill="#FF9581"/>
<path d="M410.038 1034.28C415.112 1035.98 564.045 1034.59 569.516 1030.93C570.182 1030.52 570.2 1016.18 569.923 996.623C542.863 1000.92 444.816 1014.88 437.376 1010.25C432.182 1007.02 436.868 1002.14 441.193 998.854C428.818 1005 417.266 1010.91 414.872 1012.92C409.29 1017.59 404.965 1032.61 410.038 1034.28Z" fill="#1E2144"/>
<path d="M432.339 453.508C432.339 453.508 434.381 497.003 444.076 531.449C444.852 534.297 445.693 537.098 446.599 539.785C446.599 539.785 456.691 543.583 472.107 553.248C472.107 553.248 473.123 588.245 474.14 627.305C475.277 670.98 468.697 719.592 468.447 729.913C467.523 768.527 472.144 956.718 472.144 956.718L576.577 957.145C576.577 957.145 558.712 744.173 558.851 730.027C559.045 707.297 551.254 549.109 552.576 545.567C569.368 500.421 547.16 453.546 547.16 453.546L432.339 453.508Z" fill="#FD8496"/>
<path d="M553.26 581.01C550.024 584.56 547.099 588.394 544.517 592.47C539.351 600.616 535.682 610.937 526.893 615.798C524.336 617.163 521.552 618.02 518.686 618.324C518.316 615.323 517.993 612.314 517.826 609.313C517.336 599.638 518.427 590.182 519.36 580.583C520.174 572.038 520.377 563.312 517.226 555.261C514.647 548.615 509.943 542.918 503.196 540.63C500.28 539.652 497.213 539.234 494.149 539.396C494.851 536.841 495.415 534.248 495.84 531.629C496.683 526.623 496.605 521.5 495.609 516.523C494.446 511.774 492.743 507.182 490.535 502.842C486.099 493.461 481.423 484.052 483.484 473.276C484.898 466.013 488.539 459.509 492.781 453.508H491.958C491.127 454.676 490.341 455.844 489.574 457.031C484.149 465.652 480.619 475.545 482.874 485.856C485.129 496.167 491.542 504.655 494.26 514.71C496.505 523.027 495.322 531.363 493.095 539.491C488.644 539.87 484.278 540.962 480.156 542.728C475.488 544.665 471.046 547.133 466.913 550.087L467.837 550.637C473.737 546.381 480.346 543.273 487.337 541.466C489.127 541.011 490.951 540.715 492.79 540.583C492.069 543.137 491.228 545.681 490.396 548.178C486.921 558.537 483.299 568.81 483.252 579.909C483.206 589.707 485.665 599.733 491.653 607.5C494.288 610.866 497.554 613.654 501.258 615.698C504.962 617.741 509.028 618.999 513.215 619.397C514.753 619.52 516.298 619.52 517.836 619.397C517.855 619.715 517.895 620.033 517.956 620.346C519.209 629.112 521.4 637.709 524.49 645.981C527.576 654.203 531.31 662.179 533.833 670.591C536.292 678.832 537.456 687.681 534.878 696.036C532.724 703.062 528.066 709.015 522.447 713.497C516.769 717.972 510.258 721.204 503.317 722.991C496.247 724.89 488.456 725.346 481.45 722.849C476.698 721.131 472.613 717.88 469.806 713.582C469.785 714.132 469.732 714.681 469.648 715.225C470.11 715.842 470.573 716.44 471.109 717.038C481.339 728.659 499.028 726.685 511.773 721.035C524.85 715.225 536.051 704.002 537.253 688.754C537.927 679.981 535.404 671.313 532.382 663.214C529.185 654.583 525.294 646.247 522.669 637.408C520.943 631.505 519.664 625.474 518.843 619.368C521.098 619.13 523.307 618.561 525.405 617.678C529.448 615.853 532.954 612.968 535.571 609.313C538.584 605.335 540.839 600.835 543.297 596.496C546.001 591.707 549.162 587.207 552.733 583.061C552.918 582.843 553.103 582.624 553.306 582.415C553.287 581.969 553.287 581.485 553.26 581.01ZM502.309 615.076C493.899 610.7 488.4 602.572 485.914 593.353C483.271 583.488 484.02 573.006 486.635 563.217C488.696 555.565 491.69 548.159 493.853 540.516C499.648 540.25 505.424 541.627 509.915 545.805C515.303 550.827 517.965 558.404 518.686 565.667C519.61 575.162 517.762 584.542 517.041 593.923C516.452 602.097 516.678 610.311 517.715 618.438C512.378 618.771 507.054 617.61 502.309 615.076V615.076Z" fill="#EEEEC6"/>
<path d="M571.697 898.896C561.984 906.425 550.441 911.362 537.955 910.688C535.592 910.565 533.246 910.205 530.95 909.615C532.535 908.773 534.064 907.821 535.525 906.767C543.916 900.672 550.08 891.215 550.829 880.543C551.753 867.146 544.96 854.908 539.831 843.163C537.372 837.461 535.342 831.573 533.759 825.551C533.408 824.288 533.085 823.025 532.743 821.753C534.22 817.597 535.017 813.217 535.099 808.793C535.478 793.289 528.427 776.018 536.079 761.387C539.831 754.171 546.559 748.664 553.518 744.924C555.426 743.898 557.403 743.012 559.433 742.275V741.543C553.851 743.516 548.659 746.501 544.101 750.354C537.816 755.671 533.343 762.555 532.087 770.92C530.885 779.037 532.253 787.279 533.205 795.358C534.157 803.438 534.804 811.964 532.281 819.921C531.283 816.18 530.266 812.42 528.991 808.774C525.349 798.435 519.25 788.95 508.76 785.095C503.571 783.271 498.028 782.768 492.608 783.63C487.188 784.492 482.053 786.692 477.643 790.041C474.194 792.741 471.24 796.049 468.918 799.811V801.378C470.064 799.441 471.369 797.608 472.818 795.9C476.453 791.645 481.054 788.378 486.214 786.391C491.373 784.403 496.931 783.756 502.392 784.506C507.785 785.227 512.859 787.535 517.004 791.152C521.003 794.826 524.16 799.366 526.246 804.445C528.493 809.987 530.316 815.701 531.698 821.535C529.36 828.039 525.395 833.802 521.329 839.309C513.011 850.503 503.381 862.152 504.01 877.116C504.61 891.671 513.797 905.039 527.272 909.805C527.567 909.9 527.854 909.967 528.131 910.062C522.871 912.491 517.127 913.613 511.366 913.337C500.535 912.72 490.35 907.356 482.716 899.589C477.196 893.898 472.995 887.002 470.425 879.413V881.958C472.296 886.949 474.909 891.612 478.169 895.782C484.944 904.403 494.407 911.049 505.026 913.385C513.234 915.152 521.779 914.105 529.351 910.404C544.055 914.667 559.849 909.454 571.771 900.282C571.769 899.819 571.744 899.357 571.697 898.896ZM516.911 902.333C511.755 897.607 508.068 891.425 506.311 884.559C504.518 877.716 504.86 870.466 507.291 863.833C509.703 857.187 513.76 851.3 517.983 845.679C522.041 840.22 526.301 834.856 529.619 828.855C530.608 827.061 531.476 825.199 532.216 823.282C533.353 827.573 534.489 831.827 535.977 836.023C540.173 847.749 547.068 858.563 549.332 870.954C550.496 876.675 550.2 882.608 548.472 888.177C546.728 893.334 543.832 898 540.016 901.801C537.01 904.857 533.543 907.393 529.748 909.312C525.015 908.002 520.628 905.617 516.911 902.333V902.333Z" fill="#EEEEC6"/>
<path d="M475.711 937.605C491.663 937.33 487.079 937.178 503.03 937.092C510.83 937.092 562.113 936.808 569.405 938.042C569.562 938.042 569.562 938.346 569.405 938.374C562.113 939.58 510.83 938.896 503.03 938.783C487.079 938.555 491.663 938.441 475.72 938.032C475.692 938.02 475.667 938.002 475.646 937.98C475.625 937.957 475.609 937.93 475.599 937.901C475.588 937.871 475.584 937.84 475.586 937.809C475.587 937.777 475.596 937.747 475.609 937.719C475.63 937.671 475.666 937.63 475.711 937.605Z" fill="#B96271"/>
<path d="M442.265 537.193C452.653 541.437 462.597 547.229 472.107 553.248C472.175 553.298 472.224 553.372 472.244 553.456C472.264 553.54 472.254 553.628 472.216 553.705C472.178 553.782 472.114 553.842 472.037 553.875C471.959 553.908 471.872 553.911 471.793 553.884C461.719 548.852 451.461 544.02 441.646 538.427C441.567 538.386 441.497 538.328 441.439 538.259C441.382 538.189 441.339 538.108 441.312 538.022C441.285 537.935 441.274 537.843 441.282 537.752C441.289 537.662 441.314 537.573 441.355 537.492C441.395 537.411 441.451 537.339 441.519 537.28C441.586 537.221 441.665 537.177 441.749 537.149C441.834 537.121 441.923 537.111 442.011 537.118C442.1 537.126 442.186 537.151 442.265 537.193V537.193Z" fill="#B96271"/>
<path d="M457.976 522.609C457.652 517.701 457.292 512.802 456.867 507.902C455.943 496.727 454.778 485.514 452.874 474.472C452.727 473.608 451.544 473.931 451.608 474.757C452.348 483.435 453.309 492.103 454.104 500.781C454.898 509.459 455.952 518.08 456.054 526.711C456.1 529.322 455.924 533.737 452.819 534.449C448.642 535.398 446.664 529.778 445.666 526.702C443.27 518.988 441.517 511.079 440.426 503.06C439.049 493.955 438.318 484.726 437.468 475.526C437.468 475.203 436.904 475.251 436.904 475.583C436.84 493.784 437.099 512.811 443.716 529.996C445.01 533.338 447.265 536.737 451.044 537.193H451.229C451.193 537.296 451.174 537.406 451.174 537.516C451.248 538.028 451.386 538.522 451.47 539.035C451.553 539.548 451.618 539.889 451.719 540.307C451.895 541.19 452.024 542.083 452.237 542.966C452.28 543.118 452.375 543.25 452.504 543.337C452.633 543.425 452.788 543.463 452.941 543.445C453.095 543.427 453.237 543.354 453.343 543.238C453.45 543.123 453.513 542.972 453.521 542.814C453.63 542.774 453.724 542.701 453.79 542.604C453.857 542.507 453.892 542.391 453.891 542.273C453.817 540.5 453.429 538.756 452.745 537.126C453.768 536.909 454.722 536.433 455.52 535.742C456.319 535.051 456.937 534.166 457.32 533.167C458.688 529.892 458.198 526.094 457.976 522.609Z" fill="#B96271"/>
<path d="M541.938 545.529C542.807 538 544.794 530.537 546.504 523.16C550.358 506.507 547.761 483.843 543.593 467.57C543.491 467.142 544.175 466.981 544.304 467.408C548.463 481.27 551.495 501.304 549.849 515.83C549.082 522.742 543.657 543.773 543.833 551.292C544.166 566.094 543.02 692.352 543.99 743.898C544.628 777.718 551.448 891.149 552.493 924.968C552.493 925.281 551.994 925.262 551.975 924.968C548.158 864.678 543.195 803.077 542.401 744.003C541.661 686.599 541.005 553.732 541.938 545.529Z" fill="#B96271"/>
<path d="M490.415 471.273C490.877 476.457 491.062 481.66 491.811 486.825C492.467 491.401 493.918 495.949 497.457 499.395C500.814 502.576 504.835 504.924 509.213 506.26C514.952 508.026 532.392 508.064 538.334 507.209C539.831 506.991 539.683 508.159 536.865 508.804C533.713 509.516 520.858 510.248 517.614 510.248C514.472 510.384 511.326 510.158 508.233 509.573C503.012 508.377 498.206 506.155 494.611 502.282C491.016 498.408 489.408 493.262 489.01 488.192C488.674 482.545 488.884 476.877 489.639 471.273C489.658 471.182 489.707 471.1 489.778 471.042C489.848 470.984 489.936 470.952 490.027 470.952C490.117 470.952 490.205 470.984 490.276 471.042C490.346 471.1 490.396 471.182 490.415 471.273V471.273Z" fill="#B96271"/>
<path d="M445.037 239.359C466.83 251.047 467.024 275.6 477.476 286.462C483.862 293.108 500.831 297.684 505.849 305.897C514.093 319.389 503.178 327.526 507.697 334.855C514.083 345.233 528.602 340.856 535.423 358.706C542.243 376.555 526.883 400.899 481.127 417.391C435.37 433.883 405.584 422.366 400.371 407.09C395.159 391.813 409.613 382.888 408.024 370.925C407.016 363.329 396.203 360.367 392.608 346.723C389.013 333.08 401.064 325.484 400.307 313.35C399.549 301.216 387.109 274.242 400.565 255.757C414.022 237.271 434.289 233.568 445.037 239.359Z" fill="#071843"/>
<path d="M443.023 240.252C448.943 242.75 454.19 246.678 458.318 251.702C462.624 257.033 466.312 262.861 469.306 269.068C471.155 272.685 472.911 276.436 475.508 279.512C477.812 282.155 480.556 284.354 483.613 286.006C489.759 289.519 496.625 291.703 502.383 295.88C507.836 299.878 512.716 305.802 512.549 313.056C512.457 317.006 510.701 320.604 510.045 324.449C509.379 328.067 509.74 332.301 513.104 334.381C515.978 336.156 519.628 336.422 522.724 337.704C525.776 338.959 528.61 340.713 531.116 342.897C533.643 345.049 535.705 347.72 537.169 350.738C538.633 353.756 539.468 357.055 539.619 360.424C540.238 376.081 528.454 387.882 517.013 396.266C515.414 397.434 513.806 398.583 512.198 399.731C511.948 399.912 511.625 399.56 511.874 399.361C523.26 390.503 536.449 380.144 538.038 364.402C538.431 360.955 538.044 357.46 536.908 354.192C535.771 350.923 533.916 347.967 531.486 345.556C529.068 343.159 526.251 341.23 523.168 339.859C520.174 338.53 516.958 338.045 513.926 336.821C512.447 336.29 511.131 335.363 510.116 334.137C509.101 332.91 508.422 331.428 508.15 329.842C507.512 326.282 508.492 322.807 509.481 319.398C510.525 315.809 511.329 312.258 510.202 308.575C509.028 305.163 506.978 302.142 504.268 299.83C499.019 295.016 492.319 292.643 486.09 289.529C479.861 286.414 474.463 282.36 471.007 276.008C469.251 272.799 467.855 269.41 466.229 266.134C464.74 263.085 463.087 260.125 461.275 257.266C457.68 251.569 453.189 246.385 447.56 242.815C446.099 241.877 444.551 241.088 442.939 240.461C442.745 240.48 442.847 240.186 443.023 240.252Z" fill="#071843"/>
<path d="M395.667 396.066C395.665 393.375 396.233 390.715 397.331 388.271C398.486 385.765 400.057 383.524 401.425 381.103C402.793 378.682 403.874 376.356 403.791 373.678C403.698 370.45 401.776 367.792 399.771 365.475C397.567 363.16 395.529 360.685 393.671 358.069C391.087 354.035 389.457 349.434 388.913 344.637C388.369 339.839 388.926 334.977 390.538 330.44C391.527 327.364 392.756 324.373 393.773 321.307C394.908 317.964 395.604 314.48 395.843 310.948C396.323 303.182 395.048 295.406 395.122 287.63C395.23 279.644 396.132 271.691 397.811 263.893C397.811 263.703 398.135 263.798 398.098 263.988C396.64 271.008 395.896 278.164 395.88 285.341C395.88 292.158 396.804 298.871 397.118 305.66C397.348 308.981 397.258 312.317 396.85 315.619C396.364 318.696 395.609 321.721 394.595 324.658C392.617 330.725 390.519 336.754 391.065 343.267C391.582 349.673 394.068 355.744 398.163 360.604C401.711 364.811 406.36 369.273 405.473 375.406C404.715 380.59 400.944 384.493 398.902 389.126C397.846 391.663 397.323 394.4 397.367 397.158C397.412 399.917 398.023 402.635 399.161 405.134C404.706 418.037 419.419 421.607 431.905 419.376C431.981 419.369 432.057 419.391 432.118 419.438C432.18 419.485 432.222 419.553 432.238 419.63C432.254 419.707 432.242 419.787 432.205 419.856C432.167 419.924 432.106 419.976 432.034 420.002C421.276 422.414 408.523 420.353 401.166 411.229C397.675 406.984 395.73 401.623 395.667 396.066Z" fill="#071843"/>
<path d="M424.003 345.916C409.659 372.026 391.804 411.552 380.954 423.582C367.359 438.649 333.303 486.863 329.116 495.522C324.052 505.965 380.871 527.679 383.265 520.055C384.937 514.7 405.149 482.419 422.921 444.242C432.08 424.588 440.481 379.802 444.242 354.044C448.004 328.285 431.239 332.729 424.003 345.916Z" fill="#FF9581"/>
<path d="M340.142 478.109C318.109 506.307 316.649 534.753 317.111 540.772C317.377 544.989 318.314 549.133 319.884 553.039C320.743 562.258 325.059 565.506 325.059 565.506C325.059 565.506 322.998 576.462 329.237 578.845C336.233 581.532 337.758 565.619 343.811 557.388C357.674 538.541 382.516 515.726 387.045 510.703L340.142 478.109Z" fill="#FF9581"/>
<path d="M344.846 527.157C340.872 532.787 336.824 538.218 333.617 544.371C330.096 551.121 327.804 558.233 325.3 565.401C325.289 565.424 325.274 565.444 325.255 565.46C325.237 565.477 325.215 565.489 325.192 565.497C325.169 565.505 325.144 565.509 325.12 565.507C325.096 565.505 325.072 565.498 325.05 565.487C325.017 565.471 324.989 565.445 324.971 565.413C324.953 565.381 324.945 565.343 324.948 565.306C327.871 550.886 334.583 537.564 344.356 526.787C344.615 526.54 345.012 526.882 344.846 527.157Z" fill="#2F351A"/>
<path d="M334.985 516.913C331.418 522.609 325.207 532.664 320.115 553.115C320.115 553.182 319.985 553.172 319.995 553.115C321.412 539.804 326.408 527.16 334.421 516.599C334.671 516.22 335.225 516.533 334.985 516.913Z" fill="#2F351A"/>
<path d="M361.934 535.778C364.707 534.06 365.631 535.531 363.579 541.038C361.528 546.545 349.079 566.617 356.26 570.471C363.441 574.326 380.668 545.786 383.329 536.357C385.991 526.929 387.026 510.722 387.026 510.722C382.627 515.593 370.76 526.341 361.934 535.778Z" fill="#FF9581"/>
<path d="M436.71 419.062L392.146 396.855C392.146 396.855 409.706 363.054 423.763 344.872C437.819 326.69 451.008 327.032 447.2 360.737C445.048 380.409 441.543 399.899 436.71 419.062V419.062Z" fill="#6C72FC"/>
<path d="M398.717 388.841C404.878 391.69 410.981 394.693 417.025 397.851C419.992 399.418 422.986 400.928 425.934 402.551C428.882 404.175 431.895 406.102 434.945 407.773C435.158 407.887 435.01 408.238 434.788 408.134C431.794 406.634 428.707 405.343 425.694 403.861C422.681 402.38 419.557 400.681 416.498 399.114C410.454 395.949 404.487 392.633 398.597 389.164C398.43 389.031 398.532 388.756 398.717 388.841Z" fill="#B3B29D"/>
<path d="M447.237 360.737C445.068 380.406 441.551 399.893 436.71 419.053L401.296 401.402L440.111 332.88C446.026 333.118 449.446 341.483 447.237 360.737Z" fill="#6C72FC"/>
<path d="M427.339 430.408L429.483 453.508L548.01 454.942C548.01 454.942 511.246 348.214 467.421 330.507C445.499 321.629 434.659 329.092 429.188 345.641C427.81 349.828 408.689 391.898 413.199 410.441C417.219 426.734 427.339 430.408 427.339 430.408Z" fill="#6C72FC"/>
<path d="M442.976 421.293C448.633 421.149 454.291 421.466 459.898 422.243C462.671 422.67 465.443 423.192 468.216 423.876C469.593 424.189 470.989 424.455 472.347 424.711C473.786 425.027 475.259 425.145 476.728 425.063C476.757 425.063 476.785 425.075 476.806 425.096C476.827 425.117 476.839 425.146 476.839 425.177C476.839 425.207 476.827 425.236 476.806 425.257C476.785 425.279 476.757 425.291 476.728 425.291C475.368 425.532 473.994 425.675 472.615 425.718C471.269 425.71 469.926 425.602 468.595 425.395C465.767 424.987 462.948 424.446 460.12 424.009C454.409 423.126 448.706 422.252 442.958 421.825C442.671 421.787 442.671 421.293 442.976 421.293Z" fill="#B3B29D"/>
<path d="M429.816 428.5C434.344 427.39 438.933 426.562 443.559 426.022C445.878 425.765 448.18 425.661 450.527 425.613H453.863C454.972 425.613 456.322 425.832 457.56 425.832C457.577 425.827 457.594 425.826 457.611 425.829C457.628 425.832 457.644 425.839 457.658 425.85C457.672 425.86 457.683 425.874 457.691 425.89C457.699 425.906 457.703 425.923 457.703 425.941C457.703 425.959 457.699 425.976 457.691 425.992C457.683 426.008 457.672 426.022 457.658 426.032C457.644 426.043 457.628 426.05 457.611 426.053C457.594 426.056 457.577 426.055 457.56 426.05C456.414 426.05 455.259 426.344 454.113 426.458L450.647 426.791C448.337 427.019 446.026 427.275 443.716 427.474C439.095 427.883 434.474 428.338 429.853 428.927C429.613 428.955 429.585 428.557 429.816 428.5Z" fill="#B3B29D"/>
<path d="M457.311 336.08C457.311 338.558 449.917 356.474 439.391 358.535C435.943 359.199 431.581 340.058 431.581 340.058L430.943 338.729L422.044 320.006L441.193 299.555L443.965 296.773C443.965 296.773 446.072 302.061 448.586 308.679C448.706 308.983 448.827 309.287 448.947 309.628C449.067 309.97 449.252 310.34 449.381 310.692C449.778 311.641 450.176 312.686 450.555 313.692C450.841 314.461 451.128 315.202 451.405 316.018C451.682 316.835 451.969 317.632 452.264 318.439C455.111 326.5 457.292 335.036 457.311 336.08Z" fill="#FF9581"/>
<path d="M448.669 308.669C448.015 314.699 446.092 320.51 443.035 325.701C439.977 330.891 435.858 335.337 430.962 338.729L422.062 320.006L441.211 299.555L443.984 296.773C443.984 296.773 446.109 302.023 448.669 308.669Z" fill="#1D1A33"/>
<path d="M387.525 299.64C396.554 335.017 418.199 333.45 425.62 331.447C432.357 329.624 455.074 322.531 449.649 286.386C444.224 250.24 425.361 243.376 409.743 246.708C394.124 250.041 378.477 264.264 387.525 299.64Z" fill="#FF9581"/>
<path d="M393.579 294.209C394.298 293.792 394.995 293.335 395.667 292.842C396.462 292.31 397.155 291.969 397.516 291.029C397.595 290.751 397.584 290.454 397.484 290.183C397.383 289.912 397.2 289.682 396.961 289.529C396.443 289.301 395.875 289.219 395.316 289.293C394.757 289.366 394.227 289.592 393.782 289.946C392.768 290.518 391.999 291.46 391.629 292.586C391.578 292.762 391.561 292.947 391.58 293.13C391.599 293.313 391.653 293.491 391.739 293.652C391.825 293.814 391.941 293.956 392.081 294.071C392.22 294.186 392.381 294.272 392.553 294.323C392.723 294.375 392.901 294.391 393.077 294.372C393.253 294.352 393.423 294.297 393.579 294.209V294.209Z" fill="#071843"/>
<path d="M415.972 287.782C415.163 287.959 414.345 288.089 413.523 288.171C412.677 288.435 411.769 288.401 410.944 288.076C410.702 287.925 410.517 287.695 410.418 287.423C410.319 287.151 410.312 286.852 410.399 286.576C410.644 286.054 411.019 285.608 411.487 285.284C411.955 284.961 412.498 284.771 413.06 284.734C414.188 284.483 415.366 284.669 416.369 285.256C416.591 285.403 416.767 285.613 416.875 285.861C416.982 286.109 417.017 286.384 416.975 286.652C416.933 286.92 416.815 287.17 416.637 287.371C416.459 287.571 416.228 287.714 415.972 287.782V287.782Z" fill="#071843"/>
<path d="M413.023 296.089C413.023 295.994 413.245 296.137 413.273 296.232C414.012 298.634 415.242 301.254 417.598 301.283C417.609 301.278 417.621 301.277 417.633 301.279C417.645 301.28 417.656 301.285 417.666 301.292C417.676 301.299 417.684 301.308 417.689 301.319C417.695 301.33 417.698 301.342 417.698 301.354C417.698 301.366 417.695 301.378 417.689 301.389C417.684 301.4 417.676 301.409 417.666 301.416C417.656 301.423 417.645 301.428 417.633 301.429C417.621 301.431 417.609 301.429 417.598 301.425C414.955 302.023 413.347 298.482 413.023 296.089Z" fill="#071843"/>
<path d="M414.243 292.871C417.857 291.247 420.713 298.795 417.404 300.295C414.096 301.795 411.212 294.238 414.243 292.871Z" fill="#071843"/>
<path d="M415.833 292.69C416.637 292.852 417.561 293.355 418.365 293.117C419.169 292.88 419.659 291.779 419.955 290.791C419.955 290.687 420.075 290.725 420.112 290.791C420.694 292.234 420.722 293.934 419.299 294.76C417.875 295.586 416.526 294.637 415.602 293.326C415.436 293.108 415.509 292.624 415.833 292.69Z" fill="#071843"/>
<path d="M400.464 300.761C400.408 300.675 400.334 300.941 400.371 301.036C401.36 303.334 402.109 306.144 400.371 307.767C400.316 307.767 400.371 307.929 400.445 307.881C402.82 306.486 401.785 302.773 400.464 300.761Z" fill="#071843"/>
<path d="M397.516 299.175C393.754 300.4 396.416 308.033 399.9 306.894C403.384 305.755 400.658 298.14 397.516 299.175Z" fill="#071843"/>
<path d="M396.139 300.238C395.695 300.865 395.371 301.805 394.688 302.137C394.004 302.47 393.006 301.881 392.211 301.283C392.128 301.226 392.091 301.283 392.118 301.406C392.59 302.878 393.588 304.255 395.057 304.008C396.527 303.761 396.906 302.213 396.693 300.637C396.665 300.324 396.314 299.991 396.139 300.238Z" fill="#071843"/>
<path d="M422.478 313.759C422.247 314.566 422.127 315.563 421.387 316.075C420.583 316.514 419.699 316.776 418.79 316.844C418.771 316.853 418.755 316.867 418.745 316.886C418.735 316.905 418.731 316.927 418.735 316.949C418.739 316.962 418.746 316.974 418.756 316.984C418.765 316.994 418.777 317.002 418.79 317.006C419.329 317.265 419.925 317.369 420.517 317.305C421.108 317.242 421.671 317.013 422.145 316.645C422.516 316.277 422.773 315.806 422.885 315.289C422.997 314.773 422.958 314.234 422.774 313.74C422.758 313.712 422.735 313.69 422.708 313.676C422.681 313.661 422.651 313.654 422.62 313.656C422.59 313.658 422.56 313.669 422.535 313.687C422.51 313.705 422.49 313.73 422.478 313.759V313.759Z" fill="#071843"/>
<path d="M408.245 310.322C408.245 310.322 409.401 313.939 410.149 315.534C411.779 315.167 413.282 314.356 414.502 313.187C415.721 312.018 416.612 310.533 417.081 308.888C417.136 308.688 416.84 308.613 416.748 308.783C415.422 311.167 413.384 313.049 410.935 314.148C410.611 313.759 409.17 307.891 408.911 307.995C407.753 308.704 406.696 309.573 405.769 310.578C403.162 303.115 401.739 295.282 399.041 287.895C399.034 287.865 399.022 287.836 399.004 287.81C398.987 287.785 398.964 287.763 398.938 287.746C398.913 287.729 398.884 287.718 398.854 287.712C398.824 287.707 398.793 287.708 398.763 287.715C398.734 287.721 398.706 287.732 398.681 287.749C398.656 287.766 398.635 287.789 398.618 287.814C398.602 287.84 398.591 287.869 398.585 287.899C398.58 287.929 398.581 287.96 398.588 287.99C399.512 296.308 402.284 304.967 404.817 312.743C405.085 313.702 407.756 310.901 408.245 310.322Z" fill="#071843"/>
<path d="M412.201 314.309C413.586 314.985 415.116 315.286 416.646 315.183C417.479 315.097 418.265 314.745 418.892 314.176C420.251 312.933 419.557 311.423 418.642 310.303C418.146 309.712 417.585 309.183 416.97 308.726C415.999 311.061 414.329 313.017 412.201 314.309V314.309Z" fill="#071843"/>
<path d="M416.646 315.183C417.479 315.097 418.265 314.745 418.892 314.176C420.251 312.933 419.557 311.423 418.643 310.303C417.044 311.366 415.953 313.417 416.646 315.183Z" fill="#FF98BB"/>
<path d="M449.926 287.782C443.965 291.361 436.193 277.233 436.193 277.233C436.193 277.233 407.395 284.278 395.843 262.811C395.843 262.811 397.183 279.151 385.806 291.788C385.806 291.788 376.564 266.751 393.551 253.639C393.551 253.639 413.476 234.498 434.714 247.943C455.952 261.387 453.928 285.341 449.926 287.782Z" fill="#071843"/>
<path d="M395.02 261.197C396.143 264.803 398.002 268.121 400.473 270.929C402.922 273.817 405.932 276.149 409.308 277.774C410.144 278.189 411.006 278.547 411.887 278.847L413.199 279.341C413.643 279.474 414.123 279.578 414.548 279.683C415.473 279.882 416.397 280.129 417.265 280.29C418.185 280.425 419.11 280.511 420.038 280.547C420.5 280.547 420.962 280.642 421.415 280.651L422.801 280.604L425.574 280.499C427.422 280.262 429.187 279.92 430.962 279.55C429.114 279.55 427.339 279.711 425.537 279.673L422.857 279.531L421.517 279.464C421.073 279.417 420.593 279.322 420.195 279.255C419.271 279.094 418.448 278.952 417.57 278.828C416.702 278.649 415.844 278.417 415.001 278.135L413.726 277.784L412.478 277.338C411.645 277.041 410.83 276.692 410.038 276.293C406.827 274.729 403.901 272.609 401.388 270.027C398.84 267.434 396.692 264.456 395.02 261.197V261.197Z" fill="#071843"/>
<path d="M444.825 290.63C444.825 290.63 448.411 277.195 454.067 278.135C459.723 279.075 459.612 296.668 454.834 300.846C454.265 301.411 453.593 301.855 452.856 302.153C452.12 302.451 451.334 302.597 450.543 302.583C449.751 302.569 448.971 302.395 448.245 302.071C447.519 301.747 446.863 301.279 446.313 300.694L446.146 300.504L444.825 290.63Z" fill="#FF9581"/>
<path d="M453.965 283.129C453.986 283.123 454.008 283.126 454.027 283.137C454.046 283.147 454.06 283.165 454.067 283.186C454.073 283.199 454.076 283.214 454.076 283.229C454.076 283.244 454.073 283.258 454.067 283.272C450.73 286.329 449.963 290.81 449.862 295.197C450.508 293.298 451.812 291.893 454.242 292.605C454.372 292.605 454.325 292.842 454.242 292.861C453.478 292.887 452.741 293.156 452.132 293.63C451.523 294.105 451.072 294.761 450.841 295.51C450.464 296.768 450.219 298.063 450.111 299.374C450.056 299.802 449.363 299.84 449.344 299.374V299.27C447.412 294.19 448.799 285.607 453.965 283.129Z" fill="#071843"/>
<path d="M462.468 358.24C466.922 370.716 510.368 457.287 512.9 462.3C512.9 462.3 556.541 492.407 562.807 461.351C566.882 441.175 505.11 363.424 477.458 341.302C464.76 331.152 453.143 332.045 462.468 358.24Z" fill="#FF9581"/>
<path d="M525.969 389.61L481.792 412.501C481.792 412.501 466.275 377.638 460.73 355.193C455.185 332.748 463.456 322.114 487.227 345.698C501.135 359.376 514.082 374.05 525.969 389.61Z" fill="#6C72FC"/>
<path d="M479.537 402.295C485.483 398.978 491.509 395.813 497.614 392.8C500.627 391.319 503.612 389.791 506.653 388.366C509.693 386.942 513.03 385.651 516.163 384.179C516.385 384.075 516.569 384.407 516.348 384.521C513.372 386.059 510.497 387.806 507.531 389.354C504.564 390.901 501.339 392.44 498.243 393.968C492.125 396.987 485.939 399.836 479.685 402.513C479.5 402.665 479.352 402.39 479.537 402.295Z" fill="#B3B29D"/>
<path d="M483.576 411.562C482.947 411.808 482.301 412.055 481.728 412.321L481.986 412.416C480.979 409.235 479.796 406.131 478.668 402.997C477.541 399.864 476.238 396.817 474.972 393.75C473.706 390.683 472.366 387.645 470.933 384.645C469.501 381.644 468.096 378.644 466.497 375.71C467.421 378.919 468.567 382.053 469.722 385.205C470.878 388.357 472.098 391.424 473.354 394.5C474.611 397.576 475.942 400.614 477.31 403.643C478.678 406.672 480.082 409.672 481.654 412.615L481.755 412.815L481.922 412.71C482.439 412.321 483.003 411.941 483.576 411.562Z" fill="#B3B29D"/>
<path d="M465.305 381.644C466.912 384.641 469.194 387.2 471.959 389.107C470.359 386.104 468.076 383.544 465.305 381.644V381.644Z" fill="#B3B29D"/>
<path d="M523.205 390.835C523.88 390.218 524.656 389.724 525.331 389.117C523.224 386.714 521.273 384.122 519.277 381.616C517.281 379.109 514.998 376.346 512.808 373.745C508.483 368.589 503.917 363.671 499.509 358.554C497.032 355.705 494.5 352.857 491.94 350.085C491.82 349.942 492.041 349.733 492.18 349.857C494.854 352.287 497.463 354.781 500.008 357.338L499.527 356.56C498.733 355.269 497.892 353.977 497.032 352.762C496.977 352.686 497.088 352.61 497.152 352.677C498.201 353.841 499.13 355.114 499.925 356.474C500.257 357.044 500.553 357.633 500.849 358.221C502.697 360.12 504.546 362.073 506.394 364.079C510.904 369.067 515.239 374.213 519.397 379.518C521.859 382.503 524.154 385.628 526.273 388.879C526.339 388.977 526.365 389.097 526.346 389.214C526.327 389.331 526.265 389.435 526.172 389.506C526.144 389.527 526.113 389.543 526.079 389.553C525.155 389.952 524.231 390.598 523.307 391.034C523.187 391.11 523.113 390.92 523.205 390.835Z" fill="#B3B29D"/>
<path d="M531.698 542.453C522.105 562.98 509.01 583.64 488.659 594.967C486.423 596.289 483.818 596.797 481.265 596.41C472.227 601.661 467.107 598.85 467.107 598.85C457.237 601.091 452.385 597.483 452.385 597.483C452.385 597.483 441.71 603.522 437.089 597.483C431.886 590.742 447.893 583.583 454.344 574.117C469.131 552.422 484.26 517.34 487.92 510.656L531.698 542.453Z" fill="#FF9581"/>
<path d="M485.406 562.6C480.933 568.886 476.691 575.19 471.404 580.83C465.61 587.02 459.02 591.976 452.44 597.189C452.42 597.207 452.404 597.23 452.393 597.256C452.383 597.281 452.377 597.308 452.377 597.336C452.377 597.364 452.383 597.391 452.393 597.416C452.404 597.442 452.42 597.464 452.44 597.483C452.467 597.515 452.503 597.537 452.543 597.546C452.583 597.554 452.625 597.549 452.662 597.531C466.035 590.03 478.474 576.557 485.683 562.8C485.859 562.467 485.628 562.277 485.406 562.6Z" fill="#2F351A"/>
<path d="M499.444 569.864C494.759 575.741 486.459 586.004 466.987 598.642C466.922 598.642 466.987 598.803 467.042 598.765C480.748 592.299 491.237 582.748 499.722 570.091C499.98 569.702 499.758 569.474 499.444 569.864Z" fill="#2F351A"/>
<path d="M506.921 573.918C498.603 583.593 492.134 588.615 481.284 596.344C481.219 596.344 481.284 596.505 481.349 596.467C494.574 589.014 498.557 584.77 507.281 574.165C507.586 573.794 507.244 573.566 506.921 573.918Z" fill="#2F351A"/>
<path d="M470.563 546.839C471.404 543.231 469.565 542.757 464.538 546.839C459.51 550.922 442.976 571.554 436.507 565.021C430.038 558.489 453.715 529.768 462.597 523.597C471.478 517.425 487.957 510.665 487.957 510.665C484.398 517.216 477.319 533.917 470.563 546.839Z" fill="#FF9581"/>
<path d="M484.565 511.9C482.8 519.429 515.063 566.218 522.115 557.473C555.385 516.21 563.703 469.383 562.991 458.816C562.067 444.954 521.458 447.745 516.107 455.018C509.13 464.38 486.312 504.446 484.565 511.9Z" fill="#FF9581"/>
<path d="M346.537 619.852C346.685 628.54 346.861 637.275 346.667 645.972C346.537 651.289 346.085 656.511 345.475 661.733C343.532 663.539 341.388 665.104 339.088 666.394C339.255 665.065 339.412 663.745 339.569 662.445C340.318 656.197 340.493 649.978 340.678 643.693C340.678 643.673 340.674 643.653 340.667 643.635C340.659 643.616 340.648 643.6 340.635 643.586C340.621 643.572 340.605 643.56 340.587 643.553C340.569 643.545 340.55 643.541 340.53 643.541C340.511 643.541 340.492 643.545 340.474 643.553C340.456 643.56 340.439 643.572 340.426 643.586C340.412 643.6 340.401 643.616 340.394 643.635C340.386 643.653 340.382 643.673 340.382 643.693C340.003 650.14 339.162 656.625 338.257 663.024C338.053 664.41 337.813 665.806 337.564 667.192C335.393 668.311 333.144 669.263 330.835 670.04C331.094 668.512 331.316 666.983 331.547 665.492C332.083 661.96 332.554 658.429 332.924 654.868C333.635 647.879 333.969 640.855 333.922 633.828C333.922 633.534 333.534 633.591 333.516 633.828C333.127 641.05 332.511 648.263 331.667 655.466C331.251 658.865 330.798 662.264 330.262 665.644C330.004 667.268 329.689 668.882 329.338 670.515C325.109 671.798 320.78 672.706 316.4 673.23C303.895 674.844 290.948 671.977 279.146 667.695C268.778 664.058 259.421 657.898 251.873 649.741C255.649 644.795 258.715 639.318 260.976 633.477C260.989 633.439 260.987 633.398 260.972 633.361C260.957 633.324 260.928 633.294 260.893 633.278C260.862 633.267 260.828 633.267 260.796 633.277C260.765 633.287 260.737 633.307 260.717 633.334C258.684 636.949 256.528 640.459 254.248 643.864C253.167 645.468 252.011 647.007 250.856 648.545L250.524 648.155C249.803 647.31 249.045 646.399 248.305 645.431C250.54 642.211 252.589 638.86 254.442 635.395C257.206 630.552 259.55 625.468 261.447 620.204C261.577 619.852 261.161 619.615 260.985 619.947C258.379 624.694 255.912 629.575 253.241 634.312C251.392 637.654 249.285 640.864 247.326 644.149C245.228 641.12 243.629 637.607 244.276 633.638C244.821 630.363 246.697 627.609 248.278 624.875C250.063 621.797 251.695 618.628 253.167 615.38C256.226 608.734 268.139 555.793 285.948 558.746C286.04 558.584 315.938 537.63 331.445 552.688C356.056 576.567 355.345 639.297 354.014 646.257C353.061 651.366 350.722 656.096 347.267 659.9C347.767 655.476 347.961 651.013 348.053 646.674C348.247 637.664 347.619 628.749 346.944 619.805C346.942 619.778 346.934 619.751 346.922 619.727C346.909 619.703 346.892 619.682 346.871 619.665C346.85 619.648 346.826 619.636 346.801 619.629C346.775 619.622 346.748 619.62 346.722 619.624C346.695 619.627 346.669 619.635 346.646 619.647C346.622 619.66 346.601 619.678 346.584 619.699C346.566 619.72 346.553 619.744 346.546 619.771C346.538 619.797 346.535 619.825 346.537 619.852V619.852Z" fill="#071843"/>
<path d="M299.339 980.406H357.027C357.027 980.406 385.048 886.088 381.231 859.019C376.093 822.522 363.33 729.799 363.33 729.799H299.339C299.339 729.799 320.595 828.874 323.368 862.722C324.68 879.223 299.339 980.406 299.339 980.406Z" fill="#FFC5C1"/>
<path d="M394.53 1033.81C391.407 1034.84 302.491 1033.63 299.136 1031.38C297.851 1030.54 296.363 1014.38 296.363 998.266C296.363 990.062 308.692 941.574 308.692 941.574L366.352 942.21L352.563 1001.85C352.563 1001.85 388.172 1017.83 391.601 1020.7C395.029 1023.57 397.691 1032.79 394.53 1033.81Z" fill="#FFC5C1"/>
<path d="M296.548 1008.84C297.01 1020.8 298.119 1030.68 299.136 1031.38C302.491 1033.62 391.397 1034.84 394.53 1033.82C397.663 1032.81 395.02 1023.58 391.61 1020.7C389.762 1019.16 378.671 1013.85 368.801 1009.25C379.993 1015.19 388.412 1021.59 366.176 1020.13C345.354 1018.76 307.925 1011.21 296.548 1008.84Z" fill="#660BA4"/>
<path d="M368.801 1009.25C364.161 1008.01 359.276 1008.1 354.685 1009.53C350.095 1010.95 345.976 1013.65 342.785 1017.33" fill="#660BA4"/>
<path d="M252.159 1034.93C249.017 1033.98 175.951 981.926 174.389 978.128C173.788 976.694 180.544 965.32 189.093 951.819C190.941 948.894 192.863 945.894 194.832 942.865C203.853 929.249 213.548 916.116 223.879 903.52L273.194 939.02L242.428 976.59L236.263 985.239C236.263 985.239 255.56 1018.03 256.845 1022.38C258.129 1026.73 255.301 1035.87 252.159 1034.93Z" fill="#FFC5C1"/>
<path d="M174.38 978.137C175.951 981.935 249.008 1034 252.15 1034.93C255.292 1035.86 258.139 1026.71 256.863 1022.39C256.059 1019.65 248.167 1005.72 242.381 995.721C249.285 1007.98 254.923 1020.92 235.82 1005.96C219.942 993.547 194.49 967.779 185.11 958.161C178.557 968.747 173.881 976.932 174.38 978.137Z" fill="#660BA4"/>
<path d="M242.428 995.721C242.428 995.721 234.387 988.819 221.393 993.538Z" fill="#660BA4"/>
<path d="M203.704 929.715L251.254 965.794C251.254 965.794 308.221 902.267 315.67 878.274C325.605 846.258 336.695 776.474 336.695 776.474L343.95 774.1C353.044 768.204 362.249 738.097 363.302 729.799H278.868C278.868 729.799 266.558 765.925 273.148 788.266C273.148 788.266 257.834 850.189 253.278 859.228C241.346 882.85 203.704 929.715 203.704 929.715Z" fill="#FFC5C1"/>
<path d="M270.902 744.525C270.976 744.62 370.825 744.525 371.564 743.908C371.925 743.632 361.029 668.645 349.55 648.535C346.621 643.408 330.272 635.138 319.006 644.12C295.227 663.071 270.532 744.003 270.902 744.525Z" fill="#355F81"/>
<path d="M316.908 673.259C315.899 673.259 314.913 673.566 314.074 674.142C313.235 674.718 312.581 675.537 312.195 676.494C311.809 677.452 311.708 678.506 311.904 679.522C312.101 680.539 312.587 681.473 313.301 682.206C314.014 682.939 314.923 683.438 315.913 683.64C316.902 683.842 317.928 683.739 318.86 683.342C319.792 682.945 320.589 682.273 321.15 681.412C321.71 680.55 322.009 679.536 322.009 678.5C322.009 677.11 321.472 675.777 320.515 674.794C319.559 673.811 318.261 673.259 316.908 673.259ZM316.908 682.972C316.045 682.972 315.202 682.709 314.484 682.216C313.767 681.724 313.208 681.024 312.878 680.205C312.548 679.386 312.461 678.485 312.63 677.616C312.798 676.747 313.213 675.948 313.823 675.322C314.433 674.695 315.211 674.268 316.057 674.095C316.903 673.922 317.78 674.011 318.577 674.35C319.374 674.689 320.056 675.264 320.535 676.001C321.014 676.738 321.27 677.604 321.27 678.49V678.49C321.27 679.681 320.811 680.822 319.994 681.666C319.176 682.509 318.067 682.986 316.908 682.991V682.972Z" fill="#6C72FC"/>
<path d="M347.785 673.259C346.776 673.259 345.79 673.566 344.951 674.142C344.112 674.718 343.458 675.537 343.072 676.494C342.686 677.452 342.585 678.506 342.782 679.522C342.978 680.539 343.464 681.473 344.178 682.206C344.891 682.939 345.8 683.438 346.79 683.64C347.779 683.842 348.805 683.739 349.737 683.342C350.67 682.945 351.466 682.273 352.027 681.412C352.587 680.55 352.887 679.536 352.887 678.5C352.887 677.11 352.349 675.777 351.392 674.794C350.436 673.811 349.138 673.259 347.785 673.259V673.259ZM347.785 682.972C346.922 682.972 346.079 682.709 345.362 682.216C344.644 681.724 344.085 681.024 343.755 680.205C343.425 679.386 343.338 678.485 343.507 677.616C343.675 676.747 344.09 675.948 344.701 675.322C345.311 674.695 346.088 674.268 346.934 674.095C347.78 673.922 348.657 674.011 349.454 674.35C350.251 674.689 350.933 675.264 351.412 676.001C351.891 676.738 352.147 677.604 352.147 678.49V678.49C352.145 679.68 351.685 680.82 350.868 681.663C350.051 682.506 348.943 682.983 347.785 682.991V682.972Z" fill="#6C72FC"/>
<path d="M332.351 648.791C331.338 648.788 330.348 649.093 329.504 649.667C328.66 650.242 328 651.061 327.609 652.021C327.219 652.981 327.113 654.038 327.307 655.059C327.501 656.08 327.986 657.019 328.699 657.757C329.413 658.496 330.323 659 331.316 659.207C332.308 659.413 333.338 659.313 334.275 658.918C335.212 658.524 336.014 657.852 336.579 656.989C337.145 656.127 337.449 655.111 337.453 654.07V654.07C337.456 653.379 337.327 652.694 337.072 652.055C336.818 651.415 336.443 650.833 335.969 650.343C335.495 649.852 334.931 649.463 334.31 649.197C333.69 648.93 333.024 648.793 332.351 648.791V648.791ZM332.351 658.514C331.49 658.512 330.649 658.248 329.934 657.755C329.22 657.262 328.663 656.562 328.335 655.745C328.007 654.927 327.923 654.027 328.093 653.16C328.263 652.293 328.679 651.497 329.289 650.873C329.899 650.249 330.675 649.825 331.52 649.654C332.365 649.483 333.24 649.574 334.035 649.914C334.829 650.254 335.508 650.829 335.985 651.565C336.462 652.302 336.715 653.167 336.713 654.051V654.051C336.704 655.235 336.24 656.367 335.424 657.203C334.607 658.038 333.503 658.509 332.351 658.514Z" fill="#6C72FC"/>
<path d="M286.022 721.861C285.009 721.858 284.018 722.162 283.174 722.737C282.33 723.312 281.671 724.131 281.28 725.091C280.889 726.051 280.784 727.108 280.978 728.129C281.172 729.15 281.656 730.089 282.37 730.827C283.083 731.565 283.994 732.07 284.986 732.276C285.979 732.483 287.008 732.383 287.945 731.988C288.882 731.593 289.684 730.922 290.25 730.059C290.816 729.196 291.119 728.181 291.123 727.14V727.14C291.127 726.449 290.998 725.764 290.743 725.124C290.488 724.485 290.113 723.903 289.639 723.413C289.165 722.922 288.602 722.533 287.981 722.266C287.36 722 286.694 721.863 286.022 721.861V721.861ZM286.022 731.584C285.161 731.584 284.319 731.321 283.603 730.83C282.887 730.339 282.329 729.64 282 728.823C281.671 728.006 281.584 727.107 281.752 726.239C281.92 725.372 282.335 724.575 282.944 723.95C283.552 723.324 284.328 722.898 285.172 722.726C286.017 722.553 286.892 722.642 287.687 722.98C288.483 723.319 289.163 723.892 289.641 724.627C290.119 725.363 290.374 726.227 290.374 727.112C290.37 728.296 289.909 729.431 289.094 730.268C288.279 731.106 287.175 731.579 286.022 731.584Z" fill="#6C72FC"/>
<path d="M316.908 721.861C315.895 721.858 314.904 722.162 314.06 722.737C313.216 723.312 312.557 724.131 312.166 725.091C311.775 726.051 311.67 727.108 311.864 728.129C312.058 729.15 312.543 730.089 313.256 730.827C313.97 731.565 314.88 732.07 315.873 732.276C316.865 732.483 317.895 732.383 318.832 731.988C319.769 731.593 320.571 730.922 321.136 730.059C321.702 729.196 322.006 728.181 322.009 727.14C322.013 726.449 321.884 725.764 321.629 725.124C321.375 724.485 321 723.903 320.526 723.413C320.052 722.922 319.488 722.533 318.867 722.266C318.247 722 317.581 721.863 316.908 721.861V721.861ZM316.908 731.584C316.047 731.582 315.206 731.318 314.491 730.825C313.776 730.332 313.22 729.632 312.892 728.814C312.564 727.996 312.48 727.097 312.65 726.23C312.82 725.363 313.236 724.567 313.846 723.943C314.456 723.319 315.232 722.895 316.077 722.724C316.922 722.553 317.797 722.644 318.592 722.984C319.386 723.324 320.065 723.899 320.542 724.635C321.018 725.372 321.272 726.237 321.27 727.121V727.121C321.265 728.307 320.804 729.442 319.986 730.278C319.168 731.114 318.062 731.584 316.908 731.584V731.584Z" fill="#6C72FC"/>
<path d="M347.785 721.861C346.772 721.858 345.781 722.162 344.937 722.737C344.093 723.312 343.434 724.131 343.043 725.091C342.653 726.051 342.547 727.108 342.741 728.129C342.935 729.15 343.42 730.089 344.133 730.827C344.847 731.565 345.757 732.07 346.75 732.276C347.742 732.483 348.772 732.383 349.709 731.988C350.646 731.593 351.448 730.922 352.013 730.059C352.579 729.196 352.883 728.181 352.887 727.14V727.14C352.89 726.449 352.761 725.764 352.506 725.124C352.252 724.485 351.877 723.903 351.403 723.413C350.929 722.922 350.365 722.533 349.744 722.266C349.124 722 348.458 721.863 347.785 721.861V721.861ZM347.785 731.584C346.924 731.582 346.083 731.318 345.368 730.825C344.653 730.332 344.097 729.632 343.769 728.814C343.441 727.996 343.357 727.097 343.527 726.23C343.697 725.363 344.113 724.567 344.723 723.943C345.333 723.319 346.109 722.895 346.954 722.724C347.799 722.553 348.674 722.644 349.469 722.984C350.263 723.324 350.942 723.899 351.419 724.635C351.896 725.372 352.149 726.237 352.147 727.121V727.121C352.137 728.305 351.674 729.437 350.858 730.272C350.041 731.108 348.937 731.579 347.785 731.584V731.584Z" fill="#6C72FC"/>
<path d="M301.465 697.394C300.456 697.394 299.469 697.701 298.63 698.277C297.792 698.853 297.138 699.672 296.752 700.629C296.365 701.587 296.264 702.641 296.461 703.657C296.658 704.674 297.144 705.608 297.857 706.341C298.571 707.074 299.48 707.573 300.469 707.775C301.459 707.977 302.485 707.874 303.417 707.477C304.349 707.08 305.146 706.409 305.707 705.547C306.267 704.685 306.566 703.671 306.566 702.635C306.566 701.245 306.029 699.912 305.072 698.929C304.115 697.946 302.818 697.394 301.465 697.394ZM301.465 707.116C300.602 707.118 299.758 706.857 299.04 706.366C298.321 705.875 297.761 705.177 297.429 704.359C297.097 703.54 297.009 702.64 297.175 701.77C297.342 700.9 297.756 700.101 298.364 699.473C298.973 698.845 299.75 698.416 300.595 698.241C301.441 698.067 302.319 698.154 303.116 698.491C303.914 698.828 304.597 699.401 305.077 700.137C305.558 700.873 305.816 701.739 305.818 702.625C305.818 703.813 305.36 704.953 304.544 705.794C303.728 706.636 302.621 707.111 301.465 707.116Z" fill="#6C72FC"/>
<path d="M332.351 697.394C331.342 697.394 330.356 697.701 329.517 698.277C328.678 698.853 328.024 699.672 327.638 700.629C327.252 701.587 327.151 702.641 327.348 703.657C327.544 704.674 328.03 705.608 328.744 706.341C329.457 707.074 330.366 707.573 331.356 707.775C332.345 707.977 333.371 707.874 334.303 707.477C335.236 707.08 336.032 706.409 336.593 705.547C337.153 704.685 337.453 703.671 337.453 702.635C337.453 701.245 336.915 699.912 335.958 698.929C335.002 697.946 333.704 697.394 332.351 697.394V697.394ZM332.351 707.116C331.488 707.116 330.645 706.853 329.928 706.361C329.21 705.869 328.651 705.169 328.321 704.35C327.991 703.531 327.904 702.63 328.073 701.761C328.241 700.891 328.657 700.093 329.267 699.466C329.877 698.839 330.654 698.412 331.5 698.24C332.346 698.067 333.223 698.155 334.02 698.495C334.817 698.834 335.499 699.408 335.978 700.145C336.457 700.882 336.713 701.749 336.713 702.635V702.635C336.708 703.822 336.247 704.959 335.43 705.798C334.613 706.638 333.506 707.111 332.351 707.116V707.116Z" fill="#6C72FC"/>
<path d="M365.511 706.49C364.834 706.938 364.043 707.172 363.237 707.164C362.081 707.164 360.971 706.692 360.153 705.851C359.335 705.011 358.875 703.871 358.875 702.682C358.875 701.494 359.335 700.354 360.153 699.514C360.971 698.673 362.081 698.201 363.237 698.201C363.473 698.202 363.709 698.228 363.94 698.277C363.866 698.009 363.81 697.736 363.774 697.46H363.237C362.57 697.402 361.898 697.479 361.259 697.687C360.621 697.895 360.028 698.231 359.516 698.674C359.004 699.118 358.581 699.661 358.273 700.272C357.965 700.883 357.777 701.55 357.72 702.236C357.663 702.922 357.738 703.612 357.941 704.268C358.144 704.924 358.47 705.533 358.902 706.059C359.333 706.586 359.862 707.02 360.457 707.336C361.052 707.653 361.701 707.846 362.369 707.904C362.658 707.933 362.949 707.933 363.237 707.904C364.091 707.906 364.931 707.684 365.677 707.259C365.642 706.998 365.586 706.741 365.511 706.49V706.49Z" fill="#6C72FC"/>
<path d="M371.564 743.908L396.453 842.727C396.453 842.727 368.93 858.117 336.926 861.355C304.921 864.592 252.076 841.825 252.076 841.825L270.902 744.525L371.564 743.908Z" fill="#355F81"/>
<path d="M286.022 770.464C285.013 770.464 284.026 770.771 283.187 771.347C282.348 771.923 281.694 772.741 281.308 773.699C280.922 774.657 280.821 775.711 281.018 776.727C281.215 777.744 281.701 778.678 282.414 779.411C283.128 780.144 284.037 780.643 285.026 780.845C286.016 781.047 287.042 780.943 287.974 780.547C288.906 780.15 289.703 779.478 290.263 778.616C290.824 777.755 291.123 776.741 291.123 775.705C291.123 774.315 290.586 772.982 289.629 771.999C288.672 771.016 287.375 770.464 286.022 770.464V770.464ZM286.022 780.186C285.159 780.188 284.315 779.927 283.597 779.436C282.878 778.945 282.318 778.247 281.986 777.428C281.654 776.61 281.566 775.709 281.732 774.84C281.899 773.97 282.313 773.171 282.921 772.543C283.53 771.915 284.306 771.486 285.152 771.311C285.998 771.137 286.875 771.223 287.673 771.561C288.471 771.898 289.153 772.471 289.634 773.207C290.115 773.943 290.373 774.809 290.374 775.695V775.695C290.374 776.883 289.916 778.022 289.101 778.864C288.285 779.706 287.178 780.181 286.022 780.186V780.186Z" fill="#6C72FC"/>
<path d="M316.908 770.464C315.899 770.464 314.913 770.771 314.074 771.347C313.235 771.923 312.581 772.741 312.195 773.699C311.809 774.657 311.708 775.711 311.904 776.727C312.101 777.744 312.587 778.678 313.301 779.411C314.014 780.144 314.923 780.643 315.913 780.845C316.902 781.047 317.928 780.943 318.86 780.547C319.792 780.15 320.589 779.478 321.15 778.616C321.71 777.755 322.009 776.741 322.009 775.705C322.009 774.315 321.472 772.982 320.515 771.999C319.559 771.016 318.261 770.464 316.908 770.464V770.464ZM316.908 780.186C316.045 780.186 315.202 779.923 314.484 779.431C313.767 778.938 313.208 778.238 312.878 777.42C312.548 776.601 312.461 775.7 312.63 774.83C312.798 773.961 313.213 773.163 313.823 772.536C314.433 771.909 315.211 771.482 316.057 771.309C316.903 771.136 317.78 771.225 318.577 771.564C319.374 771.904 320.056 772.478 320.535 773.215C321.014 773.952 321.27 774.818 321.27 775.705V775.705C321.265 776.892 320.804 778.029 319.987 778.868C319.17 779.707 318.063 780.181 316.908 780.186V780.186Z" fill="#6C72FC"/>
<path d="M347.785 770.464C346.776 770.464 345.79 770.771 344.951 771.347C344.112 771.923 343.458 772.741 343.072 773.699C342.686 774.657 342.585 775.711 342.782 776.727C342.978 777.744 343.464 778.678 344.178 779.411C344.891 780.144 345.8 780.643 346.79 780.845C347.779 781.047 348.805 780.943 349.737 780.547C350.67 780.15 351.466 779.478 352.027 778.616C352.587 777.755 352.887 776.741 352.887 775.705C352.887 774.315 352.349 772.982 351.392 771.999C350.436 771.016 349.138 770.464 347.785 770.464V770.464ZM347.785 780.186C346.922 780.186 346.079 779.923 345.362 779.431C344.644 778.938 344.085 778.238 343.755 777.42C343.425 776.601 343.338 775.7 343.507 774.83C343.675 773.961 344.09 773.163 344.701 772.536C345.311 771.909 346.088 771.482 346.934 771.309C347.78 771.136 348.657 771.225 349.454 771.564C350.251 771.904 350.933 772.478 351.412 773.215C351.891 773.952 352.147 774.818 352.147 775.705V775.705C352.142 776.892 351.681 778.029 350.864 778.868C350.047 779.707 348.94 780.181 347.785 780.186V780.186Z" fill="#6C72FC"/>
<path d="M380.584 779.702C380.015 780.013 379.381 780.179 378.736 780.186C377.609 780.175 376.531 779.716 375.727 778.905C374.923 778.095 374.456 776.995 374.425 775.838C374.394 774.681 374.801 773.557 375.56 772.701C376.319 771.846 377.371 771.326 378.496 771.252L378.293 770.483C376.944 770.609 375.7 771.28 374.834 772.348C374.405 772.877 374.081 773.488 373.882 774.145C373.682 774.802 373.611 775.494 373.672 776.179C373.732 776.865 373.924 777.532 374.235 778.142C374.547 778.751 374.972 779.292 375.487 779.733C376.527 780.623 377.869 781.053 379.217 780.927C379.781 780.872 380.334 780.725 380.853 780.49L380.584 779.702Z" fill="#6C72FC"/>
<path d="M270.615 745.996L270.458 746.784C270.495 746.775 270.533 746.775 270.569 746.784C271.726 746.784 272.836 747.257 273.654 748.097C274.472 748.937 274.931 750.077 274.931 751.266C274.931 752.454 274.472 753.594 273.654 754.435C272.836 755.275 271.726 755.747 270.569 755.747C269.961 755.751 269.36 755.611 268.813 755.339L268.647 756.127C269.259 756.376 269.911 756.505 270.569 756.507C271.843 756.401 273.032 755.808 273.901 754.845C274.769 753.882 275.255 752.62 275.26 751.307C275.266 749.994 274.792 748.726 273.932 747.755C273.072 746.784 271.888 746.18 270.615 746.063V745.996Z" fill="#6C72FC"/>
<path d="M301.465 745.996C300.456 745.996 299.469 746.304 298.63 746.88C297.792 747.456 297.138 748.274 296.752 749.232C296.365 750.189 296.264 751.243 296.461 752.26C296.658 753.277 297.144 754.21 297.857 754.943C298.571 755.676 299.48 756.175 300.469 756.378C301.459 756.58 302.485 756.476 303.417 756.079C304.349 755.683 305.146 755.011 305.707 754.149C306.267 753.287 306.566 752.274 306.566 751.237C306.566 749.847 306.029 748.514 305.072 747.531C304.115 746.549 302.818 745.996 301.465 745.996V745.996ZM301.465 755.719C300.602 755.721 299.758 755.46 299.04 754.969C298.321 754.478 297.761 753.779 297.429 752.961C297.097 752.143 297.009 751.242 297.175 750.372C297.342 749.503 297.756 748.703 298.364 748.075C298.973 747.447 299.75 747.019 300.595 746.844C301.441 746.669 302.319 746.756 303.116 747.094C303.914 747.431 304.597 748.004 305.077 748.74C305.558 749.476 305.816 750.342 305.818 751.228C305.818 752.416 305.36 753.555 304.544 754.397C303.728 755.238 302.621 755.714 301.465 755.719V755.719Z" fill="#6C72FC"/>
<path d="M332.351 745.996C331.342 745.996 330.356 746.304 329.517 746.88C328.678 747.456 328.024 748.274 327.638 749.232C327.252 750.189 327.151 751.243 327.348 752.26C327.544 753.277 328.03 754.21 328.744 754.943C329.457 755.676 330.366 756.175 331.356 756.378C332.345 756.58 333.371 756.476 334.303 756.079C335.236 755.683 336.032 755.011 336.593 754.149C337.153 753.287 337.453 752.274 337.453 751.237C337.453 749.847 336.915 748.514 335.958 747.531C335.002 746.549 333.704 745.996 332.351 745.996V745.996ZM332.351 755.719C331.488 755.719 330.645 755.456 329.928 754.964C329.21 754.471 328.651 753.771 328.321 752.952C327.991 752.134 327.904 751.232 328.073 750.363C328.241 749.494 328.657 748.695 329.267 748.069C329.877 747.442 330.654 747.015 331.5 746.842C332.346 746.669 333.223 746.758 334.02 747.097C334.817 747.436 335.499 748.011 335.978 748.748C336.457 749.485 336.713 750.351 336.713 751.237V751.237C336.708 752.424 336.247 753.561 335.43 754.401C334.613 755.24 333.506 755.714 332.351 755.719V755.719Z" fill="#6C72FC"/>
<path d="M363.237 745.996C362.228 745.996 361.242 746.304 360.403 746.88C359.564 747.456 358.91 748.274 358.524 749.232C358.138 750.189 358.037 751.243 358.234 752.26C358.431 753.277 358.917 754.21 359.63 754.943C360.344 755.676 361.253 756.175 362.242 756.378C363.232 756.58 364.258 756.476 365.19 756.079C366.122 755.683 366.919 755.011 367.479 754.149C368.04 753.287 368.339 752.274 368.339 751.237C368.339 749.847 367.801 748.514 366.845 747.531C365.888 746.549 364.59 745.996 363.237 745.996V745.996ZM363.237 755.719C362.375 755.719 361.531 755.456 360.814 754.964C360.097 754.471 359.538 753.771 359.207 752.952C358.877 752.134 358.791 751.232 358.959 750.363C359.127 749.494 359.543 748.695 360.153 748.069C360.763 747.442 361.54 747.015 362.386 746.842C363.233 746.669 364.11 746.758 364.907 747.097C365.704 747.436 366.385 748.011 366.864 748.748C367.344 749.485 367.6 750.351 367.6 751.237V751.237C367.595 752.424 367.134 753.561 366.317 754.401C365.5 755.24 364.393 755.714 363.237 755.719Z" fill="#6C72FC"/>
<path d="M256.429 819.256L256.291 820.016C257.211 820.266 258.024 820.823 258.603 821.6C259.182 822.377 259.493 823.329 259.488 824.307C259.488 825.496 259.029 826.636 258.211 827.476C257.393 828.317 256.283 828.789 255.126 828.789C254.948 828.808 254.768 828.808 254.59 828.789L254.451 829.548C254.664 829.548 254.895 829.548 255.126 829.548C256.479 829.548 257.777 828.996 258.733 828.013C259.69 827.03 260.228 825.697 260.228 824.307V824.307C260.23 823.151 259.859 822.028 259.171 821.113C258.483 820.198 257.518 819.545 256.429 819.256Z" fill="#6C72FC"/>
<path d="M286.022 819.066C285.013 819.066 284.026 819.374 283.187 819.95C282.348 820.525 281.694 821.344 281.308 822.302C280.922 823.259 280.821 824.313 281.018 825.33C281.215 826.346 281.701 827.28 282.414 828.013C283.128 828.746 284.037 829.245 285.026 829.448C286.016 829.65 287.042 829.546 287.974 829.149C288.906 828.753 289.703 828.081 290.263 827.219C290.824 826.357 291.123 825.344 291.123 824.307C291.123 822.917 290.586 821.584 289.629 820.601C288.672 819.618 287.375 819.066 286.022 819.066V819.066ZM286.022 828.789C285.159 828.791 284.315 828.53 283.597 828.039C282.878 827.548 282.318 826.849 281.986 826.031C281.654 825.213 281.566 824.312 281.732 823.442C281.899 822.573 282.313 821.773 282.921 821.145C283.53 820.517 284.306 820.089 285.152 819.914C285.998 819.739 286.875 819.826 287.673 820.163C288.471 820.501 289.153 821.074 289.634 821.81C290.115 822.546 290.373 823.411 290.374 824.298V824.298C290.374 825.486 289.916 826.625 289.101 827.467C288.285 828.308 287.178 828.784 286.022 828.789V828.789Z" fill="#6C72FC"/>
<path d="M316.908 819.066C315.899 819.066 314.913 819.374 314.074 819.95C313.235 820.525 312.581 821.344 312.195 822.302C311.809 823.259 311.708 824.313 311.904 825.33C312.101 826.346 312.587 827.28 313.301 828.013C314.014 828.746 314.923 829.245 315.913 829.448C316.902 829.65 317.928 829.546 318.86 829.149C319.792 828.753 320.589 828.081 321.15 827.219C321.71 826.357 322.009 825.344 322.009 824.307C322.009 822.917 321.472 821.584 320.515 820.601C319.559 819.618 318.261 819.066 316.908 819.066ZM316.908 828.789C316.045 828.789 315.202 828.526 314.484 828.033C313.767 827.541 313.208 826.841 312.878 826.022C312.548 825.203 312.461 824.302 312.63 823.433C312.798 822.564 313.213 821.765 313.823 821.138C314.433 820.512 315.211 820.085 316.057 819.912C316.903 819.739 317.78 819.828 318.577 820.167C319.374 820.506 320.056 821.081 320.535 821.817C321.014 822.554 321.27 823.421 321.27 824.307V824.307C321.265 825.494 320.804 826.631 319.987 827.471C319.17 828.31 318.063 828.784 316.908 828.789V828.789Z" fill="#6C72FC"/>
<path d="M347.785 819.066C346.776 819.066 345.79 819.374 344.951 819.95C344.112 820.525 343.458 821.344 343.072 822.302C342.686 823.259 342.585 824.313 342.782 825.33C342.978 826.346 343.464 827.28 344.178 828.013C344.891 828.746 345.8 829.245 346.79 829.448C347.779 829.65 348.805 829.546 349.737 829.149C350.67 828.753 351.466 828.081 352.027 827.219C352.587 826.357 352.887 825.344 352.887 824.307C352.887 822.917 352.349 821.584 351.392 820.601C350.436 819.618 349.138 819.066 347.785 819.066V819.066ZM347.785 828.789C346.922 828.789 346.079 828.526 345.362 828.033C344.644 827.541 344.085 826.841 343.755 826.022C343.425 825.203 343.338 824.302 343.507 823.433C343.675 822.564 344.09 821.765 344.701 821.138C345.311 820.512 346.088 820.085 346.934 819.912C347.78 819.739 348.657 819.828 349.454 820.167C350.251 820.506 350.933 821.081 351.412 821.817C351.891 822.554 352.147 823.421 352.147 824.307V824.307C352.142 825.494 351.681 826.631 350.864 827.471C350.047 828.31 348.94 828.784 347.785 828.789V828.789Z" fill="#6C72FC"/>
<path d="M378.69 819.066C377.681 819.066 376.695 819.374 375.856 819.95C375.017 820.525 374.363 821.344 373.977 822.302C373.591 823.259 373.489 824.313 373.686 825.33C373.883 826.346 374.369 827.28 375.082 828.013C375.796 828.746 376.705 829.245 377.695 829.448C378.684 829.65 379.71 829.546 380.642 829.149C381.574 828.753 382.371 828.081 382.932 827.219C383.492 826.357 383.791 825.344 383.791 824.307C383.791 822.917 383.254 821.584 382.297 820.601C381.34 819.618 380.043 819.066 378.69 819.066V819.066ZM378.69 828.789C377.827 828.791 376.983 828.53 376.265 828.039C375.546 827.548 374.986 826.849 374.654 826.031C374.322 825.213 374.234 824.312 374.4 823.442C374.567 822.573 374.981 821.773 375.59 821.145C376.198 820.517 376.975 820.089 377.821 819.914C378.666 819.739 379.544 819.826 380.341 820.163C381.139 820.501 381.822 821.074 382.302 821.81C382.783 822.546 383.041 823.411 383.043 824.298V824.298C383.043 825.486 382.585 826.625 381.769 827.467C380.953 828.308 379.846 828.784 378.69 828.789V828.789Z" fill="#6C72FC"/>
<path d="M270.569 794.599C269.56 794.599 268.574 794.906 267.735 795.482C266.896 796.058 266.242 796.877 265.856 797.834C265.47 798.792 265.369 799.846 265.566 800.862C265.763 801.879 266.248 802.813 266.962 803.546C267.675 804.279 268.584 804.778 269.574 804.98C270.564 805.182 271.589 805.079 272.521 804.682C273.454 804.285 274.25 803.613 274.811 802.752C275.371 801.89 275.671 800.876 275.671 799.84C275.671 798.45 275.133 797.117 274.176 796.134C273.22 795.151 271.922 794.599 270.569 794.599V794.599ZM270.569 804.321C269.706 804.321 268.863 804.058 268.146 803.566C267.428 803.074 266.869 802.374 266.539 801.555C266.209 800.736 266.122 799.835 266.291 798.966C266.459 798.096 266.875 797.298 267.485 796.671C268.095 796.044 268.872 795.617 269.718 795.444C270.564 795.272 271.441 795.36 272.238 795.7C273.036 796.039 273.717 796.613 274.196 797.35C274.675 798.087 274.931 798.954 274.931 799.84V799.84C274.912 801.019 274.445 802.143 273.63 802.973C272.815 803.803 271.717 804.274 270.569 804.283V804.321Z" fill="#6C72FC"/>
<path d="M301.465 794.599C300.456 794.599 299.469 794.906 298.63 795.482C297.792 796.058 297.138 796.877 296.752 797.834C296.365 798.792 296.264 799.846 296.461 800.862C296.658 801.879 297.144 802.813 297.857 803.546C298.571 804.279 299.48 804.778 300.469 804.98C301.459 805.182 302.485 805.079 303.417 804.682C304.349 804.285 305.146 803.613 305.707 802.752C306.267 801.89 306.566 800.876 306.566 799.84C306.566 798.45 306.029 797.117 305.072 796.134C304.115 795.151 302.818 794.599 301.465 794.599V794.599ZM301.465 804.321C300.602 804.323 299.758 804.062 299.04 803.571C298.321 803.08 297.761 802.382 297.429 801.564C297.097 800.745 297.009 799.845 297.175 798.975C297.342 798.105 297.756 797.306 298.364 796.678C298.973 796.05 299.75 795.621 300.595 795.446C301.441 795.272 302.319 795.358 303.116 795.696C303.914 796.033 304.597 796.606 305.077 797.342C305.558 798.078 305.816 798.944 305.818 799.83V799.83C305.801 801.008 305.336 802.133 304.522 802.963C303.709 803.794 302.611 804.264 301.465 804.274V804.321Z" fill="#6C72FC"/>
<path d="M332.351 794.599C331.342 794.599 330.356 794.906 329.517 795.482C328.678 796.058 328.024 796.877 327.638 797.834C327.252 798.792 327.151 799.846 327.348 800.862C327.544 801.879 328.03 802.813 328.744 803.546C329.457 804.279 330.366 804.778 331.356 804.98C332.345 805.182 333.371 805.079 334.303 804.682C335.236 804.285 336.032 803.613 336.593 802.752C337.153 801.89 337.453 800.876 337.453 799.84C337.453 798.45 336.915 797.117 335.958 796.134C335.002 795.151 333.704 794.599 332.351 794.599V794.599ZM332.351 804.321C331.488 804.321 330.645 804.058 329.928 803.566C329.21 803.074 328.651 802.374 328.321 801.555C327.991 800.736 327.904 799.835 328.073 798.966C328.241 798.096 328.657 797.298 329.267 796.671C329.877 796.044 330.654 795.617 331.5 795.444C332.346 795.272 333.223 795.36 334.02 795.7C334.817 796.039 335.499 796.613 335.978 797.35C336.457 798.087 336.713 798.954 336.713 799.84V799.84C336.694 801.019 336.227 802.143 335.412 802.973C334.597 803.803 333.499 804.274 332.351 804.283V804.321Z" fill="#6C72FC"/>
<path d="M363.237 794.599C362.228 794.599 361.242 794.906 360.403 795.482C359.564 796.058 358.91 796.877 358.524 797.834C358.138 798.792 358.037 799.846 358.234 800.862C358.431 801.879 358.917 802.813 359.63 803.546C360.344 804.279 361.253 804.778 362.242 804.98C363.232 805.182 364.258 805.079 365.19 804.682C366.122 804.285 366.919 803.613 367.479 802.752C368.04 801.89 368.339 800.876 368.339 799.84C368.339 798.45 367.801 797.117 366.845 796.134C365.888 795.151 364.59 794.599 363.237 794.599V794.599ZM363.237 804.321C362.375 804.321 361.531 804.058 360.814 803.566C360.097 803.074 359.538 802.374 359.207 801.555C358.877 800.736 358.791 799.835 358.959 798.966C359.127 798.096 359.543 797.298 360.153 796.671C360.763 796.044 361.54 795.617 362.386 795.444C363.233 795.272 364.11 795.36 364.907 795.7C365.704 796.039 366.385 796.613 366.864 797.35C367.344 798.087 367.6 798.954 367.6 799.84V799.84C367.58 801.019 367.113 802.143 366.299 802.973C365.484 803.803 364.385 804.274 363.237 804.283V804.321Z" fill="#6C72FC"/>
<path d="M270.569 843.211C269.436 843.215 268.336 843.606 267.442 844.323C266.549 845.04 265.913 846.041 265.634 847.17L266.355 847.426C266.595 846.356 267.211 845.414 268.084 844.781C268.958 844.148 270.028 843.868 271.09 843.995C272.152 844.122 273.131 844.647 273.839 845.469C274.548 846.292 274.937 847.353 274.931 848.452C274.94 849.086 274.803 849.713 274.534 850.284C274.793 850.36 275.024 850.427 275.282 850.522C275.541 849.864 275.672 849.161 275.671 848.452C275.671 847.062 275.133 845.729 274.176 844.746C273.22 843.763 271.922 843.211 270.569 843.211V843.211Z" fill="#6C72FC"/>
<path d="M301.465 843.211C300.456 843.211 299.469 843.518 298.63 844.094C297.792 844.67 297.138 845.488 296.752 846.446C296.365 847.404 296.264 848.458 296.461 849.474C296.658 850.491 297.144 851.425 297.857 852.158C298.571 852.891 299.48 853.39 300.469 853.592C301.459 853.794 302.485 853.69 303.417 853.294C304.349 852.897 305.146 852.225 305.707 851.363C306.267 850.502 306.566 849.488 306.566 848.452C306.566 847.062 306.029 845.729 305.072 844.746C304.115 843.763 302.818 843.211 301.465 843.211V843.211ZM301.465 852.933C300.602 852.935 299.758 852.674 299.04 852.183C298.321 851.692 297.761 850.994 297.429 850.175C297.097 849.357 297.009 848.456 297.175 847.587C297.342 846.717 297.756 845.918 298.364 845.29C298.973 844.662 299.75 844.233 300.595 844.058C301.441 843.884 302.319 843.97 303.116 844.308C303.914 844.645 304.597 845.218 305.077 845.954C305.558 846.69 305.816 847.556 305.818 848.442V848.442C305.806 849.622 305.342 850.749 304.528 851.58C303.713 852.412 302.613 852.881 301.465 852.886V852.933Z" fill="#6C72FC"/>
<path d="M332.351 843.211C331.342 843.211 330.356 843.518 329.517 844.094C328.678 844.67 328.024 845.488 327.638 846.446C327.252 847.404 327.151 848.458 327.348 849.474C327.544 850.491 328.03 851.425 328.744 852.158C329.457 852.891 330.366 853.39 331.356 853.592C332.345 853.794 333.371 853.69 334.303 853.294C335.236 852.897 336.032 852.225 336.593 851.363C337.153 850.502 337.453 849.488 337.453 848.452C337.453 847.062 336.915 845.729 335.958 844.746C335.002 843.763 333.704 843.211 332.351 843.211V843.211ZM332.351 852.933C331.488 852.933 330.645 852.67 329.928 852.178C329.21 851.685 328.651 850.986 328.321 850.167C327.991 849.348 327.904 848.447 328.073 847.577C328.241 846.708 328.657 845.91 329.267 845.283C329.877 844.656 330.654 844.229 331.5 844.056C332.346 843.884 333.223 843.972 334.02 844.311C334.817 844.651 335.499 845.225 335.978 845.962C336.457 846.699 336.713 847.565 336.713 848.452V848.452C336.701 849.633 336.236 850.762 335.42 851.593C334.603 852.425 333.501 852.893 332.351 852.895V852.933Z" fill="#6C72FC"/>
<path d="M363.237 843.211C362.228 843.211 361.242 843.518 360.403 844.094C359.564 844.67 358.91 845.488 358.524 846.446C358.138 847.404 358.037 848.458 358.234 849.474C358.431 850.491 358.917 851.425 359.63 852.158C360.344 852.891 361.253 853.39 362.242 853.592C363.232 853.794 364.258 853.69 365.19 853.294C366.122 852.897 366.919 852.225 367.479 851.363C368.04 850.502 368.339 849.488 368.339 848.452C368.339 847.062 367.801 845.729 366.845 844.746C365.888 843.763 364.59 843.211 363.237 843.211V843.211ZM363.237 852.933C362.375 852.933 361.531 852.67 360.814 852.178C360.097 851.685 359.538 850.986 359.207 850.167C358.877 849.348 358.791 848.447 358.959 847.577C359.127 846.708 359.543 845.91 360.153 845.283C360.763 844.656 361.54 844.229 362.386 844.056C363.233 843.884 364.11 843.972 364.907 844.311C365.704 844.651 366.385 845.225 366.864 845.962C367.344 846.699 367.6 847.565 367.6 848.452C367.587 849.633 367.123 850.762 366.306 851.593C365.49 852.425 364.387 852.893 363.237 852.895V852.933Z" fill="#6C72FC"/>
<path d="M394.133 843.211C393.166 843.211 392.218 843.493 391.4 844.024C390.582 844.555 389.928 845.313 389.512 846.211L390.76 845.622C391.161 845.107 391.67 844.69 392.249 844.404C392.828 844.118 393.463 843.97 394.105 843.97C394.54 843.761 394.937 843.543 395.261 843.382C394.895 843.268 394.515 843.21 394.133 843.211V843.211Z" fill="#6C72FC"/>
<path d="M274.405 741.107C285.775 746.892 297.986 750.74 310.559 752.5C323.105 754.213 335.835 753.892 348.284 751.551C355.235 750.194 362.066 748.254 368.709 745.749C368.73 745.74 368.753 745.736 368.776 745.737C368.798 745.737 368.821 745.742 368.842 745.752C368.863 745.762 368.881 745.776 368.897 745.793C368.912 745.811 368.923 745.832 368.931 745.854C368.943 745.897 368.939 745.943 368.921 745.983C368.902 746.024 368.869 746.055 368.829 746.072C357.461 751.769 344.671 754.741 331.972 755.481C319.035 756.259 306.07 754.572 293.729 750.506C286.888 748.302 280.307 745.321 274.109 741.619C274.058 741.572 274.024 741.509 274.014 741.439C274.004 741.37 274.017 741.299 274.052 741.238C274.087 741.178 274.141 741.132 274.205 741.108C274.27 741.084 274.34 741.083 274.405 741.107Z" fill="#153043"/>
<path d="M327 635.85C318.248 638.699 320.743 648.915 325.429 656.586C330.115 664.258 336.695 669.233 342.582 667.562C348.469 665.891 345.558 656.653 345.558 656.653C345.558 656.653 351.278 662.929 354.365 660.622C357.452 658.314 340.65 631.379 327 635.85Z" fill="white"/>
<path d="M321.27 644.206C322.194 646.275 335.281 658.191 344.874 655.599C347.998 654.754 344.236 637.028 344.236 637.028V635.661L344.403 616.434L317.139 606.057C317.139 606.057 320.882 643.323 321.27 644.206Z" fill="#FFC5C1"/>
<path d="M344.421 616.434L344.245 635.642V637.028C344.245 637.028 344.92 640.237 345.465 643.987C331.843 644.87 323.664 636.002 319.588 629.556C318.451 618.798 317.185 606.047 317.185 606.047L344.421 616.434Z" fill="#071843"/>
<path d="M358.506 572.816C384.891 603.816 369.79 623.555 363.274 629.394C357.369 634.692 336.575 651.972 307.213 623.925C277.852 595.879 283.536 573.481 296.437 560.625C309.339 547.77 332.12 541.807 358.506 572.816Z" fill="#FFC5C1"/>
<path d="M352.979 574.203C352.167 574.652 351.331 575.055 350.474 575.408C349.655 575.962 348.68 576.222 347.702 576.149C347.397 576.066 347.127 575.881 346.936 575.623C346.746 575.365 346.644 575.049 346.648 574.725C346.743 574.083 347.005 573.479 347.407 572.977C347.809 572.476 348.336 572.095 348.931 571.876C350.056 571.233 351.375 571.047 352.628 571.354C353.015 571.473 353.341 571.744 353.535 572.109C353.729 572.473 353.775 572.902 353.663 573.301C353.554 573.679 353.31 574.002 352.979 574.203V574.203Z" fill="#071843"/>
<path d="M332.074 592.157C332.726 591.475 333.343 590.759 333.922 590.011C334.664 589.346 335.171 588.448 335.364 587.457C335.368 587.133 335.267 586.817 335.076 586.559C334.885 586.3 334.616 586.115 334.31 586.033C332.989 585.748 331.908 586.555 331.039 587.514C330.135 588.462 329.605 589.72 329.551 591.046C329.555 591.254 329.601 591.459 329.685 591.649C329.768 591.839 329.888 592.009 330.038 592.15C330.187 592.291 330.362 592.4 330.553 592.47C330.744 592.539 330.947 592.568 331.15 592.556C331.494 592.537 331.82 592.396 332.074 592.157V592.157Z" fill="#071843"/>
<path d="M353.543 613.054C354.467 613.235 355.474 613.614 356.315 613.121C357.152 612.528 357.855 611.757 358.376 610.861C358.384 610.853 358.393 610.846 358.404 610.841C358.414 610.837 358.425 610.835 358.436 610.835C358.448 610.835 358.459 610.837 358.469 610.841C358.479 610.846 358.489 610.853 358.496 610.861C358.517 610.867 358.534 610.882 358.545 610.902C358.555 610.921 358.558 610.944 358.552 610.965C358.522 611.645 358.315 612.304 357.953 612.874C357.59 613.444 357.085 613.903 356.491 614.203C355.947 614.396 355.36 614.419 354.804 614.268C354.248 614.118 353.748 613.801 353.367 613.358C353.275 613.197 353.413 613.035 353.543 613.054Z" fill="#071843"/>
<path d="M356.74 597.91C356.74 597.91 359.642 600.911 360.798 602.487C360.899 602.639 360.585 603 360.086 603.436C360.086 603.436 360.086 603.484 360.021 603.484C358.883 604.751 357.427 605.671 355.813 606.143C354.199 606.616 352.489 606.622 350.872 606.161C350.659 606.095 350.733 605.781 350.946 605.772C354.088 605.772 356.62 604.395 359.051 602.582C358.838 602.06 353.875 597.55 354.153 597.407C355.299 596.79 357.443 595.869 358.238 595.508C356.389 593.514 350.9 588.122 347.554 584.485C347.341 584.267 347.656 583.897 347.877 584.077C352.433 587.636 356.755 591.499 360.816 595.641C361.112 595.974 357.554 597.702 356.74 597.91Z" fill="#071843"/>
<path d="M337.989 598.252C337.991 598.575 337.941 598.896 337.841 599.202C337.769 599.455 337.644 599.689 337.475 599.888C337.306 600.086 337.096 600.244 336.861 600.351C335.401 601.044 333.959 599.942 333.044 598.547C332.98 598.452 332.989 598.357 333.1 598.395C334.098 598.774 335.198 599.126 335.918 598.518C336.359 597.999 336.642 597.359 336.732 596.676C337.094 597.247 337.515 597.775 337.989 598.252V598.252Z" fill="#071843"/>
<path d="M337.064 598.347C336.758 597.645 336.64 596.871 336.722 596.106C336.79 595.691 336.939 595.293 337.16 594.937C337.381 594.582 337.669 594.275 338.007 594.037C338.363 593.806 338.766 593.664 339.185 593.622C339.603 593.579 340.026 593.636 340.419 593.79C341.103 594.063 341.712 594.503 342.194 595.072C342.482 595.41 342.747 595.769 342.988 596.144C343.491 596.925 343.808 597.816 343.913 598.746C343.587 598.157 343.196 597.609 342.748 597.113C342.356 596.656 341.929 596.23 341.473 595.841C340.549 595.062 339.43 594.606 338.7 595.185C338.319 595.533 338.05 595.992 337.929 596.501C337.809 597.01 337.842 597.545 338.026 598.034C338.38 599.28 338.856 600.486 339.449 601.632C338.411 600.747 337.594 599.621 337.064 598.347V598.347Z" fill="#071843"/>
<path d="M357.544 582.282C357.847 582.358 358.16 582.377 358.469 582.339C358.715 582.321 358.955 582.246 359.171 582.122C359.387 581.997 359.573 581.825 359.716 581.618C360.64 580.317 359.873 578.665 358.792 577.469C358.718 577.383 358.626 577.374 358.644 577.469C358.811 578.532 358.931 579.7 358.228 580.317C357.668 580.648 357.023 580.793 356.38 580.735C356.822 581.206 357.212 581.725 357.544 582.282V582.282Z" fill="#071843"/>
<path d="M357.563 581.399C356.989 580.937 356.301 580.648 355.576 580.564C355.18 580.532 354.782 580.587 354.409 580.726C354.036 580.865 353.697 581.085 353.413 581.371C353.13 581.675 352.918 582.042 352.794 582.444C352.671 582.846 352.639 583.271 352.702 583.688C352.833 584.419 353.116 585.112 353.533 585.719C353.783 586.081 354.061 586.421 354.365 586.735C354.974 587.408 355.727 587.925 356.565 588.245C356.094 587.79 355.67 587.288 355.299 586.745C354.949 586.257 354.639 585.739 354.375 585.197C353.838 584.096 353.644 582.928 354.31 582.349C354.714 582.051 355.199 581.89 355.696 581.89C356.194 581.89 356.678 582.051 357.082 582.349C358.164 582.975 359.183 583.709 360.123 584.542C359.52 583.303 358.644 582.227 357.563 581.399V581.399Z" fill="#071843"/>
<path d="M314.015 630.087C318.433 621.001 312.777 612.997 312.777 612.997C316.437 605.955 318.165 598.022 317.777 590.049C318.091 590.922 320.374 597.16 321.473 600.37C338.82 580.384 332.619 559.059 332.619 559.059C344.532 560.806 349.254 564.195 351.888 565.658C351.888 565.658 342 552.413 328.848 548.662C312.749 544.067 303.563 554.53 303.563 554.53C297.549 557.179 292.374 561.499 288.619 567.003C284.864 572.508 282.678 578.98 282.306 585.691C280.624 611.174 314.015 630.087 314.015 630.087Z" fill="#071843"/>
<path d="M334.236 584.628C332.397 589.069 329.903 593.194 326.843 596.856V596.856C331.335 590.681 334.016 583.315 334.569 575.627C334.793 572.313 334.613 568.983 334.033 565.715C333.423 562.277 332.425 558.404 330.512 555.432C330.486 555.386 330.477 555.331 330.487 555.279C330.497 555.226 330.526 555.179 330.567 555.147C330.613 555.119 330.667 555.11 330.719 555.122C330.771 555.135 330.816 555.167 330.845 555.214C332.869 558.356 334.708 561.271 335.678 564.917C336.602 568.377 336.899 571.981 336.556 575.551C336.225 578.686 335.456 581.755 334.273 584.666L334.236 584.628Z" fill="#071843"/>
<path d="M314.034 621.989C314.034 621.989 299.579 616.928 296.844 622.938C294.108 628.948 310.124 640.028 316.973 638.034C317.844 637.847 318.672 637.485 319.407 636.968C320.143 636.452 320.772 635.792 321.258 635.025C321.745 634.259 322.08 633.402 322.244 632.502C322.407 631.603 322.397 630.679 322.213 629.784C322.197 629.684 322.175 629.586 322.148 629.489L314.034 621.989Z" fill="#FFC5C1"/>
<path d="M301.511 626.014C301.494 626.032 301.485 626.056 301.485 626.081C301.485 626.105 301.494 626.129 301.511 626.147C301.527 626.155 301.544 626.16 301.562 626.16C301.579 626.16 301.597 626.155 301.613 626.147C306.502 624.884 311.049 626.983 315.097 629.66C312.952 629.071 310.864 629.432 309.977 632.214C309.93 632.357 310.134 632.442 310.226 632.338C310.734 631.624 311.445 631.089 312.261 630.807C313.077 630.524 313.957 630.509 314.782 630.761C316.161 631.195 317.491 631.781 318.747 632.508C319.172 632.717 319.671 632.081 319.237 631.777L319.144 631.711C315.688 626.736 307.028 622.634 301.511 626.014Z" fill="#071843"/>
<path d="M328.423 682.326C352.046 695.362 398.449 716.886 410.75 712.709C435.509 704.306 459.898 665.132 465.545 653.634C468.188 648.241 436.045 619.71 431.202 623.811C425.916 628.283 398.237 669.053 392.691 669.385C387.996 669.67 358.718 664.638 336.205 661.182C307.805 656.862 308.424 671.303 328.423 682.326Z" fill="#FFC5C1"/>
<path d="M422.404 635.594C422.404 635.594 426.72 617.441 430.084 605.715C431.932 599.173 436.165 588.245 439.677 584.086C444.945 577.858 470.841 555.29 476.303 561.622C481.247 567.319 456.608 583.84 456.608 583.84C456.608 583.84 480.036 564.945 484.759 572.978C489.482 581.01 459.224 595.822 459.224 595.822C459.224 595.822 483.724 576.965 487.31 586.033C490.027 592.888 463.364 607.87 463.364 607.87C463.364 607.87 484.528 591.805 487.615 598.736C491.025 606.332 467.283 621.827 467.283 621.827C472.245 640.816 467.061 651.887 462.458 659.34C461.312 661.172 422.404 635.594 422.404 635.594Z" fill="#FFC5C1"/>
<path d="M449.224 588.986C465.453 573.718 477.966 571.335 477.643 571.468C470.092 574.592 459.713 581.846 456.848 583.916C453.984 585.985 452.163 587.039 449.298 589.1C449.224 589.156 449.168 589.043 449.224 588.986Z" fill="#2F351A"/>
<path d="M455.176 600.616C462.403 592.869 472.966 586.602 476.931 585.026C477.255 584.903 477.227 585.026 476.931 585.264C473.234 587.799 458.808 598.005 455.231 600.702C455.176 600.749 455.129 600.664 455.176 600.616Z" fill="#2F351A"/>
<path d="M459.612 610.975C466.58 604.557 470.332 602.43 476.802 599.42C477.116 599.278 477.07 599.543 476.802 599.733C471.016 603.465 466.451 606.38 459.797 611.127C459.695 611.241 459.538 611.079 459.612 610.975Z" fill="#2F351A"/>
<path d="M365.603 661.22L358.774 700.556C358.774 700.556 330.031 687.263 317.851 674.56C305.67 661.856 313.174 657.773 325.937 657.735C338.7 657.697 365.603 661.22 365.603 661.22Z" fill="#355F81"/>
<path d="M316.908 673.259H316.677C316.908 673.515 317.139 673.781 317.416 674.066C318.34 674.17 319.205 674.579 319.883 675.231C320.561 675.883 321.015 676.744 321.178 677.683C321.455 677.921 321.732 678.168 322.009 678.376C321.98 677.007 321.43 675.704 320.476 674.747C319.522 673.79 318.241 673.256 316.908 673.259V673.259Z" fill="#6C72FC"/>
<path d="M347.785 673.259C346.776 673.259 345.79 673.566 344.951 674.142C344.112 674.718 343.458 675.537 343.072 676.494C342.686 677.452 342.585 678.506 342.782 679.522C342.978 680.539 343.464 681.473 344.178 682.206C344.891 682.939 345.8 683.438 346.79 683.64C347.779 683.842 348.805 683.739 349.737 683.342C350.67 682.945 351.466 682.273 352.027 681.412C352.587 680.55 352.887 679.536 352.887 678.5C352.887 677.11 352.349 675.777 351.392 674.794C350.436 673.811 349.138 673.259 347.785 673.259V673.259ZM347.785 682.972C346.922 682.972 346.079 682.709 345.362 682.216C344.644 681.724 344.085 681.024 343.755 680.205C343.425 679.386 343.338 678.485 343.507 677.616C343.675 676.747 344.09 675.948 344.701 675.322C345.311 674.695 346.088 674.268 346.934 674.095C347.78 673.922 348.657 674.011 349.454 674.35C350.251 674.689 350.933 675.264 351.412 676.001C351.891 676.738 352.147 677.604 352.147 678.49V678.49C352.145 679.68 351.685 680.82 350.868 681.663C350.051 682.506 348.943 682.983 347.785 682.991V682.972Z" fill="#6C72FC"/>
<path d="M334.255 658.068C333.667 658.38 333.014 658.543 332.351 658.542C331.548 658.544 330.76 658.313 330.078 657.878H328.802C329.747 658.838 331.022 659.378 332.351 659.378C333.511 659.381 334.635 658.968 335.53 658.21C335.115 658.093 334.685 658.044 334.255 658.068V658.068Z" fill="#6C72FC"/>
<path d="M358.607 700.489L358.762 700.565L358.854 699.986C358.755 700.145 358.673 700.313 358.607 700.489Z" fill="#6C72FC"/>
<path d="M358.69 663.052C358.69 662.796 358.912 662.739 358.885 662.995C357.286 675.965 354.578 690.767 353.016 695.989C353.016 696.074 352.887 695.989 352.887 695.989C353.182 690.444 358.247 665.901 358.69 663.052Z" fill="#153043"/>
<path d="M335.881 657.944C345.863 658.732 356.343 659.843 366.075 660.964C365.825 662.546 365.474 664.11 365.021 665.644C364.947 665.901 364.716 665.749 364.753 665.492C364.864 664.856 365.326 662.331 365.345 661.695C355.502 660.603 345.669 659.492 335.872 658.096C335.771 658.068 335.771 657.935 335.881 657.944Z" fill="#153043"/>
<path d="M327.776 684.339C328.821 684.738 329.828 685.165 330.835 685.649L331.575 686.01C328.969 684.111 326.436 682.098 324.006 679.943C323.886 679.848 324.052 679.687 324.163 679.772C329.66 683.818 335.387 687.521 341.316 690.862C344.199 692.523 347.129 694.099 350.04 695.704C351.469 696.495 352.902 697.274 354.338 698.04C355.752 698.744 357.128 699.527 358.459 700.385C358.672 699.435 358.894 698.486 359.069 697.536C359.069 697.384 359.356 697.413 359.337 697.536C359.236 698.695 359.19 699.844 359.125 701.011C359.122 701.066 359.11 701.12 359.087 701.17C359.064 701.22 359.032 701.264 358.993 701.301C358.953 701.338 358.907 701.367 358.857 701.386C358.807 701.404 358.753 701.413 358.7 701.41H358.626C355.493 700.404 352.489 698.562 349.569 697.005C346.491 695.4 343.478 693.691 340.512 691.916C337.961 690.406 335.503 688.782 333.118 687.083C331.27 686.285 329.421 685.497 327.684 684.529C327.582 684.5 327.647 684.292 327.776 684.339Z" fill="#153043"/>
</g>
<defs>
<clipPath id="clip0_1_257">
<rect width="884.803" height="767.19" fill="white" transform="matrix(0.786679 0.617362 -0.595607 0.803276 456.944 -168)"/>
</clipPath>
<clipPath id="clip1_1_257">
<rect width="402.234" height="798.157" fill="white" transform="translate(174.343 236.843)"/>
</clipPath>
</defs>
</svg>
