<svg width="28" height="28" viewBox="0 0 28 28" fill="none" xmlns="http://www.w3.org/2000/svg">
<path fill-rule="evenodd" clip-rule="evenodd" d="M0 14C0 21.732 6.26803 28 14 28C21.732 28 28 21.732 28 14C28 6.26803 21.732 0 14 0C6.26803 0 0 6.26803 0 14ZM22.7862 13.4642C22.7844 18.0532 19.0514 21.7871 14.4615 21.789H14.458C13.0647 21.7885 11.6957 21.4389 10.4798 20.7757L6.06667 21.9333L7.24768 17.6195C6.51916 16.357 6.13585 14.9249 6.13643 13.4576C6.1383 8.86766 9.8728 5.13333 14.4614 5.13333C16.6883 5.1343 18.7785 6.00128 20.3503 7.57482C21.922 9.1483 22.7872 11.2398 22.7862 13.4642Z" fill="#5A3D8A"/>
<path fill-rule="evenodd" clip-rule="evenodd" d="M8.06545 19.9557L10.6843 19.2688L10.9369 19.4187C11.9993 20.0491 13.217 20.3827 14.4587 20.3832H14.4615C18.2752 20.3832 21.3791 17.2792 21.3807 13.4639C21.3814 11.615 20.6624 9.87663 19.356 8.56873C18.0496 7.26084 16.3123 6.54019 14.4642 6.53955C10.6475 6.53955 7.54354 9.64329 7.54202 13.4583C7.5415 14.7657 7.90731 16.039 8.59996 17.1406L8.76446 17.4024L8.06545 19.9557ZM18.3706 15.2567C18.5156 15.3268 18.6136 15.3741 18.6555 15.444C18.7074 15.5307 18.7074 15.9472 18.5342 16.4332C18.3608 16.919 17.5298 17.3625 17.1301 17.4222C16.7718 17.4758 16.3183 17.4981 15.82 17.3397C15.5178 17.2439 15.1304 17.1159 14.6341 16.9016C12.6841 16.0596 11.3662 14.1696 11.1172 13.8123C11.0998 13.7873 11.0875 13.7698 11.0808 13.7608L11.0791 13.7585C10.969 13.6116 10.2314 12.6275 10.2314 11.609C10.2314 10.6508 10.7021 10.1486 10.9187 9.9174C10.9335 9.90159 10.9472 9.88701 10.9594 9.87365C11.1501 9.6654 11.3755 9.61337 11.5141 9.61337C11.6528 9.61337 11.7915 9.61465 11.9128 9.62072C11.9277 9.62148 11.9433 9.62136 11.9594 9.6213C12.0806 9.62054 12.2317 9.61967 12.3808 9.97778C12.4381 10.1156 12.5221 10.3199 12.6105 10.5353C12.7895 10.9711 12.9873 11.4526 13.0221 11.5223C13.0741 11.6264 13.1088 11.7478 13.0394 11.8867C13.029 11.9076 13.0194 11.9272 13.0102 11.9459C12.9582 12.0523 12.9198 12.1305 12.8315 12.2337C12.7967 12.2743 12.7608 12.3181 12.7248 12.3617C12.6533 12.4489 12.5817 12.536 12.5194 12.5981C12.4153 12.7018 12.3069 12.8144 12.4282 13.0227C12.5495 13.2309 12.967 13.912 13.5854 14.4636C14.2501 15.0565 14.8279 15.3071 15.1207 15.4342C15.1779 15.459 15.2242 15.479 15.2582 15.4961C15.4661 15.6002 15.5875 15.5828 15.7088 15.444C15.8301 15.3052 16.2288 14.8366 16.3674 14.6283C16.506 14.4202 16.6448 14.4549 16.8355 14.5243C17.0261 14.5938 18.0488 15.0969 18.2568 15.201C18.2974 15.2214 18.3354 15.2397 18.3706 15.2567Z" fill="#5A3D8A"/>
</svg>
